<?xml version="1.0" encoding="UTF-8" standalone="no"?>
<!-- Generator: Adobe Illustrator 19.0.0, SVG Export Plug-In . SVG Version: 6.00 Build 0)  -->

<svg
   xmlns:dc="http://purl.org/dc/elements/1.1/"
   xmlns:cc="http://creativecommons.org/ns#"
   xmlns:rdf="http://www.w3.org/1999/02/22-rdf-syntax-ns#"
   xmlns:svg="http://www.w3.org/2000/svg"
   xmlns="http://www.w3.org/2000/svg"
   xmlns:sodipodi="http://sodipodi.sourceforge.net/DTD/sodipodi-0.dtd"
   xmlns:inkscape="http://www.inkscape.org/namespaces/inkscape"
   version="1.1"
   id="Capa_1"
   x="0px"
   y="0px"
   viewBox="0 0 512 512"
   style="enable-background:new 0 0 512 512;"
   xml:space="preserve"
   inkscape:version="0.91 r13725"
   sodipodi:docname="color-picker.svg"><metadata
     id="metadata4668"><rdf:RDF><cc:Work
         rdf:about=""><dc:format>image/svg+xml</dc:format><dc:type
           rdf:resource="http://purl.org/dc/dcmitype/StillImage" /></cc:Work></rdf:RDF></metadata><defs
     id="defs4666" /><sodipodi:namedview
     pagecolor="#ffffff"
     bordercolor="#666666"
     borderopacity="1"
     objecttolerance="10"
     gridtolerance="10"
     guidetolerance="10"
     inkscape:pageopacity="0"
     inkscape:pageshadow="2"
     inkscape:window-width="1215"
     inkscape:window-height="1000"
     id="namedview4664"
     showgrid="false"
     inkscape:zoom="1.4140625"
     inkscape:cx="256"
     inkscape:cy="256"
     inkscape:window-x="1985"
     inkscape:window-y="384"
     inkscape:window-maximized="1"
     inkscape:current-layer="Capa_1" /><path
     style="fill:#b3b3b3"
     d="M223.316,381.988c0.802,43.016-26.503,79.892-64.746,93.458c-2.798,0.992-36.645-1.257-41.51-4.407  c-31.299-20.266-57.892-47.18-77.782-78.744c-1.946-3.088-9.092-18.557-8.619-23.429c0.515-5.309,1.219-11.34,1.681-10.333  c11.354-42.071,50.322-72.925,96.174-71.839C180.277,287.921,222.351,330.219,223.316,381.988z M256,0  C148.567,0,56.603,66.184,18.627,160c0,0,11.622-1.878,12.033-2.813c30.082-12.705,61.857-19.18,94.538-19.256  c0.275,0.023,0.555,0.035,0.837,0.035c42.972,0,85.237,11.237,122.29,32.507c0.229,0.159,0.465,0.309,0.71,0.45  c37.214,21.485,68.2,52.354,89.655,89.302c0.118,0.25,0.247,0.497,0.388,0.74c21.485,37.215,32.886,79.439,32.991,122.164  c-0.022,0.276-0.034,0.555-0.034,0.836c0,34.417-6.953,67.652-20.673,98.851c-0.451,0.19-1.362,11.374-1.362,11.374  C444.876,456.716,512,364.198,512,256C512,114.615,397.385,0,256,0z"
     id="path4606" /><path
     style="fill:#333333"
     d="M293.414,295.963c19.676,34.08,29.004,71.292,28.969,108.004h-0.03  c0,32.067-6.993,62.499-19.53,89.861c-8.073,3.548-145.967,1.388-178.94-18.518c32.205-7.828,56.122-36.84,56.122-71.454  c0-40.62-32.929-73.55-73.549-73.55c-34.314,0-63.138,23.5-71.26,55.283c-19.044-32.378-19.921-170.162-15.681-179.422  c28.038-12.348,57.592-18.266,86.83-18.238v0.03c39.352,0,76.242,10.528,108.018,28.913l-0.015,0.026  c34.08,19.676,60.764,47.239,79.09,79.049L293.414,295.963z"
     id="path4608" /><path
     style="fill:#F5F0EB;"
     d="M349.665,494.295c-6.653,2.617-13.439,4.97-20.351,7.032l0,0C306.086,508.259,281.481,512,256,512  c-51.624,0-99.669-15.294-139.878-41.579l0,0c3.297,0.378,6.647,0.58,10.045,0.58c48.141,0,87.167-39.026,87.167-87.167  s-39.026-87.167-87.167-87.167S39,335.692,39,383.833c0,2.939,0.148,5.844,0.432,8.708C14.463,353.022,0,306.203,0,256  c0-34.446,6.831-67.288,19.169-97.284c2.464,1.063,5.342,1.148,7.99-0.019c29.522-13.002,60.722-19.955,92.841-20.7  c1.73-0.04,3.463-7.992,5.199-7.996c0.275,0.023,0.555,0.035,0.837,0.035c1.323,0,2.644,7.941,3.965,7.962  c38.42,0.618,76.163,10.209,109.998,27.91c2.803,1.466,9.419-6.059,12.167-4.482c0.229,0.158,0.465,0.309,0.71,0.45  c3.718,2.147,3.535,13.435,7.125,15.765c30.6,19.863,56.444,46.289,75.494,77.239c1.088,1.767,10.95-1.041,11.993,0.756  c0.118,0.25,0.247,0.497,0.388,0.74c1.036,1.794-6.748,8.19-5.759,10.008c18.981,34.877,29.274,73.859,29.922,113.37  c0.018,1.125,9.827,2.25,9.83,3.376c-0.022,0.276-0.034,0.555-0.034,0.836c0,1.319-9.808,2.637-9.829,3.953  c-0.532,34.289-7.996,67.367-22.206,98.38C348.592,488.932,348.635,491.814,349.665,494.295z"
     id="path4610" /><path
     style="fill:#FFAF37;"
     d="M126.035,267.965v-140c46.638,0,90.358,12.477,128.018,34.267l-70.01,121.26  C166.979,273.618,147.168,267.965,126.035,267.965z"
     id="path4612" /><path
     style="fill:#FF9B32;"
     d="M184.035,283.506l70-121.244c40.389,23.319,72.014,55.985,93.733,93.685l-121.26,70.009  C216.666,308.874,202.337,294.072,184.035,283.506z"
     id="path4614" /><path
     style="fill:#FF5F96;"
     d="M226.494,325.965l121.244-70c23.319,40.389,34.373,84.491,34.333,128H242.052  C242.07,364.25,237.061,344.266,226.494,325.965z"
     id="path4616" /><path
     style="fill:#FF4682;"
     d="M242.035,383.965h140c0,38.004-8.288,74.07-23.146,106.499c-9.567,4.204-19.439,7.839-29.576,10.864  l-102.805-59.355C236.382,424.908,242.035,405.097,242.035,383.965z"
     id="path4618" /><path
     style="fill:#D72D73;"
     d="M329.314,501.327C306.086,508.259,281.481,512,256,512c-20.722,0-40.863-2.48-60.158-7.127l0,0l0,0  c-11.572-2.787-22.844-6.344-33.743-10.643c7.489-2.457,14.84-5.708,21.937-9.806l0.023,0.005  c17.077-9.841,31.873-24.168,42.436-42.464L329.314,501.327z"
     id="path4620" /><path
     style="fill:#FFE13C;"
     d="M23.129,149.545c33.229-14.634,68.255-21.648,102.907-21.615v140.019  c-19.715-0.018-39.698,4.99-58,15.557l-57.65-99.853C13.838,171.911,18.104,160.519,23.129,149.545z"
     id="path4622" /><path
     style="fill:#EBE1DC;"
     d="M436,109.609L284.758,260.852c-6.889,6.89-16.953,8.653-25.48,5.314l-21.573,21.573  c-3.712,3.712-9.731,3.712-13.444,0s-3.712-9.731,0-13.444l21.573-21.573c-3.339-8.527-1.575-18.59,5.314-25.48L402.391,76  L436,109.609z"
     id="path4624" /><path
     style="fill:#DCD2CD;"
     d="M237.705,287.739c-3.712,3.712-9.731,3.712-13.444,0s-3.712-9.731,0-13.444l21.573-21.573  c-3.339-8.527-1.575-18.59,5.314-25.48L402.391,76l14,14L265.148,241.242c-6.78,6.78-8.584,16.63-5.459,25.068  c-0.137-0.051-0.276-0.091-0.412-0.145L237.705,287.739z"
     id="path4626" /><path
     style="fill:#FFFF91;"
     d="M68.027,283.492C52.846,292.238,39.467,304.528,29.26,320c-0.345,0.523-1.824,2.805-3.816,5.889  l0.118,0.068c-3.687,6.372-6.784,13.128-9.22,20.192c-3.202-8.507-5.961-17.23-8.256-26.141c0-0.001-0.007-0.008-0.007-0.008  c-0.036-0.14-1.988-8.261-2.362-10C1.974,292.592,0,274.527,0,256c0-25.128,3.637-49.403,10.385-72.347L68.027,283.492z"
     id="path4628" /><path
     style="fill:#FFAF37;"
     d="M445.56,126.252c1.547,5.076,0.197,10.846-4.05,14.712c-5.672,5.162-14.505,4.663-19.928-0.759  l-49.787-49.787c-5.423-5.423-5.922-14.257-0.759-19.928c5.511-6.056,14.894-6.221,20.617-0.498c-5.562-5.562-5.562-14.58,0-20.142  l35.249-35.249c19.467-19.467,51.03-19.467,70.497,0l0,0c19.467,19.467,19.467,51.03,0,70.497l-35.249,35.249  c-3.839,3.839-9.326,5.029-14.185,3.567C446.524,123.481,445.122,124.813,445.56,126.252z"
     id="path4630" /><path
     style="fill:#FF9B32;"
     d="M395.511,114.134l-24-24c-5.562-5.563-5.562-14.58,0-20.143c3.841-3.841,9.331-5.03,14.193-3.565  c1.462,0.441,2.825-0.922,2.385-2.385c-1.465-4.861-0.276-10.351,3.565-14.192l34.644-34.644  c19.452-19.452,51.194-20.19,70.805-0.899c4.356,4.285,7.753,9.171,10.198,14.393c-18.468-8.65-41.146-5.352-56.399,9.901  l-35.249,35.249c-3.476,3.476-4.78,8.303-3.911,12.791c0.389,2.008-1.432,3.829-3.44,3.44c-4.489-0.869-9.315,0.435-12.791,3.911  C389.949,99.554,389.949,108.571,395.511,114.134z"
     id="path4632" /><g
     id="g4634" /><g
     id="g4636" /><g
     id="g4638" /><g
     id="g4640" /><g
     id="g4642" /><g
     id="g4644" /><g
     id="g4646" /><g
     id="g4648" /><g
     id="g4650" /><g
     id="g4652" /><g
     id="g4654" /><g
     id="g4656" /><g
     id="g4658" /><g
     id="g4660" /><g
     id="g4662" /></svg>