<?xml version="1.0" encoding="UTF-8" standalone="no"?>
<!-- Generator: Adobe Illustrator 13.0.0, SVG Export Plug-In . SVG Version: 6.00 Build 14948)  -->

<svg
   xmlns:dc="http://purl.org/dc/elements/1.1/"
   xmlns:cc="http://creativecommons.org/ns#"
   xmlns:rdf="http://www.w3.org/1999/02/22-rdf-syntax-ns#"
   xmlns:svg="http://www.w3.org/2000/svg"
   xmlns="http://www.w3.org/2000/svg"
   xmlns:sodipodi="http://sodipodi.sourceforge.net/DTD/sodipodi-0.dtd"
   xmlns:inkscape="http://www.inkscape.org/namespaces/inkscape"
   version="1.1"
   id="svg2"
   inkscape:version="0.91 r13725"
   sodipodi:docname="repeat-white.svg"
   x="0px"
   y="0px"
   width="1200px"
   height="1200px"
   viewBox="0 0 1200 1200"
   enable-background="new 0 0 1200 1200"
   xml:space="preserve"><metadata
     id="metadata10453"><rdf:RDF><cc:Work
         rdf:about=""><dc:format>image/svg+xml</dc:format><dc:type
           rdf:resource="http://purl.org/dc/dcmitype/StillImage" /><dc:title></dc:title></cc:Work></rdf:RDF></metadata><defs
     id="defs10451" /><sodipodi:namedview
     pagecolor="#ffffff"
     bordercolor="#666666"
     borderopacity="1"
     objecttolerance="10"
     gridtolerance="10"
     guidetolerance="10"
     inkscape:pageopacity="0"
     inkscape:pageshadow="2"
     inkscape:window-width="1855"
     inkscape:window-height="1056"
     id="namedview10449"
     showgrid="false"
     inkscape:zoom="0.19666667"
     inkscape:cx="600"
     inkscape:cy="600"
     inkscape:window-x="65"
     inkscape:window-y="24"
     inkscape:window-maximized="1"
     inkscape:current-layer="svg2" /><path
     id="path18745"
     inkscape:connector-curvature="0"
     d="m 600,50.847458 c -306.09694,0 -554.237288,248.140342 -554.237288,554.237282 0,306.09694 248.140348,554.23726 554.237288,554.23726 205.44745,0 384.63144,-111.8663 480.3574,-277.93057 L 885.23822,769.15006 C 828.36146,867.79784 722.04952,934.36635 600,934.36635 c -181.85726,0 -329.28161,-147.42435 -329.28161,-329.28161 0,-181.85726 147.42435,-329.28161 329.28161,-329.28161 77.9507,0 149.39651,27.2694 205.74119,72.59493 l -145.52701,103.51397 494.02312,164.74149 0,-516.28219 -160.88586,114.47401 C 892.93657,113.61667 753.8498,50.847458 600,50.847458 Z"
     style="fill:#ffffff" /></svg>