<?xml version="1.0" encoding="iso-8859-1"?>
<!-- Generator: Adobe Illustrator 19.0.0, SVG Export Plug-In . SVG Version: 6.00 Build 0)  -->
<svg version="1.1" id="Capa_1" xmlns="http://www.w3.org/2000/svg" xmlns:xlink="http://www.w3.org/1999/xlink" x="0px" y="0px"
	 viewBox="0 0 512 512" style="enable-background:new 0 0 512 512;" xml:space="preserve">
<path style="fill:#8CC4B1;" d="M89.817,481.417c-36.25-13.194-57.918-51.471-67.622-73.143c-3.945-8.81-0.189-19.129,8.496-23.342
	c21.365-10.364,62.567-25.758,98.817-12.565c36.25,13.194,57.918,51.471,67.622,73.143c3.945,8.81,0.189,19.129-8.496,23.342
	C167.269,479.216,126.067,494.609,89.817,481.417z"/>
<path style="opacity:0.1;enable-background:new    ;" d="M135.613,443.839c-0.852,0-1.718-0.146-2.564-0.454l-51.902-18.891
	c-3.893-1.417-5.899-5.721-4.483-9.613c1.417-3.892,5.72-5.901,9.613-4.483l51.902,18.891c3.893,1.417,5.899,5.721,4.483,9.613
	C141.552,441.948,138.676,443.839,135.613,443.839z"/>
<path style="opacity:0.1;enable-background:new    ;" d="M197.13,445.51c-9.704-21.672-31.372-59.949-67.622-73.143
	c-21.632-7.873-45.024-5.564-64.915-0.221c19.937,49.19,46.94,90.307,72.557,113.127c20.557-2.93,39.267-10.493,51.485-16.42
	C197.319,464.639,201.075,454.319,197.13,445.51z"/>
<path style="fill:#A16B4E;" d="M272.414,150.525c-11.826,0-21.412-9.587-21.412-21.412c0-71.346,43.695-121.513,85.937-128.796
	c11.665-2.016,22.731,5.81,24.74,17.463c2.009,11.654-5.81,22.73-17.463,24.739c-21.125,3.643-50.389,35.762-50.389,86.595
	C293.826,140.938,284.239,150.525,272.414,150.525z"/>
<path style="opacity:0.1;enable-background:new    ;" d="M255.717,89.781c-3.017,12.193-4.716,25.348-4.716,39.331
	c0,11.826,9.587,21.412,21.412,21.412s21.412-9.587,21.412-21.412c0-16.531,3.107-31.067,8.01-43.304
	C287.035,91.58,271.059,92.914,255.717,89.781z"/>
<path style="fill:#F15B70;" d="M352.558,93.97c-17.387,0.133-33.968,3.65-49.119,9.924c-20.136,8.338-42.609,8.338-62.745,0
	c-15.15-6.274-31.731-9.791-49.119-9.924c-74.268-0.569-133.257,61.455-132.187,135.717
	c1.664,115.552,66.506,235.352,118.029,266.929v0.001C190.363,506.279,206.423,512,223.819,512c10.943,0,21.354-2.27,30.793-6.359
	c11.099-4.809,23.812-4.809,34.911,0c9.439,4.09,19.849,6.359,30.793,6.359c17.394,0,33.452-5.719,46.397-15.38l0.001-0.002
	c51.524-31.574,116.369-151.376,118.033-266.931C485.815,155.425,426.826,93.401,352.558,93.97z"/>
<g>
	<path style="fill:#FFFFFF;" d="M140.732,156.119c-2.329,0-4.624-1.081-6.09-3.114c-2.422-3.36-1.663-8.047,1.697-10.47
		c5.461-3.938,11.285-7.415,17.308-10.333c3.728-1.805,8.213-0.248,10.02,3.479c1.806,3.728,0.249,8.213-3.479,10.02
		c-5.244,2.541-10.316,5.569-15.076,9.001C143.786,155.658,142.251,156.119,140.732,156.119z"/>
	<path style="fill:#FFFFFF;" d="M94.347,242.129c-0.119,0-0.239-0.002-0.359-0.008c-4.138-0.195-7.333-3.707-7.139-7.845
		c1.237-26.258,10.708-50.816,27.388-71.022c2.637-3.194,7.363-3.648,10.559-1.009c3.194,2.637,3.646,7.364,1.009,10.559
		c-14.6,17.685-22.889,39.186-23.972,62.178C101.643,238.999,98.327,242.129,94.347,242.129z"/>
</g>
<path style="opacity:0.1;enable-background:new    ;" d="M352.558,93.97c-2.409,0.018-4.801,0.108-7.178,0.255
	c55.22,16.66,94.75,69.327,93.873,130.237c-1.664,115.555-66.509,235.357-118.033,266.931l-0.001,0.002
	c-9.324,6.958-20.268,11.856-32.158,14.061c0.153,0.064,0.308,0.119,0.46,0.185c9.439,4.09,19.849,6.359,30.793,6.359
	c17.394,0,33.452-5.719,46.397-15.38l0.001-0.002c51.524-31.574,116.368-151.376,118.033-266.931
	C485.815,155.425,426.826,93.401,352.558,93.97z"/>
<g>
	<path style="fill:#4A5058;" d="M188.553,249.246c-4.142,0-7.5-3.358-7.5-7.5v-14.244c0-4.142,3.358-7.5,7.5-7.5s7.5,3.358,7.5,7.5
		v14.244C196.053,245.888,192.695,249.246,188.553,249.246z"/>
	<path style="fill:#4A5058;" d="M272.067,276.672L272.067,276.672c-13.279,0-24.043-10.764-24.043-24.043v-17.612
		c0-3.543,2.872-6.415,6.415-6.415h35.256c3.543,0,6.415,2.872,6.415,6.415v17.612C296.11,265.907,285.345,276.672,272.067,276.672z
		"/>
	<path style="fill:#4A5058;" d="M355.581,249.246c-4.143,0-7.5-3.358-7.5-7.5v-14.244c0-4.142,3.357-7.5,7.5-7.5
		c4.142,0,7.5,3.358,7.5,7.5v14.244C363.081,245.888,359.724,249.246,355.581,249.246z"/>
</g>
<g style="opacity:0.3;">
	<ellipse style="fill:#FFFFFF;" cx="191.44" cy="272.13" rx="34.515" ry="14.976"/>
	<ellipse style="fill:#FFFFFF;" cx="352.7" cy="272.13" rx="34.515" ry="14.976"/>
</g>
<path style="fill:#8CC4B1;" d="M460.972,475.379c-27.278,27.278-71.126,30.739-94.869,30.375
	c-9.651-0.148-17.417-7.913-17.565-17.565c-0.364-23.743,3.097-67.591,30.375-94.869c27.278-27.278,71.126-30.739,94.869-30.375
	c9.651,0.148,17.417,7.913,17.565,17.564C491.711,404.253,488.25,448.101,460.972,475.379z"/>
<path style="opacity:0.1;enable-background:new    ;" d="M491.347,380.51c-0.127-8.276-5.862-15.15-13.577-17.038
	c0.314,1.282,0.505,2.612,0.526,3.987c0.364,23.743-3.097,67.591-30.375,94.869c-27.278,27.278-71.126,30.739-94.869,30.375
	c-1.375-0.021-2.705-0.213-3.987-0.526c1.888,7.715,8.762,13.45,17.038,13.577c23.743,0.364,67.591-3.097,94.869-30.375
	C488.25,448.101,491.711,404.253,491.347,380.51z"/>
<path style="opacity:0.1;enable-background:new    ;" d="M400.415,461.377c-1.919,0-3.839-0.732-5.304-2.197
	c-2.929-2.929-2.929-7.678,0-10.607l39.056-39.056c2.93-2.929,7.678-2.929,10.607,0s2.929,7.678,0,10.606l-39.056,39.056
	C404.254,460.645,402.334,461.377,400.415,461.377z"/>
<g>
</g>
<g>
</g>
<g>
</g>
<g>
</g>
<g>
</g>
<g>
</g>
<g>
</g>
<g>
</g>
<g>
</g>
<g>
</g>
<g>
</g>
<g>
</g>
<g>
</g>
<g>
</g>
<g>
</g>
</svg>
