<?xml version="1.0" encoding="iso-8859-1"?>
<!-- Generator: Adobe Illustrator 17.1.0, SVG Export Plug-In . SVG Version: 6.00 Build 0)  -->
<!DOCTYPE svg PUBLIC "-//W3C//DTD SVG 1.1//EN" "http://www.w3.org/Graphics/SVG/1.1/DTD/svg11.dtd">
<svg version="1.1" id="Capa_1" xmlns="http://www.w3.org/2000/svg" xmlns:xlink="http://www.w3.org/1999/xlink" x="0px" y="0px"
	 viewBox="0 0 444.919 444.919" style="enable-background:new 0 0 444.919 444.919;" xml:space="preserve">
<g>
	<path style="fill:none;" d="M113.31,139.993c-26.81,0-43.825,2.262-53.747,4.566c9.673,2.167,26.139,4.283,52.233,4.529
		c0.6-1.573,1.242-3.107,1.967-4.571c0.8-1.614,1.67-3.112,2.59-4.524H113.31z"/>
	<path style="fill:none;" d="M215.56,143.308c24.925,13.24,72.433,22.89,112.306,17.273c1.655-6.666,2.78-13.551,3.329-20.588
		h-117.59C214.29,141.043,214.941,142.148,215.56,143.308z"/>
	<path style="fill:#E1F8C9;" d="M199.561,156.229c-0.793-1.093-1.346-2.328-1.646-3.626c-5.322-9.827-15.094-12.61-32.936-12.61
		c-36.023,0-39.16,11.328-39.16,69.128c0,36.497,4.902,53.051,15.953,60.159c1.363,0.388,2.587,1.053,3.628,1.918
		c5.324,2.272,11.816,2.986,19.579,2.986c7.845,0,14.391-0.732,19.746-3.06c0.988-0.793,2.126-1.401,3.364-1.78
		c11.121-7.073,16.051-23.618,16.051-60.223C204.141,183.198,203.507,166.627,199.561,156.229z"/>
	<path style="fill:#FFAC52;" d="M126.909,58.057c0,20.995,17.079,38.076,38.071,38.076c20.99,0,38.066-17.081,38.066-38.076
		C203.046,37.072,185.969,20,164.98,20C143.987,20,126.909,37.072,126.909,58.057z"/>
	<path d="M164.98,116.133c32.018,0,58.066-26.053,58.066-58.076C223.046,26.044,196.998,0,164.98,0
		c-32.02,0-58.071,26.044-58.071,58.057C106.909,90.08,132.959,116.133,164.98,116.133z M203.046,58.057
		c0,20.995-17.077,38.076-38.066,38.076c-20.992,0-38.071-17.081-38.071-38.076C126.909,37.072,143.987,20,164.98,20
		C185.969,20,203.046,37.072,203.046,58.057z"/>
	<path d="M415.116,128.898c-0.01-0.092-0.029-0.182-0.042-0.273c-0.037-0.271-0.08-0.54-0.139-0.803
		c-0.022-0.102-0.052-0.201-0.077-0.301c-0.064-0.251-0.134-0.499-0.217-0.742c-0.035-0.103-0.073-0.204-0.111-0.305
		c-0.089-0.235-0.185-0.466-0.29-0.692c-0.047-0.102-0.095-0.202-0.146-0.302c-0.113-0.222-0.235-0.438-0.363-0.651
		c-0.057-0.094-0.111-0.189-0.171-0.282c-0.148-0.227-0.307-0.444-0.471-0.658c-0.052-0.068-0.099-0.138-0.153-0.205
		c-0.224-0.275-0.461-0.538-0.712-0.788c-0.044-0.044-0.093-0.083-0.138-0.125c-0.213-0.204-0.433-0.399-0.663-0.584
		c-0.027-0.021-0.049-0.046-0.076-0.067l-24.078-18.86c-4.346-3.406-10.633-2.643-14.038,1.706
		c-3.406,4.348-2.642,10.633,1.706,14.038l1.262,0.988h-24.949c-3.628-53.644-36.205-100.177-83.372-117.66
		c-5.179-1.919-10.933,0.723-12.853,5.901c-1.919,5.179,0.723,10.933,5.901,12.853c39.398,14.603,66.735,53.617,70.271,98.906
		H113.31c-23.147,0-42.878,1.665-57.058,4.814c-7.251,1.61-26.512,5.888-26.512,19.815c0,14.02,19.564,18.181,26.93,19.747
		c12.661,2.694,30.029,4.283,50.622,4.656c-1.301,11.137-1.472,24.304-1.472,40.095c0,35.203,4.449,61.432,22.22,74.9
		l-22.068,133.37l-25.062,7.998c-5.262,1.679-8.165,7.305-6.487,12.566c1.356,4.251,5.289,6.963,9.524,6.963
		c1.007,0,2.032-0.153,3.042-0.477l30.889-9.857c3.577-1.142,6.213-4.189,6.826-7.894l22.222-134.301
		c5.335,1.182,11.325,1.794,18.053,1.794c5.651,0,10.777-0.433,15.436-1.271l-5.287,131.743c-0.18,4.498,2.667,8.563,6.956,9.93
		l30.936,9.857c1.01,0.321,2.033,0.475,3.039,0.475c4.237,0,8.17-2.715,9.526-6.967c1.677-5.263-1.231-10.888-6.492-12.564
		l-23.675-7.543l5.337-132.974c18.742-13.196,23.386-39.79,23.386-75.75c0-16.172-0.175-29.6-1.564-40.905
		c22.337,8.304,51.819,14.006,80.834,14.006c5.773,0,11.529-0.227,17.206-0.703c-11.994,26.532-33.094,47.521-59.693,57.38
		c-5.179,1.92-7.82,7.674-5.901,12.853c1.495,4.032,5.315,6.527,9.378,6.527c1.154,0,2.329-0.201,3.475-0.626
		c37.169-13.777,65.269-45.599,77.294-84.719c0.121-0.324,0.226-0.653,0.314-0.99c3.061-10.224,5.019-20.938,5.764-31.951h24.95
		l-1.263,0.989c-4.348,3.405-5.111,9.691-1.705,14.039c1.973,2.518,4.91,3.833,7.879,3.833c2.157,0,4.33-0.694,6.16-2.128
		l24.078-18.861c0.029-0.022,0.053-0.049,0.082-0.072c0.217-0.174,0.425-0.36,0.627-0.552c0.057-0.054,0.118-0.102,0.173-0.157
		c0.248-0.247,0.482-0.507,0.704-0.779c0.06-0.074,0.113-0.154,0.171-0.229c0.158-0.206,0.311-0.415,0.453-0.633
		c0.063-0.097,0.121-0.197,0.18-0.297c0.125-0.208,0.245-0.419,0.355-0.637c0.052-0.103,0.101-0.206,0.15-0.311
		c0.104-0.224,0.199-0.452,0.287-0.685c0.039-0.103,0.078-0.206,0.114-0.31c0.082-0.242,0.152-0.489,0.216-0.739
		c0.026-0.101,0.055-0.2,0.078-0.302c0.058-0.263,0.101-0.531,0.138-0.802c0.013-0.092,0.032-0.182,0.042-0.275
		c0.039-0.36,0.063-0.724,0.063-1.095C415.179,129.623,415.156,129.258,415.116,128.898z M188.089,269.345
		c-1.238,0.379-2.376,0.986-3.364,1.78c-5.355,2.329-11.901,3.06-19.746,3.06c-7.763,0-14.256-0.715-19.579-2.986
		c-1.041-0.865-2.265-1.53-3.628-1.918c-11.051-7.108-15.953-23.662-15.953-60.159c0-57.8,3.137-69.128,39.16-69.128
		c17.842,0,27.614,2.783,32.936,12.61c0.3,1.297,0.853,2.533,1.646,3.626c3.946,10.398,4.58,26.969,4.58,52.892
		C204.141,245.727,199.21,262.272,188.089,269.345z M111.796,149.089c-26.094-0.246-42.56-2.362-52.233-4.529
		c9.922-2.305,26.937-4.566,53.747-4.566h3.044c-0.92,1.412-1.791,2.91-2.59,4.524C113.038,145.982,112.396,147.516,111.796,149.089
		z M327.866,160.581c-39.873,5.617-87.381-4.034-112.306-17.273c-0.618-1.161-1.27-2.265-1.954-3.315h117.59
		C330.646,147.031,329.521,153.915,327.866,160.581z"/>
</g>
<g>
</g>
<g>
</g>
<g>
</g>
<g>
</g>
<g>
</g>
<g>
</g>
<g>
</g>
<g>
</g>
<g>
</g>
<g>
</g>
<g>
</g>
<g>
</g>
<g>
</g>
<g>
</g>
<g>
</g>
</svg>
