<?xml version="1.0" encoding="iso-8859-1"?>
<!-- Generator: Adobe Illustrator 19.0.0, SVG Export Plug-In . SVG Version: 6.00 Build 0)  -->
<svg version="1.1" id="Layer_1" xmlns="http://www.w3.org/2000/svg" xmlns:xlink="http://www.w3.org/1999/xlink" x="0px" y="0px"
	 viewBox="0 0 512 512" style="enable-background:new 0 0 512 512;" xml:space="preserve">
<circle style="fill:#5A8BB0;" cx="256" cy="75.294" r="75.294"/>
<rect x="75.294" y="376.471" style="fill:#93C7EF;" width="361.412" height="135.529"/>
<rect x="256" y="376.471" style="fill:#5A8BB0;" width="180.706" height="135.529"/>
<rect y="195.765" style="fill:#93C7EF;" width="210.824" height="120.471"/>
<rect x="301.176" y="195.765" style="fill:#5A8BB0;" width="210.824" height="120.471"/>
<path style="fill:#BFE4F8;" d="M256,22.588C127.297,22.588,22.588,127.295,22.588,256S127.297,489.412,256,489.412
	S489.412,384.705,489.412,256S384.703,22.588,256,22.588z"/>
<path style="fill:#93C7EF;" d="M256,489.412c128.703,0,233.412-104.707,233.412-233.412S384.703,22.588,256,22.588"/>
<path style="fill:#3C5D76;" d="M444.235,256c0-53.174-22.17-101.265-57.745-135.529H125.509
	C89.934,154.735,67.765,202.826,67.765,256s22.17,101.265,57.745,135.529h260.981C422.066,357.265,444.235,309.174,444.235,256z"/>
<path style="fill:#1E2E3B;" d="M386.491,120.471H256v271.059h130.491c35.575-34.265,57.745-82.355,57.745-135.529
	S422.066,154.735,386.491,120.471z"/>
<path style="fill:#FFFFFF;" d="M137.812,336.545c-16.271-23.712-24.871-51.563-24.871-80.545c0-28.978,8.6-56.83,24.87-80.544
	l37.251,25.559c-11.085,16.157-16.944,35.17-16.944,54.984c0,19.817,5.859,38.831,16.944,54.984L137.812,336.545z"/>
<g>
</g>
<g>
</g>
<g>
</g>
<g>
</g>
<g>
</g>
<g>
</g>
<g>
</g>
<g>
</g>
<g>
</g>
<g>
</g>
<g>
</g>
<g>
</g>
<g>
</g>
<g>
</g>
<g>
</g>
</svg>
