<?xml version="1.0" encoding="iso-8859-1"?>
<!-- Generator: Adobe Illustrator 19.0.0, SVG Export Plug-In . SVG Version: 6.00 Build 0)  -->
<svg version="1.1" id="Capa_1" xmlns="http://www.w3.org/2000/svg" xmlns:xlink="http://www.w3.org/1999/xlink" x="0px" y="0px"
	 viewBox="0 0 512 512" style="enable-background:new 0 0 512 512;" xml:space="preserve">
<g>
	<path style="fill:#738182;" d="M182.465,473.321c-0.82,0-1.648-0.021-2.483-0.063c-16.338-0.832-31.265-9.635-38.026-22.426
		c-9.975-18.872-6.864-38.764-4.119-56.314c2.611-16.69,5.077-32.455-3.192-45.96c-4.028-6.579-12.281-11.028-21.535-11.61
		c-8.728-0.557-16.621,2.476-21.116,8.092c-3.603,4.499-5.143,9.953-4.337,15.355c0.865,5.795,4.217,10.953,9.44,14.521
		c3.523,2.407,4.428,7.215,2.02,10.738c-2.409,3.524-7.217,4.428-10.738,2.02c-8.686-5.937-14.52-15.048-16.005-24.999
		c-1.448-9.705,1.236-19.398,7.557-27.294c7.637-9.54,20.382-14.728,34.149-13.856c14.414,0.906,27.028,7.995,33.745,18.963
		c11.235,18.35,8.208,37.702,5.281,56.418c-2.605,16.647-5.063,32.37,2.513,46.704c4.202,7.95,14.31,13.662,25.15,14.213
		c4.202,0.224,14.597-0.207,20.278-8.728c2.367-3.551,7.165-4.511,10.714-2.143c3.55,2.367,4.51,7.164,2.143,10.714
		C207.216,467.696,195.852,473.321,182.465,473.321z"/>
	<path style="fill:#738182;" d="M197.241,84.564l-7.904-81.169c-0.25-2.565,2.567-4.29,4.738-2.901l54.531,34.871L197.241,84.564z"
		/>
	<path style="fill:#738182;" d="M413.851,84.564l7.904-81.169c0.25-2.565-2.567-4.29-4.738-2.901l-54.531,34.871L413.851,84.564z"/>
	<path style="fill:#738182;" d="M404.302,458.997l-44.71,35.407c-7.201,5.697-15.247,10.096-23.797,13.073
		c-6.233,2.174-12.733,3.585-19.357,4.183c-2.452,0.227-4.935,0.34-7.417,0.34h-6.943c-18.358,0-36.18-6.202-50.572-17.596
		l-44.72-35.407c-16.287-12.908-24.354-32.997-22.324-52.859c0.103-1.01,0.227-2.009,0.381-3.018
		c0.237-1.504,0.525-3.008,0.876-4.502c0.35-1.494,0.762-2.987,1.226-4.471c0.319-0.979,0.659-1.968,1.02-2.936
		c0.371-0.979,0.762-1.947,1.185-2.915l57.968-132.615l1.442-3.297l40.105,3.266l3.42,0.278l13.464,1.092l56.99-4.636l1.442,3.297
		l57.958,132.615C432.796,413.133,425.554,442.164,404.302,458.997z"/>
</g>
<path style="fill:#576666;" d="M316.437,511.66c-2.452,0.227-4.935,0.34-7.417,0.34h-6.943c-18.358,0-36.18-6.202-50.572-17.596
	l-44.72-35.407c-16.287-12.908-24.354-32.997-22.324-52.859c0.103-1.01,0.227-2.009,0.381-3.018
	c0.227-1.504,0.525-3.008,0.876-4.502c0.34-1.494,0.752-2.987,1.226-4.471c0.319-0.979,0.659-1.968,1.02-2.936
	c0.371-0.979,0.762-1.947,1.185-2.915l57.968-132.615l1.442-3.297l40.105,3.266l-4.687,10.735l-53.291,121.912
	c-10.868,24.838-3.616,53.868,17.637,70.702C248.322,458.997,309.576,507.065,316.437,511.66z"/>
<ellipse style="fill:#738182;" cx="305.549" cy="143.86" rx="134.46" ry="124.12"/>
<path style="fill:#576666;" d="M327.752,266.296c-7.227,1.112-14.639,1.688-22.206,1.688c-74.257,0-134.462-55.572-134.462-124.126
	S231.289,19.733,305.546,19.733c7.567,0,14.979,0.577,22.206,1.688c-63.695,9.77-112.256,60.864-112.256,122.438
	S264.058,256.526,327.752,266.296z"/>
<ellipse style="fill:#EFDA45;" cx="249.349" cy="130.49" rx="38.993" ry="28.488"/>
<ellipse cx="249.349" cy="130.49" rx="4.102" ry="17.822"/>
<ellipse style="fill:#EFDA45;" cx="361.739" cy="130.49" rx="38.993" ry="28.488"/>
<ellipse cx="361.739" cy="130.49" rx="4.102" ry="17.822"/>
<path style="fill:#D7DBDD;" d="M309.003,161.946c-1.959-1.783-4.954-1.783-6.913,0c-6.226,5.666-18.046,18.057-10.977,24.925
	c1.778,1.727,4.441,2.635,7.164,2.635h7.269h7.269c2.723,0,5.386-0.908,7.164-2.635
	C327.049,180.003,315.229,167.612,309.003,161.946z"/>
<path style="fill:#C6CBCC;" d="M322.041,183.093c-0.247,1.381-0.906,2.658-2.06,3.781c-1.782,1.721-4.44,2.627-7.17,2.627h-14.536
	c-2.72,0-5.388-0.906-7.16-2.627c-7.077-6.871,4.749-19.264,10.971-24.93c1.504-1.37,3.637-1.689,5.429-0.937
	c-5.573,6.181-10.766,14.35-5.512,19.45c1.782,1.731,4.44,2.637,7.16,2.637L322.041,183.093L322.041,183.093z"/>
<g>
</g>
<g>
</g>
<g>
</g>
<g>
</g>
<g>
</g>
<g>
</g>
<g>
</g>
<g>
</g>
<g>
</g>
<g>
</g>
<g>
</g>
<g>
</g>
<g>
</g>
<g>
</g>
<g>
</g>
</svg>
