<?xml version="1.0" encoding="iso-8859-1"?>
<!-- Generator: Adobe Illustrator 19.0.0, SVG Export Plug-In . SVG Version: 6.00 Build 0)  -->
<svg version="1.1" id="Layer_1" xmlns="http://www.w3.org/2000/svg" xmlns:xlink="http://www.w3.org/1999/xlink" x="0px" y="0px"
	 viewBox="0 0 297 297" style="enable-background:new 0 0 297 297;" xml:space="preserve">
<g>
	<g>
		<g>
			<g>
				<circle style="fill:#F86E51;" cx="148.5" cy="148.5" r="148.5"/>
			</g>
		</g>
	</g>
	<path style="fill:#C94631;" d="M296.861,142.285l-95.201-95.4c-17.001,2.414-33.318,0.254-44.16,15.614c-15,21-22,44-32,68
		c-2,6-8,10-12,16c-14.563,20.804-9.814,56.112-20.917,77.095l72.481,72.481C239.281,287.837,297,224.914,297,148.5
		C297,146.417,296.946,144.347,296.861,142.285z"/>
	<g>
		<path style="fill:#FFFFFF;" d="M148.504,87c-0.082,0-0.164-0.002-0.247-0.007c-2.481-0.134-4.385-2.255-4.25-4.736
			c0.645-11.909,5.015-21.25,12.986-27.762c15.995-13.066,40.623-9.601,41.665-9.446c2.459,0.363,4.157,2.651,3.793,5.109
			c-0.362,2.458-2.649,4.161-5.104,3.794c-0.232-0.031-21.81-3.014-34.689,7.536c-5.911,4.843-9.163,11.994-9.665,21.255
			C152.863,85.142,150.878,87,148.504,87z"/>
	</g>
	<g>
		<path d="M136.082,109.75h24.835c5.568,0,10.082-4.514,10.082-10.082V81.832c0-5.568-4.514-10.082-10.082-10.082h-24.835
			c-5.568,0-10.082,4.514-10.082,10.082v17.835C126,105.236,130.514,109.75,136.082,109.75z"/>
	</g>
	<g>
		<circle style="fill:#32373B;" cx="148.5" cy="168.5" r="78.5"/>
	</g>
	<g>
		<path style="fill:#292D30;" d="M148.5,90c-0.112,0-0.221,0.008-0.333,0.008v156.983c0.112,0,0.221,0.008,0.333,0.008
			c43.354,0,78.5-35.146,78.5-78.5C227,125.146,191.854,90,148.5,90z"/>
	</g>
</g>
<g>
</g>
<g>
</g>
<g>
</g>
<g>
</g>
<g>
</g>
<g>
</g>
<g>
</g>
<g>
</g>
<g>
</g>
<g>
</g>
<g>
</g>
<g>
</g>
<g>
</g>
<g>
</g>
<g>
</g>
</svg>
