<?xml version="1.0" encoding="iso-8859-1"?>
<!-- Generator: Adobe Illustrator 19.0.0, SVG Export Plug-In . SVG Version: 6.00 Build 0)  -->
<svg version="1.1" id="Capa_1" xmlns="http://www.w3.org/2000/svg" xmlns:xlink="http://www.w3.org/1999/xlink" x="0px" y="0px"
	 viewBox="0 0 512 512" style="enable-background:new 0 0 512 512;" xml:space="preserve">
<path style="fill:#8CC4B1;" d="M510.58,163.758c-6.348-25.481-32.452-41.612-61.634-40.061c-2.07,0.11-3.782-1.532-3.788-3.604
	c-0.048-16.404-6.32-32.792-18.835-45.307c-11.048-11.048-25.114-17.224-39.544-18.555c-2.484-0.229-4.412-2.185-4.62-4.67
	c-1.609-19.177-11.541-36.116-28.182-44.4c-27.259-13.57-62.197,1.22-78.035,33.035c-10.862,21.819-9.911,45.972,0.546,63.376
	c0.754,1.255,0.92,2.791,0.471,4.185c-7.009,21.757-2.138,46.494,14.602,64.095l-24.599,32.707l38.357,38.357l37.482-28.191
	c2.229,3.264,4.776,6.376,7.673,9.273c20.818,20.818,52.347,24.379,76.842,10.704c1.25-0.698,2.689-0.946,4.1-0.7
	c9.507,1.652,19.752,1.38,30.052-1.186C495.953,224.223,517.941,193.305,510.58,163.758z"/>
<path style="opacity:0.05;enable-background:new    ;" d="M332.754,206.093c-2.999-3.41-8.163-3.846-11.792-1.117l-13.824,10.397
	l-23.234-23.234c-1.453-1.453-2.945-2.839-4.465-4.174l-12.479,16.592l38.357,38.357l37.092-27.897
	c-2.393-1.801-4.695-3.779-6.874-5.958C334.57,208.094,333.643,207.104,332.754,206.093z M510.58,163.758
	c-3.083-12.374-10.834-22.534-21.325-29.544c2.881,4.417,5.067,9.306,6.388,14.607c7.361,29.547-14.628,60.465-49.113,69.056
	c-10.3,2.566-20.546,2.839-30.052,1.186c-1.41-0.245-2.85,0.002-4.099,0.7c-21.475,11.989-48.355,10.727-68.686-3.794
	c2.014,2.808,4.257,5.503,6.781,8.027c20.818,20.818,52.347,24.379,76.842,10.704c1.25-0.698,2.689-0.946,4.099-0.7
	c9.507,1.653,19.752,1.38,30.052-1.186C495.953,224.223,517.941,193.305,510.58,163.758z"/>
<path style="fill:#FC8063;" d="M305.584,238.123l-33.831-33.831c-39.31-39.31-104.204-35.169-138.199,8.819l-43.206,55.907
	c-3.315,4.29-5.576,9.299-6.601,14.623l-1.061,5.514c-0.222,1.156-0.971,2.143-2.024,2.669l-5.847,2.919
	c-4.661,2.327-8.736,5.677-11.922,9.799l0,0c-23.154,29.96-39.691,64.49-48.52,101.31L1.122,461.117
	c-6.877,28.681,18.955,54.514,47.636,47.636l55.265-13.252c36.821-8.829,71.35-25.366,101.31-48.52l59.118-45.688
	c4.099-3.168,7.431-7.219,9.748-11.853l1.576-3.152c0.836-1.672,2.45-2.818,4.305-3.056l0,0c6.077-0.779,11.837-3.166,16.685-6.912
	l0,0C340.753,342.327,344.894,277.433,305.584,238.123z"/>
<path style="opacity:0.1;enable-background:new    ;" d="M296.765,376.322c43.988-33.995,48.129-98.889,8.819-138.199
	l-21.634-21.634c39.31,39.31,35.169,104.204-8.819,138.199c-4.848,3.747-10.608,6.133-16.685,6.912
	c-1.854,0.238-3.468,1.384-4.305,3.056l-1.576,3.152c-2.317,4.633-5.649,8.684-9.748,11.852l-59.118,45.688
	c-29.96,23.154-64.49,39.691-101.31,48.52l-55.265,13.251c-8.582,2.058-16.901,1.17-24.173-1.829
	c7.025,17.031,25.708,28.283,45.807,23.464l55.265-13.252c36.821-8.829,71.351-25.366,101.31-48.52l59.118-45.688
	c4.099-3.168,7.431-7.219,9.748-11.852l1.576-3.152c0.836-1.672,2.45-2.818,4.305-3.056
	C286.157,382.454,291.917,380.068,296.765,376.322z"/>
<g style="opacity:0.05;">
	<path d="M424.098,199.871c-1.919,0-3.839-0.732-5.304-2.196c-10.77-10.771-28.297-10.771-39.066,0
		c-2.93,2.928-7.678,2.928-10.607,0c-2.929-2.93-2.929-7.678,0-10.607c16.621-16.619,43.66-16.619,60.281,0
		c2.929,2.93,2.929,7.678,0,10.607C427.937,199.139,426.017,199.871,424.098,199.871z"/>
	<path d="M322.779,155.189c-2.21,0-4.399-0.972-5.88-2.838c-2.575-3.245-2.031-7.962,1.213-10.537
		c9.04-7.174,10.559-20.364,3.385-29.403c-2.575-3.245-2.031-7.962,1.213-10.537c3.245-2.574,7.963-2.032,10.537,1.213
		c5.966,7.518,8.647,16.908,7.549,26.442c-1.098,9.533-5.842,18.069-13.359,24.035C326.058,154.657,324.412,155.189,322.779,155.189
		z"/>
	<path d="M369.404,152.147c-1.352,0-2.721-0.365-3.954-1.132c-3.518-2.188-4.596-6.813-2.408-10.33l16.155-25.979
		c2.188-3.517,6.812-4.596,10.33-2.408c3.518,2.188,4.596,6.813,2.408,10.33l-16.155,25.979
		C374.359,150.892,371.91,152.147,369.404,152.147z"/>
	<path d="M325.506,80.214c-0.773,0-1.561-0.12-2.336-0.375c-3.937-1.289-6.082-5.525-4.792-9.462l6.961-21.249
		c1.289-3.935,5.524-6.086,9.462-4.792c3.936,1.289,6.082,5.525,4.792,9.462l-6.961,21.249
		C331.597,78.207,328.661,80.214,325.506,80.214z"/>
	<path d="M438.356,172.005c-3.381,0-6.45-2.302-7.282-5.732c-0.978-4.025,1.494-8.081,5.519-9.058l17.964-4.36
		c4.034-0.977,8.082,1.494,9.058,5.519c0.977,4.025-1.494,8.081-5.519,9.058l-17.964,4.36
		C439.537,171.936,438.941,172.005,438.356,172.005z"/>
</g>
<path style="opacity:0.1;enable-background:new    ;" d="M105.982,380.813l-23.438-18.284c-3.266-2.548-7.979-1.966-10.526,1.3
	c-2.548,3.267-1.966,7.98,1.3,10.526l23.438,18.284c1.37,1.069,2.995,1.587,4.608,1.587c2.231,0,4.439-0.991,5.918-2.887
	C109.83,388.072,109.248,383.359,105.982,380.813z M112.082,303.164L83.82,283.317c-0.022,0.108-0.051,0.215-0.072,0.323
	l-1.061,5.514c-0.222,1.156-0.971,2.143-2.024,2.669l-5.847,2.919c-0.159,0.079-0.312,0.169-0.469,0.251l29.115,20.445
	c1.312,0.921,2.815,1.363,4.304,1.363c2.361,0,4.685-1.112,6.145-3.19C116.29,310.222,115.472,305.544,112.082,303.164z
	 M66.615,446.47c-2.497-3.303-7.202-3.958-10.506-1.459c-3.304,2.498-3.957,7.202-1.459,10.506l21.535,28.481
	c1.475,1.95,3.718,2.977,5.988,2.977c1.575,0,3.164-0.494,4.518-1.518c3.304-2.498,3.957-7.202,1.459-10.506L66.615,446.47z
	 M173.365,376.529c-2.497-3.303-7.201-3.958-10.506-1.459c-3.304,2.498-3.957,7.201-1.459,10.506l21.535,28.483
	c1.475,1.95,3.718,2.976,5.988,2.976c1.575,0,3.164-0.494,4.518-1.517c3.304-2.498,3.957-7.201,1.459-10.506L173.365,376.529z
	 M258.19,347.079c-2.54-3.271-7.25-3.864-10.523-1.326c-3.273,2.539-3.866,7.251-1.326,10.523l26.993,34.78
	c0.301-0.53,0.592-1.068,0.865-1.615l1.576-3.152c0.836-1.672,2.45-2.818,4.305-3.056c1.8-0.231,3.567-0.62,5.296-1.126
	L258.19,347.079z M167.326,309.481c2.231,0,4.439-0.991,5.918-2.887c2.548-3.267,1.966-7.979-1.3-10.526l-28.323-22.095
	c-3.265-2.548-7.98-1.967-10.526,1.3c-2.548,3.267-1.966,7.979,1.3,10.526l28.323,22.095
	C164.088,308.964,165.713,309.481,167.326,309.481z"/>
<g>
	<path style="fill:#4A5058;" d="M210.876,238.904c-1.919,0-3.839-0.732-5.304-2.196c-2.929-2.93-2.929-7.678,0-10.607l5.61-5.61
		c2.93-2.928,7.678-2.928,10.607,0c2.929,2.93,2.929,7.678,0,10.607l-5.61,5.61C214.715,238.172,212.795,238.904,210.876,238.904z"
		/>
	<path style="fill:#4A5058;" d="M278.471,306.499c-1.92,0-3.839-0.732-5.304-2.197c-2.929-2.929-2.929-7.678,0.001-10.606
		l5.61-5.609c2.929-2.929,7.678-2.928,10.606,0.001c2.929,2.929,2.929,7.678-0.001,10.606l-5.61,5.609
		C282.31,305.767,280.39,306.499,278.471,306.499z"/>
	<path style="fill:#4A5058;" d="M252.185,281.9c-6.404,0-12.568-2.533-17.123-7.087c-4.947-4.948-7.509-11.795-7.029-18.787
		c0.283-4.133,3.856-7.241,7.996-6.969c4.133,0.283,7.252,3.863,6.969,7.996c-0.183,2.665,0.791,5.272,2.672,7.152
		c1.881,1.882,4.492,2.859,7.153,2.673c4.125-0.276,7.713,2.836,7.996,6.969s-2.837,7.713-6.969,7.996
		C253.293,281.882,252.738,281.9,252.185,281.9z"/>
</g>
<g style="opacity:0.3;">
	
		<ellipse transform="matrix(0.7071 -0.7071 0.7071 0.7071 -115.825 211.105)" style="fill:#F15B70;" cx="196.914" cy="245.366" rx="8.878" ry="20.459"/>
	
		<ellipse transform="matrix(0.7071 -0.7071 0.7071 0.7071 -143.8258 278.6908)" style="fill:#F15B70;" cx="264.497" cy="312.958" rx="8.878" ry="20.46"/>
</g>
<g style="opacity:0.1;">
	<circle cx="50.18" cy="411.039" r="7.512"/>
	<circle cx="227.96" cy="391.619" r="7.512"/>
	<circle cx="149.67" cy="245.369" r="7.512"/>
</g>
<g>
</g>
<g>
</g>
<g>
</g>
<g>
</g>
<g>
</g>
<g>
</g>
<g>
</g>
<g>
</g>
<g>
</g>
<g>
</g>
<g>
</g>
<g>
</g>
<g>
</g>
<g>
</g>
<g>
</g>
</svg>
