<?xml version="1.0" encoding="iso-8859-1"?>
<!-- Generator: Adobe Illustrator 19.0.0, SVG Export Plug-In . SVG Version: 6.00 Build 0)  -->
<svg version="1.1" id="Layer_1" xmlns="http://www.w3.org/2000/svg" xmlns:xlink="http://www.w3.org/1999/xlink" x="0px" y="0px"
	 viewBox="0 0 512 512" style="enable-background:new 0 0 512 512;" xml:space="preserve">
<polygon style="fill:#FCD577;" points="425.608,211.129 424.562,212.175 424.562,488.075 87.448,488.075 87.448,212.175 
	86.404,211.129 256.005,41.553 "/>
<polygon style="fill:#EAC36E;" points="87.448,254.254 256.005,85.721 424.562,254.254 424.562,212.175 425.608,211.13 
	256.005,41.553 86.404,211.13 87.448,212.175 "/>
<polyline style="fill:#CFDCE5;" points="407.169,192.713 407.169,56.484 328.8,56.484 328.8,114.346 "/>
<polygon style="fill:#FF6F52;" points="494.382,297.543 256.001,59.16 17.618,297.543 0,279.925 256.001,23.925 512,279.925 "/>
<rect x="125.71" y="284.422" style="fill:#CFDCE5;" width="115.133" height="203.639"/>
<polygon style="fill:#EAC36E;" points="246.498,488.063 235.172,488.063 235.172,290.081 131.368,290.081 131.368,488.063 
	120.043,488.063 120.043,278.756 246.498,278.756 "/>
<g>
	<rect x="277.163" y="284.422" style="fill:#4EBFED;" width="115.133" height="115.133"/>
	<rect x="218.634" y="146.865" style="fill:#4EBFED;" width="74.747" height="74.747"/>
</g>
<g>
	<path style="fill:#EAC36E;" d="M271.499,278.756V405.21h126.456V278.756H271.499z M386.629,336.32h-46.24v-46.24h46.24V336.32z
		 M329.064,290.081v46.24h-46.24v-46.24H329.064z M282.824,347.645h46.24v46.24h-46.24V347.645L282.824,347.645z M340.39,393.885
		v-46.24h46.24v46.24H340.39z"/>
	<path style="fill:#EAC36E;" d="M299.041,141.205h-86.072v86.072h86.072V141.205z M287.716,215.952h-63.421V152.53h63.421V215.952z"
		/>
</g>
<circle style="fill:#FF6F52;" cx="209.574" cy="391.955" r="7.928"/>
<g>
</g>
<g>
</g>
<g>
</g>
<g>
</g>
<g>
</g>
<g>
</g>
<g>
</g>
<g>
</g>
<g>
</g>
<g>
</g>
<g>
</g>
<g>
</g>
<g>
</g>
<g>
</g>
<g>
</g>
</svg>
