<?xml version="1.0" encoding="iso-8859-1"?>
<!-- Generator: Adobe Illustrator 19.0.0, SVG Export Plug-In . SVG Version: 6.00 Build 0)  -->
<svg version="1.1" id="Layer_1" xmlns="http://www.w3.org/2000/svg" xmlns:xlink="http://www.w3.org/1999/xlink" x="0px" y="0px"
	 viewBox="0 0 512 512" style="enable-background:new 0 0 512 512;" xml:space="preserve">
<path style="fill:#D9D9DB;" d="M152.499,0.106L81.923,0C68.82,0.08,56.531,5.257,47.321,14.579S33.084,36.25,33.162,49.355
	c0.163,26.95,22.14,48.762,49.053,48.762c0.101,0,0.201,0,0.302,0c7.261-0.044,14.256-1.646,20.79-4.761
	c2.947-1.406,4.817-4.388,4.797-7.652c-0.02-3.265-1.926-6.225-4.89-7.594c-8.807-4.068-15.215-11.893-17.652-21.038h37.257
	c7.155,8.354,17.922,13.221,29.667,13.221c20.928,0,37.954-15.743,37.954-35.093C190.441,15.852,173.422,0.112,152.499,0.106z"/>
<g>
	<path style="fill:#FF5468;" d="M302.155,512c-4.652,0-8.421-3.77-8.421-8.421v-145.93c0-4.651,3.769-8.421,8.421-8.421
		s8.421,3.77,8.421,8.421v145.929C310.576,508.23,306.806,512,302.155,512z"/>
	<path style="fill:#FF5468;" d="M258.644,512c-4.651,0-8.421-3.77-8.421-8.421v-145.93c0-4.651,3.77-8.421,8.421-8.421
		c4.652,0,8.421,3.77,8.421,8.421v145.929C267.065,508.23,263.296,512,258.644,512z"/>
</g>
<path style="fill:#FF7E90;" d="M478.795,356.793c-0.168-1.651-4.422-40.875-29.645-80.539
	c-23.436-36.85-69.972-80.778-158.583-80.778c-50.789,0-88.86,14.176-113.425,42.175c-0.008-0.346,0.002-0.682,0.029-1.006
	c0.961-11.271,21.751-27.717,38.457-40.932c28.95-22.902,64.979-51.406,64.978-95.184c0-21.839-9.63-53.318-55.512-79.27
	C201.29,7.797,177.625,1.622,176.63,1.366c-2.289-0.589-4.682-0.868-7.13-0.822c-4.368,0.079-7.951,3.485-8.249,7.844
	s2.785,8.221,7.102,8.896c14.995,2.342,25.879,15.079,25.879,30.286c0,3.082-0.456,6.126-1.356,9.045
	c-1.179,3.825,0.499,7.953,4.013,9.872c11.379,6.211,30.468,18.894,30.468,34.043c0.001,18.008-21.746,35.211-44.769,53.425
	c-27.313,21.609-55.556,43.954-58.473,78.166c-1.781,20.883,6.345,41.057,24.846,61.674c0.305,0.34,0.621,0.674,0.945,0.999
	c-2.782,16.998,1.662,34.246,12.479,47.905c11.76,14.853,29.367,23.37,48.306,23.37h259.728c2.383,0,4.654-1.009,6.25-2.778
	C478.264,361.525,479.037,359.163,478.795,356.793z"/>
<path style="fill:#FF5468;" d="M478.795,356.793c-0.168-1.651-4.422-40.875-29.645-80.539
	c-23.436-36.85-69.972-80.778-158.583-80.778c-4.994,0-9.861,0.143-14.608,0.417c79.206,4.516,121.901,45.587,144.018,80.361
	c25.224,39.664,29.476,78.888,29.645,80.539c0.243,2.37-0.531,4.732-2.128,6.5c-1.597,1.768-3.867,2.778-6.25,2.778h29.174
	c2.383,0,4.654-1.009,6.25-2.778C478.264,361.525,479.037,359.163,478.795,356.793z"/>
<path style="fill:#D9D9DB;" d="M411.007,366.07c-4.611,0-8.373-3.715-8.419-8.337c-0.71-71.24-77.508-94.631-78.284-94.859
	c-4.463-1.311-7.017-5.991-5.705-10.455c1.31-4.462,5.996-7.018,10.453-5.705c0.914,0.268,22.625,6.766,44.59,23.437
	c29.609,22.471,45.443,52.699,45.789,87.415c0.046,4.651-3.686,8.458-8.337,8.504C411.065,366.07,411.035,366.07,411.007,366.07z"/>
<path style="fill:#2B2B2B;" d="M150.687,43.881c-5.532,0-10.034-4.491-10.034-10.013c0-5.521,4.501-10.012,10.034-10.012
	c5.532,0,10.034,4.491,10.034,10.012S156.219,43.881,150.687,43.881z"/>
<path style="fill:#2A2A2C;" d="M115.993,0.051L81.923,0C68.82,0.08,56.531,5.257,47.321,14.579S33.084,36.25,33.162,49.355
	c0.163,26.95,22.14,48.762,49.053,48.762c0.101,0,0.201,0,0.302,0c7.261-0.044,14.256-1.646,20.79-4.761
	c2.947-1.406,4.817-4.388,4.797-7.652c-0.02-3.265-1.926-6.225-4.89-7.594c-8.807-4.068-15.215-11.893-17.652-21.038
	C85.562,57.071,71.724,20.214,115.993,0.051z"/>
<path style="fill:#FF5468;" d="M225.092,21.258C201.289,7.796,177.624,1.621,176.629,1.365c-2.035-0.524-4.154-0.787-6.318-0.81
	c-2.202-0.314-4.45-0.486-6.737-0.486c-2.407,0-4.831,0.184-7.205,0.545c-4.103,0.625-7.139,4.148-7.152,8.299
	c-0.013,4.151,3,7.692,7.1,8.344c10.014,1.592,17.282,9.138,17.282,17.943c0,10.064-9.471,18.25-21.111,18.25
	c-7.598,0-14.652-3.596-18.408-9.385c-1.553-2.393-4.212-3.837-7.065-3.837h-2.492c-2.273,0-4.45,0.918-6.035,2.549
	c-1.585,1.629-2.444,3.83-2.383,6.103c0.704,25.902,21.556,46.192,47.47,46.192c26.192,0,47.5-21.309,47.5-47.501
	c0-4.207-0.556-8.285-1.588-12.173c32.93,22.363,40.24,47.361,40.24,65.13c0.001,39.702-32.822,65.669-61.781,88.579
	c-19.839,15.694-32.685,28.887-32.899,43.837c-0.107,7.442,5.075,15.611,10.888,22.801c4.332-8.254,8.207-14.013,11.221-17.885
	c-0.006-0.068-0.009-0.144-0.015-0.21c-0.008-0.346,0.002-0.682,0.029-1.006c0.961-11.271,21.751-27.717,38.457-40.932
	c28.95-22.902,64.979-51.406,64.978-95.184C280.604,78.69,270.974,47.21,225.092,21.258z"/>
<g>
</g>
<g>
</g>
<g>
</g>
<g>
</g>
<g>
</g>
<g>
</g>
<g>
</g>
<g>
</g>
<g>
</g>
<g>
</g>
<g>
</g>
<g>
</g>
<g>
</g>
<g>
</g>
<g>
</g>
</svg>
