<?xml version="1.0" encoding="iso-8859-1"?>
<!-- Generator: Adobe Illustrator 19.0.0, SVG Export Plug-In . SVG Version: 6.00 Build 0)  -->
<svg version="1.1" id="Capa_1" xmlns="http://www.w3.org/2000/svg" xmlns:xlink="http://www.w3.org/1999/xlink" x="0px" y="0px"
	 viewBox="0 0 511.999 511.999" style="enable-background:new 0 0 511.999 511.999;" xml:space="preserve">
<path style="fill:#79AB03;" d="M455.587,382.685c-0.124,0.051-0.257,0.113-0.381,0.165c-9.779,4.292-20.628,6.845-32.238,7.185
	c-0.916,0.031-1.832,0.041-2.759,0.041c-0.566,0-1.132-0.01-1.698-0.021c-0.576,0.01-1.132,0.021-1.709,0.021
	c-0.916,0-1.832-0.01-2.748-0.041c-62.027-1.791-102.006-66.731-77.251-123.632l63.314-145.485
	c4.344-10.005,14.812-13.783,23.788-11.343c3.294,0.896,6.382,2.625,8.893,5.208c1.657,1.678,3.057,3.726,4.107,6.135
	l63.304,145.485C520.281,312.516,497.831,363.9,455.587,382.685z"/>
<path style="fill:#85BB04;" d="M455.587,382.685c-0.124,0.051-0.257,0.113-0.381,0.165c-0.618,0.021-1.235,0.021-1.853,0.021
	c-0.566,0-1.132-0.01-1.698-0.021c-0.576,0.01-1.132,0.021-1.709,0.021c-0.916,0-1.832-0.01-2.748-0.041
	c-62.027-1.791-102.006-66.731-77.251-123.632l62.851-144.414c1.657,1.678,3.057,3.726,4.107,6.135l63.304,145.485
	C520.281,312.516,497.831,363.9,455.587,382.685z"/>
<path style="fill:#CC7400;" d="M458.582,260.544c-2.574-3.398-7.416-4.068-10.816-1.491l-21.536,16.315v-63.46
	c0-4.263-3.455-7.72-7.72-7.72s-7.72,3.456-7.72,7.72v107.476l-29.837-37.653c-2.648-3.342-7.505-3.903-10.845-1.256
	c-3.341,2.647-3.904,7.504-1.256,10.845l40.701,51.36c0.372,0.469,0.788,0.882,1.237,1.24v160.359c0,4.263,3.455,7.72,7.72,7.72
	s7.72-3.456,7.72-7.72V294.737l30.859-23.378C460.489,268.783,461.156,263.941,458.582,260.544z"/>
<path style="fill:#79AB03;" d="M127.902,383.818c-2.934,1.194-5.96,2.223-9.079,3.088c-6.608,1.842-13.597,2.923-20.885,3.129
	c-0.906,0.031-1.822,0.041-2.748,0.041c-0.566,0-1.132-0.01-1.698-0.021c-0.576,0.01-1.132,0.021-1.709,0.021
	c-0.916,0-1.832-0.01-2.748-0.041c-62.027-1.791-102.006-66.731-77.251-123.632l63.314-145.485
	c4.21-9.676,14.133-13.525,22.903-11.559c3.582,0.803,6.969,2.573,9.686,5.311c1.698,1.719,3.129,3.798,4.2,6.248l63.304,145.485
	C195.672,313.474,171.854,366.041,127.902,383.818z"/>
<path style="fill:#85BB04;" d="M127.902,383.818c-2.934,1.194-5.96,2.223-9.079,3.088c-61.399-2.512-100.771-67.019-76.16-123.591
	l63.314-145.485c0.494-1.132,1.06-2.182,1.709-3.16c1.698,1.719,3.129,3.798,4.2,6.248l63.304,145.485
	C195.672,313.474,171.854,366.041,127.902,383.818z"/>
<path style="fill:#91CC04;" d="M313.87,352.639c-0.278,0.154-0.556,0.309-0.834,0.463c-14.874,8.111-31.94,13-50.53,13.536
	c-1.194,0.041-2.388,0.051-3.582,0.051c-0.751,0-1.482-0.01-2.223-0.021c-0.741,0.01-1.472,0.021-2.223,0.021
	c-1.194,0-2.388-0.01-3.582-0.051c-80.884-2.337-133.02-87.009-100.73-161.203l82.552-189.705
	c4.951-11.384,15.985-16.593,26.495-15.615c3.057,0.288,6.073,1.101,8.873,2.44c5.311,2.512,9.871,6.907,12.599,13.175
	l82.552,189.705C387.961,262.265,363.175,325.228,313.87,352.639z"/>
<path style="fill:#9CDD05;" d="M313.87,352.639c-5.301,0.926-10.767,1.482-16.366,1.647c-1.194,0.041-2.388,0.051-3.582,0.051
	c-0.751,0-1.482-0.01-2.223-0.021c-0.741,0.01-1.472,0.021-2.223,0.021c-1.194,0-2.388-0.01-3.582-0.051
	c-80.884-2.337-133.02-87.009-100.73-161.203L267.715,3.379c0.124-0.278,0.247-0.556,0.371-0.823
	c5.311,2.512,9.871,6.907,12.599,13.175l82.552,189.705C387.961,262.265,363.175,325.228,313.87,352.639z"/>
<path style="fill:#CC7400;" d="M122.746,259.051l-21.536,16.316v-63.461c0-4.263-3.456-7.72-7.72-7.72s-7.72,3.456-7.72,7.72
	v107.476l-29.838-37.653c-2.648-3.342-7.505-3.903-10.845-1.256c-3.341,2.647-3.903,7.504-1.256,10.845l40.702,51.36
	c0.372,0.469,0.788,0.882,1.237,1.24v160.359c0,4.263,3.456,7.72,7.72,7.72s7.72-3.456,7.72-7.72V294.737l30.859-23.378
	c3.399-2.574,4.067-7.417,1.492-10.815C130.985,257.145,126.144,256.476,122.746,259.051z"/>
<path style="fill:#FF9811;" d="M296.265,197.713l-31.844,24.124v-87.469c0-4.263-3.455-7.72-7.72-7.72
	c-4.263,0-7.72,3.456-7.72,7.72v146.881L205.89,226.87c-2.648-3.342-7.506-3.904-10.845-1.256
	c-3.341,2.647-3.903,7.504-1.256,10.845l53.072,66.971c0.605,0.764,1.329,1.376,2.121,1.845v199.004c0,4.263,3.456,7.72,7.72,7.72
	c4.264,0,7.72-3.456,7.72-7.72V241.207l41.168-31.188c3.399-2.574,4.066-7.416,1.492-10.815
	C304.507,195.805,299.664,195.136,296.265,197.713z"/>
<g>
</g>
<g>
</g>
<g>
</g>
<g>
</g>
<g>
</g>
<g>
</g>
<g>
</g>
<g>
</g>
<g>
</g>
<g>
</g>
<g>
</g>
<g>
</g>
<g>
</g>
<g>
</g>
<g>
</g>
</svg>
