<?xml version="1.0" encoding="iso-8859-1"?>
<!-- Generator: Adobe Illustrator 19.0.0, SVG Export Plug-In . SVG Version: 6.00 Build 0)  -->
<svg version="1.1" id="Capa_1" xmlns="http://www.w3.org/2000/svg" xmlns:xlink="http://www.w3.org/1999/xlink" x="0px" y="0px"
	 viewBox="0 0 409.6 409.6" style="enable-background:new 0 0 409.6 409.6;" xml:space="preserve">
<rect x="66.206" style="fill:#FCD462;" width="138.6" height="330.2"/>
<rect x="204.806" style="fill:#F6C358;" width="138.6" height="330.2"/>
<g>
	<polygon style="fill:#DC8744;" points="343.406,330.2 66.206,330.2 204.806,266.2 	"/>
	<circle style="fill:#DC8744;" cx="141.006" cy="28.3" r="9.2"/>
	<circle style="fill:#DC8744;" cx="268.606" cy="28.3" r="9.2"/>
	<path style="fill:#DC8744;" d="M204.806,142.3c-38.5,0-69.9-33-69.9-73.6v-43h12v43c0,33.9,25.9,61.6,57.8,61.6
		s57.8-27.6,57.8-61.6v-43h12v43C274.606,109.3,243.306,142.3,204.806,142.3z"/>
</g>
<path style="fill:#FFFFFF;" d="M204.806,136.3c-38.5,0-69.9-31.3-69.9-69.9V25.7h12v40.7c0,31.9,25.9,57.8,57.8,57.8
	s57.8-25.9,57.8-57.8V25.7h12v40.7C274.606,104.9,243.306,136.3,204.806,136.3z"/>
<path style="fill:#EBF0F3;" d="M194.306,206.5c-1.2-11.7-17.4-31.4-30.8-28.9c-35,6.8-49.1,46.9-49.1,46.9s27.4-6.7,49.1-16.6
	C163.606,208,189.606,195.2,194.306,206.5z"/>
<path style="fill:#44C4A1;" d="M185.906,198.2c-9.4-0.2-21.3,5.4-23.6,6.5c-14.5,6.6-33.6,13.2-43.4,16c4.1-7.8,19.6-34.4,45.7-39.4
	c0.3,0,0.5-0.1,0.9-0.1c0.3,0,0.7,0,1.1-0.1c2.9-0.5,10.8,1.8,14.9,3.6c-1.5-1.4-3.2-2.7-4.8-3.7c-3.9-1.2-8.1-2.1-10.4-1.7
	c-0.3,0-0.6,0.1-0.8,0.1c-0.4,0-0.7,0-1.1,0.1c-29.8,5.7-46.2,38.6-47.9,42.3l-0.9,1.8l1.9-0.5c9.1-2.4,30-9.6,45.7-16.7
	c2.2-1.1,13.7-6.5,22.7-6.3c2.8,0.1,5.5,0.8,7.2,1.4c-0.3-0.7-0.6-1.4-0.9-2.2C190.406,198.8,188.206,198.3,185.906,198.2z"/>
<path style="fill:#D5D6DB;" d="M163.606,208c-21.8,9.9-49.1,16.6-49.1,16.6l58.3-2.8c0,0,19.8-2.7,21.5-12c0.2-1,0.2-2,0.1-3.2
	C189.606,195.2,163.606,208,163.606,208z"/>
<path style="fill:#EBF0F3;" d="M37.806,206.5c1.2-11.7,17.4-31.4,30.8-28.9c35,6.8,49.1,46.9,49.1,46.9s-27.4-6.7-49.1-16.6
	C68.606,208,42.606,195.2,37.806,206.5z"/>
<path style="fill:#44C4A1;" d="M46.306,198.2c9.4-0.2,21.3,5.4,23.6,6.5c14.5,6.6,33.6,13.2,43.4,16c-4.1-7.8-19.6-34.4-45.7-39.4
	c-0.3,0-0.5-0.1-0.9-0.1c-0.3,0-0.7,0-1.1-0.1c-2.9-0.5-10.8,1.8-14.9,3.6c1.5-1.4,3.2-2.7,4.8-3.7c3.9-1.2,8.1-2.1,10.4-1.7
	c0.3,0,0.6,0.1,0.8,0.1c0.4,0,0.7,0,1.1,0.1c29.8,5.7,46.2,38.6,47.9,42.3l0.9,1.8l-1.9-0.5c-9.1-2.4-30-9.6-45.7-16.7
	c-2.2-1.1-13.7-6.5-22.7-6.3c-2.8,0.1-5.5,0.8-7.2,1.4c0.3-0.7,0.6-1.4,0.9-2.2C41.706,198.8,43.906,198.3,46.306,198.2z"/>
<path style="fill:#D5D6DB;" d="M68.606,208c21.8,9.9,49.1,16.6,49.1,16.6l-58.3-2.8c0,0-19.8-2.7-21.5-12c-0.2-1-0.2-2-0.1-3.2
	C42.606,195.2,68.606,208,68.606,208z"/>
<rect x="0.006" y="223.2" style="fill:#E56353;" width="232.2" height="41.4"/>
<rect x="4.906" y="264.6" style="fill:#D15241;" width="222.4" height="145"/>
<polygon style="fill:#CE412D;" points="227.306,274.7 4.906,274.8 4.906,264.6 227.306,264.6 "/>
<rect x="96.106" y="223.2" style="fill:#EBF0F3;" width="39.9" height="186.4"/>
<g>
	<rect x="100.906" y="223.2" style="fill:#44C4A1;" width="3.6" height="186.4"/>
	<rect x="127.606" y="223.2" style="fill:#44C4A1;" width="3.6" height="186.4"/>
</g>
<path style="fill:#EBF0F3;" d="M87.306,283.6c3.8-10.2,2.6-18.2,0.9-33.6c-15.4,2.2-23.5,3.1-32.5,9.4
	c15.8-22.1,28.6-31.4,51.5-46.2c4.8,3.7,7.2,5.5,12,9.2C110.706,248.2,104.806,262.9,87.306,283.6z"/>
<g>
	<path style="fill:#44C4A1;" d="M109.406,214.9c-0.2-0.1-0.3-0.2-0.5-0.4c-0.1-0.1-0.2-0.1-0.2-0.2c-15.9,11-33.6,24.7-44.8,40.7
		c2-0.8,4-1.4,6.2-1.9c13.2-16.9,23.6-24.3,39.7-37.9C109.606,215.1,109.506,215,109.406,214.9z"/>
	<path style="fill:#44C4A1;" d="M117.806,221.3c-0.1-0.1-0.2-0.1-0.2-0.2c-0.2-0.1-0.3-0.2-0.5-0.4c-0.1-0.1-0.2-0.2-0.4-0.3
		c-9.2,18.9-13.8,30.8-26.9,47.7c0,2.3-0.1,4.4-0.3,6.5C102.206,259.9,111.106,239.4,117.806,221.3z"/>
</g>
<path style="fill:#EBF0F3;" d="M143.606,283.6c-3.8-10.2-2.6-18.2-0.9-33.6c15.4,2.2,23.5,3.1,32.5,9.4
	c-15.8-22.1-28.6-31.4-51.5-46.2c-4.8,3.7-7.2,5.5-12,9.2C120.206,248.2,126.106,262.9,143.606,283.6z"/>
<g>
	<path style="fill:#44C4A1;" d="M121.506,214.9c0.2-0.1,0.3-0.2,0.5-0.4c0.1-0.1,0.2-0.1,0.2-0.2c15.9,11,33.6,24.7,44.8,40.7
		c-2-0.8-4-1.4-6.2-1.9c-13.2-16.9-23.6-24.3-39.7-37.9C121.206,215.1,121.306,215,121.506,214.9z"/>
	<path style="fill:#44C4A1;" d="M113.106,221.3c0.1-0.1,0.2-0.1,0.2-0.2c0.2-0.1,0.3-0.2,0.5-0.4c0.1-0.1,0.2-0.2,0.4-0.3
		c9.2,18.9,13.8,30.8,26.9,47.7c0,2.3,0.1,4.4,0.3,6.5C128.606,259.9,119.706,239.4,113.106,221.3z"/>
</g>
<path style="fill:#D5D6DB;" d="M116.106,207.2c-8.8,0-16,7.1-16,15.9h31.9C132.106,214.3,124.906,207.2,116.106,207.2z"/>
<path style="fill:#EBF0F3;" d="M406.106,245.8l-102.8-51.6c-3.1-1.6-6.9-0.3-8.4,2.8l-76.3,151.9c-1.6,3.1-0.3,6.9,2.8,8.4
	l102.8,51.6c3.1,1.6,6.9,0.3,8.4-2.8l76.3-151.9C410.506,251.2,409.206,247.4,406.106,245.8z"/>
<rect x="322.372" y="192.328" transform="matrix(0.4489 -0.8936 0.8936 0.4489 -31.7114 440.9401)" style="fill:#27A2DB;" width="38.501" height="107.702"/>
<rect x="330.993" y="206.108" transform="matrix(0.4489 -0.8936 0.8936 0.4489 -47.8163 442.387)" style="fill:#2D93BA;" width="7.5" height="107.702"/>
<rect x="265.092" y="268.571" transform="matrix(0.8936 0.4489 -0.4489 0.8936 156.793 -118.7653)" style="fill:#D5D6DB;" width="127.602" height="5.5"/>
<rect x="264.513" y="262.387" transform="matrix(0.8936 0.4489 -0.4489 0.8936 158.4817 -98.5562)" style="fill:#FCD462;" width="45.201" height="45.201"/>
<rect x="320.314" y="290.488" transform="matrix(0.8936 0.4489 -0.4489 0.8936 177.0342 -120.6146)" style="fill:#44C4A1;" width="45.201" height="45.201"/>
<rect x="237.45" y="316.186" transform="matrix(0.8936 0.4489 -0.4489 0.8936 179.752 -80.6829)" style="fill:#27A2DB;" width="45.201" height="45.201"/>
<rect x="293.297" y="344.373" transform="matrix(0.8936 0.4489 -0.4489 0.8936 198.3479 -102.7526)" style="fill:#E56353;" width="45.201" height="45.201"/>
<polygon style="fill:#DC8744;" points="303.506,288.7 292.606,283.3 298.106,272.3 290.806,268.6 285.306,279.6 274.406,274.1 
	270.706,281.4 281.606,286.9 276.206,297.8 283.506,301.4 288.906,290.6 299.806,296 "/>
<g>
	
		<rect x="307.75" y="358.855" transform="matrix(-0.4489 0.8936 -0.8936 -0.4489 787.0701 264.8957)" style="fill:#FFFFFF;" width="8.2" height="32.6"/>
	
		<rect x="315.982" y="342.297" transform="matrix(-0.4489 0.8936 -0.8936 -0.4489 784.201 233.5479)" style="fill:#FFFFFF;" width="8.2" height="32.6"/>
	
		<rect x="255.889" y="322.579" transform="matrix(-0.4489 0.8936 -0.8936 -0.4489 679.5133 258.6767)" style="fill:#FFFFFF;" width="8.2" height="32.6"/>
	
		<rect x="338.945" y="296.833" transform="matrix(0.3145 0.9493 -0.9493 0.3145 532.4073 -110.9828)" style="fill:#FFFFFF;" width="8.2" height="32.601"/>
	
		<rect x="338.921" y="296.805" transform="matrix(-0.9493 0.3145 -0.3145 -0.9493 767.1067 502.4493)" style="fill:#FFFFFF;" width="8.2" height="32.601"/>
</g>
<g>
</g>
<g>
</g>
<g>
</g>
<g>
</g>
<g>
</g>
<g>
</g>
<g>
</g>
<g>
</g>
<g>
</g>
<g>
</g>
<g>
</g>
<g>
</g>
<g>
</g>
<g>
</g>
<g>
</g>
</svg>
