<?xml version="1.0" encoding="iso-8859-1"?>
<!-- Generator: Adobe Illustrator 18.0.0, SVG Export Plug-In . SVG Version: 6.00 Build 0)  -->
<!DOCTYPE svg PUBLIC "-//W3C//DTD SVG 1.1//EN" "http://www.w3.org/Graphics/SVG/1.1/DTD/svg11.dtd">
<svg version="1.1" id="Capa_1" xmlns="http://www.w3.org/2000/svg" xmlns:xlink="http://www.w3.org/1999/xlink" x="0px" y="0px"
	 viewBox="0 0 421.82 421.82" style="enable-background:new 0 0 421.82 421.82;" xml:space="preserve">
<g>
	<path style="fill:#9BC9CC;" d="M340,141.054v70.99c0,22.04-17.87,39.91-39.91,39.91H24.97c-6.89,0-13.14-2.8-17.66-7.31
		C2.8,240.124,0,233.874,0,226.984c0-10.45,6.5-19.79,16.3-23.42l35.46-13.13l15.17-5.61l40.83-15.12l18.28-6.77l51.32-19
		l26.67-9.87l43.91-16.26l37.48-13.88c0.03-0.01,0.06-0.02,0.09-0.04l0.64-0.23c0.05-0.02,0.08-0.03,0.08-0.03
		C312.3,93.974,340,113.254,340,141.054z"/>
	<path style="fill:#85B4B5;" d="M340,195.044v17c0,22.04-17.87,39.91-39.91,39.91H24.97c-6.89,0-13.14-2.8-17.66-7.31
		C2.8,240.124,0,233.874,0,226.984c0-2.96,0.52-5.83,1.49-8.5c1.25,3.48,3.26,6.6,5.82,9.16c4.52,4.51,10.77,7.31,17.66,7.31h275.12
		C322.13,234.954,340,217.084,340,195.044z"/>
	<path style="fill:#4D4D4D;" d="M322.64,150.534v52c0,2.04-0.31,4.02-0.9,5.87c-2.38,7.54-9.22,13.11-17.43,13.59
		c-0.38,0.03-0.78,0.04-1.17,0.04c-5.38,0-10.26-2.18-13.79-5.71c-2.09-2.09-3.7-4.65-4.67-7.51c-0.68-1.97-1.04-4.08-1.04-6.28v-52
		c0-10.77,8.73-19.5,19.5-19.5c5.38,0,10.26,2.18,13.79,5.71S322.64,145.154,322.64,150.534z"/>
	<path style="fill:#808080;" d="M421.82,237.224l-0.017,0.007c-10.838,4.117-22.961-1.331-27.079-12.169l-26.534-69.828
		l-45.55,21.17l-34.58,16.07l-4.42-9.51v-11.59l39-18.13l46.93-21.81c2.65-1.23,5.69-1.3,8.39-0.21c2.7,1.1,4.82,3.27,5.86,6
		L421.82,237.224z"/>
	<path style="fill:#808080;" d="M375.97,286.134L375.97,286.134c-11.586,0.503-21.385-8.484-21.884-20.07l-3.216-74.63l-28.23,3.26
		l-39,4.51v-21.14l39-4.5l37.03-4.28c2.9-0.34,5.81,0.55,8.02,2.44c2.22,1.89,3.55,4.62,3.68,7.54L375.97,286.134z"/>
	<path style="fill:#808080;" d="M343.27,236.424l-65.87,84.29l-0.004-0.003c-9.138-7.139-10.757-20.335-3.616-29.471l46-58.856
		l-15.47-10.39l-19.63-13.18c-0.68-1.97-1.04-4.08-1.04-6.28v-19.72l38.1,25.59l19.11,12.83c2.42,1.63,4.06,4.19,4.52,7.07
		C345.83,231.184,345.07,234.124,343.27,236.424z"/>
	<g>
		<circle style="fill:#FFFFFF;" cx="288" cy="168.954" r="14.912"/>
		<circle style="fill:#4D4D4D;" cx="288" cy="168.954" r="9.124"/>
	</g>
	<g>
		<circle style="fill:#FFFFFF;" cx="318" cy="147.685" r="14.912"/>
		<circle style="fill:#4D4D4D;" cx="318" cy="147.685" r="9.124"/>
	</g>
	<path style="fill:#85B4B5;" d="M285.42,103.924c-4.71,1.88-28.42,13.2-28.42,51.03c0,0-11.86-11.86-9.06-37.15L285.42,103.924z"/>
	<path style="fill:#85B4B5;" d="M177.36,143.934c-1.59,23.22,9.33,34.14,9.33,34.14c0-23.62,9.25-36.91,17.34-44.01L177.36,143.934z
		"/>
	<path style="fill:#85B4B5;" d="M126.04,162.934c-4.94,7.76-8.84,18.74-8.84,34.07c0,0-8.77-8.77-9.44-27.3L126.04,162.934z"/>
	<path style="fill:#85B4B5;" d="M66.93,184.824c-3.52,7.27-6,16.73-6,28.96c0,0-7.52-7.52-9.17-23.35L66.93,184.824z"/>
</g>
<g>
</g>
<g>
</g>
<g>
</g>
<g>
</g>
<g>
</g>
<g>
</g>
<g>
</g>
<g>
</g>
<g>
</g>
<g>
</g>
<g>
</g>
<g>
</g>
<g>
</g>
<g>
</g>
<g>
</g>
</svg>
