<?xml version="1.0" encoding="iso-8859-1"?>
<!-- Generator: Adobe Illustrator 19.0.0, SVG Export Plug-In . SVG Version: 6.00 Build 0)  -->
<svg xmlns="http://www.w3.org/2000/svg" xmlns:xlink="http://www.w3.org/1999/xlink" version="1.1" id="Layer_1" x="0px" y="0px" viewBox="0 0 429.297 429.297" style="enable-background:new 0 0 429.297 429.297;" xml:space="preserve" width="512" height="512">
<g>
	<path style="fill:#333E48;" d="M421.797,91.477h-120c-4.142,0-7.5-3.358-7.5-7.5s3.358-7.5,7.5-7.5h120c4.143,0,7.5,3.358,7.5,7.5   S425.939,91.477,421.797,91.477z"/>
	<g>
		<g>
			<path style="fill:#95D600;" d="M101.688,270.356c-9.619,39.354-12.315,79.575-5.386,112.314     c11.995,28.141,94.57,3.46,72.427-22.143c-8.303-8.535-36.443-39.212-22.605-70.12L101.688,270.356z"/>
		</g>
		<path style="fill:#95D600;" d="M286.05,134.579c0-11.972,22.343-25.701,22.343-44.602c0-27.691-26.73-55.841-57.571-55.841    c-30.84,0-55.842,25.001-55.842,55.841c0,22.306-0.316,28.558-8.416,34.508c-0.561,0.376-1.119,0.769-1.678,1.159    c-0.092,0.06-0.178,0.119-0.27,0.179l0.003,0.007c-44.531,31.325-79.826,107.864-89.526,179.168    c8.083,1.207,16.356,1.839,24.777,1.839c91.838,0,166.287-74.45,166.287-166.288c0-1.999-0.042-3.988-0.112-5.971L286.05,134.579z    "/>
		<path style="fill:#229CD2;" d="M286.05,134.579c0-6.586,6.76-13.706,12.844-21.924c-10.453,12.701-36.291,8.325-44.506,33.654    c-7.024,21.661,16.619,32.515,22.554,48.932c5.964-17.13,9.215-35.529,9.215-54.691c0-1.999-0.042-3.988-0.112-5.971    L286.05,134.579z"/>
		<path style="opacity:0.2;fill:#218649;" d="M273.813,203.527h-148.5c-9.895,20.847-17.953,43.686-23.61,66.835l-0.014-0.006    c-0.127,0.523-0.24,1.046-0.365,1.568c-0.318,1.327-0.627,2.656-0.929,3.984c-0.283,1.246-0.559,2.491-0.828,3.737    c-0.257,1.193-0.508,2.387-0.753,3.581c-0.257,1.253-0.506,2.504-0.748,3.756c-0.25,1.297-0.494,2.593-0.729,3.889    c-0.2,1.107-0.395,2.214-0.584,3.32c-0.247,1.445-0.485,2.89-0.712,4.332c-0.146,0.935-0.288,1.869-0.427,2.802    c-0.181,1.226-0.356,2.45-0.522,3.673c0.002,0,0.004,0,0.006,0.001c-3.763,27.661-3.692,54.536,1.205,77.67    c11.995,28.141,94.57,3.46,72.427-22.143c-6.959-7.153-27.848-29.861-26.282-55.222    C202.114,297.204,251.723,257.46,273.813,203.527z"/>
		<path style="opacity:0.3;fill:#218649;" d="M142.45,305.305c-7.385,1.004-14.921,1.532-22.581,1.532    c-2.604,0-5.193-0.067-7.768-0.187c-0.396,4.377-0.713,8.74-0.927,13.075c8.156,0.513,16.453,0.434,24.843-0.287    c2.532-0.218,5.043-0.5,7.538-0.828C142.604,314.311,142.17,309.85,142.45,305.305z"/>
	</g>
	<circle style="fill:#333E48;" cx="277.139" cy="70.821" r="5.536"/>
	<path style="opacity:0.2;" d="M180.079,129.205c-26.835,21.014-50.006,58.286-65.771,100.292c16.935,5.397,34.975,8.321,53.7,8.321   c25.222,0,45.669-20.449,45.669-45.672C213.678,165.15,200.676,144.642,180.079,129.205z"/>
	<g>
		<path style="fill:#00953A;" d="M0,76.359C12.104,162.141,85.805,228.13,174.928,228.13c25.223,0,45.67-20.448,45.67-45.671    C220.598,96.675,89.383,76.359,0,76.359z"/>
		<path style="fill:#00953A;" d="M0,76.359C12.104,162.141,85.805,228.13,174.928,228.13c25.223,0,45.67-20.448,45.67-45.671    C220.598,96.675,89.383,76.359,0,76.359z"/>
		<path style="fill:#95D600;" d="M4.194,97.003c20.09,75.498,88.907,131.127,170.733,131.127c11.493,0,21.985-4.254,30.012-11.262    c0.667-0.99,1.308-1.999,1.896-3.042c0.592-2.962,0.907-6.025,0.907-9.163C207.743,123.847,93.384,100.103,4.194,97.003z"/>
		<path style="opacity:0.2;fill:#218649;" d="M0,76.359c9.331,66.12,55.259,120.471,116.633,141.917V89.098    C78.473,79.637,35.87,76.359,0,76.359z"/>
	</g>
</g>















</svg>
