<?xml version="1.0" encoding="iso-8859-1"?>
<!-- Generator: Adobe Illustrator 19.0.0, SVG Export Plug-In . SVG Version: 6.00 Build 0)  -->
<svg version="1.1" id="Layer_1" xmlns="http://www.w3.org/2000/svg" xmlns:xlink="http://www.w3.org/1999/xlink" x="0px" y="0px"
	 viewBox="0 0 512 512" style="enable-background:new 0 0 512 512;" xml:space="preserve">
<g>
	<path style="fill:#493625;" d="M23.208,154.418c-3.658,0-7.03-2.398-8.101-6.088c-1.301-4.476,1.274-9.159,5.75-10.458
		c27.746-8.061,63.941-0.476,65.468-0.149c4.558,0.976,7.462,5.462,6.487,10.018c-0.976,4.556-5.46,7.458-10.014,6.488l0,0
		c-0.332-0.071-33.61-7.009-57.233-0.15C24.78,154.31,23.987,154.418,23.208,154.418z"/>
	<path style="fill:#493625;" d="M481.049,154.418c-1.294,0-2.606-0.299-3.838-0.928c-24.817-12.7-57.472-2.911-57.8-2.809
		c-4.453,1.367-9.174-1.129-10.547-5.576c-1.374-4.447,1.106-9.165,5.552-10.547c1.597-0.496,39.459-11.97,70.484,3.906
		c4.149,2.123,5.792,7.207,3.668,11.357C487.076,152.739,484.116,154.418,481.049,154.418z"/>
</g>
<path style="fill:#00A35C;" d="M388.583,339.753c-2.095-1.803-4.94-2.469-7.62-1.777c-22.925,5.925-49.464,9.924-78.877,11.89
	c-1.849,0.124-3.606,0.853-5,2.074c-31.467,27.578-27.199,78.155-27.002,80.294c0.219,2.382,1.44,4.561,3.359,5.991
	c1.47,1.096,3.242,1.673,5.045,1.673c0.551,0,1.106-0.054,1.655-0.163c41.085-8.218,71.766-24.255,91.191-47.668
	c15.926-19.196,19.386-37.894,20.135-45.04C391.757,344.276,390.679,341.558,388.583,339.753z"/>
<path style="fill:#007F42;" d="M388.583,339.753c-2.095-1.803-4.94-2.469-7.62-1.777c-7.179,1.856-14.713,3.521-22.578,4.995
	c0.514,1.266,0.726,2.656,0.578,4.056c-0.748,7.147-4.209,25.845-20.135,45.04c-15.64,18.852-38.583,32.918-68.374,41.974
	c0.532,1.658,1.568,3.126,2.986,4.185c1.47,1.096,3.242,1.673,5.045,1.673c0.551,0,1.106-0.054,1.655-0.163
	c41.085-8.218,71.766-24.255,91.191-47.668c15.926-19.196,19.386-37.894,20.135-45.04
	C391.757,344.276,390.679,341.558,388.583,339.753z"/>
<path style="fill:#00A35C;" d="M509.984,407.599c-11.42-31.146-26.953-53.609-46.165-66.765
	c-14.844-10.163-31.477-14.672-49.458-13.378c-0.86,0.062-1.705,0.254-2.506,0.572c-8.756,3.469-18.262,6.586-28.257,9.264
	c-2.347,0.629-4.311,2.239-5.386,4.42c-9.127,18.514-9.303,34.458-0.523,47.386c10.997,16.197,35.739,26.086,73.533,29.394
	c10.364,0.908,20.246,1.191,28.534,1.191c13.208,0,22.37-0.718,22.98-0.767c2.629-0.212,5.009-1.64,6.431-3.862
	C510.59,412.834,510.893,410.076,509.984,407.599z"/>
<path style="fill:#007F42;" d="M509.984,407.599c-11.42-31.146-26.953-53.609-46.165-66.765
	c-14.844-10.163-31.477-14.672-49.458-13.378c-0.86,0.062-1.705,0.254-2.506,0.572c-2,0.792-4.044,1.564-6.119,2.319
	c7.639,2.265,14.939,5.757,21.847,10.488c19.48,13.339,35.175,36.244,46.638,68.067c0.715,5.551-3.12,9.647-7.719,10.016
	c-0.251,0.02-1.959,0.153-4.777,0.303c6.484,0.339,12.603,0.465,18.031,0.465c13.208,0,22.37-0.718,22.98-0.767
	c2.629-0.212,5.009-1.64,6.431-3.862C510.59,412.834,510.893,410.076,509.984,407.599z"/>
<path style="fill:#B79274;" d="M396.324,128.509c-2.902-0.661-5.94,0.257-7.992,2.415c-2.051,2.159-2.813,5.239-2.004,8.105
	c5.347,18.95,5.213,41.862-0.358,61.29c-1.165,4.06-2.558,7.89-4.157,11.432c-26.875,5.815-54.104,9.89-81.056,12.128
	c-2.01-2.317-3.73-4.821-5.136-7.479c-1.212-2.291-3.408-3.898-5.958-4.359c-2.549-0.466-5.171,0.273-7.108,1.995
	c-8.151,7.242-19.28,11.072-32.182,11.072c-12.901,0-24.03-3.828-32.182-11.072c-1.937-1.721-4.557-2.461-7.108-1.995
	c-2.55,0.461-4.746,2.069-5.958,4.359c-1.405,2.659-3.126,5.164-5.136,7.479c-27.968-2.352-55.293-6.646-81.339-12.782
	c-1.486-3.372-2.784-6.982-3.872-10.777c-5.256-18.327-5.658-40.232-1.075-58.593c0.722-2.894-0.137-5.954-2.258-8.049
	c-2.122-2.094-5.193-2.916-8.077-2.156C17.933,154.006,0,192.131,0,220.153c0,41.399,18.04,76.37,52.17,101.134
	C95.092,352.43,163.669,368.219,256,368.219c92.33,0,160.909-15.79,203.83-46.932C493.96,296.524,512,261.552,512,220.153
	C512,190.36,491.931,150.276,396.324,128.509z"/>
<g>
	<path style="fill:#614B35;" d="M396.324,128.509c-2.902-0.661-5.94,0.257-7.992,2.415c-1.125,1.184-1.845,2.648-2.149,4.198
		c74.161,22.612,90.629,58.043,90.629,85.03c0,41.399-18.04,76.37-52.17,101.134c-40.149,29.13-102.75,44.824-186.236,46.732
		c5.767,0.132,11.629,0.2,17.594,0.2c92.33,0,160.909-15.79,203.83-46.932C493.96,296.524,512,261.552,512,220.153
		C512,190.36,491.931,150.276,396.324,128.509z"/>
	<path style="fill:#614B35;" d="M78.515,141.727c-4.583,18.361-4.18,40.266,1.076,58.593c1.088,3.794,2.387,7.404,3.872,10.777
		c26.047,6.136,53.373,10.431,81.339,12.782c1.013-1.167,1.95-2.381,2.813-3.639c-16.7-2.35-33.073-5.399-48.965-9.143
		c-1.486-3.372-2.784-6.982-3.872-10.777c-5.256-18.327-5.658-40.232-1.075-58.593c0.722-2.894-0.137-5.954-2.258-8.049
		c-2.122-2.094-5.193-2.916-8.077-2.156c-8.936,2.352-17.124,4.877-24.64,7.542C78.792,139.946,78.736,140.844,78.515,141.727z"/>
</g>
<g>
	<path style="fill:#493625;" d="M318.994,322.882c-19.194,0-37.999-0.76-56.382-2.283c-52.628-4.36-101.908-14.948-146.474-31.472
		C39.746,260.805,3.925,225.134,2.438,223.628c-3.277-3.314-3.246-8.658,0.069-11.935c3.314-3.276,8.657-3.245,11.934,0.068
		c0.709,0.707,35.727,35.115,108.643,61.939c43.082,15.849,90.777,25.993,141.761,30.148c63.844,5.203,133.059,0.982,205.724-12.548
		c4.584-0.86,8.989,2.17,9.842,6.752c0.853,4.582-2.17,8.989-6.752,9.842C420.071,317.87,368.268,322.882,318.994,322.882z"/>
	<path style="fill:#493625;" d="M177.634,307.249c-4.502,0-8.242-3.556-8.426-8.095c-0.19-4.658,3.432-8.587,8.088-8.777
		c232.85-9.487,318.214-85.689,319.049-86.458c3.429-3.156,8.768-2.934,11.926,0.494c3.156,3.43,2.935,8.768-0.494,11.926
		c-0.92,0.847-23.162,21.012-75.244,42.297c-47.409,19.375-130.054,43.536-254.548,48.607
		C177.867,307.246,177.75,307.249,177.634,307.249z"/>
	<path style="fill:#493625;" d="M301.022,294.641c-0.266,0-0.533-0.014-0.803-0.038c-0.271-0.025-27.479-2.623-57.731-7.851
		c-41.565-7.182-69.048-15.801-81.686-25.619c-3.681-2.859-4.347-8.162-1.488-11.841c2.859-3.683,8.159-4.348,11.842-1.488
		c21.211,16.477,101.502,27.238,130.649,29.994c4.641,0.439,8.047,4.556,7.608,9.197
		C309.001,291.365,305.323,294.641,301.022,294.641z"/>
</g>
<path style="fill:#FFDCAF;" d="M218.192,214.038c-10.336-9.183-15.799-23.896-15.799-42.548c0-10.24,1.635-21.276,4.73-31.915
	c0.695-2.389,0.3-4.962-1.08-7.034c-20.99-31.517-49.465-47.607-72.543-40.985c-16.988,4.871-29.784,21.031-36.032,45.504
	c-5.424,21.245-5.019,46.633,1.085,67.914c1.762,6.144,4.005,11.929,6.665,17.193c1.113,2.202,3.135,3.808,5.533,4.392
	c29.329,7.152,60.257,12.022,91.924,14.47c0.217,0.017,0.434,0.025,0.652,0.025c2.18,0,4.286-0.845,5.865-2.371
	c4.405-4.259,8.059-9.102,10.857-14.393C221.865,220.855,221.099,216.62,218.192,214.038z"/>
<path style="fill:#D3B492;" d="M202.393,171.49c0-10.24,1.635-21.276,4.73-31.915c0.695-2.389,0.3-4.962-1.08-7.034
	c-5.246-7.878-10.96-14.792-16.941-20.627c-9.093,17.94-14.429,39.71-14.429,59.577c0,22.113,6.567,40.383,18.99,52.834
	c5.11,5.122,11.075,9.168,17.738,12.092c3.425-3.686,6.333-7.749,8.647-12.125c1.817-3.438,1.051-7.671-1.856-10.254
	C207.857,204.854,202.393,190.141,202.393,171.49z"/>
<path style="fill:#FFDCAF;" d="M403.28,137.061c-6.248-24.472-19.044-40.633-36.032-45.504
	c-23.077-6.623-51.554,9.469-72.543,40.985c-1.38,2.072-1.775,4.645-1.08,7.035c3.095,10.637,4.73,21.673,4.73,31.914
	c0,18.65-5.463,33.364-15.799,42.548c-2.907,2.583-3.673,6.817-1.856,10.254c2.796,5.288,6.447,10.13,10.851,14.389
	c1.58,1.527,3.685,2.372,5.866,2.372c0.214,0,0.429-0.008,0.644-0.024c30.378-2.323,61.127-6.923,91.396-13.674
	c2.434-0.542,4.503-2.136,5.652-4.347c2.836-5.461,5.219-11.526,7.086-18.031v-0.001
	C408.298,183.695,408.704,158.306,403.28,137.061z"/>
<path style="fill:#D3B492;" d="M325.733,171.49c0-19.783-5.29-41.454-14.314-59.349c-5.898,5.79-11.535,12.623-16.715,20.4
	c-1.38,2.072-1.775,4.645-1.08,7.035c3.095,10.637,4.73,21.673,4.73,31.914c0,18.65-5.463,33.364-15.799,42.548
	c-2.907,2.583-3.673,6.817-1.856,10.254c2.292,4.335,5.167,8.363,8.552,12.022c6.565-2.916,12.442-6.929,17.49-11.989
	C319.165,211.873,325.733,193.604,325.733,171.49z"/>
<path style="fill:#FFDCAF;" d="M297.555,105.91c-12.753-21.802-29.508-33.809-47.181-33.809s-34.428,12.007-47.181,33.809
	c-11.07,18.927-17.679,43.443-17.679,65.58c0,22.113,6.567,40.383,18.99,52.834c11.53,11.555,27.39,17.663,45.87,17.663
	c18.479,0,34.34-6.108,45.87-17.663c12.423-12.451,18.99-30.721,18.99-52.834C315.234,149.353,308.625,124.837,297.555,105.91z"/>
<path style="fill:#D3B492;" d="M297.555,105.91c-12.753-21.802-29.508-33.809-47.181-33.809c-5.381,0-10.675,1.12-15.799,3.282
	c11.704,4.943,22.511,15.362,31.381,30.525c11.07,18.927,17.68,43.443,17.68,65.58c0,22.113-6.567,40.383-18.991,52.834
	c-8.087,8.105-18.312,13.519-30.07,16.036c5.004,1.071,10.282,1.628,15.799,1.628c18.478,0,34.34-6.108,45.87-17.663
	c12.423-12.451,18.99-30.721,18.99-52.834C315.234,149.353,308.625,124.837,297.555,105.91z"/>
<path style="fill:#493625;" d="M249.559,242.782c-30.835,0-58.075-2.266-80.828-5.334c-71.717-9.671-114.647-28.715-116.44-29.519
	c-4.251-1.912-6.147-6.908-4.237-11.159c1.912-4.249,6.907-6.144,11.158-4.237c0.698,0.311,43.204,19.027,112.468,28.282
	c64.038,8.554,164.749,10.54,280.864-28.581c4.417-1.49,9.204,0.886,10.692,5.303c1.489,4.417-0.887,9.205-5.303,10.692
	C379.643,234.607,308.124,242.782,249.559,242.782z"/>
<g>
</g>
<g>
</g>
<g>
</g>
<g>
</g>
<g>
</g>
<g>
</g>
<g>
</g>
<g>
</g>
<g>
</g>
<g>
</g>
<g>
</g>
<g>
</g>
<g>
</g>
<g>
</g>
<g>
</g>
</svg>
