<?xml version="1.0" encoding="iso-8859-1"?>
<!-- Generator: Adobe Illustrator 19.0.0, SVG Export Plug-In . SVG Version: 6.00 Build 0)  -->
<svg version="1.1" id="Capa_1" xmlns="http://www.w3.org/2000/svg" xmlns:xlink="http://www.w3.org/1999/xlink" x="0px" y="0px"
	 viewBox="0 0 512 512" style="enable-background:new 0 0 512 512;" xml:space="preserve">
<path style="fill:#A16B4E;" d="M384.45,396.442c0,59.637-57.509,91.521-128.45,91.521s-128.45-31.884-128.45-91.521
	S185.059,288.459,256,288.459S384.45,336.805,384.45,396.442z"/>
<g style="opacity:0.1;">
	<path d="M256,435.048c-4.142,0-7.5-3.358-7.5-7.5v-11.447c0-4.143,3.358-7.5,7.5-7.5s7.5,3.357,7.5,7.5v11.447
		C263.5,431.69,260.142,435.048,256,435.048z"/>
	<path d="M220.765,418.259c-4.142,0-7.5-3.357-7.5-7.5v-12.21c0-4.143,3.358-7.5,7.5-7.5s7.5,3.357,7.5,7.5v12.21
		C228.265,414.901,224.907,418.259,220.765,418.259z"/>
	<path d="M291.235,418.259c-4.142,0-7.5-3.357-7.5-7.5v-12.21c0-4.143,3.358-7.5,7.5-7.5s7.5,3.357,7.5,7.5v12.21
		C298.735,414.901,295.377,418.259,291.235,418.259z"/>
</g>
<g>
	<path style="fill:#7D4E3E;" d="M87.777,352.634c-9.548,26.232-12.761,101.227,13.471,110.775s71.976-49.967,81.524-76.199
		s-3.978-55.237-30.21-64.785S97.324,326.402,87.777,352.634z"/>
	<path style="fill:#7D4E3E;" d="M424.223,352.634c9.548,26.232,12.761,101.227-13.471,110.775s-71.976-49.967-81.524-76.199
		c-9.548-26.232,3.978-55.237,30.21-64.785C385.67,312.877,414.675,326.402,424.223,352.634z"/>
</g>
<path style="opacity:0.15;enable-background:new    ;" d="M359.438,322.424c-2.332,0.849-4.559,1.858-6.683,2.999
	c-23.546-22.652-58.161-36.964-96.756-36.964s-73.21,14.312-96.756,36.964c-2.124-1.141-4.351-2.15-6.683-2.999
	c-15.252-5.551-31.435-3.29-44.193,4.721c32.532,39.143,86.52,64.753,147.631,64.753s115.099-25.61,147.631-64.753
	C390.873,319.134,374.69,316.873,359.438,322.424z"/>
<ellipse style="fill:#A16B4E;" cx="256" cy="191.38" rx="207.62" ry="174.53"/>
<path style="opacity:0.1;enable-background:new    ;" d="M394.578,61.423c30.87,30.465,49.512,69.955,49.512,113.11
	c0,96.392-92.952,174.533-207.615,174.533c-53.259,0-101.826-16.866-138.578-44.581c38.081,37.581,94.776,61.423,158.103,61.423
	c114.663,0,207.615-78.141,207.615-174.534C463.615,139.756,436.951,93.377,394.578,61.423z"/>
<path style="fill:#FC8063;" d="M368.933,153.205l94.873-120.659c8.645-10.995-1.202-26.778-14.878-23.848l-36.131,7.742
	c-13.449,2.882-27.395,2.479-40.655-1.176L327.073,2.845c-20.801-5.733-43.041-2.724-61.571,8.33l0,0
	c-5.854,3.492-13.151,3.492-19.004,0l0,0c-18.53-11.054-40.77-14.062-61.571-8.33l-45.069,12.421
	c-13.26,3.654-27.206,4.058-40.655,1.176L63.072,8.699C49.396,5.768,39.549,21.552,48.194,32.546l94.873,120.659H368.933z"/>
<circle style="fill:#FAD97E;" cx="178.4" cy="153.21" r="77.6"/>
<path style="fill:#4A5058;" d="M202.086,168.412c-4.142,0-7.5-3.357-7.5-7.5c0-8.925-7.261-16.186-16.185-16.186
	s-16.185,7.261-16.185,16.186c0,4.143-3.358,7.5-7.5,7.5s-7.5-3.357-7.5-7.5c0-17.195,13.99-31.186,31.185-31.186
	s31.185,13.99,31.185,31.186C209.586,165.055,206.228,168.412,202.086,168.412z"/>
<circle style="fill:#FAD97E;" cx="333.6" cy="153.21" r="77.6"/>
<path style="fill:#4A5058;" d="M357.284,168.412c-4.142,0-7.5-3.357-7.5-7.5c0-8.925-7.261-16.186-16.185-16.186
	s-16.185,7.261-16.185,16.186c0,4.143-3.358,7.5-7.5,7.5s-7.5-3.357-7.5-7.5c0-17.195,13.99-31.186,31.185-31.186
	s31.185,13.99,31.185,31.186C364.784,165.055,361.426,168.412,357.284,168.412z"/>
<path style="opacity:0.1;enable-background:new    ;" d="M245.467,172.099l-21.956,42.33c-4.906,9.459-3.12,21.007,4.415,28.542
	l18.844,18.844c5.098,5.098,13.364,5.098,18.462,0l18.844-18.844c7.535-7.535,9.321-19.082,4.415-28.542l-21.956-42.33
	C262.105,163.563,249.894,163.563,245.467,172.099z"/>
<g>
	<path style="fill:#FC8063;" d="M245.467,157.535l-21.956,42.33c-4.906,9.459-3.12,21.007,4.415,28.542l18.844,18.844
		c5.098,5.098,13.364,5.098,18.462,0l18.844-18.844c7.535-7.535,9.321-19.082,4.415-28.542l-21.956-42.33
		C262.105,148.998,249.894,148.998,245.467,157.535z"/>
	<path style="fill:#FC8063;" d="M209.262,512c-11.062,0-20.03-8.968-20.03-20.03v-27.534c0-11.063,8.968-20.031,20.03-20.031
		c11.063,0,20.031,8.968,20.031,20.031v27.534C229.293,503.032,220.325,512,209.262,512z"/>
	<path style="fill:#FC8063;" d="M302.738,512c-11.063,0-20.031-8.968-20.031-20.03v-27.534c0-11.063,8.968-20.031,20.031-20.031
		c11.062,0,20.031,8.968,20.031,20.031v27.534C322.768,503.032,313.8,512,302.738,512z"/>
</g>
<g>
</g>
<g>
</g>
<g>
</g>
<g>
</g>
<g>
</g>
<g>
</g>
<g>
</g>
<g>
</g>
<g>
</g>
<g>
</g>
<g>
</g>
<g>
</g>
<g>
</g>
<g>
</g>
<g>
</g>
</svg>
