<?xml version="1.0" encoding="iso-8859-1"?>
<!-- Generator: Adobe Illustrator 19.0.0, SVG Export Plug-In . SVG Version: 6.00 Build 0)  -->
<svg version="1.1" id="Layer_1" xmlns="http://www.w3.org/2000/svg" xmlns:xlink="http://www.w3.org/1999/xlink" x="0px" y="0px"
	 viewBox="0 0 512.001 512.001" style="enable-background:new 0 0 512.001 512.001;" xml:space="preserve">
<path style="fill:#8C4A14;" d="M260.657,366.279H234.71v-19.767h9.433c4.66,0,8.436-3.777,8.436-8.436s-3.776-8.436-8.436-8.436
	h-9.433v-19.766h9.433c4.66,0,8.436-3.777,8.436-8.436s-3.776-8.436-8.436-8.436H58.89c-4.66,0-8.436,3.777-8.436,8.436
	s3.776,8.436,8.436,8.436h9.433v19.766H58.89c-4.66,0-8.436,3.777-8.436,8.436s3.776,8.436,8.436,8.436h9.433v19.766H42.377
	c-4.66,0-8.436,3.777-8.436,8.436s3.776,8.436,8.436,8.436h25.947v39.456c0,4.659,3.776,8.436,8.436,8.436
	c4.66,0,8.436-3.777,8.436-8.436v-39.456h132.644v39.456c0,4.659,3.776,8.436,8.436,8.436s8.436-3.777,8.436-8.436v-39.456h25.947
	c4.66,0,8.436-3.777,8.436-8.436S265.317,366.279,260.657,366.279z M85.195,309.874h132.644v19.766H85.195V309.874z M85.195,366.279
	v-19.767h132.644v19.766H85.195V366.279z"/>
<path style="fill:#00A35C;" d="M472.457,169.842c-2.521-50.043-41.097-89.945-88.08-89.945c-47.534,0-86.406,40.772-88.152,91.597
	c-22.878,14.919-36.896,41.493-36.896,70.557c0,37.804,24.001,70.734,57.637,79.942c13.847,26.077,39.332,42.104,67.41,42.104
	c27.751,0,53.065-15.732,67.004-41.344c16.331-3.733,31.167-13.188,42.143-26.947c11.914-14.937,18.476-34.027,18.476-53.754
	C512,212.045,496.634,184.27,472.457,169.842z"/>
<path style="fill:#007F42;" d="M472.457,169.842c-2.521-50.043-41.097-89.945-88.08-89.945c-5.625,0-11.123,0.589-16.458,1.68
	c39.236,8.036,69.397,44.214,71.616,88.264c24.176,14.427,39.543,42.203,39.543,72.211c0,19.727-6.562,38.817-18.476,53.754
	c-10.976,13.759-25.812,23.214-42.143,26.947c-11.123,20.438-29.491,34.572-50.557,39.455c5.34,1.236,10.855,1.89,16.475,1.89
	c27.751,0,53.065-15.732,67.004-41.344c16.331-3.733,31.167-13.188,42.143-26.947C505.438,280.87,512,261.78,512,242.053
	C512,212.045,496.634,184.27,472.457,169.842z"/>
<path style="fill:#8C4A14;" d="M436.115,221.623c-3.153-3.429-8.49-3.654-11.919-0.499l-30.097,27.677v-56.313
	c0-4.659-3.776-8.436-8.436-8.436s-8.436,3.777-8.436,8.436v102.1l-30.097-27.675c-3.429-3.155-8.766-2.93-11.919,0.499
	c-3.154,3.429-2.93,8.766,0.499,11.919l41.515,38.176v105.099c0,4.659,3.776,8.436,8.436,8.436s8.436-3.777,8.436-8.436V271.718
	l41.515-38.177C439.046,230.388,439.268,225.053,436.115,221.623z"/>
<path style="fill:#44352D;" d="M503.323,432.103H8.436c-4.66,0-8.436-3.777-8.436-8.436c0-4.659,3.776-8.436,8.436-8.436h494.887
	c4.66,0,8.436,3.777,8.436,8.436C511.758,428.326,507.982,432.103,503.323,432.103z"/>
<g>
</g>
<g>
</g>
<g>
</g>
<g>
</g>
<g>
</g>
<g>
</g>
<g>
</g>
<g>
</g>
<g>
</g>
<g>
</g>
<g>
</g>
<g>
</g>
<g>
</g>
<g>
</g>
<g>
</g>
</svg>
