<?xml version="1.0" encoding="iso-8859-1"?>
<!-- Generator: Adobe Illustrator 19.0.0, SVG Export Plug-In . SVG Version: 6.00 Build 0)  -->
<svg version="1.1" id="Capa_1" xmlns="http://www.w3.org/2000/svg" xmlns:xlink="http://www.w3.org/1999/xlink" x="0px" y="0px"
	 viewBox="0 0 512.001 512.001" style="enable-background:new 0 0 512.001 512.001;" xml:space="preserve">
<path style="fill:#9798BC;" d="M482.198,408.688H29.802c-2.964,0-4.028,2.01-2.364,4.467l53.926,79.608
	c1.664,2.456,5.451,4.467,8.415,4.467h332.44c2.964,0,6.751-2.01,8.415-4.467l53.927-79.608
	C486.227,410.698,485.163,408.688,482.198,408.688z"/>
<path style="fill:#B2B4CE;" d="M63.193,465.939l18.171,26.825c1.664,2.456,5.451,4.467,8.415,4.467h332.44
	c2.964,0,6.751-2.01,8.415-4.467l18.171-26.825H63.193z"/>
<g style="opacity:0.1;">
	<path d="M121.16,492.763l-53.926-79.608c-1.665-2.457-0.601-4.467,2.364-4.467H29.802c-2.964,0-4.028,2.01-2.364,4.467
		l53.926,79.608c1.664,2.456,5.451,4.467,8.415,4.467h39.795C126.611,497.23,122.823,495.22,121.16,492.763z"/>
</g>
<path style="fill:#F8C36E;" d="M488.285,381.357C447.479,302.089,358.82,247.153,256,247.153S64.521,302.089,23.715,381.357H488.285
	z"/>
<g style="opacity:0.1;">
	<path d="M281.487,248.298c-8.384-0.751-16.885-1.145-25.487-1.145c-102.82,0-191.479,54.936-232.285,134.204h50.973
		C112.081,308.721,189.656,256.524,281.487,248.298z"/>
</g>
<path style="fill:#F6AD38;" d="M512,388.235c0-13.225-10.473-24.046-23.273-24.046H23.272C10.473,364.19,0,375.011,0,388.235v6.579
	c0,21.988,17.138,39.811,38.281,39.811c12.817,0,24.155-6.557,31.103-16.615c6.948,10.058,18.285,16.615,31.102,16.615
	s24.154-6.557,31.103-16.615c6.948,10.058,18.285,16.615,31.102,16.615c12.818,0,24.156-6.557,31.104-16.615
	c6.948,10.058,18.285,16.615,31.103,16.615c12.817,0,24.155-6.557,31.103-16.615c6.948,10.058,18.285,16.615,31.102,16.615
	c12.818,0,24.154-6.557,31.104-16.615c6.947,10.058,18.284,16.615,31.103,16.615c12.818,0,24.155-6.557,31.102-16.615
	c6.948,10.058,18.285,16.615,31.103,16.615s24.155-6.557,31.103-16.615c6.948,10.058,18.286,16.615,31.102,16.615
	c21.143,0,38.281-17.824,38.281-39.811L512,388.235L512,388.235z"/>
<g style="opacity:0.1;">
	<path d="M31.42,394.815v-6.579c0-13.225,10.474-24.046,23.273-24.046H23.272C10.473,364.19,0,375.011,0,388.235v6.579
		c0,21.988,17.138,39.811,38.281,39.811c5.604,0,10.924-1.253,15.719-3.505C40.69,424.886,31.42,410.981,31.42,394.815z"/>
</g>
<ellipse style="fill:#F39600;" cx="256" cy="304.94" rx="13.736" ry="25.479"/>
<g>
	<path style="fill:#995C57;" d="M205.646,281.691c5.364,5.42,0.931,18.686-9.901,29.631c-10.833,10.945-23.963,15.424-29.327,10.004
		s-0.931-18.687,9.901-29.63C187.152,280.751,200.282,276.272,205.646,281.691z"/>
	<path style="fill:#995C57;" d="M307.211,281.691c-5.364,5.42-0.931,18.686,9.901,29.631c10.833,10.945,23.963,15.424,29.327,10.004
		c5.364-5.42,0.931-18.687-9.902-29.63C325.705,280.751,312.575,276.272,307.211,281.691z"/>
</g>
<g>
	<path style="fill:#F39600;" d="M356.807,260.03c-3.754,6.66,3.995,18.269,17.307,25.928s27.146,8.47,30.901,1.809
		c3.753-6.662-3.994-18.27-17.308-25.929C374.396,254.18,360.56,253.369,356.807,260.03z"/>
	<path style="fill:#F39600;" d="M160.047,260.03c3.754,6.66-3.994,18.269-17.307,25.928c-13.311,7.659-27.147,8.47-30.901,1.809
		c-3.754-6.662,3.994-18.27,17.307-25.929C142.458,254.18,156.294,253.369,160.047,260.03z"/>
</g>
<g>
	<path style="fill:#FBE24F;" d="M325.286,66.593h-26.664c-4.142,0-7.5,3.358-7.5,7.5s3.358,7.5,7.5,7.5h26.664
		c17.174,0,31.146,14.081,31.146,31.388c0,17.309-13.972,31.39-31.146,31.39h-76.688c-21.991,0-39.882,17.982-39.882,40.084v21.158
		c0,4.142,3.358,7.5,7.5,7.5s7.5-3.358,7.5-7.5v-21.158c0-13.832,11.162-25.084,24.882-25.084h76.688
		c25.445,0,46.146-20.811,46.146-46.39S350.731,66.593,325.286,66.593z"/>
	<path style="fill:#FBE24F;" d="M256.289,103.681c0-4.142-3.358-7.5-7.5-7.5h-60.27c-18.169,0-32.951-14.896-32.951-33.206
		S170.35,29.77,188.519,29.77h21.638c4.142,0,7.5-3.358,7.5-7.5s-3.358-7.5-7.5-7.5h-21.638c-26.44,0-47.951,21.625-47.951,48.206
		s21.511,48.206,47.951,48.206h60.27C252.931,111.181,256.289,107.823,256.289,103.681z"/>
</g>
<g>
</g>
<g>
</g>
<g>
</g>
<g>
</g>
<g>
</g>
<g>
</g>
<g>
</g>
<g>
</g>
<g>
</g>
<g>
</g>
<g>
</g>
<g>
</g>
<g>
</g>
<g>
</g>
<g>
</g>
</svg>
