<?xml version="1.0" encoding="iso-8859-1"?>
<!-- Generator: Adobe Illustrator 19.0.0, SVG Export Plug-In . SVG Version: 6.00 Build 0)  -->
<svg xmlns="http://www.w3.org/2000/svg" xmlns:xlink="http://www.w3.org/1999/xlink" version="1.1" id="Layer_1" x="0px" y="0px" viewBox="0 0 416.188 416.188" style="enable-background:new 0 0 416.188 416.188;" xml:space="preserve" width="512" height="512">
<g>
	<path style="fill:#AEB1B3;" d="M176.451,279.436c-12.076-4.272-25.343,2.057-29.615,14.141l-26.52,74.986h-19.545   c-13.151,0-23.811,10.662-23.811,23.814c0,13.15,10.66,23.811,23.811,23.811h35.738c12.23,0,20.482-10.104,23.652-21.088   l30.431-86.048C194.866,296.968,188.535,283.708,176.451,279.436z"/>
	<path style="fill:#AEB1B3;" d="M287.529,281.452c-20.651,0-37.392,16.741-37.392,37.393v49.718h-26.516   c-13.15,0-23.813,10.662-23.813,23.814c0,13.15,10.662,23.811,23.813,23.811h77.488c13.151,0,23.813-10.661,23.813-23.811v-73.531   C324.922,298.193,308.181,281.452,287.529,281.452z"/>
	<path style="opacity:0.3;" d="M176.451,279.436c-12.076-4.272-25.343,2.057-29.617,14.141l-20.461,57.859   c9.727,7.228,25.102,16.18,40.78,23.894l23.439-66.277C194.865,296.968,188.535,283.708,176.451,279.436z"/>
	<circle style="fill:#C5C7C7;" cx="347.917" cy="254.9" r="32.467"/>
	<path style="opacity:0.3;" d="M287.529,281.452c-20.651,0-37.392,16.741-37.392,37.393v49.718h-26.516   c-12.049,0-21.98,8.958-23.566,20.571c3.932,1.273,7.547,2.248,10.691,2.837c9.559,2.574,19.444,3.88,29.395,3.88   c33.758,0,64.094-14.913,84.781-38.49v-38.516C324.922,298.193,308.181,281.452,287.529,281.452z"/>
	<path style="fill:#AEB1B3;" d="M240.141,181.881c-12.697,0-42.4,0.071-54.803,0.079c-0.662-0.023-1.32-0.065-1.987-0.074   c-48.256-0.563-87.835,38.102-88.397,86.359c-0.325,27.918,12.494,52.911,32.688,69.145l-0.009,0.025   c11.659,11.658,62.993,39.244,85.677,43.228v-0.002c8.547,2.345,17.541,3.604,26.832,3.604   c55.881,0,101.183-45.302,101.183-101.184C341.323,227.183,296.021,181.881,240.141,181.881z"/>
	<path style="opacity:0.15;" d="M306.252,281.452c-20.652,0-37.394,16.741-37.394,37.393v49.718h-26.516   c-13.151,0-23.811,10.662-23.811,23.814c0,13.15,10.66,23.811,23.811,23.811h77.488c13.152,0,23.813-10.661,23.813-23.811v-73.531   C343.644,298.193,326.902,281.452,306.252,281.452z"/>
	<path style="opacity:0.15;" d="M195.172,279.436c-12.076-4.272-25.342,2.057-29.615,14.141l-26.52,74.986h-19.543   c-13.152,0-23.813,10.662-23.813,23.814c0,13.15,10.66,23.811,23.813,23.811h35.736c12.217,0,22.27-9.203,23.641-21.053   l30.443-86.083C213.587,296.968,207.256,283.708,195.172,279.436z"/>
	<g>
		<g>
			<path style="fill:#C5C7C7;" d="M80.145,158.752c-13.808,0-25-11.193-25-25V25c0-13.807,11.192-25,25-25s25,11.193,25,25v108.752     C105.145,147.559,93.952,158.752,80.145,158.752z"/>
			<path style="fill:#FF8189;" d="M80.145,128.752c-4.143,0-7.5-3.358-7.5-7.5V25c0-4.142,3.357-7.5,7.5-7.5     c4.143,0,7.5,3.358,7.5,7.5v96.252C87.645,125.394,84.287,128.752,80.145,128.752z"/>
		</g>
		<g>
			<path style="fill:#C5C7C7;" d="M179.414,158.752c-13.808,0-25-11.193-25-25V25c0-13.807,11.192-25,25-25s25,11.193,25,25v108.752     C204.414,147.559,193.222,158.752,179.414,158.752z"/>
			<path style="fill:#FF8189;" d="M179.414,128.752c-4.143,0-7.5-3.358-7.5-7.5V25c0-4.142,3.357-7.5,7.5-7.5     c4.143,0,7.5,3.358,7.5,7.5v96.252C186.914,125.394,183.557,128.752,179.414,128.752z"/>
		</g>
		<circle style="fill:#C5C7C7;" cx="129.78" cy="187.477" r="93.976"/>
		<circle style="fill:#333E48;" cx="76.386" cy="173.93" r="8.433"/>
		<circle style="fill:#333E48;" cx="183.173" cy="173.93" r="8.433"/>
		<path style="fill:#FF8189;" d="M143.293,192.186c0-4.898-6.051-6.094-13.514-6.094c-7.463,0-13.513,1.195-13.513,6.094    c0,4.898,6.05,8.87,13.513,8.87C137.242,201.056,143.293,197.084,143.293,192.186z"/>
	</g>
	<path style="fill:#C5C7C7;" d="M316.537,281.452c-20.65,0-37.392,16.741-37.392,37.393v49.718H252.63   c-13.151,0-23.813,10.662-23.813,23.814c0,13.15,10.661,23.811,23.813,23.811h77.487c13.152,0,23.814-10.661,23.814-23.811v-73.531   C353.931,298.193,337.189,281.452,316.537,281.452z"/>
	<path style="fill:#C5C7C7;" d="M205.459,279.436c-12.076-4.272-25.343,2.057-29.615,14.141l-26.52,74.986h-19.545   c-13.151,0-23.812,10.662-23.812,23.814c0,13.15,10.66,23.811,23.812,23.811h35.738c12.23,0,20.482-10.104,23.652-21.088   l30.431-86.048C223.874,296.968,217.543,283.708,205.459,279.436z"/>
</g>















</svg>
