<?xml version="1.0" encoding="iso-8859-1"?>
<!-- Generator: Adobe Illustrator 19.0.0, SVG Export Plug-In . SVG Version: 6.00 Build 0)  -->
<svg version="1.1" id="Capa_1" xmlns="http://www.w3.org/2000/svg" xmlns:xlink="http://www.w3.org/1999/xlink" x="0px" y="0px"
	 viewBox="0 0 512 512" style="enable-background:new 0 0 512 512;" xml:space="preserve">
<path style="fill:#995C3D;" d="M405.969,0.052c-74.428,0-134.973,61.544-134.973,135.972v29.994c0,8.274-6.723,14.997-14.997,14.997
	l14.997,29.994h119.976L450.96,78.731V46.043C450.96,21.233,430.778,0.052,405.969,0.052z"/>
<path style="fill:#B37447;" d="M88.513,152.032c-47.055-7.429-88.462,28.502-88.462,73.974v119.976
	c0,8.289,6.708,14.997,14.997,14.997c41.345,0,75.985-33.64,75.985-74.985l53.47-88.664
	C134.134,172.975,113.206,156.045,88.513,152.032z"/>
<path style="fill:#FFE0B3;" d="M511.947,148.321v17.697c0,24.894-21.095,44.991-45.991,44.991h-44.991v251.148l-89.982,26.395
	V406.97c0-24.896-20.095-45.991-44.991-45.991h-89.982c-24.896,0-44.991,21.095-44.991,45.991v74.685l-89.982-29.694V285.994
	c0-52.789,39.292-96.581,89.982-103.78c4.798-0.899,9.899-1.199,14.997-1.199h149.97c8.399,0,14.997-6.6,14.997-14.997v-29.994
	c0-41.392,33.593-74.985,74.985-74.985h17.697c11.997,0,23.094,4.798,31.794,13.197l43.29,42.29
	C507.149,125.227,511.947,136.325,511.947,148.321z"/>
<path style="fill:#FFC380;" d="M511.947,148.321v17.697c0,24.894-21.095,44.991-45.991,44.991h-44.991v251.148l-89.982,26.395
	V406.97c0-24.896-20.095-45.991-44.991-45.991h-29.994V181.016h59.988c8.399,0,14.997-6.6,14.997-14.997v-29.994
	c0-41.392,33.593-74.985,74.985-74.985h17.697c11.997,0,23.094,4.798,31.794,13.197l43.29,42.29
	C507.149,125.227,511.947,136.325,511.947,148.321z"/>
<path style="fill:#B37447;" d="M493.651,464.557c-77.685,33.293-160.868,47.39-237.652,47.39
	c-77.385,0-160.567-14.398-237.652-47.39c-15.297-6.598-22.495-24.295-15.896-39.292c5.999-14.096,21.295-21.595,36.292-17.097
	c29.994,9.298,93.682,43.792,217.257,43.792c69.286,0,144.271-12.897,213.257-42.592c14.697-6.298,33.694,0.3,40.292,15.898
	C516.146,440.262,508.949,457.959,493.651,464.557z"/>
<circle style="fill:#995C3D;" cx="405.967" cy="136.023" r="14.997"/>
<path style="fill:#E55639;" d="M330.984,166.019V256c0,24.894-20.095,44.991-44.991,44.991h-89.982
	c-24.896,0-44.991-20.097-44.991-44.991v-73.786c4.798-0.899,9.899-1.199,14.997-1.199h149.97
	C324.386,181.016,330.984,174.416,330.984,166.019z"/>
<path style="fill:#995C3D;" d="M493.651,464.557c-77.685,33.293-160.868,47.39-237.652,47.39V451.96
	c69.286,0,144.271-12.897,213.257-42.592c14.697-6.298,33.694,0.3,40.292,15.898C516.146,440.262,508.949,457.959,493.651,464.557z"
	/>
<path style="fill:#CF4529;" d="M330.984,166.019V256c0,24.894-20.095,44.991-44.991,44.991h-29.994V181.016h59.988
	C324.386,181.016,330.984,174.416,330.984,166.019z"/>
<g>
</g>
<g>
</g>
<g>
</g>
<g>
</g>
<g>
</g>
<g>
</g>
<g>
</g>
<g>
</g>
<g>
</g>
<g>
</g>
<g>
</g>
<g>
</g>
<g>
</g>
<g>
</g>
<g>
</g>
</svg>
