<?xml version="1.0" encoding="iso-8859-1"?>
<!-- Generator: Adobe Illustrator 19.0.0, SVG Export Plug-In . SVG Version: 6.00 Build 0)  -->
<svg version="1.1" id="Layer_1" xmlns="http://www.w3.org/2000/svg" xmlns:xlink="http://www.w3.org/1999/xlink" x="0px" y="0px"
	 viewBox="0 0 512 512" style="enable-background:new 0 0 512 512;" xml:space="preserve">
<path style="fill:#FED159;" d="M331.258,491.583H330.3l-9.607-50.185l-10.861,2.079l9.211,48.106l0,0c-4.789,0-8.67,3.882-8.67,8.67
	v2.387h43.616l0,0c0-6.108-4.95-11.058-11.058-11.058L331.258,491.583L331.258,491.583z"/>
<path style="fill:#EE4948;" d="M349.049,116.336c0.135,0.356,0.27,0.713,0.405,1.081l-0.823,0.295
	c-2.642,0.835-5.467,1.29-8.392,1.29c-15.432,0-27.951-12.507-27.951-27.939c0-13.269,9.252-24.364,21.648-27.226
	c-1.413-3.342-2.187-7.003-2.187-10.861c0-15.432,12.507-27.939,27.939-27.939c6.499,0,12.483,2.224,17.225,5.947
	c2.863-12.385,13.957-21.624,27.214-21.624c15.432,0,27.939,12.52,27.939,27.951c0,7.667-3.072,14.596-8.072,19.646
	c-9.903-6.696-8.355,20.211-20.862,21.808c-10.075,1.29-16.808,9.374-23.958,15.358
	C362.846,107.772,382.246,111.937,349.049,116.336z"/>
<path style="fill:#FED159;" d="M498.733,79.993l-40.41,19.941l-12.532,6.18c0.971-6.659-28.467-8.686-30.372-15.677
	c-1.855-6.819,23.995-17.95,19.756-23.209C435.176,67.227,469.246,61.563,498.733,79.993z"/>
<path style="fill:#EE4948;" d="M494.899,121.914c10.32,6.192,10.652,21.046,0.602,27.693c-3.784,2.494-8.072,3.71-12.335,3.71
	c-4.828,0-9.632-1.56-13.576-4.583c-2.359-2.654-26.895,16.869-29.413,14.375c-6.77-6.757-14.51-6.352-22.3-11.856
	c2.715-5.087-3.293-54.993-2.457-60.817l42.904,9.497L494.899,121.914z"/>
<path style="fill:#E6E6E6;" d="M375.206,426.749c0,0-36.757,18.49-47.695,40.663c-2.567,5.203-9.651,6.137-13.458,1.759
	c-9.072-10.432-19.324-27.423-9.296-43.711v-0.012C325.115,379.778,398.219,385.307,375.206,426.749z"/>
<g>
	<path style="fill:#EE4948;" d="M95.214,125.919c51.209,1.351,91.631,43.973,90.28,95.182c-0.332,12.618-3.182,24.573-8.035,35.421
		c-13.073-33.91-45.533-58.372-84.124-59.392c-38.591-1.02-72.292,21.698-87.147,54.871c-4.276-11.095-6.487-23.184-6.155-35.802
		C1.384,164.989,44.005,124.568,95.214,125.919z"/>
	<path style="fill:#EE4948;" d="M181.145,252.222c-36.331,0.909-70.278,23.246-84.21,59.257
		c-13.945,35.999-3.882,75.376,22.361,100.514c-11.881,0.295-24.007-1.683-35.778-6.241
		c-47.781-18.491-71.518-72.219-53.015-119.988c18.491-47.781,72.219-71.518,119.988-53.028
		C162.261,237.294,172.569,244.002,181.145,252.222z"/>
</g>
<path style="fill:#F2F2F2;" d="M173.914,251.16c0.174-3.108,3.24-5.231,6.216-4.319c16.17,4.961,65.287,16.026,132.059-5.899
	c67.955-22.312,46.737-97.848,37.264-123.526c-0.135-0.369-0.27-0.725-0.405-1.081c-7.495-19.916-2.187-42.707,14.142-56.357
	c7.151-5.983,16.07-10.075,26.145-11.365c12.507-1.597,24.757,1.646,34.66,8.342c4.202,2.838,7.986,6.291,11.181,10.271
	c4.239,5.259,7.47,11.414,9.325,18.233c1.904,6.991,2.261,13.994,1.29,20.653c-0.835,5.824-2.678,11.402-5.394,16.488
	c7.789,5.504,15.112,11.647,21.882,18.405l3.932,4.546c1.032,1.192,2.162,2.261,3.379,3.182
	c19.179,21.648,33.038,48.494,39.107,78.89c18.331,91.852-41.478,181.161-133.49,199.124c-24.032,4.693-47.941,3.981-70.45-1.302
	c-61.898-14.473-113.218-63.409-127.323-129.227C174.187,281.037,173.085,265.921,173.914,251.16z"/>
<path style="fill:#E6E6E6;" d="M508.697,227.625c-6.069-30.396-19.928-57.242-39.107-78.89c-1.216-0.921-2.347-1.99-3.379-3.182
	l-3.932-4.546c-6.77-6.757-14.092-12.901-21.882-18.405c2.715-5.087,4.558-10.664,5.394-16.488
	c0.971-6.659,0.614-13.662-1.29-20.653c-1.855-6.819-5.087-12.974-9.325-18.233c-3.194-3.981-6.979-7.433-11.181-10.271
	c-9.903-6.696-22.152-9.94-34.66-8.342c-2.596,0.333-5.112,0.858-7.544,1.547c5.2,1.489,10.118,3.792,14.562,6.796
	c4.202,2.838,7.986,6.291,11.181,10.271c4.239,5.259,7.47,11.414,9.325,18.233c1.904,6.991,2.261,13.994,1.29,20.653
	c-0.093,0.647-0.198,1.291-0.316,1.931c-1.735,9.456,1.471,19.074,8.709,25.399c2.778,2.428,5.477,4.949,8.095,7.561l3.932,4.546
	c1.032,1.192,2.162,2.261,3.379,3.182c19.179,21.648,33.038,48.494,39.107,78.89c18.331,91.852-41.478,181.161-133.49,199.124
	c-6.135,1.198-12.26,2.04-18.358,2.547c15.054,1.246,30.501,0.48,46.001-2.547C467.218,408.785,527.027,319.477,508.697,227.625z"/>
<path style="fill:#EE4948;" d="M373.372,270.909c49.61-38.678,112.612,29.281,69.508,75.097c-0.576,0.612-1.167,1.221-1.772,1.827
	c-29.487,29.487-132.397,45.646-205.181-13.515c0,0,79.861-12.286,108.119-40.545L373.372,270.909z"/>
<circle style="fill:#4D4D4D;" cx="412.941" cy="91.667" r="9.215"/>
<g>
</g>
<g>
</g>
<g>
</g>
<g>
</g>
<g>
</g>
<g>
</g>
<g>
</g>
<g>
</g>
<g>
</g>
<g>
</g>
<g>
</g>
<g>
</g>
<g>
</g>
<g>
</g>
<g>
</g>
</svg>
