<?xml version="1.0" encoding="iso-8859-1"?>
<!-- Generator: Adobe Illustrator 18.0.0, SVG Export Plug-In . SVG Version: 6.00 Build 0)  -->
<!DOCTYPE svg PUBLIC "-//W3C//DTD SVG 1.1//EN" "http://www.w3.org/Graphics/SVG/1.1/DTD/svg11.dtd">
<svg version="1.1" id="Capa_1" xmlns="http://www.w3.org/2000/svg" xmlns:xlink="http://www.w3.org/1999/xlink" x="0px" y="0px"
	 viewBox="0 0 450.516 450.516" style="enable-background:new 0 0 450.516 450.516;" xml:space="preserve">
<g>
	<path style="fill:#F99B2B;" d="M118.456,240.367h176.285c53.574,0,97.003-43.43,97.003-97.003H110.994
		C49.694,143.364,0,193.058,0,254.358v0c0,61.301,49.694,110.994,110.994,110.994H170.6h50.545c0-19.924-14.72-36.404-33.876-39.174
		c19.157-2.77,33.876-19.25,33.876-39.174H170.6h-52.144c-12.878,0-23.318-10.44-23.318-23.318v0
		C95.138,250.807,105.578,240.367,118.456,240.367z"/>
	<g>
		<circle style="fill:#FFFFFF;" cx="302.544" cy="171.346" r="18.851"/>
		<circle style="fill:#4D4D4D;" cx="302.544" cy="171.346" r="11.533"/>
	</g>
	<path style="fill:#F99B2B;" d="M135.126,258.858L135.126,258.858l0-31.498h13.499v17.999
		C148.625,252.814,142.581,258.858,135.126,258.858z"/>
	<path style="fill:#F99B2B;" d="M165.624,258.858L165.624,258.858l0-31.498h13.499v17.999
		C179.123,252.814,173.08,258.858,165.624,258.858z"/>
	<path style="fill:#F99B2B;" d="M196.123,258.858L196.123,258.858V227.36h13.499v17.999
		C209.622,252.814,203.578,258.858,196.123,258.858z"/>
	<path style="fill:#F99B2B;" d="M226.621,258.858L226.621,258.858V227.36h13.499v17.999
		C240.12,252.814,234.077,258.858,226.621,258.858z"/>
	<polygon style="fill:#F99B2B;" points="420.07,194.474 355.573,194.474 355.573,182.474 436.569,182.474 	"/>
	<polygon style="fill:#F99B2B;" points="394.571,217.085 330.075,217.085 330.075,205.086 411.071,205.086 	"/>
	<path style="fill:#F99B2B;" d="M421.087,170.612h-35.012v-10.37h35.132c10.359,0,19.111-8.477,18.936-18.835
		c-0.17-10.065-8.41-18.2-18.515-18.2H321.368c-31.782,0-61.661-12.377-84.135-34.85l0,0c3.949-3.95,10.283-4.295,14.566-0.711
		c19.491,16.31,43.848,25.191,69.569,25.191h100.261c16.16,0,29.263,13.338,28.879,29.583
		C450.135,158.191,436.862,170.612,421.087,170.612z"/>
</g>
<g>
</g>
<g>
</g>
<g>
</g>
<g>
</g>
<g>
</g>
<g>
</g>
<g>
</g>
<g>
</g>
<g>
</g>
<g>
</g>
<g>
</g>
<g>
</g>
<g>
</g>
<g>
</g>
<g>
</g>
</svg>
