<?xml version="1.0" encoding="iso-8859-1"?>
<!-- Generator: Adobe Illustrator 18.0.0, SVG Export Plug-In . SVG Version: 6.00 Build 0)  -->
<!DOCTYPE svg PUBLIC "-//W3C//DTD SVG 1.1//EN" "http://www.w3.org/Graphics/SVG/1.1/DTD/svg11.dtd">
<svg version="1.1" id="Capa_1" xmlns="http://www.w3.org/2000/svg" xmlns:xlink="http://www.w3.org/1999/xlink" x="0px" y="0px"
	 viewBox="0 0 60 60" style="enable-background:new 0 0 60 60;" xml:space="preserve">
<g>
	<rect x="21" y="10.5" style="fill:#8697CB;" width="9" height="20"/>
	<path style="fill:#F29C1F;" d="M8.188,13.323L15.6,20.5H16v-9.607c0-0.77-0.624-1.393-1.393-1.393H7.393
		C6.624,9.5,6,10.124,6,10.893v1.404C6.787,12.445,7.547,12.789,8.188,13.323z"/>
	<path style="fill:#556080;" d="M54.36,37.5c-2.481,0-4.311,1.188-4.895,3.179c-0.513,1.748,0.117,3.659,1.497,4.545
		c0.68,0.436,2.534,1.216,5.053-0.969c0.417-0.362,0.462-0.994,0.1-1.411c-0.362-0.417-0.995-0.461-1.411-0.1
		c-1.055,0.915-2.023,1.205-2.662,0.797c-0.629-0.404-0.918-1.414-0.659-2.3c0.33-1.123,1.386-1.742,2.976-1.742
		c2.007,0,3.64,1.794,3.64,4c0,2.77-3.282,5-6,5H41.659l-2.143-5H46c0.552,0,1-0.448,1-1s-0.448-1-1-1h-7.341H19.341H9
		c-0.552,0-1,0.448-1,1s0.448,1,1,1h9.484l-2.143,5H1c-0.552,0-1,0.448-1,1s0.448,1,1,1h14.483h27.033H52c3.776,0,8-2.994,8-7
		C60,40.191,57.47,37.5,54.36,37.5z M18.517,48.5l2.143-5h16.682l2.143,5H18.517z"/>
	<path style="fill:#C03A2B;" d="M47,27.5c6.083,12.917-7,15-7,15H21c-0.109,0-0.217-0.001-0.325-0.002
		c-6.709-0.099-12.212-5.485-12.442-12.191c-0.217-6.332-3.193-9.315-4.558-10.356c-0.698-0.533-1.331-1.151-1.798-1.895
		c-1.42-2.264-0.698-3.824,0.513-4.853c1.654-1.405,4.13-1.269,5.797,0.12l8.259,6.882c1.004,0.837,2.269,1.295,3.576,1.295H20
		c6.159,0,6.879,3.99,8.678,6.656c1.002,1.486,2.705,2.344,4.498,2.344h0c1.772,0,3.436-0.856,4.466-2.298l0.551-0.771
		c1.387-1.942,2.632-3.977,3.828-6.043c1-1.728,2.705-3.888,4.98-3.888c0,0,4-0.542,4,3c0,0-0.163,1.47-1.862,2.352
		c-1.678,0.871-2.626,2.694-2.168,4.528L47,27.5z"/>
	<path style="fill:#804169;" d="M16.446,20.205c1.004,0.836,2.269,1.295,3.576,1.295H20c2.326,0,3.874,0.57,5,1.421v-6.028
		c0-0.77-0.624-1.393-1.393-1.393h-6.213c-0.77,0-1.393,0.624-1.393,1.393v2.94L16.446,20.205z"/>
	<path style="fill:#24AE5F;" d="M28.678,28.156c1.329,1.97,3.89,2.836,6.256,2.062c1.146-0.375,2.107-1.177,2.808-2.158l0.45-0.63
		c0.282-0.395,0.537-0.808,0.808-1.21v-4.327c0-0.77-0.624-1.393-1.393-1.393h-9.213c-0.77,0-1.393,0.624-1.393,1.393v3.362
		C27.599,26.239,28.08,27.27,28.678,28.156z"/>
	<path style="fill:#D66F67;" d="M7.961,27.702L21.708,36.5h26.433c0.219-0.607,0.375-1.269,0.438-2H22.292L7.17,24.821
		C7.496,25.661,7.771,26.618,7.961,27.702z"/>
</g>
<g>
</g>
<g>
</g>
<g>
</g>
<g>
</g>
<g>
</g>
<g>
</g>
<g>
</g>
<g>
</g>
<g>
</g>
<g>
</g>
<g>
</g>
<g>
</g>
<g>
</g>
<g>
</g>
<g>
</g>
</svg>
