<?xml version="1.0" encoding="iso-8859-1"?>
<!-- Generator: Adobe Illustrator 19.0.0, SVG Export Plug-In . SVG Version: 6.00 Build 0)  -->
<svg version="1.1" id="Capa_1" xmlns="http://www.w3.org/2000/svg" xmlns:xlink="http://www.w3.org/1999/xlink" x="0px" y="0px"
	 viewBox="0 0 512 512" style="enable-background:new 0 0 512 512;" xml:space="preserve">
<path style="fill:#A16B4E;" d="M327.432,433.583L327.432,433.583c-15.962,0-28.903-12.94-28.903-28.903v-49.272h57.805v49.272
	C356.335,420.643,343.395,433.583,327.432,433.583z"/>
<path style="opacity:0.1;enable-background:new    ;" d="M327.432,433.583L327.432,433.583c-15.962,0-28.903-12.94-28.903-28.903
	v-49.272h57.805v49.272C356.335,420.643,343.395,433.583,327.432,433.583z"/>
<path style="fill:#7D4E3E;" d="M81.041,78.441c-44.052,1.037-79.98,36.965-81.017,81.017c-1.101,46.779,36.49,85.045,83.019,85.045
	c4.853,0,9.6-0.44,14.224-1.238v27.238c0,33.204,26.917,60.121,60.121,60.121h8.698V161.46
	C166.087,114.931,127.82,77.34,81.041,78.441z"/>
<path style="opacity:0.1;enable-background:new    ;" d="M206.591,317.548H168.97c-27.663,0-50.168-22.505-50.168-50.168V161.46
	c0-10.02-4.036-19.305-11.365-26.146c-7.323-6.834-16.894-10.216-26.945-9.523c-17.662,1.218-31.899,15.455-33.117,33.117
	c-0.693,10.053,2.689,19.623,9.523,26.944c6.841,7.329,16.126,11.365,26.146,11.365c4.142,0,7.5,3.358,7.5,7.5s-3.358,7.5-7.5,7.5
	c-14.017,0-27.543-5.879-37.112-16.13c-9.702-10.395-14.505-23.965-13.522-38.212c1.731-25.092,21.958-45.319,47.05-47.05
	c14.245-0.982,27.817,3.82,38.212,13.522c10.251,9.568,16.13,23.095,16.13,37.112v105.92c0,19.392,15.776,35.168,35.168,35.168
	h37.621c4.142,0,7.5,3.358,7.5,7.5C214.091,314.19,210.733,317.548,206.591,317.548z"/>
<path style="opacity:0.1;enable-background:new    ;" d="M91.716,78.892c31.67,12.284,54.126,43.044,54.126,79.054v84.715
	c-17.409,15.541-28.377,38.141-28.377,63.315l0,0c0,3.382,0.221,6.71,0.606,9.988c10.542,9.126,24.28,14.66,39.318,14.66h8.698
	V161.46C166.087,118.528,133.5,83.232,91.716,78.892z"/>
<path style="fill:#A16B4E;" d="M365.381,221.097H221.567c-46.877,0-84.878,38.001-84.878,84.878l0,0
	c0,22.364,8.656,42.7,22.795,57.859c4.929,5.285,7.536,12.325,7.536,19.552v21.294c0,15.962,12.94,28.903,28.903,28.903l0,0
	c15.962,0,28.902-12.94,28.902-28.903v-9.624c0-2.321,1.882-4.203,4.203-4.203h15.505c2.321,0,4.203,1.882,4.203,4.203v9.624
	c0,15.962,12.94,28.903,28.902,28.903l0,0c15.962,0,28.903-12.94,28.903-28.903v-9.819c0-2.251,1.744-4.115,3.99-4.268
	c50.995-3.461,91.295-45.894,91.295-97.768v-35.282C401.827,237.415,385.509,221.097,365.381,221.097z"/>
<path style="opacity:0.15;enable-background:new    ;" d="M365.381,221.097H221.567c-3.796,0-7.527,0.274-11.191,0.757
	c-0.946,5.819-1.446,11.765-1.446,17.814c0,68.888,63.495,124.733,141.82,124.733c7.307,0,14.485-0.487,21.494-1.424
	c18.249-17.795,29.583-42.645,29.583-70.152v-35.282C401.827,237.415,385.509,221.097,365.381,221.097z"/>
<path style="fill:#A16B4E;" d="M429.384,161.034L429.384,161.034c-11.272-11.272-11.849-29.361-1.32-41.329l26.536-30.16
	c12.504-14.212,34.412-14.911,47.798-1.526l0,0c13.385,13.386,12.686,35.293-1.526,47.798l-30.16,26.536
	C458.745,172.883,440.656,172.306,429.384,161.034z"/>
<path style="fill:#7D4E3E;" d="M429.384,161.034L429.384,161.034c-11.272-11.272-11.849-29.361-1.32-41.329l26.536-30.16
	c12.504-14.212,34.412-14.911,47.798-1.526l0,0c13.385,13.386,12.686,35.293-1.526,47.798l-30.16,26.536
	C458.745,172.883,440.656,172.306,429.384,161.034z"/>
<path style="fill:#F3A1A8;" d="M453.561,144.356c-1.919,0-3.839-0.732-5.303-2.197c-2.929-2.929-2.929-7.678,0-10.607l24.659-24.659
	c2.929-2.929,7.678-2.93,10.606,0c2.929,2.929,2.929,7.678,0,10.606l-24.659,24.659C457.4,143.624,455.48,144.356,453.561,144.356z"
	/>
<path style="fill:#A16B4E;" d="M283.286,161.034L283.286,161.034c11.272-11.272,11.849-29.361,1.319-41.329l-26.536-30.16
	c-12.504-14.212-34.412-14.911-47.798-1.526l0,0c-13.385,13.386-12.686,35.293,1.526,47.798l30.16,26.536
	C253.925,172.883,272.014,172.306,283.286,161.034z"/>
<path style="fill:#7D4E3E;" d="M283.286,161.034L283.286,161.034c11.272-11.272,11.849-29.361,1.319-41.329l-26.536-30.16
	c-12.504-14.212-34.412-14.911-47.798-1.526l0,0c-13.385,13.386-12.686,35.293,1.526,47.798l30.16,26.536
	C253.925,172.883,272.014,172.306,283.286,161.034z"/>
<path style="fill:#F3A1A8;" d="M259.108,144.356c-1.919,0-3.839-0.732-5.303-2.197L229.146,117.5c-2.929-2.929-2.929-7.678,0-10.606
	c2.929-2.929,7.678-2.929,10.606,0l24.659,24.659c2.929,2.929,2.929,7.678,0,10.607
	C262.947,143.624,261.028,144.356,259.108,144.356z"/>
<ellipse style="fill:#A16B4E;" cx="356.331" cy="221.1" rx="141.82" ry="124.73"/>
<path style="opacity:0.1;enable-background:new    ;" d="M459.806,135.806c13.771,19.226,21.745,41.987,21.745,66.388
	c0,68.888-63.495,124.733-141.82,124.733c-40.815,0-77.596-15.17-103.471-39.442c25.105,35.051,69.494,58.345,120.075,58.345
	c78.325,0,141.82-55.845,141.82-124.733C498.155,188.107,483.585,158.113,459.806,135.806z"/>
<g>
	<path style="fill:#4A5058;" d="M287.35,226.672c-4.142,0-7.5-3.358-7.5-7.5v-11.766c0-4.142,3.358-7.5,7.5-7.5s7.5,3.358,7.5,7.5
		v11.766C294.85,223.314,291.492,226.672,287.35,226.672z"/>
	<path style="fill:#4A5058;" d="M356.338,248.024L356.338,248.024c-10.969,0-19.861-8.892-19.861-19.861v-14.549
		c0-2.927,2.372-5.299,5.299-5.299h29.123c2.927,0,5.299,2.373,5.299,5.299v14.549C376.199,239.132,367.307,248.024,356.338,248.024
		z"/>
	<path style="fill:#4A5058;" d="M425.325,226.672c-4.142,0-7.5-3.358-7.5-7.5v-11.766c0-4.142,3.358-7.5,7.5-7.5s7.5,3.358,7.5,7.5
		v11.766C432.825,223.314,429.467,226.672,425.325,226.672z"/>
</g>
<g style="opacity:0.3;">
	<ellipse style="fill:#F15B70;" cx="289.731" cy="244.27" rx="28.511" ry="12.371"/>
	<ellipse style="fill:#F15B70;" cx="422.941" cy="244.27" rx="28.511" ry="12.371"/>
</g>
<path style="fill:#FAD97E;" d="M356.335,96.365c-22.446,0-43.67,4.594-62.535,12.759c14.497,4.68,33.549,23.667,48.393,49.16
	c6.321,10.856,21.968,10.856,28.289,0c14.843-25.492,33.893-44.478,48.39-49.159C400.007,100.959,378.782,96.365,356.335,96.365z"/>
<path style="fill:#4A5058;" d="M356.335,96.365c-2.517,0-5.016,0.066-7.5,0.18v39.023c0,4.142,3.358,7.5,7.5,7.5s7.5-3.358,7.5-7.5
	V96.545C361.351,96.431,358.852,96.365,356.335,96.365z"/>
<g>
</g>
<g>
</g>
<g>
</g>
<g>
</g>
<g>
</g>
<g>
</g>
<g>
</g>
<g>
</g>
<g>
</g>
<g>
</g>
<g>
</g>
<g>
</g>
<g>
</g>
<g>
</g>
<g>
</g>
</svg>
