<?xml version="1.0" encoding="iso-8859-1"?>
<!-- Generator: Adobe Illustrator 18.0.0, SVG Export Plug-In . SVG Version: 6.00 Build 0)  -->
<!DOCTYPE svg PUBLIC "-//W3C//DTD SVG 1.1//EN" "http://www.w3.org/Graphics/SVG/1.1/DTD/svg11.dtd">
<svg version="1.1" id="Capa_1" xmlns="http://www.w3.org/2000/svg" xmlns:xlink="http://www.w3.org/1999/xlink" x="0px" y="0px"
	 viewBox="0 0 419.74 419.74" style="enable-background:new 0 0 419.74 419.74;" xml:space="preserve">
<g>
	<path style="fill:#F74B4B;" d="M218.105,16.446l16.213,72.346c10.537,47.018,54.383,78.874,102.356,74.366l73.815-6.937
		c8.97-0.843,12.842,11.073,5.09,15.664l-63.795,37.775c-41.461,24.551-58.209,76.094-39.096,120.327l29.407,68.058
		c3.574,8.271-6.563,15.636-13.325,9.681l-55.64-48.999c-36.161-31.845-90.358-31.845-126.519,0l-55.64,48.999
		c-6.762,5.955-16.898-1.41-13.325-9.681l29.407-68.058c19.112-44.232,2.365-95.776-39.096-120.327L4.162,171.884
		c-7.753-4.591-3.881-16.507,5.09-15.664l73.815,6.937c47.973,4.508,91.819-27.347,102.356-74.366l16.213-72.346
		C203.605,7.654,216.135,7.654,218.105,16.446z"/>
	<g>
		<path style="fill:#C11C06;" d="M209.873,235.642c-4.107,0-7.918-2.629-9.36-6.477c-1.478-3.942-0.279-8.526,2.971-11.213
			c3.101-2.563,7.551-3.011,11.1-1.122c3.723,1.981,5.856,6.274,5.149,10.44C218.925,232.031,214.718,235.642,209.873,235.642z"/>
		<path style="fill:#C11C06;" d="M199.873,191.571c0-5.52,4.47-10,10-10l0,0c5.52,0,10,4.48,10,10l0,0c0,5.53-4.48,10-10,10l0,0
			C204.343,201.571,199.873,197.101,199.873,191.571z M199.873,157.512c0-5.52,4.47-10,10-10l0,0c5.52,0,10,4.48,10,10l0,0
			c0,5.52-4.48,10-10,10l0,0C204.343,167.512,199.873,163.032,199.873,157.512z M199.873,123.442c0-5.52,4.47-10,10-10l0,0
			c5.52,0,10,4.48,10,10l0,0c0,5.53-4.48,10-10,10l0,0C204.343,133.442,199.873,128.972,199.873,123.442z M199.873,89.382
			c0-5.53,4.47-10,10-10l0,0c5.52,0,10,4.47,10,10l0,0c0,5.52-4.48,10-10,10l0,0C204.343,99.382,199.873,94.902,199.873,89.382z"/>
		<path style="fill:#C11C06;" d="M209.873,65.311c-4.11,0-7.898-2.622-9.35-6.464c-1.491-3.944-0.295-8.534,2.961-11.225
			c3.101-2.563,7.551-3.012,11.1-1.122c3.758,2.001,5.879,6.341,5.135,10.536C218.882,61.759,214.676,65.311,209.873,65.311z"/>
	</g>
	<g>
		<path style="fill:#C11C06;" d="M209.873,235.642c-4.107,0-7.918-2.629-9.36-6.477c-1.478-3.942-0.279-8.526,2.971-11.213
			c3.101-2.563,7.551-3.011,11.1-1.122c3.723,1.981,5.856,6.274,5.149,10.44C218.925,232.031,214.718,235.642,209.873,235.642z"/>
		<path style="fill:#C11C06;" d="M174.363,225.622c-5.29-1.56-8.32-7.12-6.77-12.42l0,0c1.56-5.3,7.12-8.33,12.42-6.77l0,0
			c5.3,1.56,8.33,7.12,6.77,12.42l0,0c-1.28,4.35-5.27,7.18-9.59,7.18l0,0C176.263,226.032,175.313,225.892,174.363,225.622
			C169.073,224.061,175.313,225.892,174.363,225.622z M141.683,216.002c-5.3-1.56-8.33-7.12-6.77-12.42l0,0
			c1.56-5.29,7.12-8.33,12.42-6.77l0,0c5.3,1.56,8.33,7.12,6.77,12.42l0,0c-1.28,4.36-5.27,7.18-9.59,7.18l0,0
			C143.583,216.412,142.623,216.282,141.683,216.002C136.383,214.442,142.623,216.282,141.683,216.002z M109.003,206.382
			c-5.29-1.56-8.33-7.11-6.77-12.41l0,0c1.56-5.3,7.12-8.33,12.42-6.77l0,0c5.3,1.56,8.33,7.12,6.77,12.41l0,0
			c-1.28,4.36-5.27,7.18-9.59,7.18l0,0C110.903,206.792,109.953,206.662,109.003,206.382
			C103.713,204.821,109.953,206.662,109.003,206.382z M76.323,196.772c-5.3-1.56-8.33-7.12-6.77-12.42l0,0
			c1.56-5.3,7.12-8.33,12.42-6.77l0,0c5.3,1.56,8.33,7.12,6.77,12.42l0,0c-1.28,4.35-5.27,7.18-9.59,7.18l0,0
			C78.223,197.182,77.273,197.042,76.323,196.772C71.023,195.212,77.273,197.042,76.323,196.772z"/>
		<path style="fill:#C11C06;" d="M46.473,187.561c-4.181,0-8.006-2.708-9.415-6.636c-1.386-3.865-0.202-8.341,2.944-10.991
			c3.291-2.771,8.083-3.137,11.747-0.869c3.493,2.163,5.334,6.421,4.524,10.446C55.344,184.124,51.19,187.561,46.473,187.561z"/>
	</g>
	<g>
		<path style="fill:#C11C06;" d="M209.873,235.642c-4.107,0-7.918-2.629-9.36-6.477c-1.478-3.942-0.279-8.526,2.971-11.213
			c3.101-2.563,7.551-3.011,11.1-1.122c3.723,1.981,5.856,6.274,5.149,10.44C218.925,232.031,214.718,235.642,209.873,235.642z"/>
		<path style="fill:#C11C06;" d="M125.723,345.272c-4.52-3.18-5.61-9.41-2.43-13.93l0,0c3.18-4.52,9.42-5.6,13.94-2.43l0,0
			c4.51,3.18,5.6,9.42,2.42,13.94l0,0c-1.95,2.76-5.04,4.24-8.19,4.24l0,0C129.483,347.091,127.473,346.502,125.723,345.272
			C121.203,342.091,127.473,346.502,125.723,345.272z M145.323,317.412c-4.52-3.18-5.61-9.42-2.43-13.93l0,0
			c3.18-4.52,9.42-5.61,13.93-2.43l0,0c4.52,3.18,5.61,9.42,2.43,13.93l0,0c-1.95,2.77-5.04,4.25-8.19,4.25l0,0
			C149.073,319.232,147.073,318.642,145.323,317.412C140.803,314.232,147.073,318.642,145.323,317.412z M164.923,289.551
			c-4.52-3.18-5.61-9.42-2.43-13.94l0,0c3.18-4.51,9.41-5.6,13.93-2.42l0,0c4.52,3.17,5.61,9.41,2.43,13.93l0,0
			c-1.95,2.77-5.04,4.25-8.19,4.25l0,0C168.673,291.371,166.663,290.782,164.923,289.551
			C160.403,286.371,166.663,290.782,164.923,289.551z M184.523,261.682c-4.52-3.18-5.61-9.41-2.43-13.93l0,0
			c3.18-4.52,9.41-5.6,13.93-2.43l0,0c4.52,3.18,5.61,9.42,2.43,13.94l0,0c-1.95,2.76-5.04,4.24-8.19,4.24l0,0
			C188.273,263.502,186.273,262.912,184.523,261.682C180.003,258.502,186.273,262.912,184.523,261.682z"/>
		<path style="fill:#C11C06;" d="M111.873,374.962c-4.239,0-8.096-2.786-9.46-6.789c-1.367-4.013,0.013-8.565,3.374-11.147
			c3.225-2.478,7.739-2.712,11.225-0.637c3.581,2.132,5.492,6.433,4.671,10.523C120.756,371.527,116.585,374.962,111.873,374.962z"
			/>
	</g>
	<g>
		<path style="fill:#C11C06;" d="M209.873,235.642c-4.107,0-7.918-2.629-9.36-6.477c-1.478-3.942-0.279-8.526,2.971-11.213
			c3.101-2.563,7.551-3.011,11.1-1.122c3.723,1.981,5.856,6.274,5.149,10.44C218.925,232.031,214.718,235.642,209.873,235.642z"/>
		<path style="fill:#C11C06;" d="M232.953,218.851c-1.561-5.3,1.47-10.86,6.77-12.42l0,0c5.3-1.56,10.86,1.47,12.42,6.77l0,0
			c1.561,5.3-1.47,10.86-6.77,12.42l0,0c-0.94,0.27-1.891,0.41-2.83,0.41l0,0C238.223,226.032,234.232,223.202,232.953,218.851
			C231.393,213.551,234.232,223.202,232.953,218.851z M265.633,209.232c-1.56-5.3,1.47-10.86,6.771-12.42l0,0
			c5.3-1.55,10.859,1.48,12.42,6.77l0,0c1.56,5.3-1.471,10.86-6.771,12.42l0,0c-0.939,0.28-1.89,0.41-2.83,0.41l0,0
			C270.903,216.412,266.913,213.591,265.633,209.232C264.073,203.932,266.913,213.591,265.633,209.232z M298.312,199.611
			c-1.56-5.3,1.471-10.85,6.771-12.41l0,0c5.3-1.56,10.859,1.47,12.42,6.77l0,0c1.56,5.29-1.47,10.85-6.771,12.41l0,0
			c-0.939,0.28-1.89,0.41-2.829,0.41l0,0C303.583,206.792,299.593,203.972,298.312,199.611
			C296.753,194.311,299.593,203.972,298.312,199.611z M330.993,190.002c-1.561-5.3,1.47-10.86,6.77-12.42l0,0
			c5.3-1.56,10.86,1.47,12.42,6.77l0,0c1.561,5.3-1.47,10.86-6.77,12.42l0,0c-0.94,0.27-1.891,0.41-2.83,0.41l0,0
			C336.263,197.182,332.272,194.351,330.993,190.002C329.433,184.702,332.272,194.351,330.993,190.002z"/>
		<path style="fill:#C11C06;" d="M373.272,187.561c-4.178,0-8.005-2.711-9.414-6.636c-1.393-3.881-0.191-8.319,2.946-10.987
			c3.272-2.782,8.096-3.142,11.746-0.873c3.489,2.169,5.335,6.417,4.523,10.446C382.143,184.125,377.991,187.561,373.272,187.561z"
			/>
	</g>
	<g>
		<path style="fill:#C11C06;" d="M209.873,235.642c-4.107,0-7.918-2.629-9.36-6.477c-1.478-3.942-0.279-8.526,2.971-11.213
			c3.101-2.563,7.551-3.011,11.1-1.122c3.723,1.981,5.856,6.274,5.149,10.44C218.925,232.031,214.718,235.642,209.873,235.642z"/>
		<path style="fill:#C11C06;" d="M280.083,342.851c-3.18-4.52-2.09-10.76,2.43-13.94l0,0c4.521-3.17,10.75-2.09,13.93,2.43l0,0
			c3.181,4.52,2.091,10.75-2.42,13.93l0,0c-1.75,1.23-3.76,1.82-5.75,1.82l0,0C285.133,347.091,282.033,345.611,280.083,342.851
			C276.903,338.331,282.033,345.611,280.083,342.851z M260.482,314.982c-3.17-4.51-2.09-10.75,2.431-13.93l0,0
			c4.52-3.18,10.75-2.09,13.93,2.43l0,0c3.18,4.51,2.09,10.75-2.42,13.93l0,0c-1.75,1.23-3.76,1.82-5.75,1.82l0,0
			C265.533,319.232,262.433,317.752,260.482,314.982C257.312,310.472,262.433,317.752,260.482,314.982z M240.883,287.121
			c-3.17-4.52-2.09-10.76,2.43-13.93l0,0c4.521-3.18,10.761-2.09,13.931,2.42l0,0c3.18,4.52,2.09,10.76-2.42,13.94l0,0
			c-1.75,1.23-3.761,1.82-5.75,1.82l0,0C245.933,291.371,242.833,289.892,240.883,287.121
			C237.713,282.601,242.833,289.892,240.883,287.121z M221.293,259.262c-3.18-4.52-2.101-10.76,2.42-13.94l0,0
			c4.52-3.17,10.76-2.09,13.93,2.43l0,0c3.181,4.52,2.101,10.76-2.42,13.93l0,0c-1.75,1.23-3.76,1.82-5.75,1.82l0,0
			C226.333,263.502,223.232,262.022,221.293,259.262C218.113,254.742,223.232,262.022,221.293,259.262z"/>
		<path style="fill:#C11C06;" d="M307.863,374.962c-4.248,0-8.086-2.788-9.463-6.789c-1.374-3.994,0.026-8.582,3.376-11.147
			c3.23-2.473,7.733-2.712,11.225-0.641c3.591,2.13,5.473,6.443,4.661,10.527C316.745,371.529,312.574,374.962,307.863,374.962z"/>
	</g>
</g>
<g>
</g>
<g>
</g>
<g>
</g>
<g>
</g>
<g>
</g>
<g>
</g>
<g>
</g>
<g>
</g>
<g>
</g>
<g>
</g>
<g>
</g>
<g>
</g>
<g>
</g>
<g>
</g>
<g>
</g>
</svg>
