<?xml version="1.0" encoding="iso-8859-1"?>
<!-- Generator: Adobe Illustrator 19.0.0, SVG Export Plug-In . SVG Version: 6.00 Build 0)  -->
<svg version="1.1" id="Layer_1" xmlns="http://www.w3.org/2000/svg" xmlns:xlink="http://www.w3.org/1999/xlink" x="0px" y="0px"
	 viewBox="0 0 512 512" style="enable-background:new 0 0 512 512;" xml:space="preserve">
<g>
	<polygon style="fill:#5F7887;" points="107.789,276.47 91.206,293.053 74.623,284.761 99.498,276.47 	"/>
	<polygon style="fill:#5F7887;" points="107.789,247.708 91.206,231.125 74.623,239.417 99.498,247.708 	"/>
	<path style="fill:#5F7887;" d="M144.583,294.866c0,0,8.292,8.292,0,24.875c0,0,24.874-8.292,41.458-24.875H144.583z"/>
	<path style="fill:#5F7887;" d="M290.202,305.749c0,0-8.291,33.166-40.939,41.457c0,0,32.648-24.874,7.773-41.457H290.202z"/>
	<path style="fill:#5F7887;" d="M0,197.959C18.656,218.17,24.874,256,24.874,256l0,0c0,0-6.219,37.83-24.874,58.04
		C37.312,293.83,66.332,256,66.332,256l0,0C66.332,256,37.312,218.17,0,197.959z"/>
	<path style="fill:#5F7887;" d="M248.745,231.125c0,0,24.874-24.874,8.291-66.332c0,0,49.749,33.166,66.332,74.623L248.745,231.125z
		"/>
</g>
<path style="fill:#F0EBE1;" d="M44.01,257.089c16.583,0,237.901,48.66,312.524,7.202h82.915l-82.915,16.583
	c0,0-24.875,33.166-99.498,33.166c-62.315,0-171.545-34.452-203.66-46.381C48.842,265.976,44.213,263.449,44.01,257.089
	L44.01,257.089z"/>
<path style="fill:#73A0AA;" d="M348.243,239.417c-35.178-11.726-66.332-16.583-91.206-16.583
	c-49.787,0-171.065,24.404-210.301,31.344c-1.641,0.29-2.542,1.572-2.656,2.914c13.112,0.075,147.893,29.009,242.927,23.096
	c-0.003,0-0.007,0.001-0.01,0.001c3.482,9.075,9.369,19.259,19.352,28.04c7.339-1.902,13.73-4.123,19.284-6.485
	c-10.816-6.518-17.344-15.09-21.239-23.103c20.714-2.443,38.798-6.937,52.141-14.351h82.915c0,0,58.04,0,66.332,0
	c8.292,0,8.292-8.291,0-8.291C466.312,256,380.486,250.165,348.243,239.417z"/>
<circle style="fill:#464655;" cx="323.368" cy="256" r="8.291"/>
<g>
</g>
<g>
</g>
<g>
</g>
<g>
</g>
<g>
</g>
<g>
</g>
<g>
</g>
<g>
</g>
<g>
</g>
<g>
</g>
<g>
</g>
<g>
</g>
<g>
</g>
<g>
</g>
<g>
</g>
</svg>
