<?xml version="1.0" encoding="iso-8859-1"?>
<!-- Generator: Adobe Illustrator 18.0.0, SVG Export Plug-In . SVG Version: 6.00 Build 0)  -->
<!DOCTYPE svg PUBLIC "-//W3C//DTD SVG 1.1//EN" "http://www.w3.org/Graphics/SVG/1.1/DTD/svg11.dtd">
<svg version="1.1" id="Capa_1" xmlns="http://www.w3.org/2000/svg" xmlns:xlink="http://www.w3.org/1999/xlink" x="0px" y="0px"
	 viewBox="0 0 435.058 435.058" style="enable-background:new 0 0 435.058 435.058;" xml:space="preserve">
<g>
	<g>
		<circle style="fill:#5BABC1;" cx="215.352" cy="8.041" r="8.041"/>
		<path style="fill:#6BC0DD;" d="M248.23,21.051c-1.585,4.12-3.119,8.274-4.587,12.461c-2.169,6.155-4.204,12.377-6.122,18.65
			c-13.237-3.103-26.74-3.103-39.985,0c-1.91-6.272-3.953-12.494-6.122-18.65c-1.468-4.187-3.003-8.341-4.587-12.461
			c-1.626-4.212,0.817-8.891,5.205-9.959c16.882-4.112,34.113-4.112,51.003,0C247.413,12.159,249.856,16.839,248.23,21.051z"/>
		<path style="fill:#5BABC1;" d="M243.643,33.512c-2.169,6.155-4.204,12.377-6.122,18.65c-13.237-3.103-26.74-3.103-39.985,0
			c-1.91-6.272-3.953-12.494-6.122-18.65c0.2-0.067,0.409-0.125,0.617-0.175c16.882-4.112,34.113-4.112,51.003,0
			C243.242,33.387,243.442,33.445,243.643,33.512z"/>
		<g>
			<path style="fill:#CC9EBA;" d="M177.953,51.156c0,0-0.188,4.978-1.047,11.974c-2.536,20.647-10.933,58.923-37.646,38.852
				c-35.757-26.867-14.251-79.046-14.251-79.046C153.84,32.35,177.953,51.156,177.953,51.156z"/>
			<path style="fill:#FCCAE5;" d="M177.953,51.156c0,0-0.188,4.978-1.047,11.974l-22.565,8.244l-29.332-48.438
				C153.84,32.35,177.953,51.156,177.953,51.156z"/>
			<path style="fill:#CC9EBA;" d="M257.105,51.156c0,0,0.188,4.978,1.047,11.974c2.536,20.647,10.933,58.923,37.646,38.852
				c35.757-26.867,14.251-79.046,14.251-79.046C281.218,32.35,257.105,51.156,257.105,51.156z"/>
			<path style="fill:#FCCAE5;" d="M257.105,51.156c0,0,0.188,4.978,1.047,11.974l22.565,8.244l29.332-48.438
				C281.218,32.35,257.105,51.156,257.105,51.156z"/>
		</g>
		<circle style="fill:#FCCAE5;" cx="217.529" cy="126.771" r="87.948"/>
		<g>
			<path style="fill:#FFFFFF;" d="M181.017,124.832c-11.906,0-21.593-9.687-21.593-21.593s9.687-21.593,21.593-21.593
				c11.906,0,21.593,9.687,21.593,21.593S192.923,124.832,181.017,124.832z"/>
			<path style="fill:#FFFFFF;" d="M254.042,124.832c-11.906,0-21.593-9.687-21.593-21.593s9.687-21.593,21.593-21.593
				s21.593,9.687,21.593,21.593S265.948,124.832,254.042,124.832z"/>
			<path style="fill:#91643A;" d="M188.407,103.239c-4.081,0-7.39-3.308-7.39-7.39c0-2.55,1.292-4.799,3.257-6.127
				c-1.046-0.252-2.133-0.399-3.257-0.399c-7.685,0-13.916,6.23-13.916,13.915s6.23,13.915,13.916,13.915s13.916-6.23,13.916-13.915
				c0-1.124-0.148-2.21-0.399-3.257C193.205,101.947,190.957,103.239,188.407,103.239z"/>
			<path style="fill:#91643A;" d="M261.431,103.239c-4.081,0-7.39-3.308-7.39-7.39c0-2.55,1.292-4.799,3.257-6.127
				c-1.047-0.252-2.133-0.399-3.257-0.399c-7.685,0-13.916,6.23-13.916,13.915s6.23,13.915,13.916,13.915s13.916-6.23,13.916-13.915
				c0-1.124-0.148-2.21-0.399-3.257C266.23,101.947,263.982,103.239,261.431,103.239z"/>
		</g>
		<g>
			<circle style="fill:#FCCAE5;" cx="176.929" cy="136.618" r="25.89"/>
			<circle style="fill:#FCCAE5;" cx="258.129" cy="136.618" r="25.89"/>
		</g>
		<path style="fill:#CC9EBA;" d="M196.377,141.46l-0.094-0.163c-5.649-9.785-5.649-21.84,0-31.625l0.094-0.163
			c3.691-6.393,10.512-10.331,17.894-10.331h6.518c7.382,0,14.203,3.938,17.894,10.331l0.094,0.163
			c5.649,9.785,5.649,21.84,0,31.625l-0.094,0.163c-3.691,6.393-10.512,10.331-17.894,10.331h-6.518
			C206.889,151.791,200.068,147.853,196.377,141.46z"/>
		<g>
			<path style="fill:#4D4D4D;" d="M207.82,138.43L207.82,138.43c-3.074,0-5.59-2.515-5.59-5.59v-14.71c0-3.074,2.515-5.59,5.59-5.59
				h0c3.074,0,5.59,2.515,5.59,5.59v14.71C213.41,135.915,210.895,138.43,207.82,138.43z"/>
			<path style="fill:#4D4D4D;" d="M227.238,138.43L227.238,138.43c-3.074,0-5.59-2.515-5.59-5.59v-14.71
				c0-3.074,2.515-5.59,5.59-5.59l0,0c3.074,0,5.59,2.515,5.59,5.59v14.71C232.828,135.915,230.312,138.43,227.238,138.43z"/>
		</g>
		<path style="fill:#EA535E;" d="M217.527,175.158c-9.066,0-17.107-5.769-20.009-14.355c-0.531-1.569,0.312-3.272,1.881-3.803
			c1.571-0.53,3.272,0.313,3.803,1.882c2.077,6.146,7.834,10.276,14.325,10.276c6.492,0,12.251-4.129,14.328-10.276
			c0.53-1.569,2.226-2.412,3.803-1.882c1.569,0.531,2.412,2.233,1.881,3.803C234.638,169.39,226.596,175.158,217.527,175.158z"/>
	</g>
	<g>
		<g>
			<path style="fill:#C6853E;" d="M122.228,240.718v13.33h-42.97v-13.33c0-1.96,0.26-3.86,0.76-5.66
				c2.47-9.12,10.82-15.83,20.72-15.83c9.91,0,18.26,6.71,20.73,15.83C121.968,236.858,122.228,238.758,122.228,240.718z"/>
			<path style="fill:#B5773A;" d="M122.228,240.718v13.33h-42.97v-13.33c0-1.96,0.26-3.86,0.76-5.66c13.77-1.6,27.68-1.6,41.45,0
				C121.968,236.858,122.228,238.758,122.228,240.718z"/>
			<path style="fill:#C6853E;" d="M138.218,254.418c-0.54,2.4-1.07,4.8-1.61,7.19c-0.72,3.23-1.44,6.46-2.16,9.68
				c-22.2-4.96-45.21-4.96-67.41,0c-0.72-3.22-1.44-6.45-2.16-9.68c-0.54-2.39-1.07-4.79-1.61-7.19c-0.87-3.9,1.7-7.73,5.63-8.44
				c21.06-3.81,42.63-3.81,63.69,0C136.518,246.688,139.088,250.518,138.218,254.418z"/>
			<g>
				<path style="fill:#CC9EBA;" d="M61.166,271.495c0,0-0.188,4.978-1.047,11.974c-2.536,20.647-10.933,58.923-37.646,38.852
					c-35.757-26.867-14.251-79.046-14.251-79.046C37.053,252.689,61.166,271.495,61.166,271.495z"/>
				<path style="fill:#FCCAE5;" d="M61.166,271.495c0,0-0.188,4.978-1.047,11.974l-22.565,8.244L8.221,243.275
					C37.053,252.689,61.166,271.495,61.166,271.495z"/>
				<path style="fill:#CC9EBA;" d="M140.318,271.495c0,0,0.188,4.978,1.047,11.974c2.536,20.647,10.933,58.923,37.646,38.852
					c35.757-26.867,14.251-79.046,14.251-79.046C164.431,252.689,140.318,271.495,140.318,271.495z"/>
				<path style="fill:#FCCAE5;" d="M140.318,271.495c0,0,0.188,4.978,1.047,11.974l22.565,8.244l29.332-48.438
					C164.431,252.689,140.318,271.495,140.318,271.495z"/>
			</g>
			<path style="fill:#B5773A;" d="M136.608,261.608c-0.72,3.23-1.44,6.46-2.16,9.68c-22.2-4.96-45.21-4.96-67.41,0
				c-0.72-3.22-1.44-6.45-2.16-9.68c10.95-4.91,23.08-7.63,35.86-7.63S125.658,256.698,136.608,261.608z"/>
			<circle style="fill:#FCCAE5;" cx="100.742" cy="347.11" r="87.948"/>
			<g>
				<path style="fill:#FFFFFF;" d="M64.23,345.171c-11.906,0-21.593-9.687-21.593-21.593c0-11.906,9.687-21.593,21.593-21.593
					s21.593,9.687,21.593,21.593C85.823,335.484,76.136,345.171,64.23,345.171z"/>
				<path style="fill:#FFFFFF;" d="M137.255,345.171c-11.906,0-21.593-9.687-21.593-21.593c0-11.906,9.687-21.593,21.593-21.593
					s21.593,9.687,21.593,21.593C158.848,335.484,149.161,345.171,137.255,345.171z"/>
				<path style="fill:#91643A;" d="M71.62,323.578c-4.081,0-7.39-3.308-7.39-7.39c0-2.55,1.292-4.799,3.257-6.127
					c-1.046-0.252-2.133-0.399-3.257-0.399c-7.685,0-13.916,6.23-13.916,13.915s6.23,13.915,13.916,13.915
					s13.916-6.23,13.916-13.915c0-1.124-0.148-2.21-0.399-3.257C76.418,322.286,74.17,323.578,71.62,323.578z"/>
				<path style="fill:#91643A;" d="M144.644,323.578c-4.081,0-7.39-3.308-7.39-7.39c0-2.55,1.292-4.799,3.257-6.127
					c-1.046-0.252-2.133-0.399-3.257-0.399c-7.685,0-13.916,6.23-13.916,13.915s6.23,13.915,13.916,13.915
					s13.916-6.23,13.916-13.915c0-1.124-0.148-2.21-0.399-3.257C149.443,322.286,147.195,323.578,144.644,323.578z"/>
			</g>
			<g>
				<circle style="fill:#FCCAE5;" cx="60.142" cy="356.957" r="25.89"/>
				<circle style="fill:#FCCAE5;" cx="141.342" cy="356.957" r="25.89"/>
			</g>
			<path style="fill:#CC9EBA;" d="M79.59,361.799l-0.094-0.163c-5.649-9.785-5.649-21.84,0-31.625l0.094-0.163
				c3.691-6.393,10.512-10.331,17.894-10.331h6.518c7.382,0,14.203,3.938,17.894,10.331l0.094,0.163
				c5.649,9.785,5.649,21.84,0,31.625l-0.094,0.163c-3.691,6.393-10.512,10.331-17.894,10.331h-6.518
				C90.102,372.13,83.281,368.192,79.59,361.799z"/>
			<g>
				<path style="fill:#4D4D4D;" d="M91.034,358.769L91.034,358.769c-3.074,0-5.59-2.515-5.59-5.59v-14.71
					c0-3.074,2.515-5.59,5.59-5.59h0c3.074,0,5.59,2.515,5.59,5.59v14.71C96.623,356.253,94.108,358.769,91.034,358.769z"/>
				<path style="fill:#4D4D4D;" d="M110.451,358.769L110.451,358.769c-3.074,0-5.59-2.515-5.59-5.59v-14.71
					c0-3.074,2.515-5.59,5.59-5.59h0c3.074,0,5.59,2.515,5.59,5.59v14.71C116.041,356.253,113.525,358.769,110.451,358.769z"/>
			</g>
			<path style="fill:#EA535E;" d="M101.044,392.158c-9.066,0-17.107-5.769-20.009-14.355c-0.531-1.569,0.312-3.272,1.881-3.803
				c1.569-0.53,3.272,0.312,3.803,1.882c2.077,6.146,7.834,10.276,14.325,10.276c6.492,0,12.251-4.129,14.328-10.276
				c0.53-1.57,2.227-2.413,3.803-1.882c1.569,0.531,2.412,2.233,1.881,3.803C118.154,386.39,110.112,392.158,101.044,392.158z"/>
		</g>
		<g>
			<path style="fill:#EA535E;" d="M359.128,255.898v12.96h-49.63v-12.96c0-0.97,0.06-1.92,0.17-2.86
				c1.41-12.35,11.91-21.95,24.65-21.95c12.73,0,23.23,9.6,24.64,21.95C359.068,253.978,359.128,254.928,359.128,255.898z"/>
			<g>
				<path style="fill:#CC9EBA;" d="M294.74,271.495c0,0-0.188,4.978-1.047,11.974c-2.536,20.647-10.933,58.923-37.646,38.852
					c-35.757-26.867-14.251-79.046-14.251-79.046C270.627,252.689,294.74,271.495,294.74,271.495z"/>
				<path style="fill:#FCCAE5;" d="M294.74,271.495c0,0-0.188,4.978-1.047,11.974l-22.565,8.244l-29.332-48.438
					C270.627,252.689,294.74,271.495,294.74,271.495z"/>
				<path style="fill:#CC9EBA;" d="M373.892,271.495c0,0,0.188,4.978,1.047,11.974c2.536,20.647,10.933,58.923,37.646,38.852
					c35.757-26.867,14.251-79.046,14.251-79.046C398.005,252.689,373.892,271.495,373.892,271.495z"/>
				<path style="fill:#FCCAE5;" d="M373.892,271.495c0,0,0.188,4.978,1.047,11.974l22.565,8.244l29.332-48.438
					C398.005,252.689,373.892,271.495,373.892,271.495z"/>
			</g>
			<path style="fill:#D14253;" d="M359.128,255.898v12.96h-49.63v-12.96c0-0.97,0.06-1.92,0.17-2.86
				c7.82-2.29,16.09-3.51,24.65-3.51s16.82,1.22,24.64,3.51C359.068,253.978,359.128,254.928,359.128,255.898z"/>
			<path style="fill:#FCCAE5;" d="M422.268,347.108c0,48.57-39.38,87.95-87.95,87.95c-48.57,0-87.95-39.38-87.95-87.95
				c0-44.3,32.75-80.95,75.36-87.05c4.11-0.6,8.31-0.9,12.59-0.9s8.48,0.3,12.59,0.9
				C389.518,266.158,422.268,302.808,422.268,347.108z"/>
			<g>
				<path style="fill:#FFFFFF;" d="M297.804,345.171c-11.906,0-21.593-9.687-21.593-21.593c0-11.906,9.687-21.593,21.593-21.593
					c11.906,0,21.593,9.687,21.593,21.593C319.397,335.484,309.71,345.171,297.804,345.171z"/>
				<path style="fill:#FFFFFF;" d="M370.828,345.171c-11.906,0-21.593-9.687-21.593-21.593c0-11.906,9.687-21.593,21.593-21.593
					c11.906,0,21.593,9.687,21.593,21.593C392.422,335.484,382.735,345.171,370.828,345.171z"/>
				<path style="fill:#91643A;" d="M305.194,323.578c-4.081,0-7.39-3.308-7.39-7.39c0-2.55,1.292-4.799,3.257-6.127
					c-1.046-0.252-2.133-0.399-3.257-0.399c-7.685,0-13.916,6.23-13.916,13.915s6.23,13.915,13.916,13.915
					s13.916-6.23,13.916-13.915c0-1.124-0.148-2.21-0.399-3.257C309.992,322.286,307.744,323.578,305.194,323.578z"/>
				<path style="fill:#91643A;" d="M378.218,323.578c-4.081,0-7.39-3.308-7.39-7.39c0-2.55,1.292-4.799,3.257-6.127
					c-1.046-0.252-2.133-0.399-3.257-0.399c-7.685,0-13.916,6.23-13.916,13.915s6.23,13.915,13.916,13.915
					s13.916-6.23,13.916-13.915c0-1.124-0.148-2.21-0.399-3.257C383.017,322.286,380.769,323.578,378.218,323.578z"/>
			</g>
			<g>
				<circle style="fill:#FCCAE5;" cx="293.716" cy="356.957" r="25.89"/>
				<circle style="fill:#FCCAE5;" cx="374.916" cy="356.957" r="25.89"/>
			</g>
			<path style="fill:#CC9EBA;" d="M313.164,361.799l-0.094-0.163c-5.649-9.785-5.649-21.84,0-31.625l0.094-0.163
				c3.691-6.393,10.512-10.331,17.894-10.331h6.518c7.382,0,14.203,3.938,17.894,10.331l0.094,0.163
				c5.649,9.785,5.649,21.84,0,31.625l-0.094,0.163c-3.691,6.393-10.512,10.331-17.894,10.331h-6.518
				C323.676,372.13,316.855,368.192,313.164,361.799z"/>
			<g>
				<path style="fill:#4D4D4D;" d="M324.607,358.769L324.607,358.769c-3.074,0-5.59-2.515-5.59-5.59v-14.71
					c0-3.074,2.515-5.59,5.59-5.59l0,0c3.074,0,5.59,2.515,5.59,5.59v14.71C330.197,356.253,327.682,358.769,324.607,358.769z"/>
				<path style="fill:#4D4D4D;" d="M344.025,358.769L344.025,358.769c-3.074,0-5.59-2.515-5.59-5.59v-14.71
					c0-3.074,2.515-5.59,5.59-5.59h0c3.074,0,5.59,2.515,5.59,5.59v14.71C349.615,356.253,347.099,358.769,344.025,358.769z"/>
			</g>
			<path style="fill:#CC9EBA;" d="M346.908,264.558v2.14c0,6.95-5.64,12.59-12.59,12.59c-6.96,0-12.59-5.64-12.59-12.59v-2.14
				c4.11-0.6,8.31-0.9,12.59-0.9S342.798,263.958,346.908,264.558z"/>
			<path style="fill:#EA535E;" d="M346.908,260.058v2.14c0,6.95-5.64,12.59-12.59,12.59c-6.96,0-12.59-5.64-12.59-12.59v-2.14
				c4.11-0.6,8.31-0.9,12.59-0.9S342.798,259.458,346.908,260.058z"/>
			<path style="fill:#EA535E;" d="M334.316,391.158c-9.065,0-17.106-5.769-20.008-14.355c-0.531-1.569,0.312-3.272,1.881-3.803
				c1.57-0.53,3.272,0.313,3.803,1.882c2.077,6.146,7.834,10.276,14.324,10.276c6.493,0,12.252-4.129,14.329-10.276
				c0.53-1.569,2.228-2.412,3.803-1.882c1.569,0.531,2.412,2.233,1.881,3.803C351.427,385.39,343.384,391.158,334.316,391.158z"/>
		</g>
	</g>
</g>
<g>
</g>
<g>
</g>
<g>
</g>
<g>
</g>
<g>
</g>
<g>
</g>
<g>
</g>
<g>
</g>
<g>
</g>
<g>
</g>
<g>
</g>
<g>
</g>
<g>
</g>
<g>
</g>
<g>
</g>
</svg>
