<?xml version="1.0" encoding="iso-8859-1"?>
<!-- Generator: Adobe Illustrator 19.0.0, SVG Export Plug-In . SVG Version: 6.00 Build 0)  -->
<svg version="1.1" id="Layer_1" xmlns="http://www.w3.org/2000/svg" xmlns:xlink="http://www.w3.org/1999/xlink" x="0px" y="0px"
	 viewBox="0 0 504.124 504.124" style="enable-background:new 0 0 504.124 504.124;" xml:space="preserve">
<path style="fill:#324D5B;" d="M252.258,385.969c-25.994,0-47.262,21.268-47.262,47.262s21.268,47.262,47.262,47.262
	s47.262-21.268,47.262-47.262S278.252,385.969,252.258,385.969z M378.289,354.462c-25.994,0-47.262,21.268-47.262,47.262
	s21.268,47.262,47.262,47.262s47.262-21.268,47.262-47.262S404.283,354.462,378.289,354.462z M126.228,354.462
	c-25.994,0-47.262,21.268-47.262,47.262s21.268,47.262,47.262,47.262s47.262-21.268,47.262-47.262S152.222,354.462,126.228,354.462z
	"/>
<path style="fill:#E2574C;" d="M107.323,233.945c79.951-49.231,209.526-49.231,289.477,0s79.951,129.182,0,178.018
	c-79.951,49.231-209.526,49.231-289.477,0S27.372,283.175,107.323,233.945z"/>
<path style="fill:#CB4E44;" d="M127.015,400.148c-77.194-47.655-79.951-123.668-7.877-172.898
	c-3.938,1.969-7.877,4.332-11.815,6.695c-79.951,49.231-79.951,129.182,0,178.018c79.951,49.231,209.526,49.231,289.477,0
	c2.757-1.575,5.514-3.545,7.877-5.12C324.332,449.378,203.028,447.015,127.015,400.148z"/>
<path style="fill:#324D5B;" d="M73.846,146.117c98.462-58.289,257.969-58.289,356.431,0s98.462,153.206,0,211.495
	s-257.969,58.289-356.431,0S-24.615,204.8,73.846,146.117z"/>
<path style="fill:#2D4552;" d="M446.425,342.252c-98.462,58.289-257.969,58.289-356.431,0
	C10.437,294.99-4.923,224.492,43.52,168.172c-66.56,58.289-56.32,138.24,30.326,189.834c98.462,58.289,257.969,58.289,356.431,0
	c18.905-11.422,34.265-24.025,46.08-37.415C467.692,328.074,457.846,335.163,446.425,342.252z"/>
<path style="fill:#E4E7E7;" d="M252.258,23.631c87.04,0,157.538,70.498,157.538,157.538S339.298,307.2,252.258,307.2
	S94.72,268.209,94.72,181.169S165.218,23.631,252.258,23.631z"/>
<path style="fill:#D8DBDB;" d="M94.72,181.169c0,86.646,70.105,125.637,156.357,126.031h1.182V23.631
	C165.218,23.631,94.72,94.129,94.72,181.169z"/>
<path style="fill:#3DB39E;" d="M252.258,307.2c35.446,0,68.135-6.302,94.523-20.086V181.169c0-52.382-42.142-94.523-94.523-94.523
	s-94.523,42.142-94.523,94.523v105.945C184.123,300.898,216.812,307.2,252.258,307.2z"/>
<path style="fill:#3AAA96;" d="M157.735,181.169v105.945c25.994,13.391,58.683,20.086,93.735,20.086h0.788V86.646
	C199.877,86.646,157.735,129.182,157.735,181.169z"/>
<path style="fill:#FFFFFF;" d="M252.258,149.662c25.994,0,47.262,21.268,47.262,47.262s-21.268,47.262-47.262,47.262
	s-47.262-21.268-47.262-47.262S226.265,149.662,252.258,149.662z"/>
<path style="fill:#F2F2F2;" d="M252.258,149.662c-25.994,0-47.262,21.268-47.262,47.262s21.268,47.262,47.262,47.262V149.662z"/>
<path style="fill:#324D5B;" d="M252.258,173.292c12.997,0,23.631,10.634,23.631,23.631s-10.634,23.631-23.631,23.631
	s-23.631-10.634-23.631-23.631S239.262,173.292,252.258,173.292z"/>
<path style="fill:#2F4956;" d="M252.258,173.292c-12.997,0-23.631,10.634-23.631,23.631s10.634,23.631,23.631,23.631V173.292z"/>
<g>
</g>
<g>
</g>
<g>
</g>
<g>
</g>
<g>
</g>
<g>
</g>
<g>
</g>
<g>
</g>
<g>
</g>
<g>
</g>
<g>
</g>
<g>
</g>
<g>
</g>
<g>
</g>
<g>
</g>
</svg>
