<?xml version="1.0" encoding="iso-8859-1"?>
<!-- Generator: Adobe Illustrator 18.0.0, SVG Export Plug-In . SVG Version: 6.00 Build 0)  -->
<!DOCTYPE svg PUBLIC "-//W3C//DTD SVG 1.1//EN" "http://www.w3.org/Graphics/SVG/1.1/DTD/svg11.dtd">
<svg version="1.1" id="Capa_1" xmlns="http://www.w3.org/2000/svg" xmlns:xlink="http://www.w3.org/1999/xlink" x="0px" y="0px"
	 viewBox="0 0 454.6 454.6" style="enable-background:new 0 0 454.6 454.6;" xml:space="preserve">
<g>
	<path style="fill:#D14253;" d="M410.821,168.369c0-92.987-82.165-168.368-183.521-168.368S43.779,75.382,43.779,168.369
		S125.944,390.615,227.3,390.615S410.821,261.356,410.821,168.369z"/>
	<path style="fill:#CCCCCC;" d="M362.1,185.16c0,0,5.68,53.59-15.43,101.51c0,0-10.56-5.69-11.37-18.68c0,0-21.12,45.48-50.35,64.97
		c0,0-7.31-16.24-6.5-29.24c0,0-12.98,31.93-51.15,54.54c-38.17-22.61-51.15-54.54-51.15-54.54c0.81,13-6.5,29.24-6.5,29.24
		c-3.24-2.16-6.39-4.65-9.42-7.35c-8.69-7.77-16.41-17.37-22.73-26.49c-11.33-16.33-18.2-31.13-18.2-31.13
		c-0.05,0.76-0.13,1.49-0.24,2.2c-1.77,11.44-11.13,16.48-11.13,16.48c-16.07-36.48-16.62-76.26-15.96-93.16
		c0.2-5.3,0.53-8.35,0.53-8.35c-0.45,0.78-0.92,1.52-1.4,2.21c-6.51,9.31-15.79,10.26-15.79,10.26c0.06-12.94,1-24.95,2.69-36.08
		c0.43-2.82,0.91-5.59,1.44-8.3c0.37-1.93,0.77-3.84,1.19-5.72c9.88-44.24,32.34-73.21,56.78-92.17c0.69-0.53,1.39-1.06,2.09-1.58
		c51.9-38.79,123.7-38.79,175.6,0c0.7,0.52,1.4,1.05,2.09,1.58c8.35,6.48,16.47,14.13,23.94,23.16
		c14.38,17.39,26.34,39.89,32.84,69.01c0.42,1.88,0.82,3.79,1.19,5.72c0.53,2.71,1.01,5.48,1.44,8.3
		c1.69,11.13,2.63,23.14,2.69,36.08C379.29,197.63,368.59,196.53,362.1,185.16z"/>
	<path style="fill:#B3B3B3;" d="M179.76,231.88c-14.55,0-26.38-11.83-26.38-26.37c0-14.55,11.83-26.38,26.38-26.38
		c14.55,0,26.38,11.83,26.38,26.38C206.141,220.05,194.31,231.88,179.76,231.88z M274.84,231.88c-14.54,0-26.38-11.83-26.38-26.37
		c0-14.55,11.84-26.38,26.38-26.38c14.55,0,26.38,11.83,26.38,26.38C301.22,220.05,289.391,231.88,274.84,231.88z M78,161.55
		l68.19,36.56c-0.52,2.39-0.81,4.86-0.81,7.4c0,18.95,15.42,34.37,34.38,34.37c17.6,0,32.15-13.3,34.14-30.37h26.8
		c1.99,17.07,16.54,30.37,34.14,30.37c18.96,0,34.38-15.42,34.38-34.37c0-2.54-0.29-5.01-0.81-7.4l68.19-36.56
		c-0.43-2.82-0.91-5.59-1.44-8.3l-69.41,37.21c-5.59-11.43-17.35-19.33-30.91-19.33c-17.6,0-32.15,13.3-34.14,30.38h-26.8
		c-1.99-17.08-16.54-30.38-34.14-30.38c-13.56,0-25.32,7.9-30.91,19.33l-69.41-37.21L78,161.55z"/>
	<g>
		<path style="fill:#FFFFFF;" d="M178.105,193.492c-11.097,0-20.125-9.028-20.125-20.125c0-11.097,9.028-20.125,20.125-20.125
			c11.097,0,20.125,9.028,20.125,20.125C198.23,184.463,189.202,193.492,178.105,193.492z"/>
		<path style="fill:#FFFFFF;" d="M276.495,193.492c-11.097,0-20.125-9.028-20.125-20.125c0-11.097,9.028-20.125,20.125-20.125
			c11.097,0,20.125,9.028,20.125,20.125C296.62,184.463,287.591,193.492,276.495,193.492z"/>
		<path style="fill:#0071BC;" d="M184.993,173.367c-3.804,0-6.887-3.083-6.887-6.887c0-2.377,1.204-4.472,3.036-5.71
			c-0.975-0.234-1.988-0.372-3.036-0.372c-7.163,0-12.97,5.807-12.97,12.969s5.807,12.969,12.97,12.969s12.97-5.807,12.97-12.969
			c0-1.047-0.138-2.06-0.372-3.036C189.465,172.163,187.369,173.367,184.993,173.367z"/>
		<path style="fill:#0071BC;" d="M283.382,173.367c-3.804,0-6.887-3.083-6.887-6.887c0-2.377,1.204-4.472,3.036-5.71
			c-0.975-0.234-1.988-0.372-3.036-0.372c-7.163,0-12.97,5.807-12.97,12.969s5.807,12.969,12.97,12.969s12.97-5.807,12.97-12.969
			c0-1.047-0.138-2.06-0.372-3.036C287.854,172.163,285.759,173.367,283.382,173.367z"/>
	</g>
	<path style="fill:#B3B3B3;" d="M273.9,274.736L273.9,274.736c-4.105,9.346-13.348,15.381-23.556,15.381h0
		c-9.055,0-17.444-4.761-22.088-12.535l-0.957-1.602l-0.957,1.602c-4.644,7.774-13.032,12.535-22.088,12.535h0
		c-10.208,0-19.45-6.035-23.556-15.381l0,0c-6.659-15.159,4.445-32.164,21.002-32.164h51.196
		C269.455,242.571,280.559,259.577,273.9,274.736z"/>
	<circle style="fill:#D14253;" cx="226.343" cy="271.089" r="21.25"/>
	<path style="fill:#FFFFFF;" d="M273.9,268.243L273.9,268.243c-4.105,9.346-13.348,15.381-23.556,15.381h0
		c-9.055,0-17.444-4.761-22.088-12.535l-0.957-1.602l-0.957,1.602c-4.644,7.774-13.032,12.535-22.088,12.535h0
		c-10.208,0-19.45-6.035-23.556-15.381l0,0c-6.659-15.159,4.445-32.165,21.002-32.165h51.196
		C269.455,236.079,280.559,253.084,273.9,268.243z"/>
	<path style="fill:#4D4D4D;" d="M208.989,256.184l-1.983-6.102c-1.312-4.038,0.764-8.397,4.726-9.924l0,0
		c10.02-3.86,21.116-3.86,31.135,0l0,0c3.962,1.526,6.038,5.885,4.726,9.924l-1.983,6.102c-2.578,7.933-9.97,13.304-18.311,13.304h0
		C218.959,269.488,211.566,264.117,208.989,256.184z"/>
	<path style="fill:#B3B3B3;" d="M317.19,55.361c-0.69-0.536-1.389-1.064-2.087-1.584C289.027,40.72,259.11,33.297,227.3,33.297
		s-61.727,7.423-87.803,20.481c-0.698,0.52-1.397,1.048-2.087,1.584c-24.444,18.962-46.898,47.929-56.781,92.172
		c26.133-35.764,82.061-45.209,146.671-45.209s120.538,9.444,146.671,45.209C364.088,103.291,341.626,74.324,317.19,55.361z"/>
	<path style="fill:#B3B3B3;" d="M128.498,93.313c-7.294-1.894-14.571-3.849-21.817-5.917c-11.323,15.992-20.602,35.737-26.05,60.134
		c-3.34,14.91-5.24,31.54-5.32,50.1c0,0,9.28-0.95,15.79-10.26c-0.8-6.49-1.21-12.85-1.21-19
		C89.891,132.103,104.434,108.423,128.498,93.313z"/>
	<path style="fill:#B3B3B3;" d="M107.93,286.67c0,0,9.36-5.04,11.13-16.48c-13.68-24.91-23.14-51.64-27.09-76.68
		C91.31,210.41,91.861,250.19,107.93,286.67z"/>
	<path style="fill:#B3B3B3;" d="M326.103,93.313c7.294-1.894,14.571-3.849,21.817-5.917c11.323,15.992,20.602,35.737,26.05,60.134
		c3.34,14.91,5.24,31.54,5.32,50.1c0,0-9.28-0.95-15.79-10.26c0.8-6.49,1.21-12.85,1.21-19
		C364.71,132.103,350.167,108.423,326.103,93.313z"/>
	<path style="fill:#B3B3B3;" d="M346.67,286.67c0,0-9.36-5.04-11.13-16.48c13.68-24.91,23.14-51.64,27.09-76.68
		C363.29,210.41,362.74,250.19,346.67,286.67z"/>
	<g>
		<path style="fill:#999999;" d="M189.04,63.56c0,0-13.65,13.12-28.01,30.17c-10.56,12.52-21.5,27.16-27.71,40.28
			c-3.28,6.94-13.15,7.02-16.32,0.02c-2.97-6.55-5.79-14.69-7.4-24.17c-2.44-14.42-2.07-31.97,4.89-51.77
			c0.41-1.16,0.83-2.27,1.27-3.33c10.5-7.39,21.9-13.76,34.02-18.94C169.651,41.67,189.04,63.56,189.04,63.56z"/>
		<path style="fill:#999999;" d="M344.99,109.86c-1.6,9.48-4.42,17.62-7.39,24.17c-3.17,7-13.04,6.92-16.32-0.02
			c-6.21-13.12-17.15-27.76-27.71-40.28c-14.37-17.05-28.02-30.17-28.02-30.17s19.4-21.9,39.27-27.74
			c12.12,5.18,23.51,11.55,34.01,18.93c0.44,1.06,0.86,2.18,1.27,3.34C347.06,77.89,347.44,95.43,344.99,109.86z"/>
	</g>
	<path style="fill:#4D4D4D;" d="M400.049,137.475l-3.779-7.051l-90.523,48.53c-5.589-11.438-17.341-19.336-30.905-19.336
		c-17.603,0-32.15,13.301-34.139,30.378h-26.803c-1.989-17.078-16.536-30.378-34.139-30.378c-13.565,0-25.316,7.898-30.906,19.336
		l-90.523-48.53l-3.78,7.051l91.64,49.129c-0.524,2.383-0.809,4.855-0.809,7.393c0,18.957,15.422,34.379,34.378,34.379
		c17.603,0,32.15-13.301,34.139-30.379h26.803c1.989,17.078,16.535,30.379,34.139,30.379c18.956,0,34.378-15.422,34.378-34.379
		c0-2.538-0.285-5.01-0.809-7.393L400.049,137.475z M179.76,220.376c-14.545,0-26.378-11.833-26.378-26.379
		c0-14.545,11.833-26.378,26.378-26.378c14.545,0,26.379,11.833,26.379,26.378C206.139,208.542,194.306,220.376,179.76,220.376z
		 M274.841,220.376c-14.545,0-26.379-11.833-26.379-26.379c0-14.545,11.834-26.378,26.379-26.378s26.378,11.833,26.378,26.378
		C301.219,208.542,289.386,220.376,274.841,220.376z"/>
	<path style="fill:#808080;" d="M340.1,58.09c-0.41-1.16-0.83-2.28-1.27-3.34c-10.5-7.38-21.89-13.75-34.01-18.93
		c-19.87,5.84-39.27,27.74-39.27,27.74s13.65,13.12,28.02,30.17c19.46,3.21,36.91,8.34,51.42,16.13
		C347.44,95.43,347.06,77.89,340.1,58.09z M149.78,35.82c-12.12,5.18-23.52,11.55-34.02,18.94c-0.44,1.06-0.86,2.17-1.27,3.33
		c-6.96,19.8-7.33,37.35-4.89,51.77c14.51-7.79,31.96-12.92,51.43-16.13c14.36-17.05,28.01-30.17,28.01-30.17
		S169.651,41.67,149.78,35.82z"/>
	<path style="fill:#EA535E;" d="M227.3,0C125.94,0,43.78,75.38,43.78,168.37c0,80.03,60.86,186.93,142.44,215.16
		c13.21,4.57,26.96,7.08,41.08,7.08s27.87-2.51,41.08-7.08c81.58-28.23,142.44-135.13,142.44-215.16C410.82,75.38,328.66,0,227.3,0z
		 M287.631,351.01c-7.91,4.9-15.9,8.83-23.92,11.78c-12.1,4.46-24.28,6.71-36.41,6.71s-24.31-2.25-36.41-6.71
		c-8.02-2.95-16.01-6.88-23.92-11.78c-18.76-11.6-36.94-28.67-52.6-49.38c-30.52-40.38-49.48-91.44-49.48-133.26
		c0-81.2,72.86-99.34,162.41-99.34s162.41,18.14,162.41,99.34c0,41.82-18.96,92.88-49.49,133.26
		C324.57,322.34,306.381,339.41,287.631,351.01z"/>
	<g>
		<path style="fill:#EA535E;" d="M227.71,383.95v0.01c0,2.6-0.14,5.16-0.41,7.68c-1.43,13.17-6.47,25.25-14.12,35.23
			c-1.9,2.48-3.96,4.83-6.16,7.04c-12.79,12.78-30.45,20.69-49.96,20.69c0-22.31,10.35-42.21,26.5-55.15
			c11.89-9.54,26.94-15.31,43.32-15.49c0.14-0.01,0.28-0.01,0.42-0.01H227.71z"/>
		<path style="fill:#EA535E;" d="M297.54,454.6c-22.87,0-43.21-10.87-56.13-27.73c-7.64-9.98-12.69-22.06-14.11-35.23
			c-0.28-2.52-0.42-5.08-0.42-7.68v-0.01h0.42c0.14,0,0.28,0,0.41,0.01c16.39,0.18,31.44,5.95,43.33,15.49
			C287.2,412.4,297.54,432.29,297.54,454.6z"/>
	</g>
	<path style="fill:#D14253;" d="M271.04,399.45c-5.23,13.03-16.12,23.18-29.63,27.42c-7.64-9.98-12.69-22.06-14.11-35.23
		c-1.43,13.17-6.47,25.25-14.12,35.23c-13.51-4.24-24.39-14.39-29.62-27.42c11.89-9.54,26.94-15.31,43.32-15.49v-0.01h0.83v0.01
		C244.101,384.14,259.151,389.91,271.04,399.45z"/>
	<path style="fill:#D14253;" d="M268.41,381.9c0,0.55-0.01,1.09-0.03,1.63c-13.21,4.57-26.96,7.08-41.08,7.08
		s-27.87-2.51-41.08-7.08c-0.02-0.54-0.03-1.08-0.03-1.63c0-6.9,1.7-13.4,4.7-19.11c12.1,4.46,24.28,6.71,36.41,6.71
		s24.31-2.25,36.41-6.71C266.71,368.5,268.41,375,268.41,381.9z"/>
	<circle style="fill:#EA535E;" cx="227.3" cy="381.9" r="33.405"/>
</g>
<g>
</g>
<g>
</g>
<g>
</g>
<g>
</g>
<g>
</g>
<g>
</g>
<g>
</g>
<g>
</g>
<g>
</g>
<g>
</g>
<g>
</g>
<g>
</g>
<g>
</g>
<g>
</g>
<g>
</g>
</svg>
