<?xml version="1.0" encoding="iso-8859-1"?>
<!-- Generator: Adobe Illustrator 19.0.0, SVG Export Plug-In . SVG Version: 6.00 Build 0)  -->
<svg version="1.1" id="Capa_1" xmlns="http://www.w3.org/2000/svg" xmlns:xlink="http://www.w3.org/1999/xlink" x="0px" y="0px"
	 viewBox="0 0 149.589 149.589" style="enable-background:new 0 0 149.589 149.589;" xml:space="preserve">
<g>
	<g>
		<g>
			<path style="fill:#676C70;" d="M120.512,109.557c0,0,16.013,11.026,15.423,38.957c0,0-16.663-30.418-50.752-24.37
				C85.183,124.145,92.504,104.22,120.512,109.557z"/>
			<path style="fill:#676C70;" d="M29.077,109.557c0,0-16.014,11.026-15.423,38.957c0,0,16.663-30.418,50.752-24.37
				C64.406,124.145,57.084,104.22,29.077,109.557z"/>
		</g>
		<g>
			<path style="fill:#62686B;" d="M127.374,98.549c0,0,18.417,11.026,17.738,38.958c0,0-19.165-30.419-58.37-24.37
				C86.742,113.137,95.163,93.212,127.374,98.549z"/>
			<path style="fill:#62686B;" d="M22.215,98.549c0,0-18.418,11.026-17.738,38.958c0,0,19.164-30.419,58.37-24.37
				C62.847,113.137,54.426,93.212,22.215,98.549z"/>
		</g>
		<path style="fill:#676C70;" d="M133.637,86.394c9.877,2.546,14.291,9.761,14.291,9.761c-1.472-26.313-22.907-37.772-22.907-37.772
			l-12.819-43.502c-7.985,5.729-28.58,14.218-37.407,14.218c-8.826,0-29.421-8.488-37.407-14.218L24.569,58.383
			c0,0-21.436,11.459-22.907,37.772c0,0,4.413-7.215,14.29-9.761c0,0-18.913,10.822-15.551,29.921
			c9.036-11.459,34.675-18.674,46.864-12.732c12.188,5.942,10.928,16.977,12.398,25.677c0.836,4.945,1.843,10.333,5.167,13.029
			c2.524,2.048,7.061,2.037,9.964,2.037c2.903,0,7.44,0.011,9.965-2.037c3.324-2.697,4.33-8.084,5.166-13.029
			c1.472-8.7,0.211-19.735,12.399-25.677c12.189-5.942,37.827,1.274,46.864,12.732C152.551,97.217,133.637,86.394,133.637,86.394z"
			/>
		<g>
			<g>
				<g>
					<g>
						<path style="fill:#B8B8B8;" d="M31.852,1.163c1.793-0.913,9.218,5.296,14.459,13.263c4.404,6.695,7.4,19.388,6.926,24.99
							c-0.734,8.655-16.366,21.412-27.001,23.373C19.725,45.141,24.675,4.815,31.852,1.163z"/>
					</g>
				</g>
				<g>
					<g>
						<path style="fill:#787D82;" d="M33.596,9.559c1.304-0.664,6.703,3.851,10.514,9.643c3.202,4.869,5.381,14.098,5.035,18.171
							c-0.533,6.293-11.899,15.569-19.633,16.995C24.778,41.536,28.378,12.215,33.596,9.559z"/>
					</g>
				</g>
			</g>
			<g>
				<g>
					<g>
						<path style="fill:#B8B8B8;" d="M117.737,1.163c-1.794-0.913-9.218,5.296-14.459,13.263c-4.405,6.695-7.401,19.388-6.926,24.99
							c0.733,8.655,16.366,21.412,27.001,23.373C129.864,45.141,124.914,4.815,117.737,1.163z"/>
					</g>
				</g>
				<g>
					<g>
						<path style="fill:#787D82;" d="M115.993,9.559c-1.305-0.664-6.703,3.851-10.514,9.643c-3.203,4.869-5.382,14.098-5.036,18.171
							c0.534,6.293,11.9,15.569,19.633,16.995C124.811,41.536,121.211,12.215,115.993,9.559z"/>
					</g>
				</g>
			</g>
		</g>
		<path style="fill:#B8B8B8;" d="M101.043,89.155v9.899h-26.24h-0.018h-26.24v-9.899c-8.198-4.568-22.081-1.143-22.081,4.949
			c0,6.092,18.36,15.933,28.688,39.977c5.143,11.974,16.593,12.575,19.509,12.601v0.001c0.039,0,0.089,0,0.134,0
			c0.046,0,0.095,0,0.135,0v-0.001c2.915-0.026,14.364-0.627,19.508-12.601c10.328-24.044,28.688-33.885,28.688-39.977
			C123.125,88.012,109.242,84.587,101.043,89.155z"/>
		<path style="fill:#525759;" d="M74.794,133.977l-10.321,8.133c0,0,1.673,5.305,10.321,5.305c8.648,0,10.322-5.305,10.322-5.305
			L74.794,133.977z"/>
		<path style="fill:#676C70;" d="M47.265,97.449c12.188,6.836,10.928,19.532,12.398,29.542c0.836,5.69,1.843,11.888,5.167,14.991
			c2.524,2.356,7.061,2.344,9.964,2.344c2.903,0,7.44,0.012,9.965-2.344c3.324-3.102,4.33-9.301,5.166-14.991
			c1.472-10.01,0.211-22.706,12.399-29.542C114.513,90.614,35.075,90.614,47.265,97.449z"/>
		<g>
			<path style="fill:#838C8F;" d="M111.186,104.477c0,0,1.801-20.464-4.954-28.423c-6.756-7.958-16.889-3.638-17.79,2.502
				c-0.9,6.139,0.528,18.723,4.954,21.146C97.821,102.126,111.186,104.477,111.186,104.477z"/>
			<path style="fill:#838C8F;" d="M38.403,104.477c0,0-1.802-20.464,4.954-28.423c6.756-7.958,16.889-3.638,17.789,2.502
				c0.901,6.139-0.528,18.723-4.954,21.146C51.767,102.126,38.403,104.477,38.403,104.477z"/>
		</g>
		<g>
			<g>
				<path style="fill:#263138;" d="M86.742,89.85c0,0,11.64-2.014,17.469-10.345c0,0-5.561-6.11-12.49-0.959
					C87.069,82.005,86.742,89.85,86.742,89.85z"/>
				<g>
					<ellipse style="fill:#08AFC9;" cx="95.058" cy="81.626" rx="3.423" ry="3.456"/>
					<ellipse style="fill:#FFFFFF;" cx="94.192" cy="81.102" rx="1.288" ry="1.3"/>
				</g>
			</g>
			<g>
				<path style="fill:#263138;" d="M62.847,89.85c0,0-11.64-2.014-17.469-10.345c0,0,5.56-6.11,12.489-0.959
					C62.52,82.005,62.847,89.85,62.847,89.85z"/>
				<g>
					<ellipse style="fill:#08AFC9;" cx="54.531" cy="81.626" rx="3.423" ry="3.456"/>
					<ellipse style="fill:#FFFFFF;" cx="53.665" cy="81.102" rx="1.288" ry="1.3"/>
				</g>
			</g>
		</g>
		<path style="fill:#263138;" d="M74.794,131.87c-4.451,0-7.928,0.957-9.622,3.143c0,0,5.148,7.764,9.622,7.764
			c4.474,0,9.623-7.764,9.623-7.764C82.723,132.827,79.245,131.87,74.794,131.87z"/>
		<path style="opacity:0.8;fill:#3C454A;" d="M74.794,133.507c4.019,0,7.358,0.479,9.603,1.536c0.013-0.019,0.021-0.031,0.021-0.031
			c-1.694-2.186-5.172-3.143-9.623-3.143c-4.451,0-7.928,0.957-9.622,3.143c0,0,0.008,0.012,0.021,0.031
			C67.436,133.986,70.776,133.507,74.794,133.507z"/>
	</g>
	<path style="opacity:0.12;fill:#FFFFFF;" d="M74.794,29.099c-5.646,0-16.102-3.473-24.997-7.475
		c-1.004-2.697-2.182-5.213-3.486-7.198C41.069,6.459,33.645,0.251,31.852,1.163c-6.547,3.331-11.236,37.172-7.067,56.486
		l-0.217,0.734c0,0-21.435,11.459-22.906,37.772c0,0,4.413-7.215,14.29-9.761c0,0-18.913,10.822-15.551,29.921
		c2.995-3.798,7.819-7.125,13.368-9.666c-4.742,6.196-9.648,16.194-9.292,30.858c0,0,4.658-7.376,14.058-14.142
		c-2.851,6.085-5.108,14.348-4.88,25.149c0,0,11.885-21.692,36.111-24.796c1.926,3.128,3.756,6.567,5.386,10.361
		c2.922,6.802,7.878,9.932,12.148,11.372c1.566,1.059,3.932,1.962,7.494,1.962V29.099z"/>
</g>
<g>
</g>
<g>
</g>
<g>
</g>
<g>
</g>
<g>
</g>
<g>
</g>
<g>
</g>
<g>
</g>
<g>
</g>
<g>
</g>
<g>
</g>
<g>
</g>
<g>
</g>
<g>
</g>
<g>
</g>
</svg>
