<?xml version="1.0" encoding="iso-8859-1"?>
<!-- Generator: Adobe Illustrator 19.0.0, SVG Export Plug-In . SVG Version: 6.00 Build 0)  -->
<svg version="1.1" id="Capa_1" xmlns="http://www.w3.org/2000/svg" xmlns:xlink="http://www.w3.org/1999/xlink" x="0px" y="0px"
	 viewBox="0 0 512 512" style="enable-background:new 0 0 512 512;" xml:space="preserve">
<path style="fill:#7D4E3E;" d="M252.666,156.215c-12.273,0-22.222-9.949-22.222-22.222c0-74.043,45.346-126.106,89.185-133.665
	c12.106-2.092,23.59,6.029,25.675,18.123s-6.03,23.589-18.123,25.674c-21.924,3.78-52.294,37.114-52.294,89.868
	C274.888,146.266,264.939,156.215,252.666,156.215z"/>
<path style="opacity:0.1;enable-background:new    ;" d="M238.026,83.544c-4.817,15.254-7.581,32.181-7.581,50.449
	c0,12.272,9.949,22.222,22.222,22.222c12.273,0,22.222-9.949,22.222-22.222c0-19.542,4.173-36.41,10.534-50.107
	C269.63,83.3,253.824,83.186,238.026,83.544z"/>
<path style="fill:#F2BA5B;" d="M439.259,220.174C439.259,363.563,352.45,512,256,512S72.741,363.563,72.741,220.174H439.259z"/>
<g style="opacity:0.1;">
	<path d="M201.783,471.315c-1.524,0-3.063-0.463-4.393-1.426c-4.263-3.087-8.518-6.544-12.646-10.275
		c-3.073-2.778-3.313-7.52-0.534-10.593s7.521-3.31,10.593-0.535c3.729,3.37,7.559,6.483,11.385,9.254
		c3.355,2.429,4.105,7.118,1.677,10.473C206.398,470.238,204.106,471.315,201.783,471.315z"/>
	<path d="M175.636,447.127c-2.087,0-4.162-0.866-5.646-2.559c-8.141-9.297-15.859-19.864-22.94-31.408
		c-2.165-3.531-1.059-8.149,2.472-10.314c3.532-2.167,8.149-1.059,10.315,2.472c6.64,10.825,13.853,20.707,21.438,29.369
		c2.729,3.116,2.415,7.854-0.701,10.583C179.151,446.515,177.39,447.127,175.636,447.127z"/>
</g>
<path style="opacity:0.1;enable-background:new    ;" d="M72.742,220.174c0,15.742,1.048,31.544,3.038,47.205
	c4.894,1.43,10.065,2.211,15.421,2.211h308.277c-15.559,117.092-83.719,225.68-161.701,240.65C243.799,511.397,249.88,512,256,512
	c85.859,0,164.057-117.631,180.198-244.615c0.008-0.002,0.015-0.004,0.023-0.006c1.991-15.66,3.038-31.463,3.038-47.205H72.742z"/>
<path style="fill:#A16B4E;" d="M420.8,240.989H91.2c-30.324,0-54.907-24.583-54.907-54.907v-21.735
	c0-17.461,11.899-32.674,28.845-36.881l0,0c125.339-31.112,256.383-31.112,381.722,0l0,0c16.946,4.206,28.845,19.42,28.845,36.881
	v21.735C475.707,216.407,451.124,240.989,420.8,240.989z"/>
<path style="opacity:0.1;enable-background:new    ;" d="M447.977,127.769c2.985,5.453,4.658,11.684,4.658,18.232v21.735
	c0,30.324-24.583,54.907-54.907,54.907h-329.6c-7.574,0-14.789-1.534-21.353-4.307c9.981,13.725,26.156,22.654,44.425,22.654h329.6
	c30.324,0,54.907-24.583,54.907-54.907v-21.735C475.707,147.274,464.326,132.355,447.977,127.769z"/>
<g style="opacity:0.1;">
	<path d="M398.764,187.712l9.604-9.604c2.929-2.929,2.929-7.678,0-10.606c-2.93-2.929-7.678-2.929-10.607,0l-9.603,9.603
		l-19.206-19.206l9.604-9.604c2.929-2.929,2.929-7.678,0-10.606c-2.93-2.929-7.678-2.929-10.607,0l-9.603,9.603l-9.603-9.603
		c-2.93-2.929-7.678-2.929-10.607,0s-2.929,7.678,0,10.606l9.604,9.604l-19.206,19.206l-9.603-9.603
		c-2.929-2.929-7.678-2.929-10.606,0c-2.93,2.929-2.93,7.677-0.001,10.606l9.603,9.604l-9.603,9.603
		c-2.929,2.929-2.929,7.678,0,10.606c1.465,1.464,3.385,2.197,5.304,2.197s3.839-0.732,5.304-2.197l9.603-9.603l9.602,9.603
		c1.465,1.465,3.384,2.197,5.304,2.197c1.919,0,3.839-0.732,5.303-2.197c2.93-2.929,2.93-7.677,0.001-10.606l-9.603-9.603
		l19.206-19.206l19.206,19.206l-9.604,9.604c-2.929,2.929-2.929,7.678,0,10.606c1.465,1.464,3.385,2.197,5.304,2.197
		s3.839-0.732,5.304-2.197l9.603-9.603l9.603,9.603c1.465,1.464,3.385,2.197,5.304,2.197s3.839-0.732,5.304-2.197
		c2.929-2.929,2.929-7.678,0-10.606L398.764,187.712z"/>
	<path d="M139.082,179.538l9.603-9.604c2.929-2.929,2.929-7.678-0.001-10.606c-2.928-2.93-7.677-2.929-10.606,0l-9.603,9.603
		l-9.603-9.603c-2.929-2.929-7.678-2.93-10.606,0c-2.93,2.929-2.93,7.677-0.001,10.606l9.603,9.604l-9.603,9.604
		c-2.929,2.929-2.929,7.678,0.001,10.606c1.464,1.465,3.384,2.197,5.303,2.197s3.839-0.732,5.304-2.197l9.603-9.603l9.603,9.603
		c1.465,1.465,3.384,2.197,5.304,2.197c1.919,0,3.839-0.732,5.303-2.197c2.93-2.929,2.93-7.677,0.001-10.606L139.082,179.538z"/>
</g>
<g>
	<path style="fill:#4A5058;" d="M179.566,328.254c-4.143,0-7.5-3.358-7.5-7.5v-12.688c0-4.142,3.357-7.5,7.5-7.5s7.5,3.358,7.5,7.5
		v12.688C187.066,324.896,183.709,328.254,179.566,328.254z"/>
	<path style="fill:#4A5058;" d="M332.434,328.254c-4.143,0-7.5-3.358-7.5-7.5v-12.688c0-4.142,3.357-7.5,7.5-7.5s7.5,3.358,7.5,7.5
		v12.688C339.934,324.896,336.576,328.254,332.434,328.254z"/>
	<path style="fill:#4A5058;" d="M256,337.997c-9.892,0-19.297-4.284-25.806-11.753c-2.722-3.123-2.395-7.86,0.728-10.582
		c3.122-2.721,7.861-2.396,10.581,0.727c3.659,4.199,8.943,6.608,14.497,6.608c5.553,0,10.837-2.409,14.497-6.608
		c2.723-3.123,7.459-3.448,10.582-0.726c3.123,2.721,3.448,7.459,0.727,10.581C275.296,333.713,265.89,337.997,256,337.997z"/>
</g>
<g style="opacity:0.3;">
	<ellipse style="fill:#F15B70;" cx="179.57" cy="352.34" rx="32.717" ry="14.196"/>
	<ellipse style="fill:#F15B70;" cx="332.43" cy="352.34" rx="32.717" ry="14.196"/>
</g>
<g>
</g>
<g>
</g>
<g>
</g>
<g>
</g>
<g>
</g>
<g>
</g>
<g>
</g>
<g>
</g>
<g>
</g>
<g>
</g>
<g>
</g>
<g>
</g>
<g>
</g>
<g>
</g>
<g>
</g>
</svg>
