<?xml version="1.0" encoding="iso-8859-1"?>
<!-- Generator: Adobe Illustrator 19.0.0, SVG Export Plug-In . SVG Version: 6.00 Build 0)  -->
<svg version="1.1" id="Capa_1" xmlns="http://www.w3.org/2000/svg" xmlns:xlink="http://www.w3.org/1999/xlink" x="0px" y="0px"
	 viewBox="0 0 512.001 512.001" style="enable-background:new 0 0 512.001 512.001;" xml:space="preserve">
<path style="fill:#FAD97E;" d="M497.165,293.121H14.835C6.642,293.121,0,286.48,0,278.287v-35.429
	c0-8.193,6.642-14.835,14.835-14.835h482.331c8.193,0,14.835,6.642,14.835,14.835v35.429
	C512,286.48,505.358,293.121,497.165,293.121z"/>
<path style="opacity:0.1;enable-background:new    ;" d="M497.165,228.024H457.94c8.193,0,14.835,6.642,14.835,14.835v35.429
	c0,8.193-6.642,14.835-14.835,14.835h39.226c8.193,0,14.835-6.642,14.835-14.835v-35.429
	C512,234.665,505.358,228.024,497.165,228.024z"/>
<path style="fill:#A16B4E;" d="M472.774,293.121H39.226l21.72,157.965c2.513,18.276,18.13,31.893,36.579,31.893h316.952
	c18.448,0,34.066-13.617,36.579-31.893L472.774,293.121z"/>
<path style="opacity:0.1;enable-background:new    ;" d="M39.226,293.121l3.669,26.681H429.88l-18.052,131.284
	c-2.513,18.276-18.13,31.893-36.579,31.893h39.226c18.448,0,34.066-13.617,36.579-31.893l18.052-131.284l3.668-26.681H39.226z"/>
<path style="fill:#A16B4E;" d="M432.389,228.024h-48.666v-97.602c0-29.076-23.655-52.731-52.731-52.731H181.008
	c-29.076,0-52.731,23.655-52.731,52.731v97.602H79.611v-97.602c0-55.91,45.487-101.397,101.397-101.397h149.984
	c55.91,0,101.397,45.487,101.397,101.397V228.024z"/>
<rect x="79.61" y="201.342" style="opacity:0.1;enable-background:new    ;" width="48.666" height="26.684"/>
<rect x="383.72" y="201.342" style="opacity:0.1;enable-background:new    ;" width="48.666" height="26.684"/>
<rect x="192.04" y="29.022" style="fill:#FAD97E;" width="127.93" height="48.666"/>
<g style="opacity:0.1;">
	<rect x="248.5" y="29.022" width="15" height="48.666"/>
	<rect x="214.24" y="29.022" width="15" height="48.666"/>
	<rect x="282.76" y="29.022" width="15" height="48.666"/>
</g>
<g style="opacity:0.1;">
	<path d="M149.507,444.461l7.081-7.08c2.929-2.929,2.929-7.678,0-10.606c-2.929-2.929-7.677-2.93-10.607,0l-7.08,7.08l-7.08-7.08
		l-7.081-7.081l7.081-7.081c2.929-2.929,2.929-7.678,0-10.606c-2.93-2.929-7.678-2.929-10.607,0l-7.08,7.08l-7.08-7.08
		c-2.93-2.929-7.678-2.929-10.607,0s-2.929,7.678,0,10.606l7.081,7.081l-7.081,7.081c-2.929,2.929-2.929,7.678,0,10.606
		c1.465,1.464,3.385,2.197,5.304,2.197s3.839-0.732,5.304-2.197l7.08-7.08l7.08,7.08l7.081,7.08l-7.081,7.08
		c-2.929,2.929-2.929,7.678,0,10.606c1.465,1.465,3.384,2.197,5.304,2.197c1.919,0,3.839-0.732,5.304-2.197l7.08-7.08l7.08,7.08
		c1.465,1.464,3.385,2.197,5.304,2.197s3.839-0.732,5.304-2.197c2.929-2.929,2.929-7.678,0-10.606L149.507,444.461z"/>
	<path d="M431.046,366.332l7.081-7.08c2.929-2.929,2.929-7.678,0-10.606c-2.93-2.929-7.678-2.93-10.607,0l-7.08,7.08l-7.08-7.08
		c-2.93-2.929-7.678-2.929-10.607,0s-2.929,7.678,0,10.606l7.081,7.08l-7.081,7.08c-2.929,2.929-2.929,7.678,0,10.606
		c1.465,1.465,3.384,2.197,5.304,2.197c1.919,0,3.839-0.732,5.304-2.197l7.08-7.08l7.08,7.08c1.465,1.464,3.385,2.197,5.304,2.197
		s3.839-0.732,5.304-2.197c2.929-2.929,2.929-7.678,0-10.606L431.046,366.332z"/>
</g>
<g>
	<path style="fill:#4A5058;" d="M191.116,353.634c-4.143,0-7.5-3.358-7.5-7.5v-10.771c0-4.142,3.357-7.5,7.5-7.5s7.5,3.358,7.5,7.5
		v10.771C198.616,350.276,195.259,353.634,191.116,353.634z"/>
	<path style="fill:#4A5058;" d="M320.884,353.634c-4.143,0-7.5-3.358-7.5-7.5v-10.771c0-4.142,3.357-7.5,7.5-7.5s7.5,3.358,7.5,7.5
		v10.771C328.384,350.276,325.026,353.634,320.884,353.634z"/>
	<path style="fill:#4A5058;" d="M256,361.905c-8.724,0-17.02-3.778-22.761-10.365c-2.722-3.123-2.396-7.86,0.727-10.582
		c3.121-2.721,7.859-2.396,10.582,0.727c2.892,3.318,7.065,5.221,11.452,5.221s8.56-1.903,11.452-5.221
		c2.723-3.122,7.457-3.448,10.582-0.727c3.122,2.722,3.448,7.459,0.727,10.582C273.02,358.127,264.724,361.905,256,361.905z"/>
</g>
<g style="opacity:0.3;">
	<ellipse style="fill:#F15B70;" cx="191.12" cy="372.942" rx="27.774" ry="12.05"/>
	<ellipse style="fill:#F15B70;" cx="320.88" cy="372.942" rx="27.774" ry="12.05"/>
</g>
<g>
</g>
<g>
</g>
<g>
</g>
<g>
</g>
<g>
</g>
<g>
</g>
<g>
</g>
<g>
</g>
<g>
</g>
<g>
</g>
<g>
</g>
<g>
</g>
<g>
</g>
<g>
</g>
<g>
</g>
</svg>
