<?xml version="1.0" encoding="iso-8859-1"?>
<!-- Generator: Adobe Illustrator 19.0.0, SVG Export Plug-In . SVG Version: 6.00 Build 0)  -->
<svg version="1.1" id="Capa_1" xmlns="http://www.w3.org/2000/svg" xmlns:xlink="http://www.w3.org/1999/xlink" x="0px" y="0px"
	 viewBox="0 0 511.999 511.999" style="enable-background:new 0 0 511.999 511.999;" xml:space="preserve">
<g>
	<path style="fill:#1D1D1F;" d="M279.482,429.868v48.899c0,4.37-3.536,7.916-7.916,7.916c-4.37,0-7.916-3.546-7.916-7.916v-48.899
		H279.482z"/>
	<path style="fill:#1D1D1F;" d="M320.296,429.868v48.899c0,4.37-3.546,7.916-7.916,7.916c-4.37,0-7.916-3.546-7.916-7.916v-48.899
		H320.296z"/>
</g>
<path style="fill:#D8D7DA;" d="M338.07,114.771l-25.911,48.551l-9.341,17.5l-15.821,29.669l-0.243,0.443
	c-3.504,6.576-10.808,8.602-16.803,6.491c-3.705-1.288-6.903-4.159-8.391-8.507l-35.39-103.087
	c-7.979-23.241-1.087-47.137,14.344-62.8c5.045-5.119,11.008-9.362,17.658-12.402c8.296-3.8,17.658-5.742,27.664-5.235
	c0.623,0.032,1.256,0.063,1.879,0.116c0.391,0.032,0.781,0.074,1.172,0.106c0.391,0.032,0.771,0.053,1.161,0.084
	c0.633,0.053,1.256,0.106,1.889,0.179C334.313,30.504,358.135,77.165,338.07,114.771z"/>
<path style="fill:#C6C5CA;" d="M312.159,163.323l-9.341,17.5l-15.821,29.669l-0.243,0.443c-3.504,6.576-10.808,8.602-16.803,6.491
	c-3.705-1.288-6.903-4.159-8.391-8.507l-35.39-103.087c-7.979-23.241-1.087-47.137,14.344-62.8
	c5.045-5.119,11.008-9.362,17.658-12.402c19.864,10.016,35.421,28.898,39.801,53.375L312.159,163.323z"/>
<path style="fill:#D8D7DA;" d="M284.819,201.82L266.507,99.445c-7.162-40.04-52.567-60.944-87.063-39.39
	c-0.508,0.318-1.013,0.643-1.515,0.977c-0.311,0.208-0.614,0.417-0.922,0.629c-0.316,0.202-0.625,0.401-0.936,0.608
	c-0.501,0.335-0.997,0.674-1.486,1.021c-33.19,23.515-31.414,73.469,2.767,95.519l87.394,56.377
	C274.403,221.416,286.844,213.133,284.819,201.82z"/>
<path style="fill:#1D1D1F;" d="M494.211,117.115c-8.163-6.592-20.124-5.32-26.717,2.842c-3.259,4.035-4.589,8.999-4.122,13.783
	c-0.281,0.074-0.562,0.161-0.839,0.268c-32.557,12.58-54.836,53.78-64.528,78.448c-1.599,4.068,0.404,8.663,4.473,10.262
	c0.95,0.374,1.929,0.55,2.892,0.55c3.159,0,6.144-1.905,7.369-5.024c8.531-21.714,28.303-58.961,55.498-69.468
	c1.022-0.395,1.916-0.979,2.656-1.697c8.142,6.106,19.712,4.733,26.158-3.249C503.646,135.668,502.374,123.707,494.211,117.115z"/>
<path style="fill:#2D2D30;" d="M119.771,261.596v117.705l-63.085-27.642l-4.074-1.784l-13.193-5.784L5.834,329.378
	c-7.779-3.409-7.779-14.449,0-17.858l34.123-14.956l12.655-5.541l3.092-1.351L119.771,261.596z"/>
<path style="fill:#1D1D1F;" d="M119.771,261.596v117.705l-63.085-27.642l-4.074-1.784l-13.193-5.784
	c-1.488-7.272-2.259-14.798-2.259-22.502c0-8.602,0.96-16.982,2.797-25.025l12.655-5.541l3.092-1.351L119.771,261.596z"/>
<path id="SVGCleanerId_0" style="fill:#EEBF00;" d="M511.999,320.449c0,20.413-5.467,39.611-14.998,56.203
	c-5.045,8.781-11.22,16.835-18.344,23.948c-20.571,20.56-48.942,33.331-80.141,33.331H185.44
	c-62.42,0-113.483-51.063-113.483-113.483c0-31.21,12.771-59.581,33.331-80.152c3.525-3.525,7.272-6.818,11.23-9.837
	c19.146-14.724,43.052-23.495,68.921-23.495h213.076C460.927,206.966,511.999,258.029,511.999,320.449z"/>
<g>
	<path id="SVGCleanerId_0_1_" style="fill:#EEBF00;" d="M511.999,320.449c0,20.413-5.467,39.611-14.998,56.203
		c-5.045,8.781-11.22,16.835-18.344,23.948c-20.571,20.56-48.942,33.331-80.141,33.331H185.44
		c-62.42,0-113.483-51.063-113.483-113.483c0-31.21,12.771-59.581,33.331-80.152c3.525-3.525,7.272-6.818,11.23-9.837
		c19.146-14.724,43.052-23.495,68.921-23.495h213.076C460.927,206.966,511.999,258.029,511.999,320.449z"/>
</g>
<path style="fill:#FFD422;" d="M511.999,320.449c0,20.413-5.467,39.611-14.998,56.203c-19.135,14.724-43.063,23.505-68.932,23.505
	H214.993c-62.42,0-113.483-51.063-113.483-113.483c0-20.413,5.467-39.622,15.009-56.214c19.146-14.724,43.052-23.495,68.921-23.495
	h213.076C460.927,206.966,511.999,258.029,511.999,320.449z"/>
<circle style="fill:#1D1D1F;" cx="437.192" cy="284.72" r="14.696"/>
<g>
	<rect x="203.386" y="206.965" style="fill:#3E3D42;" width="49.797" height="226.966"/>
	<rect x="330.78" y="206.965" style="fill:#3E3D42;" width="49.786" height="226.966"/>
</g>
<g>
	<path style="fill:#1D1D1F;" d="M253.18,400.189v33.743h-49.797v-34.376c3.821,0.422,7.694,0.633,11.61,0.633H253.18z"/>
	<rect x="330.78" y="400.156" style="fill:#1D1D1F;" width="49.786" height="33.775"/>
	<path style="fill:#1D1D1F;" d="M238.678,429.868v48.899c0,4.37-3.546,7.916-7.916,7.916c-4.37,0-7.916-3.546-7.916-7.916v-48.899
		H238.678z"/>
	<path style="fill:#1D1D1F;" d="M361.111,429.868v48.899c0,4.37-3.546,7.916-7.916,7.916c-4.38,0-7.916-3.546-7.916-7.916v-48.899
		H361.111z"/>
</g>
<g>
</g>
<g>
</g>
<g>
</g>
<g>
</g>
<g>
</g>
<g>
</g>
<g>
</g>
<g>
</g>
<g>
</g>
<g>
</g>
<g>
</g>
<g>
</g>
<g>
</g>
<g>
</g>
<g>
</g>
</svg>
