<?xml version="1.0" encoding="iso-8859-1"?>
<!-- Generator: Adobe Illustrator 19.0.0, SVG Export Plug-In . SVG Version: 6.00 Build 0)  -->
<svg version="1.1" id="Capa_1" xmlns="http://www.w3.org/2000/svg" xmlns:xlink="http://www.w3.org/1999/xlink" x="0px" y="0px"
	 viewBox="0 0 512 512" style="enable-background:new 0 0 512 512;" xml:space="preserve">
<path style="fill:#FC8063;" d="M244.551,495.752c-1.728,0-3.464-0.594-4.878-1.807c-3.145-2.696-3.508-7.431-0.812-10.575
	c13.678-15.952,13.295-36.461,11.817-50.5c-0.434-4.119,2.555-7.81,6.674-8.244c4.117-0.43,7.81,2.554,8.244,6.674
	c1.768,16.799,2.101,41.484-15.349,61.834C248.765,494.863,246.664,495.752,244.551,495.752z"/>
<path style="fill:#F2BA5B;" d="M425.04,350.464l13.556-12.383c8.606-7.861,8.606-21.414,0-29.275l-13.556-12.383
	c-22.452-20.509-53.06-29.604-83.068-24.684l0,0c-25.327,4.152-43.918,26.039-43.918,51.704l0,0
	c0,25.665,18.591,47.552,43.918,51.704l0,0C371.98,380.069,402.589,370.973,425.04,350.464z"/>
<path style="opacity:0.1;enable-background:new    ;" d="M425.04,350.464l13.556-12.383c8.606-7.861,8.606-21.414,0-29.275
	l-13.556-12.383c-22.452-20.509-53.06-29.604-83.068-24.684l0,0c-25.327,4.152-43.918,26.039-43.918,51.704l0,0
	c0,25.665,18.591,47.552,43.918,51.704l0,0C371.98,380.069,402.589,370.973,425.04,350.464z"/>
<path style="opacity:0.05;enable-background:new    ;" d="M362.005,280.589l-3.695-10.152c-5.431-0.014-10.894,0.41-16.338,1.303
	l0,0c-25.327,4.152-43.918,26.039-43.918,51.704s18.591,47.552,43.918,51.704l0,0c4.91,0.805,9.836,1.228,14.739,1.293
	C370.973,347.603,373.878,313.208,362.005,280.589z"/>
<path style="fill:#F2BA5B;" d="M254.745,251.017c-69.903,25.443-113.04,91.858-112.18,162.254
	c0.118,9.681-5.316,18.575-13.954,22.947l-72.26,36.569c-9.328,4.721-14.136,15.617-10.657,25.476
	c3.813,10.805,15.698,16.401,26.44,12.491l202.602-73.741c63.338-23.053,95.995-93.086,72.942-156.424l-20.375-55.98
	L254.745,251.017z"/>
<path style="fill:#FAE5AA;" d="M79.994,356.814l-13.556-12.383c-8.606-7.861-8.606-21.414,0-29.275l13.556-12.383
	c22.452-20.509,53.06-29.604,83.068-24.684l0,0c25.327,4.152,43.918,26.039,43.918,51.704l0,0c0,25.665-18.591,47.552-43.918,51.704
	l0,0C133.054,386.418,102.446,377.323,79.994,356.814z"/>
<path style="fill:#F2BA5B;" d="M79.994,356.814l-13.556-12.383c-8.606-7.861-8.606-21.414,0-29.275l13.556-12.383
	c22.452-20.509,53.06-29.604,83.068-24.684l0,0c25.327,4.152,43.918,26.039,43.918,51.704l0,0c0,25.665-18.591,47.552-43.918,51.704
	l0,0C133.054,386.418,102.446,377.323,79.994,356.814z"/>
<path style="opacity:0.05;enable-background:new    ;" d="M347.679,280.589l-20.375-55.981l-72.558,26.409
	c-24.904,9.065-46.388,23.349-63.719,41.142c-7.454-7.223-17.084-12.286-27.964-14.07l0,0c-11.805-1.935-23.701-1.693-35.158,0.551
	c27.639,53.336,87.658,90.297,157.262,90.297c22.847,0,44.658-3.99,64.636-11.226C357.213,333.314,357.072,306.396,347.679,280.589z
	"/>
<path style="fill:#FAD97E;" d="M289.075,60.928c-3.375,0-6.441-2.294-7.279-5.719C276.278,32.662,253.813,15,230.651,15
	c-4.142,0-7.5-3.357-7.5-7.5s3.358-7.5,7.5-7.5c29.762,0,58.628,22.685,65.715,51.643c0.984,4.023-1.479,8.084-5.502,9.068
	C290.265,60.857,289.665,60.928,289.075,60.928z"/>
<ellipse style="fill:#F2BA5B;" cx="293.94" cy="193.27" rx="173.5" ry="156.43"/>
<path style="opacity:0.05;enable-background:new    ;" d="M449.356,123.687c6.27,16.168,9.689,33.543,9.689,51.641
	c0,86.396-77.678,156.434-173.499,156.434c-68.092,0-127.012-35.374-155.416-86.847c23.661,61.019,88.06,104.793,163.81,104.793
	c95.821,0,173.499-70.038,173.499-156.434C467.439,168.273,460.923,144.647,449.356,123.687z"/>
<g>
	<path style="fill:#FC8063;" d="M365.994,240.893h-36.233c-9.954,0-18.023-8.069-18.023-18.023v-21.033
		c0-17.168,16.076-29.803,32.758-25.748l0,0c17.739,4.313,32.76,16.061,41.218,32.24l0,0
		C393.461,223.146,382.713,240.893,365.994,240.893z"/>
	<path style="fill:#FC8063;" d="M199.814,506.124c-1.728,0-3.464-0.594-4.878-1.807c-3.145-2.696-3.508-7.431-0.812-10.575
		c13.677-15.952,13.295-36.461,11.817-50.5c-0.434-4.119,2.555-7.811,6.674-8.244c4.122-0.438,7.811,2.555,8.244,6.674
		c1.768,16.799,2.101,41.484-15.348,61.834C204.027,505.236,201.927,506.124,199.814,506.124z"/>
</g>
<g style="opacity:0.1;">
	<path d="M238.981,397.436c-0.819,0-1.652-0.135-2.47-0.42c-3.911-1.364-5.976-5.641-4.612-9.552l5.574-15.982
		c1.364-3.911,5.639-5.976,9.551-4.612c3.911,1.364,5.976,5.641,4.612,9.552l-5.574,15.982
		C244.984,395.498,242.083,397.436,238.981,397.436z"/>
	<path d="M263.429,420.128c-0.819,0-1.652-0.135-2.47-0.42c-3.911-1.364-5.976-5.641-4.612-9.552l5.574-15.983
		c1.364-3.911,5.641-5.977,9.551-4.612c3.911,1.364,5.976,5.641,4.612,9.552l-5.574,15.982
		C269.432,418.19,266.53,420.128,263.429,420.128z"/>
	<path d="M300.464,397.436c-0.819,0-1.652-0.135-2.47-0.42c-3.911-1.364-5.976-5.641-4.612-9.552l5.574-15.982
		c1.364-3.911,5.64-5.976,9.551-4.612c3.911,1.364,5.976,5.641,4.612,9.552l-5.574,15.982
		C306.467,395.498,303.565,397.436,300.464,397.436z"/>
</g>
<g>
	<path style="fill:#4A5058;" d="M268.961,182.824c-4.142,0-7.5-3.357-7.5-7.5c0-6.427-5.228-11.655-11.655-11.655
		c-6.426,0-11.655,5.229-11.655,11.655c0,4.143-3.358,7.5-7.5,7.5s-7.5-3.357-7.5-7.5c0-14.698,11.958-26.655,26.655-26.655
		c14.698,0,26.655,11.957,26.655,26.655C276.461,179.467,273.104,182.824,268.961,182.824z"/>
	<path style="fill:#4A5058;" d="M422.401,182.824c-4.142,0-7.5-3.357-7.5-7.5c0-6.427-5.229-11.655-11.655-11.655
		s-11.655,5.229-11.655,11.655c0,4.143-3.358,7.5-7.5,7.5s-7.5-3.357-7.5-7.5c0-14.698,11.957-26.655,26.655-26.655
		s26.655,11.957,26.655,26.655C429.901,179.467,426.544,182.824,422.401,182.824z"/>
</g>
<g>
</g>
<g>
</g>
<g>
</g>
<g>
</g>
<g>
</g>
<g>
</g>
<g>
</g>
<g>
</g>
<g>
</g>
<g>
</g>
<g>
</g>
<g>
</g>
<g>
</g>
<g>
</g>
<g>
</g>
</svg>
