<?xml version="1.0" encoding="iso-8859-1"?>
<!-- Generator: Adobe Illustrator 19.0.0, SVG Export Plug-In . SVG Version: 6.00 Build 0)  -->
<svg version="1.1" id="Layer_1" xmlns="http://www.w3.org/2000/svg" xmlns:xlink="http://www.w3.org/1999/xlink" x="0px" y="0px"
	 viewBox="0 0 512.001 512.001" style="enable-background:new 0 0 512.001 512.001;" xml:space="preserve">
<path style="fill:#FED9A8;" d="M202.697,381.087c-0.26-0.26-0.532-0.503-0.795-0.759l178.426-178.426
	c0.256,0.263,0.499,0.535,0.759,0.795c29.948,29.948,78.504,29.948,108.453,0s29.949-78.504,0-108.453
	c-13.767-13.767-31.469-21.188-49.485-22.297c-1.109-18.017-8.529-35.718-22.297-49.485c-29.948-29.948-78.504-29.948-108.453,0
	s-29.949,78.504,0,108.453c0.26,0.26,0.532,0.503,0.795,0.759L131.673,310.099c-0.256-0.263-0.499-0.535-0.759-0.795
	c-29.948-29.948-78.504-29.948-108.453,0c-29.949,29.948-29.949,78.504,0,108.453c13.768,13.768,31.469,21.188,49.485,22.297
	c1.109,18.017,8.53,35.718,22.297,49.485c29.948,29.948,78.504,29.948,108.453,0S232.646,411.034,202.697,381.087z"/>
<path style="fill:#EDC391;" d="M489.54,94.244c-3.242-3.242-6.708-6.119-10.339-8.657c20.949,29.912,18.087,71.426-8.628,98.141
	c-29.948,29.949-78.504,29.949-108.453,0c-0.26-0.26-0.503-0.532-0.759-0.795L182.934,361.361c0.263,0.256,0.535,0.499,0.795,0.759
	c29.949,29.948,29.948,78.504,0,108.453c-26.716,26.716-68.229,29.577-98.141,8.628c2.538,3.631,5.416,7.098,8.657,10.339
	c29.949,29.948,78.504,29.948,108.453,0c29.948-29.948,29.949-78.504,0-108.453c-0.26-0.26-0.532-0.503-0.795-0.759l178.426-178.426
	c0.256,0.263,0.499,0.535,0.759,0.795c29.949,29.949,78.504,29.948,108.453,0C519.488,172.748,519.488,124.192,489.54,94.244z"/>
<g>
</g>
<g>
</g>
<g>
</g>
<g>
</g>
<g>
</g>
<g>
</g>
<g>
</g>
<g>
</g>
<g>
</g>
<g>
</g>
<g>
</g>
<g>
</g>
<g>
</g>
<g>
</g>
<g>
</g>
</svg>
