<?xml version="1.0" encoding="iso-8859-1"?>
<!-- Generator: Adobe Illustrator 19.0.0, SVG Export Plug-In . SVG Version: 6.00 Build 0)  -->
<svg version="1.1" id="Layer_1" xmlns="http://www.w3.org/2000/svg" xmlns:xlink="http://www.w3.org/1999/xlink" x="0px" y="0px"
	 viewBox="0 0 360 360" style="enable-background:new 0 0 360 360;" xml:space="preserve">
<g id="XMLID_1663_">
	<path id="XMLID_1664_" style="fill:#50412E;" d="M180,0c0,0-110,40-110,130v40h110h110v-40C290,40,180,0,180,0z"/>
	<path id="XMLID_1665_" d="M180,170V0c0,0-110,40-110,130v40H180z"/>
	<path id="XMLID_1666_" style="fill:#64C37D;" d="M201,260h-21h-21c-38.107,0-69,30.893-69,69v31h90h90v-31
		C270,290.893,239.107,260,201,260z"/>
	<path id="XMLID_1667_" style="fill:#4B925E;" d="M180,260h-21c-38.107,0-69,30.893-69,69v31h90V260z"/>
	<path id="XMLID_1668_" style="fill:#FFD6A0;" d="M210,260c0,16.568-13.432,30-30,30l0,0c-16.568,0-30-13.432-30-30v-30
		c0-16.568,13.432-30,30-30l0,0c16.568,0,30,13.432,30,30V260z"/>
	<path id="XMLID_1669_" style="fill:#00D7DF;" d="M180,320c-22.092,0-40,17.908-40,40h40h40C220,337.908,202.092,320,180,320z"/>
	<path id="XMLID_1670_" style="fill:#00A1A7;" d="M180,320c-22.092,0-40,17.908-40,40h40V320z"/>
	<ellipse id="XMLID_1671_" style="fill:#FFD6A0;" cx="180" cy="155" rx="100" ry="105"/>
	<path id="XMLID_1672_" style="fill:#E8667D;" d="M180,225.858c-17.42,0-33.58-9.436-42.176-24.627
		c-0.68-1.202-0.257-2.727,0.944-3.407c1.2-0.679,2.727-0.257,3.407,0.944c7.71,13.626,22.203,22.09,37.824,22.09
		c15.622,0,30.115-8.464,37.824-22.09c0.68-1.201,2.204-1.622,3.407-0.944c1.201,0.68,1.624,2.205,0.944,3.407
		C213.581,216.422,197.421,225.858,180,225.858z"/>
	<g id="XMLID_1673_">
		<ellipse id="XMLID_1674_" style="fill:#FFB9A7;" cx="145" cy="180" rx="15" ry="10"/>
	</g>
	<g id="XMLID_1675_">
		<circle id="XMLID_1676_" style="fill:#50412E;" cx="145" cy="157.5" r="7.5"/>
	</g>
	<g id="XMLID_1677_">
		<ellipse id="XMLID_1678_" style="fill:#FFB9A7;" cx="215" cy="180" rx="15" ry="10"/>
	</g>
	<g id="XMLID_1679_">
		<circle id="XMLID_1680_" style="fill:#50412E;" cx="215" cy="157.5" r="7.5"/>
	</g>
	<path id="XMLID_1681_" style="fill:#FFC170;" d="M180,248c-22.528,0-44.084-4.358-63.959-12.295
		C133.376,250.872,155.67,260,180,260s46.624-9.128,63.959-24.295C224.084,243.642,202.528,248,180,248z"/>
	<circle id="XMLID_1682_" style="fill:#FFD6A0;" cx="80" cy="170" r="20"/>
	<circle id="XMLID_1683_" style="fill:#FFD6A0;" cx="280" cy="170" r="20"/>
	<path id="XMLID_1684_" style="fill:#50412E;" d="M250,60l-70-20l-10,40l10,30c60,0,80-10,80-10v50c0,11.046,8.954,20,20,20v-70
		L250,60z"/>
	<path id="XMLID_1685_" d="M110,60l-30,40v70c11.046,0,20-8.954,20-20v-50c0,0,20,10,80,10c0-30,0-80,0-80L110,60z"/>
</g>
<g>
</g>
<g>
</g>
<g>
</g>
<g>
</g>
<g>
</g>
<g>
</g>
<g>
</g>
<g>
</g>
<g>
</g>
<g>
</g>
<g>
</g>
<g>
</g>
<g>
</g>
<g>
</g>
<g>
</g>
</svg>
