<?xml version="1.0" encoding="iso-8859-1"?>
<!-- Generator: Adobe Illustrator 19.0.0, SVG Export Plug-In . SVG Version: 6.00 Build 0)  -->
<svg version="1.1" id="Capa_1" xmlns="http://www.w3.org/2000/svg" xmlns:xlink="http://www.w3.org/1999/xlink" x="0px" y="0px"
	 viewBox="0 0 512.001 512.001" style="enable-background:new 0 0 512.001 512.001;" xml:space="preserve">
<path style="fill:#E3E3E3;" d="M265.322,187.907l-84.95,30.919L115.008,95.748c-18.563-34.955-1.931-78.251,35.26-91.788l0,0
	c37.191-13.537,77.763,8.939,86.011,47.649L265.322,187.907z"/>
<path style="opacity:0.05;enable-background:new    ;" d="M265.322,187.907l-84.95,30.919L115.008,95.748
	c-18.563-34.955-1.931-78.251,35.26-91.788l0,0c37.191-13.537,77.763,8.939,86.011,47.649L265.322,187.907z"/>
<path style="opacity:0.3;fill:#F15B70;enable-background:new    ;" d="M215.244,189.98c-3.063,0-5.939-1.892-7.048-4.936
	L161.563,56.921c-1.417-3.893,0.59-8.196,4.483-9.613c3.891-1.415,8.195,0.591,9.613,4.483l46.632,128.122
	c1.417,3.893-0.59,8.196-4.483,9.613C216.962,189.833,216.096,189.98,215.244,189.98z"/>
<path style="fill:#E3E3E3;" d="M334.753,187.907l84.95,30.919l65.363-123.079c18.563-34.955,1.931-78.251-35.26-91.788l0,0
	c-37.192-13.537-77.763,8.939-86.011,47.649L334.753,187.907z"/>
<path style="opacity:0.05;enable-background:new    ;" d="M334.753,187.907l84.95,30.919l65.363-123.079
	c18.563-34.955,1.931-78.251-35.26-91.788l0,0c-37.192-13.537-77.763,8.939-86.011,47.649L334.753,187.907z"/>
<path style="opacity:0.3;fill:#F15B70;enable-background:new    ;" d="M384.831,189.98c-0.852,0-1.718-0.145-2.564-0.454
	c-3.893-1.417-5.899-5.721-4.483-9.613l46.632-128.122c1.416-3.893,5.72-5.896,9.613-4.483c3.893,1.417,5.899,5.721,4.483,9.613
	L391.88,185.043C390.771,188.088,387.894,189.98,384.831,189.98z"/>
<circle style="fill:#E3E3E3;" cx="64.129" cy="308.75" r="44.831"/>
<circle style="opacity:0.05;enable-background:new    ;" cx="64.129" cy="308.75" r="44.831"/>
<path style="opacity:0.05;enable-background:new    ;" d="M96.394,277.648c-28.366,12.415-49.451,38.373-55.069,69.701
	c6.682,3.956,14.474,6.235,22.802,6.235c24.759,0,44.831-20.072,44.831-44.831C108.957,296.67,104.168,285.71,96.394,277.648z"/>
<path style="fill:#E3E3E3;" d="M267.912,512.001L267.912,512.001c-17.742,0-32.125-14.383-32.125-32.125V425.11h64.251v54.766
	C300.038,497.618,285.655,512.001,267.912,512.001z"/>
<path style="opacity:0.05;enable-background:new    ;" d="M267.912,512.001L267.912,512.001c-17.742,0-32.125-14.383-32.125-32.125
	V425.11h64.251v54.766C300.038,497.618,285.655,512.001,267.912,512.001z"/>
<path style="fill:#E3E3E3;" d="M310.092,275.823H150.243c-52.103,0-94.342,42.238-94.342,94.342l0,0
	c0,24.858,9.622,47.462,25.337,64.311c5.478,5.874,8.376,13.7,8.376,21.732v23.668c0,17.742,14.383,32.125,32.125,32.125l0,0
	c17.742,0,32.125-14.383,32.125-32.125v-10.697c0-2.58,2.092-4.672,4.672-4.672h17.233c2.58,0,4.672,2.092,4.672,4.672v10.697
	c0,17.742,14.383,32.125,32.125,32.125l0,0c17.742,0,32.125-14.383,32.125-32.125v-10.914c0-2.503,1.938-4.574,4.435-4.744
	c56.682-3.847,101.475-51.012,101.475-108.669v-39.216C350.602,293.96,332.465,275.823,310.092,275.823z"/>
<path style="opacity:0.1;enable-background:new    ;" d="M310.092,275.823H150.243c-4.22,0-8.366,0.305-12.439,0.842
	c-1.052,6.468-1.607,13.077-1.607,19.8c0,76.569,70.575,138.641,157.633,138.641c8.122,0,16.1-0.541,23.891-1.583
	c20.284-19.779,32.882-47.4,32.882-77.974v-39.216C350.602,293.96,332.465,275.823,310.092,275.823z"/>
<ellipse style="fill:#E3E3E3;" cx="300.039" cy="275.82" rx="157.63" ry="138.64"/>
<path style="opacity:0.05;enable-background:new    ;" d="M415.046,181.022c15.306,21.37,24.17,46.668,24.17,73.791
	c0,76.569-70.575,138.641-157.633,138.641c-45.366,0-86.248-16.861-115.008-43.84c27.905,38.959,77.243,64.85,133.463,64.85
	c87.058,0,157.633-62.072,157.633-138.641C457.671,239.154,441.477,205.816,415.046,181.022z"/>
<g>
	<path style="fill:#4A5058;" d="M223.361,281.184c-4.142,0-7.5-3.357-7.5-7.5v-13.079c0-4.143,3.358-7.5,7.5-7.5s7.5,3.357,7.5,7.5
		v13.079C230.861,277.826,227.503,281.184,223.361,281.184z"/>
	<path style="fill:#4A5058;" d="M300.041,305.752L300.041,305.752c-12.192,0-22.076-9.883-22.076-22.076v-16.171
		c0-3.253,2.637-5.89,5.89-5.89h32.371c3.253,0,5.89,2.637,5.89,5.89v16.171C322.116,295.868,312.233,305.752,300.041,305.752z"/>
	<path style="fill:#4A5058;" d="M376.721,281.184c-4.142,0-7.5-3.357-7.5-7.5v-13.079c0-4.143,3.358-7.5,7.5-7.5s7.5,3.357,7.5,7.5
		v13.079C384.221,277.826,380.863,281.184,376.721,281.184z"/>
</g>
<g style="opacity:0.3;">
	<ellipse style="fill:#F15B70;" cx="225.999" cy="301.58" rx="31.69" ry="13.751"/>
	<ellipse style="fill:#F15B70;" cx="374.069" cy="301.58" rx="31.69" ry="13.751"/>
</g>
<g>
</g>
<g>
</g>
<g>
</g>
<g>
</g>
<g>
</g>
<g>
</g>
<g>
</g>
<g>
</g>
<g>
</g>
<g>
</g>
<g>
</g>
<g>
</g>
<g>
</g>
<g>
</g>
<g>
</g>
</svg>
