<?xml version="1.0" encoding="iso-8859-1"?>
<!-- Generator: Adobe Illustrator 19.0.0, SVG Export Plug-In . SVG Version: 6.00 Build 0)  -->
<svg xmlns="http://www.w3.org/2000/svg" xmlns:xlink="http://www.w3.org/1999/xlink" version="1.1" id="Layer_1" x="0px" y="0px" viewBox="0 0 444.67 444.67" style="enable-background:new 0 0 444.67 444.67;" xml:space="preserve" width="512" height="512">
<g>
	<circle style="fill:#0071CE;" cx="161.178" cy="137.907" r="28.232"/>
	<path style="fill:#00B3E3;" d="M322.357,254.781c0-69.677-56.484-126.161-126.162-126.161h-70.033   C56.484,128.62,0,185.105,0,254.781v38.187h322.357V254.781z"/>
	<path style="fill:#0071CE;" d="M210.386,152.735c-5.716-9.347-12.306-17.415-19.618-24.114h-25.586   c8.451,4.618,20.997,13.284,32.408,31.94c18.168,29.706,27.381,74.254,27.381,132.407h15   C239.972,232.012,230.018,184.831,210.386,152.735z M125.442,128.629c-9.762,6.637-20.508,15.742-30.602,28.408   c-26.076,32.719-39.297,78.453-39.297,135.931h15c0-122.611,62.66-153.832,85.987-164.348h-30.368   C125.921,128.62,125.683,128.628,125.442,128.629z"/>
	<path style="fill:#0071CE;" d="M27.629,260.154H0v15h27.629c4.142,0,7.5-3.357,7.5-7.5   C35.129,263.511,31.771,260.154,27.629,260.154z"/>
	<path style="fill:#0071CE;" d="M322.357,269.464c8.738,3.263,90.116,19.477,106.018,20.293c15.9,0.816,21.919,13.329,10.083,22.259   c-39.752,29.977-126.206,37.247-195.523-19.048L322.357,269.464z"/>
	<path style="fill:#FFC843;" d="M299.63,182.541c-11.418,5.817-19.243,17.677-19.243,31.373c0,19.439,15.758,35.199,35.198,35.199   c2.264,0,4.472-0.222,6.614-0.63C320.997,224.022,312.823,201.397,299.63,182.541z"/>
</g>















</svg>
