<?xml version="1.0" encoding="iso-8859-1"?>
<!-- Generator: Adobe Illustrator 19.0.0, SVG Export Plug-In . SVG Version: 6.00 Build 0)  -->
<svg version="1.1" id="Layer_1" xmlns="http://www.w3.org/2000/svg" xmlns:xlink="http://www.w3.org/1999/xlink" x="0px" y="0px"
	 viewBox="0 0 509.369 509.369" style="enable-background:new 0 0 509.369 509.369;" xml:space="preserve">
<path style="fill:#D7B48D;" d="M151.522,489.301l32.542-235.932h141.241l32.542,235.932c1.463,10.609-6.78,20.068-17.49,20.068
	H169.011C158.302,509.369,150.059,499.911,151.522,489.301z"/>
<path style="fill:#C09B78;" d="M331.114,295.476l-5.808-42.107H184.064l-5.808,42.107c17.774,22.699,45.364,37.341,76.429,37.341
	S313.34,318.175,331.114,295.476z"/>
<path style="fill:#64463C;" d="M316.478,32.679l30.061-30.061c3.034-3.034,7.888-3.513,11.371-1.008
	c48.884,35.151,73.326,84.035,73.326,84.035s-17.655,61.793-61.793,79.448L316.478,32.679z"/>
<path style="fill:#553732;" d="M353.481,0.153c1.555,0.109,3.097,0.498,4.43,1.457c48.884,35.151,73.326,84.035,73.326,84.035
	s-17.655,61.793-61.793,79.448C369.444,165.093,412.669,95.81,353.481,0.153z"/>
<path style="fill:#64463C;" d="M192.892,32.679L162.83,2.618c-3.034-3.034-7.887-3.513-11.371-1.008
	c-48.884,35.151-73.326,84.035-73.326,84.035s17.655,61.793,61.793,79.448L192.892,32.679z"/>
<path style="fill:#EBC9A0;" d="M254.685,279.852L254.685,279.852c-63.38,0-114.759-51.379-114.759-114.758v-35.311
	c0-63.379,51.379-114.759,114.758-114.759l0,0c63.379,0,114.758,51.379,114.758,114.759v35.311
	C369.444,228.473,318.064,279.852,254.685,279.852z"/>
<path style="fill:#D7B48D;" d="M201.719,165.093v-35.31c0-52.659,35.512-96.924,83.862-110.429
	c-9.843-2.749-20.176-4.329-30.897-4.329c-63.379,0-114.759,51.379-114.759,114.759v35.31c0,63.379,51.379,114.759,114.759,114.759
	c10.72,0,21.053-1.58,30.897-4.329C237.231,262.017,201.719,217.752,201.719,165.093z"/>
<path style="fill:#F5DCB4;" d="M184.674,226.886c-0.362,2.898-0.61,5.831-0.61,8.828c0,39.003,31.618,70.621,70.621,70.621
	s70.621-31.618,70.621-70.621c0-2.996-0.248-5.929-0.61-8.828H184.674z"/>
<path style="fill:#EBC9A0;" d="M184.674,226.886c-0.362,2.898-0.61,5.831-0.61,8.828c0,20.83,9.073,39.495,23.418,52.421
	c2.454,0.322,4.939,0.545,7.479,0.545c14.029,0,26.874-5.086,36.849-13.482c1.671-1.406,4.08-1.406,5.751,0
	c9.975,8.396,22.82,13.482,36.849,13.482c2.54,0,5.025-0.223,7.479-0.545c14.345-12.926,23.418-31.591,23.418-52.421
	c0-2.996-0.248-5.929-0.61-8.828L184.674,226.886L184.674,226.886z"/>
<g>
	<circle style="fill:#FAEBC8;" cx="214.965" cy="231.299" r="39.724"/>
	<circle style="fill:#FAEBC8;" cx="294.405" cy="231.299" r="39.724"/>
</g>
<g>
	<circle style="fill:#553732;" cx="254.685" cy="218.059" r="17.655"/>
	<path style="fill:#553732;" d="M155.889,0.153c-1.555,0.109-3.097,0.498-4.43,1.457c-48.884,35.151-73.326,84.035-73.326,84.035
		s17.655,61.793,61.793,79.448C139.926,165.093,96.701,95.81,155.889,0.153z"/>
</g>
<path style="fill:#C09B78;" d="M316.444,420.296c-0.448-4.858-4.655-8.384-9.595-7.996c-4.853,0.444-8.431,4.737-7.991,9.591
	l1.044,11.482c2.417,26.589-18.518,49.513-45.216,49.513l0,0c-26.698,0-47.633-22.925-45.216-49.513l1.044-11.482
	c0.44-4.853-3.138-9.147-7.991-9.591c-4.957-0.405-9.147,3.138-9.595,7.996l-8.099,89.073h139.712L316.444,420.296z"/>
<g>
	<path style="fill:#553732;" d="M201.719,165.093c-4.879,0-8.828-3.953-8.828-8.828v-8.828c0-4.875,3.948-8.828,8.828-8.828
		c4.879,0,8.828,3.953,8.828,8.828v8.828C210.547,161.141,206.599,165.093,201.719,165.093z"/>
	<path style="fill:#553732;" d="M307.651,165.093c-4.879,0-8.828-3.953-8.828-8.828v-8.828c0-4.875,3.948-8.828,8.828-8.828
		s8.828,3.953,8.828,8.828v8.828C316.478,161.141,312.53,165.093,307.651,165.093z"/>
</g>
<g>
</g>
<g>
</g>
<g>
</g>
<g>
</g>
<g>
</g>
<g>
</g>
<g>
</g>
<g>
</g>
<g>
</g>
<g>
</g>
<g>
</g>
<g>
</g>
<g>
</g>
<g>
</g>
<g>
</g>
</svg>
