<?xml version="1.0" encoding="iso-8859-1"?>
<!-- Generator: Adobe Illustrator 19.0.0, SVG Export Plug-In . SVG Version: 6.00 Build 0)  -->
<svg version="1.1" id="Layer_1" xmlns="http://www.w3.org/2000/svg" xmlns:xlink="http://www.w3.org/1999/xlink" x="0px" y="0px"
	 viewBox="0 0 512 512" style="enable-background:new 0 0 512 512;" xml:space="preserve">
<path style="fill:#E6E6E6;" d="M310.426,54.424c0,0.897-0.023,1.782-0.068,2.667c-1.385,28.829-25.197,51.767-54.355,51.767
	c-29.169,0-52.982-22.938-54.366-51.767c-0.045-0.885-0.068-1.771-0.068-2.667c0-30.055,24.368-54.423,54.434-54.423
	C286.058,0.001,310.426,24.369,310.426,54.424z"/>
<path style="fill:#D3D3D3;" d="M223.137,54.426c0-26.367,18.751-48.351,43.644-53.354C263.296,0.372,259.691,0,256,0
	c-30.059,0-54.426,24.367-54.426,54.426s24.367,54.426,54.426,54.426c3.692,0,7.297-0.372,10.782-1.073
	C241.889,102.777,223.137,80.794,223.137,54.426z"/>
<path style="fill:#72CDED;" d="M385.393,409.768v102.229H126.614V409.768c0-33.596,21.417-62.209,51.336-72.901
	c3.609-1.283,7.332-2.315,11.168-3.064h133.771c3.836,0.749,7.559,1.782,11.168,3.064
	C363.976,347.558,385.393,376.173,385.393,409.768z"/>
<g>
	<path style="fill:#5FBAD3;" d="M222.03,333.806h-32.915c-35.616,6.935-62.504,38.317-62.504,75.965V512h32.915V409.771
		C159.525,372.123,186.413,340.741,222.03,333.806z"/>
	<path style="fill:#5FBAD3;" d="M334.057,336.868l-39.748,28.874c-22.847,16.594-53.776,16.594-76.612,0l-39.748-28.874
		c3.609-1.283,7.332-2.315,11.168-3.065h133.771C326.725,334.552,330.448,335.585,334.057,336.868z"/>
</g>
<g>
	<path style="fill:#E0B394;" d="M138.057,236.745c-14.074-0.624-25.276-12.235-25.276-26.457c0-14.619,11.849-26.479,26.479-26.479
		c1.317,0,2.61,0.091,3.882,0.284"/>
	<path style="fill:#E0B394;" d="M373.932,236.745c14.074-0.624,25.288-12.235,25.288-26.457c0-14.619-11.861-26.479-26.491-26.479
		c-1.317,0-2.622,0.102-3.882,0.284"/>
</g>
<path style="fill:#F7CBA4;" d="M305.398,309.866v63.049c0,27.285-22.121,49.395-49.395,49.395c-27.285,0-49.395-22.11-49.395-49.395
	v-63.049H305.398z"/>
<path style="fill:#E0B394;" d="M305.398,309.866v47.817l-11.089,8.058c-22.847,16.605-53.776,16.605-76.612,0l-11.089-8.058v-47.817
	H305.398z"/>
<path style="fill:#F7CBA4;" d="M217.693,351.204l-46.59-33.85c-24.62-17.888-37.939-47.468-35.012-77.76l8.081-83.624
	C149.737,98.375,198.137,54.426,256,54.426l0,0c57.863,0,106.263,43.948,111.829,101.544l8.081,83.624
	c2.927,30.292-10.391,59.871-35.012,77.76l-46.59,33.85C271.464,367.8,240.535,367.8,217.693,351.204z"/>
<path style="fill:#E0B394;" d="M165.083,256.074c-0.783,13.245,3.53,26.275,12.065,36.433l48.695,59.837
	c2.542,3.03,5.425,5.573,8.547,7.604c-5.857-2.043-11.486-4.971-16.696-8.751l-46.592-33.846
	c-24.618-17.888-37.932-47.466-35.003-77.759l8.07-83.626c5.516-57.034,53.027-100.685,110.151-101.514
	c-35.185,0.851-75.027,34.016-77.104,69.337L165.083,256.074z"/>
<path style="fill:#D3D3D3;" d="M310.358,57.091c-1.385,28.829-25.197,51.767-54.355,51.767c-29.169,0-52.982-22.938-54.366-51.767
	c15.425-8.535,33.017-13.541,51.665-13.983c0.34-0.011,0.681-0.011,1.021-0.011c0.556-0.023,1.112-0.023,1.68-0.023
	C275.65,43.074,294.207,48.136,310.358,57.091z"/>
<path style="fill:#E6E6E6;" d="M369.185,169.924c-53.674,0-83.661-57.113-83.661-57.113s-25.061,46.365-111.457,45.264
	c-9.25-0.114-19.181-0.783-29.884-2.1h-0.011C149.654,99.27,196.643,55.8,253.302,54.46c0.34-0.011,0.681-0.011,1.021-0.011
	c0.556-0.023,1.112-0.023,1.68-0.023c28.931,0,55.501,10.987,75.523,29.169c20.033,18.194,33.528,43.572,36.309,72.379
	L369.185,169.924z"/>
<path style="fill:#D3D3D3;" d="M254.324,54.449c-35.185,0.851-75.035,34.016-77.112,69.337l-3.144,34.288
	c-9.25-0.113-19.181-0.783-29.884-2.1h-0.011C149.654,99.27,196.643,55.8,253.302,54.461
	C253.643,54.449,253.983,54.449,254.324,54.449z"/>
<g>
	<circle style="fill:#D7E9F4;" cx="305.12" cy="232.617" r="31.78"/>
	<circle style="fill:#D7E9F4;" cx="206.875" cy="232.617" r="31.78"/>
</g>
<g>
	<path style="fill:#B6CDD8;" d="M311.93,233.754h-13.615c-3.76,0-6.81-3.049-6.81-6.81s3.05-6.81,6.81-6.81h13.615
		c3.76,0,6.81,3.049,6.81,6.81S315.692,233.754,311.93,233.754z"/>
	<path style="fill:#B6CDD8;" d="M213.684,233.754h-13.615c-3.76,0-6.81-3.049-6.81-6.81s3.05-6.81,6.81-6.81h13.615
		c3.76,0,6.81,3.049,6.81,6.81S217.444,233.754,213.684,233.754z"/>
</g>
<path style="fill:#E0B394;" d="M247.001,279.177l14.775-3.936c4.551-1.212,7.257-5.885,6.045-10.436l-10.069-37.791"/>
<path style="fill:#ED7C58;" d="M376.582,198.384c-2.048-2.372-5.631-2.637-8.004-0.589l-27.644,23.851
	c-4.702-15.314-18.976-26.482-35.811-26.482c-18.724,0-34.283,13.811-37.025,31.78h-24.197c-2.743-17.969-18.302-31.78-37.025-31.78
	c-16.835,0-31.109,11.167-35.811,26.482l-27.644-23.851c-2.372-2.048-5.956-1.783-8.004,0.589c-2.048,2.373-1.783,5.956,0.59,8.004
	l33.522,28.922c1.386,19.399,17.6,34.764,37.347,34.764c18.724,0,34.283-13.811,37.025-31.78h24.197
	c2.743,17.969,18.302,31.78,37.025,31.78c19.747,0,35.962-15.363,37.347-34.764l33.522-28.922
	C378.365,204.34,378.63,200.757,376.582,198.384z M206.876,258.723c-14.394,0-26.105-11.711-26.105-26.105
	s11.711-26.105,26.105-26.105s26.105,11.711,26.105,26.105S221.27,258.723,206.876,258.723z M305.124,258.723
	c-14.394,0-26.105-11.711-26.105-26.105s11.711-26.105,26.105-26.105c14.394,0,26.105,11.711,26.105,26.105
	S319.518,258.723,305.124,258.723z"/>
<g>
	<polygon style="fill:#5FBAD3;" points="186.757,511.997 169.732,511.997 178.245,403.855 	"/>
	<polygon style="fill:#5FBAD3;" points="342.252,511.997 325.227,511.997 333.739,403.855 	"/>
</g>
<path style="fill:#4D4D4D;" d="M225.071,293.835c6.563,1.494,11.73,2.673,16.745,3.309c4.96,0.668,9.561,0.993,14.184,0.991
	c4.623-0.018,9.22-0.34,14.175-1.014c5.01-0.638,10.175-1.808,16.754-3.287c-1.535,6.607-6.055,11.937-11.629,15.672
	c-5.622,3.714-12.47,5.66-19.299,5.65c-6.829-0.009-13.673-1.954-19.29-5.673C231.139,305.747,226.622,300.425,225.071,293.835z"/>
<g>
</g>
<g>
</g>
<g>
</g>
<g>
</g>
<g>
</g>
<g>
</g>
<g>
</g>
<g>
</g>
<g>
</g>
<g>
</g>
<g>
</g>
<g>
</g>
<g>
</g>
<g>
</g>
<g>
</g>
</svg>
