<?xml version="1.0" encoding="iso-8859-1"?>
<!-- Generator: Adobe Illustrator 19.0.0, SVG Export Plug-In . SVG Version: 6.00 Build 0)  -->
<svg version="1.1" id="Capa_1" xmlns="http://www.w3.org/2000/svg" xmlns:xlink="http://www.w3.org/1999/xlink" x="0px" y="0px"
	 viewBox="0 0 512 512" style="enable-background:new 0 0 512 512;" xml:space="preserve">
<circle style="fill:#FF3200;" cx="256" cy="256" r="256"/>
<path style="fill:#CA1C00;" d="M511.956,259.458L348.791,96.189c-1.439-1.749-3.178-3.256-5.176-4.45l-12.371-7.395
	c-6.539-3.909-14.411-3.649-20.554-0.031l-7.525-7.775c-3.478-3.889-8.444-6.437-14.059-6.687l-14.398-0.64
	c-7.791-0.345-14.747,3.837-18.374,10.201l-1.723-1.681c-3.827-5.41-10.225-8.839-17.318-8.52l-14.399,0.64
	c-9.5,0.423-17.169,7.406-18.871,16.368c-6.389-5.353-15.718-6.389-23.266-1.876l-12.37,7.394
	c-4.603,2.751-7.863,7.145-9.179,12.372c-0.568,2.258-0.72,4.547-0.514,6.794c-8.051-0.757-16.122,3.389-19.936,11.05l-6.423,12.903
	c-2.39,4.8-2.762,10.259-1.049,15.37c0.96,2.863,2.525,5.401,4.545,7.515c-6.925,3.188-11.755,10.176-11.755,18.286v14.413
	c0,7.19,3.79,13.507,9.474,17.07c0.146,0.232,0.297,0.46,0.452,0.685H104.93v36.618c-26.588,14.693-44.636,43.02-44.636,75.487
	c0,22.605,8.822,43.969,24.202,59.878l128.316,128.175C226.852,510.74,241.278,512,256,512
	C396.229,512,510.103,399.247,511.956,259.458z"/>
<path style="fill:#FFFFFF;" d="M407.073,244.814v-36.618h-29.799c6.333-3.397,10.653-10.079,10.653-17.755v-14.413
	c0-8.111-4.829-15.098-11.755-18.286c2.019-2.114,3.585-4.652,4.545-7.515c1.713-5.111,1.341-10.57-1.049-15.37l-6.423-12.903
	c-3.815-7.662-11.885-11.809-19.936-11.051c0.206-2.247,0.054-4.536-0.514-6.793c-1.317-5.227-4.577-9.621-9.179-12.371
	l-12.371-7.395c-7.548-4.512-16.877-3.478-23.266,1.876c-1.701-8.962-9.37-15.945-18.871-16.368l-14.398-0.64
	c-8.029-0.355-15.181,4.089-18.707,10.782c-3.522-6.694-10.671-11.143-18.709-10.782l-14.399,0.64
	c-9.5,0.423-17.169,7.406-18.871,16.368c-6.389-5.353-15.718-6.389-23.266-1.876l-12.37,7.394
	c-4.603,2.751-7.863,7.145-9.179,12.372c-0.568,2.258-0.72,4.547-0.514,6.794c-8.051-0.757-16.122,3.389-19.936,11.05l-6.423,12.903
	c-2.39,4.8-2.762,10.259-1.049,15.37c0.96,2.863,2.525,5.401,4.545,7.515c-6.925,3.188-11.755,10.176-11.755,18.286v14.413
	c0,7.676,4.319,14.358,10.653,17.755h-29.799v36.618c-26.588,14.693-44.636,43.02-44.636,75.487
	c0,28.758,14.268,55.516,38.166,71.576l3.16,2.124h89.719l3.16-2.124c23.898-16.06,38.166-42.818,38.166-71.576
	c0-32.467-18.048-60.794-44.636-75.487v-36.618h-34.331c6.333-3.397,10.653-10.079,10.653-17.755v-14.413
	c0-5.394-2.143-10.288-5.608-13.907c4.047-1.849,7.514-5.032,9.647-9.316l6.423-12.903c1.695-3.406,2.354-7.143,1.994-10.852
	c0.646,0.063,1.294,0.104,1.946,0.104c3.513,0,7.07-0.918,10.297-2.848l12.373-7.395c5.141-3.073,8.395-8.097,9.428-13.566
	c3.651,3.08,8.175,4.759,12.926,4.759c0.301,0,0.605-0.007,0.909-0.021l14.398-0.641c5.357-0.237,10.311-2.559,13.95-6.537
	c1.189-1.3,2.169-2.733,2.969-4.249c0.8,1.515,1.78,2.949,2.969,4.249c3.639,3.978,8.592,6.299,13.949,6.537l14.4,0.641
	c0.303,0.014,0.606,0.021,0.908,0.021c4.75,0,9.276-1.68,12.926-4.759c1.033,5.468,4.287,10.493,9.429,13.566l12.371,7.395
	c3.229,1.93,6.785,2.848,10.298,2.848c0.651,0,1.3-0.042,1.946-0.104c-0.36,3.709,0.299,7.446,1.994,10.852l6.423,12.903
	c2.133,4.284,5.6,7.467,9.647,9.316c-3.465,3.619-5.608,8.513-5.608,13.907v14.413c0,7.676,4.32,14.358,10.653,17.755h-34.331
	v36.618c-26.588,14.693-44.636,43.02-44.636,75.487c0,28.758,14.268,55.516,38.166,71.576l3.16,2.124h89.72l3.16-2.124
	c23.898-16.06,38.166-42.818,38.166-71.576C451.709,287.833,433.661,259.506,407.073,244.814z M210.463,320.584
	c0,20.078-9.371,38.845-25.249,50.933h-77.475c-15.878-12.088-25.249-30.855-25.249-50.933c0-35.282,28.704-63.987,63.987-63.987
	C181.759,256.598,210.463,285.302,210.463,320.584z M153.865,190.441c0,5.324-4.331,9.655-9.655,9.655s-9.655-4.331-9.655-9.655
	v-14.413c0-5.324,4.331-9.655,9.655-9.655s9.655,4.331,9.655,9.655V190.441z M165.425,135.232l-6.423,12.903
	c-2.372,4.766-8.18,6.712-12.945,4.34c-2.294-1.142-4.011-3.124-4.835-5.58c-0.824-2.456-0.649-5.072,0.494-7.366l6.423-12.903
	c2.371-4.766,8.18-6.713,12.946-4.34c2.294,1.142,4.011,3.124,4.835,5.58C166.743,130.322,166.568,132.938,165.425,135.232z
	 M196.042,109.916l-12.373,7.395c-4.567,2.729-10.508,1.236-13.241-3.335v0.001c-1.314-2.2-1.69-4.795-1.057-7.306
	c0.633-2.513,2.193-4.619,4.393-5.934l12.371-7.395c4.569-2.731,10.509-1.235,13.241,3.334
	C202.107,101.245,200.612,107.184,196.042,109.916z M238.615,98.974l-14.398,0.641c-2.564,0.104-5.023-0.787-6.934-2.536
	c-1.911-1.748-3.026-4.121-3.141-6.681c-0.236-5.318,3.898-9.838,9.217-10.076l14.398-0.64c0.145-0.007,0.29-0.009,0.434-0.009
	c5.129,0,9.411,4.054,9.642,9.226C248.069,94.218,243.935,98.737,238.615,98.974z M294.717,97.08
	c-1.91,1.75-4.374,2.641-6.933,2.536l-14.4-0.641c-5.319-0.237-9.453-4.756-9.217-10.074c0.231-5.174,4.513-9.227,9.641-9.227
	c0.144,0,0.289,0.004,0.435,0.009l14.397,0.64c5.319,0.237,9.454,4.757,9.218,10.076C297.743,92.959,296.628,95.331,294.717,97.08z
	 M341.572,113.977L341.572,113.977c-2.732,4.569-8.674,6.065-13.242,3.334l-12.371-7.395c-4.57-2.732-6.066-8.671-3.334-13.241
	c1.806-3.022,5.015-4.699,8.304-4.699c1.684,0,3.389,0.44,4.937,1.365l12.372,7.396c2.199,1.314,3.759,3.421,4.392,5.934
	C343.262,109.182,342.886,111.777,341.572,113.977z M352.998,148.134l-6.423-12.903c-1.143-2.294-1.318-4.91-0.494-7.366
	c0.824-2.456,2.541-4.438,4.834-5.58c1.378-0.686,2.842-1.01,4.286-1.01c3.55,0,6.973,1.964,8.659,5.351l6.423,12.903
	c1.143,2.294,1.318,4.91,0.494,7.366s-2.541,4.438-4.835,5.58C361.175,154.847,355.37,152.899,352.998,148.134z M358.134,176.028
	c0-5.324,4.331-9.655,9.655-9.655s9.655,4.331,9.655,9.655v14.413c0,5.324-4.331,9.655-9.655,9.655s-9.655-4.331-9.655-9.655
	V176.028z M404.261,371.517h-77.475c-15.878-12.088-25.249-30.855-25.249-50.933c0-35.282,28.704-63.987,63.987-63.987
	s63.987,28.704,63.987,63.987C429.51,340.662,420.139,359.429,404.261,371.517z"/>
<path style="fill:#FFF5CB;" d="M407.07,244.81V208.2h-29.8c6.34-3.4,10.66-10.08,10.66-17.76v-14.41c0-8.11-4.83-15.1-11.76-18.29
	c2.02-2.11,3.59-4.65,4.55-7.51c1.71-5.11,1.34-10.57-1.05-15.37l-6.43-12.91c-3.81-7.66-11.88-11.8-19.93-11.05
	c0.2-2.24,0.05-4.53-0.52-6.79c-1.31-5.23-4.57-9.62-9.17-12.37l-12.38-7.4c-7.54-4.51-16.87-3.47-23.26,1.88
	c-1.7-8.96-9.37-15.94-18.87-16.37l-14.4-0.64c-8.03-0.35-15.18,4.09-18.71,10.78v18.67c0.8,1.52,1.78,2.95,2.97,4.25
	c3.64,3.98,8.59,6.3,13.95,6.54l14.4,0.64c0.3,0.01,0.6,0.02,0.91,0.02c4.75,0,9.27-1.68,12.92-4.76
	c1.03,5.47,4.29,10.49,9.43,13.56l12.37,7.4c3.23,1.93,6.79,2.85,10.3,2.85c0.65,0,1.3-0.05,1.95-0.11
	c-0.36,3.71,0.29,7.45,1.99,10.85l6.42,12.91c2.14,4.28,5.6,7.46,9.65,9.31c-3.46,3.62-5.61,8.51-5.61,13.91v14.41
	c0,7.68,4.32,14.36,10.65,17.76h-34.33v36.61c-26.58,14.7-44.63,43.02-44.63,75.49c0,28.76,14.27,55.52,38.16,71.58l3.16,2.12h89.72
	l3.16-2.12c23.9-16.06,38.17-42.82,38.17-71.58C451.71,287.83,433.66,259.51,407.07,244.81z M294.72,97.08
	c-1.91,1.75-4.38,2.64-6.94,2.54l-14.4-0.65c-5.31-0.23-9.45-4.75-9.21-10.07c0.23-5.17,4.51-9.23,9.64-9.23
	c0.14,0,0.29,0.01,0.43,0.01l14.4,0.64c5.32,0.24,9.45,4.76,9.22,10.08C297.74,92.96,296.63,95.33,294.72,97.08z M341.57,113.98
	c-2.73,4.57-8.67,6.06-13.24,3.33l-12.37-7.39c-4.57-2.74-6.07-8.67-3.34-13.24c1.81-3.03,5.02-4.7,8.31-4.7
	c1.68,0,3.39,0.44,4.93,1.36l12.38,7.4c2.2,1.31,3.76,3.42,4.39,5.93S342.89,111.78,341.57,113.98z M353,148.13l-6.43-12.9
	c-1.14-2.29-1.31-4.91-0.49-7.36c0.82-2.46,2.54-4.44,4.83-5.58c1.38-0.69,2.85-1.01,4.29-1.01c3.55,0,6.97,1.96,8.66,5.35
	l6.42,12.9c1.15,2.29,1.32,4.91,0.5,7.36c-0.83,2.46-2.54,4.44-4.84,5.58C361.17,154.85,355.37,152.9,353,148.13z M358.13,190.44
	v-14.41c0-5.33,4.34-9.66,9.66-9.66s9.65,4.33,9.65,9.66v14.41c0,5.33-4.33,9.66-9.65,9.66S358.13,195.77,358.13,190.44z
	 M404.26,371.52h-77.47c-15.88-12.09-25.25-30.86-25.25-50.94c0-35.28,28.7-63.98,63.98-63.98c35.29,0,63.99,28.7,63.99,63.98
	C429.51,340.66,420.14,359.43,404.26,371.52z"/>
<circle style="fill:#AEADB3;" cx="168.97" cy="227.66" r="8.781"/>
<circle style="fill:#78777F;" cx="388.01" cy="227.66" r="8.781"/>
<path style="fill:#FFFFFF;" d="M110.32,122.015c0.049-0.089,0.098-0.177,0.146-0.266l-0.195-0.111
	C110.288,121.763,110.304,121.889,110.32,122.015z"/>
<g>
</g>
<g>
</g>
<g>
</g>
<g>
</g>
<g>
</g>
<g>
</g>
<g>
</g>
<g>
</g>
<g>
</g>
<g>
</g>
<g>
</g>
<g>
</g>
<g>
</g>
<g>
</g>
<g>
</g>
</svg>
