<?xml version="1.0" encoding="iso-8859-1"?>
<!-- Generator: Adobe Illustrator 19.0.0, SVG Export Plug-In . SVG Version: 6.00 Build 0)  -->
<svg xmlns="http://www.w3.org/2000/svg" xmlns:xlink="http://www.w3.org/1999/xlink" version="1.1" id="Layer_1" x="0px" y="0px" viewBox="0 0 438.268 438.268" style="enable-background:new 0 0 438.268 438.268;" xml:space="preserve" width="512" height="512">
<g>
	<g>
		<circle style="fill:#FEDD3D;" cx="167.587" cy="131.716" r="45.361"/>
		<path style="opacity:0.3;fill:#FF9500;" d="M167.587,86.355c-25.053,0-45.361,20.309-45.361,45.361    c0,25.053,20.309,45.361,45.361,45.361V86.355z"/>
	</g>
	<g>
		<path style="fill:#D5DEE9;" d="M362.507,137.952h-63.334c-11.414,0-20.667,9.253-20.667,20.667    c0,11.414,9.253,20.667,20.667,20.667h63.334c11.414,0,20.667-9.253,20.667-20.667    C383.174,147.205,373.921,137.952,362.507,137.952z"/>
		<path style="opacity:0.3;fill:#67CFE3;" d="M299.173,137.952c-11.414,0-20.667,9.253-20.667,20.667    c0,11.414,9.253,20.667,20.667,20.667h31.667v-41.334H299.173z"/>
	</g>
	<g>
		<path style="fill:#D5DEE9;" d="M120.601,172.703H57.267c-11.414,0-20.667,9.253-20.667,20.667    c0,11.414,9.253,20.667,20.667,20.667h63.334c11.414,0,20.667-9.253,20.667-20.667    C141.268,181.956,132.015,172.703,120.601,172.703z"/>
		<path style="opacity:0.3;fill:#67CFE3;" d="M57.267,172.703c-11.414,0-20.667,9.253-20.667,20.667    c0,11.414,9.253,20.667,20.667,20.667h31.667v-41.334H57.267z"/>
	</g>
	<g>
		<path style="fill:#218649;" d="M109.811,351.913l117.593-194.094c23.759-35.7,62.637-35.7,86.396,0l124.469,194.094H109.811z"/>
		<path style="fill:#FFFFFF;" d="M313.799,157.819c-23.759-35.7-62.637-35.7-86.396,0l-15.378,25.383    c14.597,16.47,35.892,26.867,59.629,26.867c23.358,0,44.359-10.058,58.933-26.07L313.799,157.819z"/>
		<path style="opacity:0.2;fill:#222222;" d="M227.361,157.777L109.769,351.871h161.844V131.039    C255.604,130.63,239.507,139.526,227.361,157.777z"/>
	</g>
	<g>
		<path style="fill:#77BC1F;" d="M0,351.913l102.557-169.275c20.721-31.135,54.627-31.135,75.348,0l108.553,169.275H0z"/>
		<path style="fill:#FFFFFF;" d="M177.904,182.638c-20.721-31.135-54.627-31.135-75.348,0l-13.623,22.485    c12.735,14.501,31.399,23.666,52.216,23.666c20.487,0,38.898-8.871,51.616-22.976L177.904,182.638z"/>
		<path style="opacity:0.2;fill:#222222;" d="M102.557,182.638L0,351.913h141.149V159.319    C127.188,158.962,113.149,166.721,102.557,182.638z"/>
	</g>
	<g>
		<path style="fill:#D5DEE9;" d="M84.001,245.952H20.667C9.253,245.952,0,255.205,0,266.619c0,11.414,9.253,20.667,20.667,20.667    h63.334c11.414,0,20.667-9.253,20.667-20.667C104.668,255.205,95.415,245.952,84.001,245.952z"/>
		<path style="opacity:0.3;fill:#67CFE3;" d="M20.667,245.952C9.253,245.952,0,255.205,0,266.619    c0,11.414,9.253,20.667,20.667,20.667h31.667v-41.334H20.667z"/>
	</g>
</g>















</svg>
