<?xml version="1.0" encoding="iso-8859-1"?>
<!-- Generator: Adobe Illustrator 19.0.0, SVG Export Plug-In . SVG Version: 6.00 Build 0)  -->
<svg version="1.1" id="Layer_1" xmlns="http://www.w3.org/2000/svg" xmlns:xlink="http://www.w3.org/1999/xlink" x="0px" y="0px"
	 viewBox="0 0 460 460" style="enable-background:new 0 0 460 460;" xml:space="preserve">
<g id="XMLID_945_">
	<rect id="XMLID_946_" x="230" y="395.37" style="fill:#FAA241;" width="134.76" height="30"/>
	<rect id="XMLID_947_" x="230" y="330.75" style="fill:#FAA241;" width="134.76" height="30"/>
	<rect id="XMLID_948_" x="230" y="263.37" style="fill:#FAA241;" width="134.76" height="30"/>
	<rect id="XMLID_949_" x="230" y="195.99" style="fill:#FAA241;" width="134.76" height="30"/>
	<rect id="XMLID_950_" x="230" y="128.61" style="fill:#FAA241;" width="108.24" height="30"/>
	<rect id="XMLID_951_" x="95.24" y="395.37" style="fill:#FFC052;" width="134.76" height="30"/>
	<rect id="XMLID_952_" x="95.24" y="330.75" style="fill:#FFC052;" width="134.76" height="30"/>
	<rect id="XMLID_953_" x="95.24" y="263.37" style="fill:#FFC052;" width="134.76" height="30"/>
	<rect id="XMLID_954_" x="95.24" y="195.99" style="fill:#FFC052;" width="134.76" height="30"/>
	<rect id="XMLID_955_" x="115.24" y="128.61" style="fill:#FFC052;" width="114.76" height="30"/>
	<rect id="XMLID_956_" x="215" y="57" style="fill:#F58330;" width="30" height="403"/>
	<path id="XMLID_957_" style="fill:#F58330;" d="M260,42.201V0h-30l-10,32.602l10,32.602C261.241,94.839,282.38,162.11,282.38,235
		v225h30V235c0-44.179-6.876-86.496-19.884-122.376c-2.296-6.333-4.759-12.383-7.371-18.149
		C325.297,128.932,349.76,179.861,349.76,235v225h30V235C379.76,152.467,332.599,78.05,260,42.201z"/>
	<path id="XMLID_958_" style="fill:#FAA241;" d="M200,0v42.202C127.401,78.051,80.24,152.468,80.24,235v225h30V235
		c0-55.139,24.463-106.067,64.635-140.525c-2.612,5.766-5.075,11.816-7.371,18.148C154.496,148.504,147.62,190.821,147.62,235v225
		h30V235c0-72.891,21.139-140.162,52.38-169.796V0H200z"/>
</g>
<g>
</g>
<g>
</g>
<g>
</g>
<g>
</g>
<g>
</g>
<g>
</g>
<g>
</g>
<g>
</g>
<g>
</g>
<g>
</g>
<g>
</g>
<g>
</g>
<g>
</g>
<g>
</g>
<g>
</g>
</svg>
