<?xml version="1.0" encoding="iso-8859-1"?>
<!-- Generator: Adobe Illustrator 19.0.0, SVG Export Plug-In . SVG Version: 6.00 Build 0)  -->
<svg version="1.1" id="Layer_1" xmlns="http://www.w3.org/2000/svg" xmlns:xlink="http://www.w3.org/1999/xlink" x="0px" y="0px"
	 viewBox="0 0 512 512" style="enable-background:new 0 0 512 512;" xml:space="preserve">
<path style="fill:#2BA5F7;" d="M512,253.4c-0.608-0.013-1.215-0.027-1.823-0.027c-34.698,0-65.291,22.992-74.863,56.502
	c-16.404,57.474-58.689,99.664-109.952,118.647c-41.84,15.499-89.674,15.54-134.281-4.185c-4.428-1.958-9.194-2.97-13.96-2.97
	c-3.011,0-6.021,0.405-8.965,1.229c-42.231,11.827-67.735,38.154-79.413,53.194c-5.13,6.602-14.257,8.479-21.656,4.604
	C15.46,453.31,2.796,409.877,0.095,383.847c-1.121-10.76,7.79-19.9,18.564-18.996c48.266,4.05,93.413-15.216,108.778-22.655
	c1.04-0.513,1.958-0.959,2.714-1.35c1.08-0.54,1.863-0.959,2.336-1.202c0.338-0.189,0.513-0.284,0.513-0.284
	c-5.292-3.186-10.382-6.413-15.256-9.694c-9.032-6.035-17.349-12.218-25.004-18.523c-10.598-8.681-19.914-17.592-28.082-26.61
	c-6.413-7.102-12.124-14.271-17.173-21.48c-9.977-14.203-17.43-28.555-22.844-42.798c-3.186-8.344-5.657-16.66-7.547-24.869
	c-2.997-13.123-4.455-26.016-4.779-38.451v-0.014c-0.203-7.682,0.041-15.162,0.621-22.439c0.135-1.647,0.284-3.294,0.446-4.928
	c1.391-13.569,3.942-26.3,7.034-37.83c2.093-7.831,4.428-15.121,6.845-21.737c9.032-24.936,18.807-40.382,18.807-40.382
	c19.05,27.718,44.364,45.377,71.407,57.595c49.832,22.493,105.51,26.556,138.48,41.124c50.845,22.479,80.561,86.042,80.561,86.042
	c0.095-0.081,0.176-0.162,0.27-0.23c41.084-36.385,71.231-40.422,91.888-34.05c5.9,1.823,11.03,4.496,15.418,7.52
	c0.014,0,0.014,0,0.014,0c13.906,9.559,20.319,22.506,20.319,22.506C478.598,246.785,512,253.4,512,253.4z"/>
<g>
	<path style="fill:#0F8DD3;" d="M444.089,187.61c-1.121-0.189-59.026-9.235-86.15,68.842l-21.156-42.312
		c41.084-36.385,71.231-40.422,91.888-34.05C434.571,181.913,439.702,184.586,444.089,187.61z"/>
	<path style="fill:#0F8DD3;" d="M150.985,348.427c77.592,19.189,146.063,21.827,145.241-29.047
		C294.444,208.334,38.776,136.428,13.38,129.556C6.9,192.929,25.653,274.827,132.999,339.361c0,0-0.176,0.095-0.513,0.284
		c-0.473,0.243-1.256,0.662-2.336,1.202c-11.973,6.065-60.027,28.356-111.613,23.997c-10.731-0.907-19.551,8.295-18.441,19.007
		c2.698,26.035,15.367,69.46,66.992,96.539c7.395,3.879,16.531,1.999,21.65-4.597c11.682-15.048,37.19-41.371,79.413-53.197
		c7.598-2.128,15.711-1.447,22.927,1.742c44.607,19.725,92.441,19.684,134.281,4.185
		C230.941,423.301,160.702,357.912,150.985,348.427z"/>
</g>
<g>
	<path style="fill:#0569A0;" d="M98.72,130.366c-1.674,3.78-5.373,6.035-9.262,6.035c-1.377,0-2.754-0.284-4.091-0.864
		c-28.541-12.623-50.845-30.512-64.953-43.811c2.093-7.831,4.428-15.121,6.845-21.737c3.213,3.308,7.345,7.331,12.286,11.719
		c12.907,11.435,31.43,25.328,54.018,35.305C98.666,119.268,100.988,125.249,98.72,130.366z"/>
	<path style="fill:#0569A0;" d="M87.082,170.423c-0.5,5.252-4.901,9.181-10.072,9.181c-0.311,0-0.635-0.013-0.959-0.054
		c-18.523-1.755-44.054-12.785-63.738-22.614v-0.014c-0.203-7.682,0.041-15.162,0.621-22.439
		c20.157,10.544,47.848,23.289,65.021,24.909C83.532,159.919,87.609,164.861,87.082,170.423z"/>
	<path style="fill:#0569A0;" d="M74.27,230.152c-1.35,0.108-2.727,0.149-4.145,0.149c-14.379,0-31.376-4.847-45.485-10.045
		c-3.186-8.344-5.657-16.66-7.547-24.869c14.905,6.521,37.195,14.662,52.856,14.662c0.986,0,1.944-0.027,2.876-0.095
		c5.603-0.405,10.423,3.807,10.814,9.383C84.045,224.913,79.846,229.76,74.27,230.152z"/>
	<path style="fill:#0569A0;" d="M97.046,282.63c-6.399,1.526-14.716,2.079-23.384,2.079c-2.984,0-6.008-0.068-9.005-0.176
		c-6.413-7.102-12.124-14.271-17.173-21.48c15.364,1.404,34.63,2.309,44.877-0.122c5.441-1.296,10.895,2.066,12.191,7.507
		C105.849,275.88,102.487,281.334,97.046,282.63z"/>
	<path style="fill:#0569A0;" d="M140.587,325.253c-5.346,2.066-14.041,3.47-22.844,4.415c-9.032-6.035-17.349-12.218-25.004-18.523
		c13.812-0.581,33.807-2.174,40.544-4.779c5.225-2.025,11.084,0.581,13.096,5.792C148.404,317.368,145.812,323.228,140.587,325.253z
		"/>
</g>
<circle style="fill:#4D4D4D;" cx="415.034" cy="231.286" r="10.126"/>
<g>
</g>
<g>
</g>
<g>
</g>
<g>
</g>
<g>
</g>
<g>
</g>
<g>
</g>
<g>
</g>
<g>
</g>
<g>
</g>
<g>
</g>
<g>
</g>
<g>
</g>
<g>
</g>
<g>
</g>
</svg>
