<?xml version="1.0" encoding="iso-8859-1"?>
<!-- Generator: Adobe Illustrator 19.0.0, SVG Export Plug-In . SVG Version: 6.00 Build 0)  -->
<svg version="1.1" id="Layer_1" xmlns="http://www.w3.org/2000/svg" xmlns:xlink="http://www.w3.org/1999/xlink" x="0px" y="0px"
	 viewBox="0 0 512 512" style="enable-background:new 0 0 512 512;" xml:space="preserve">
<rect x="298.774" y="168.946" transform="matrix(-0.7071 -0.7071 0.7071 -0.7071 379.6961 566.7849)" style="fill:#8B7E7F;" width="16.918" height="71.617"/>
<polygon style="fill:#6FC5D6;" points="350.903,203.364 512,42.268 427.463,42.268 266.368,203.364 "/>
<g>
	<path style="fill:#8B7E7F;" d="M125.906,113.944c-3.303-3.303-8.66-3.303-11.963,0s-3.303,8.66,0,11.963l48.348,48.348
		l11.963-11.963L125.906,113.944z"/>
	<path style="fill:#8B7E7F;" d="M398.056,386.093l-48.348-48.348l-11.963,11.963l48.348,48.348c3.303,3.303,8.66,3.303,11.963,0
		C401.359,394.753,401.359,389.396,398.056,386.093z"/>
</g>
<polygon style="fill:#FFD24D;" points="359.675,255.999 255.999,152.323 204.161,204.161 240.049,271.949 307.837,307.837 "/>
<rect x="193.42" y="208.605" transform="matrix(-0.7071 0.7071 -0.7071 -0.7071 592.106 318.5703)" style="fill:#FEE191;" width="73.309" height="146.618"/>
<g>
	<path style="fill:#C2B8B9;" d="M100.485,204.161c28.629,28.629,75.047,28.629,103.676,0s28.629-75.047,0-103.676L100.485,204.161z"
		/>
	<path style="fill:#C2B8B9;" d="M307.837,411.513c-28.629-28.629-28.629-75.047,0-103.676c28.629-28.629,75.047-28.629,103.676,0
		L307.837,411.513z"/>
</g>
<path style="fill:#8B7E7F;" d="M236.063,275.937c-3.303-3.303-8.66-3.303-11.963,0l-50.641,50.641l11.963,11.963l50.641-50.641
	C239.365,284.597,239.365,279.241,236.063,275.937z"/>
<polygon style="fill:#6FC5D6;" points="84.535,469.732 245.632,308.635 161.097,308.635 0,469.732 "/>
<g>
</g>
<g>
</g>
<g>
</g>
<g>
</g>
<g>
</g>
<g>
</g>
<g>
</g>
<g>
</g>
<g>
</g>
<g>
</g>
<g>
</g>
<g>
</g>
<g>
</g>
<g>
</g>
<g>
</g>
</svg>
