<?xml version="1.0" encoding="iso-8859-1"?>
<!-- Generator: Adobe Illustrator 19.0.0, SVG Export Plug-In . SVG Version: 6.00 Build 0)  -->
<svg version="1.1" id="Capa_1" xmlns="http://www.w3.org/2000/svg" xmlns:xlink="http://www.w3.org/1999/xlink" x="0px" y="0px"
	 viewBox="0 0 512 512" style="enable-background:new 0 0 512 512;" xml:space="preserve">
<path style="fill:#8CC4B1;" d="M229.001,383.022c10.378,28.513,18.804,50.417,24.599,65.105c4.231,10.724-3.956,22.27-15.475,21.783
	c-34.919-1.476-96.71-9.835-111.228-49.725c-10.378-28.513-18.804-50.417-24.599-65.105c-4.231-10.724,3.956-22.27,15.475-21.783
	C152.691,334.773,214.482,343.132,229.001,383.022z"/>
<path style="opacity:0.1;enable-background:new    ;" d="M205.261,433.077c-1.757,0-3.52-0.613-4.944-1.863l-54.63-47.947
	c-3.113-2.732-3.422-7.471-0.689-10.584c2.732-3.113,7.471-3.423,10.584-0.689l54.63,47.947c3.113,2.733,3.422,7.471,0.689,10.584
	C209.418,432.214,207.345,433.077,205.261,433.077z"/>
<path style="fill:#8CC4B1;" d="M282.999,383.022c-10.378,28.513-18.804,50.417-24.599,65.105
	c-4.231,10.724,3.956,22.27,15.475,21.783c34.919-1.476,96.71-9.835,111.228-49.725c10.378-28.513,18.804-50.417,24.599-65.105
	c4.231-10.724-3.956-22.27-15.474-21.783C359.309,334.773,297.518,343.132,282.999,383.022z"/>
<path style="opacity:0.1;enable-background:new    ;" d="M306.739,433.077c-2.084,0-4.157-0.863-5.64-2.553
	c-2.732-3.113-2.424-7.852,0.689-10.584l54.63-47.947c3.112-2.733,7.852-2.424,10.584,0.689c2.733,3.113,2.424,7.852-0.689,10.584
	l-54.63,47.947C310.26,432.464,308.496,433.077,306.739,433.077z"/>
<path style="fill:#A16B4E;" d="M292.992,291.207h-73.984v194.64c0,14.444,11.709,26.153,26.153,26.153h21.678
	c14.444,0,26.153-11.709,26.153-26.153V291.207z"/>
<path style="opacity:0.1;enable-background:new    ;" d="M219.008,291.207v101.049c11.961-7.286,22.621-16.414,31.605-27.001
	c1.789,0.062,3.583,0.105,5.387,0.105c1.804,0,3.598-0.043,5.387-0.105c8.984,10.587,19.644,19.715,31.605,27.001V291.207H219.008z"
	/>
<g>
	<path style="fill:#FC8063;" d="M431.78,99.526l-7.627-2.584c-32.531-11.021-67.958-9.85-99.691,3.294l-25.742,10.663
		c-5.765,2.388-12.375-0.35-14.763-6.115l-10.662-25.741c-13.144-31.733-37.367-57.611-68.163-72.822l-7.22-3.566
		c-13.864-6.847-30.586,0.079-35.547,14.724l-2.584,7.627c-11.02,32.531-9.85,67.958,3.294,99.691l10.663,25.742
		c2.388,5.765-0.35,12.375-6.115,14.762l-25.742,10.663c-31.733,13.144-57.611,37.367-72.822,68.163l-3.566,7.22
		c-6.847,13.864,0.079,30.586,14.724,35.547l7.626,2.584c32.532,11.021,67.959,9.85,99.691-3.294l25.742-10.663
		c5.765-2.388,12.374,0.35,14.762,6.115l10.663,25.742c13.144,31.733,37.367,57.611,68.163,72.821l7.22,3.566
		c13.864,6.847,30.586-0.079,35.547-14.724l2.584-7.627c11.021-32.531,9.85-67.958-3.294-99.691L338.26,235.88
		c-2.388-5.765,0.35-12.374,6.115-14.762l25.741-10.662c31.733-13.144,57.612-37.367,72.822-68.163l3.566-7.219
		C453.352,121.209,446.425,104.487,431.78,99.526z"/>
	<path style="fill:#FC8063;" d="M314.087,2.655l-7.22,3.566c-30.796,15.21-55.019,41.089-68.163,72.821l-10.663,25.742
		c-2.388,5.765-8.997,8.503-14.762,6.115l-25.741-10.662c-31.733-13.144-67.16-14.315-99.691-3.294l-7.627,2.584
		c-14.645,4.961-21.572,21.683-14.724,35.547l3.566,7.22c15.21,30.796,41.089,55.018,72.821,68.163l25.742,10.662
		c5.765,2.388,8.503,8.997,6.115,14.762l-10.663,25.741c-13.144,31.733-14.315,67.16-3.294,99.691l2.584,7.626
		c4.961,14.645,21.683,21.571,35.547,14.724l7.22-3.566c30.796-15.21,55.018-41.088,68.162-72.821l10.663-25.742
		c2.388-5.765,8.997-8.503,14.763-6.115l25.742,10.663c31.733,13.144,67.16,14.315,99.691,3.294l7.627-2.584
		c14.645-4.961,21.571-21.683,14.724-35.547l-3.566-7.22c-15.21-30.796-41.089-55.018-72.821-68.163L344.375,165.2
		c-5.765-2.388-8.503-8.997-6.115-14.762l10.663-25.742c13.144-31.733,14.315-67.159,3.294-99.69l-2.584-7.627
		C344.672,2.734,327.95-4.193,314.087,2.655z"/>
</g>
<path style="opacity:0.1;enable-background:new    ;" d="M400.566,193.159c7.348-5.477,14.135-11.662,20.287-18.446
	c-3.539-31.983-16.168-61.222-35.251-85.08c-9.144-0.446-18.313-0.021-27.379,1.302c1.323-9.065,1.749-18.234,1.302-27.379
	c-23.858-19.083-53.096-31.712-85.08-35.251c-6.784,6.152-12.969,12.939-18.446,20.287c-5.477-7.348-11.662-14.135-18.446-20.287
	c-31.983,3.539-61.221,16.168-85.08,35.251c-0.446,9.144-0.021,18.313,1.302,27.379c-9.065-1.323-18.235-1.749-27.379-1.302
	c-19.083,23.858-31.711,53.096-35.25,85.08c6.152,6.784,12.939,12.97,20.287,18.446c-7.348,5.477-14.135,11.662-20.287,18.446
	c3.539,31.983,16.168,61.221,35.25,85.079c9.144,0.447,18.314,0.021,27.379-1.302c-1.323,9.065-1.748,18.235-1.302,27.379
	c23.858,19.083,53.096,31.711,85.08,35.25c6.784-6.152,12.969-12.939,18.446-20.287c5.477,7.348,11.662,14.135,18.446,20.287
	c31.983-3.539,61.221-16.168,85.08-35.251c0.447-9.144,0.021-18.314-1.302-27.379c9.065,1.323,18.235,1.749,27.379,1.302
	c19.083-23.858,31.712-53.097,35.251-85.08C414.701,204.821,407.914,198.635,400.566,193.159z"/>
<circle style="fill:#FAD97E;" cx="256" cy="193.16" r="152.61"/>
<path style="opacity:0.05;enable-background:new    ;" d="M355.571,77.506c20.051,25.829,31.994,58.266,31.994,93.496
	c0,84.285-68.327,152.612-152.612,152.612c-38.05,0-72.844-13.928-99.571-36.96C163.301,322.62,206.944,345.77,256,345.77
	c84.285,0,152.612-68.327,152.612-152.612C408.612,146.923,388.049,105.493,355.571,77.506z"/>
<g style="opacity:0.1;">
	<path d="M227.179,296.781l8.738-8.738c2.93-2.929,2.93-7.678,0.001-10.607c-2.929-2.929-7.678-2.93-10.606-0.001l-8.739,8.739
		l-8.729-8.729c-0.003-0.003-0.006-0.007-0.009-0.01l-8.738-8.738l8.738-8.738c2.929-2.93,2.929-7.678,0-10.607
		c-2.93-2.928-7.678-2.928-10.607,0l-8.738,8.738l-8.738-8.738c-2.93-2.928-7.678-2.928-10.607,0c-2.929,2.93-2.929,7.678,0,10.607
		l8.738,8.738l-8.738,8.738c-2.929,2.93-2.929,7.678,0,10.607c1.465,1.464,3.385,2.196,5.304,2.196s3.839-0.732,5.304-2.196
		l8.738-8.738l8.738,8.738c0.003,0.003,0.006,0.005,0.009,0.008l8.73,8.73l-8.738,8.738c-2.93,2.929-2.93,7.678-0.001,10.606
		c1.465,1.465,3.384,2.197,5.304,2.197c1.919,0,3.839-0.732,5.303-2.196l8.739-8.739l8.739,8.739
		c1.464,1.464,3.384,2.196,5.303,2.196s3.839-0.732,5.304-2.197c2.929-2.929,2.929-7.678-0.001-10.606L227.179,296.781z"/>
	<path d="M350.46,268.697l8.738-8.738c2.929-2.93,2.929-7.678,0-10.607c-2.93-2.928-7.678-2.928-10.607,0l-8.738,8.738l-8.738-8.738
		c-2.93-2.928-7.678-2.928-10.607,0c-2.929,2.93-2.929,7.678,0,10.607l8.738,8.738l-8.738,8.738c-2.929,2.93-2.929,7.678,0,10.607
		c1.465,1.464,3.385,2.196,5.304,2.196s3.839-0.732,5.304-2.196l8.738-8.738l8.738,8.738c1.465,1.464,3.385,2.196,5.304,2.196
		s3.839-0.732,5.304-2.196c2.929-2.93,2.929-7.678,0-10.607L350.46,268.697z"/>
</g>
<g>
	<path style="fill:#4A5058;" d="M186.189,169.267c-4.143,0-7.5-3.357-7.5-7.5v-11.588c0-4.143,3.357-7.5,7.5-7.5s7.5,3.357,7.5,7.5
		v11.588C193.689,165.909,190.332,169.267,186.189,169.267z"/>
	<path style="fill:#4A5058;" d="M325.811,169.267c-4.143,0-7.5-3.357-7.5-7.5v-11.588c0-4.143,3.357-7.5,7.5-7.5s7.5,3.357,7.5,7.5
		v11.588C333.311,165.909,329.953,169.267,325.811,169.267z"/>
	<path style="fill:#4A5058;" d="M256,178.165c-9.222,0-17.991-3.994-24.06-10.957c-2.722-3.123-2.395-7.86,0.727-10.582
		c3.122-2.721,7.859-2.396,10.582,0.727c3.219,3.694,7.866,5.813,12.751,5.813c4.885,0,9.532-2.118,12.751-5.813
		c2.722-3.122,7.458-3.447,10.582-0.727c3.122,2.722,3.448,7.459,0.727,10.582C273.991,174.171,265.222,178.165,256,178.165z"/>
</g>
<g style="opacity:0.3;">
	<ellipse style="fill:#F15B70;" cx="186.19" cy="190.61" rx="29.883" ry="12.966"/>
	<ellipse style="fill:#F15B70;" cx="325.81" cy="190.61" rx="29.883" ry="12.966"/>
</g>
<g>
</g>
<g>
</g>
<g>
</g>
<g>
</g>
<g>
</g>
<g>
</g>
<g>
</g>
<g>
</g>
<g>
</g>
<g>
</g>
<g>
</g>
<g>
</g>
<g>
</g>
<g>
</g>
<g>
</g>
</svg>
