<?xml version="1.0" encoding="iso-8859-1"?>
<!-- Generator: Adobe Illustrator 19.0.0, SVG Export Plug-In . SVG Version: 6.00 Build 0)  -->
<svg xmlns="http://www.w3.org/2000/svg" xmlns:xlink="http://www.w3.org/1999/xlink" version="1.1" id="Layer_1" x="0px" y="0px" viewBox="0 0 447.723 447.723" style="enable-background:new 0 0 447.723 447.723;" xml:space="preserve" width="512" height="512">
<g>
	<g>
		<g>
			<path style="fill:#985F35;" d="M196.346,370.422h-49.879c-20.015,0-36.299-16.284-36.299-36.299v-13.374     c0-6.009,4.872-10.881,10.881-10.881c6.009,0,10.88,4.872,10.88,10.881v13.374c0,8.016,6.521,14.538,14.538,14.538h49.879     c6.009,0,10.881,4.872,10.881,10.881S202.355,370.422,196.346,370.422z"/>
			<path style="opacity:0.3;fill:#222222;" d="M131.93,334.123v-13.374c0-6.009-4.872-10.881-10.88-10.881     c-6.009,0-10.881,4.872-10.881,10.881v13.374c0,5.511,1.24,10.736,3.447,15.419h26.021c2.188,0,4.298-0.321,6.294-0.909     C138.165,348.348,131.93,341.958,131.93,334.123z"/>
		</g>
		<g>
			<path style="fill:#77BC1F;" d="M139.637,298.947c12.292,0,22.255,9.964,22.255,22.254c0,12.291-9.963,22.255-22.255,22.255H70.38     c-12.291,0-22.255-9.964-22.255-22.255c0-12.29,9.963-22.254,22.255-22.254H139.637z"/>
			<path style="opacity:0.5;fill:#218649;" d="M70.38,298.947c-12.291,0-22.255,9.964-22.255,22.254     c0,12.291,9.963,22.255,22.255,22.255h34.628v-44.509H70.38z"/>
			<path style="opacity:0.8;fill:#218649;" d="M145.38,337.713H76.123c-12.291,0-22.254-9.964-22.254-22.255     c0-4.678,1.446-9.017,3.912-12.599c-5.831,4.012-9.655,10.729-9.655,18.342c0,12.291,9.963,22.255,22.255,22.255h69.257     c7.613,0,14.33-3.825,18.343-9.655C154.396,336.267,150.058,337.713,145.38,337.713z"/>
		</g>
	</g>
	<g>
		<polygon style="fill:#985F35;" points="261.428,417.012 261.428,240.798 186.295,240.798 186.295,417.012 155.584,447.723     292.139,447.723   "/>
		<polygon style="opacity:0.3;fill:#222222;" points="186.295,248.111 186.295,417.012 155.584,447.723 223.865,447.723     223.865,248.111   "/>
		<path style="opacity:0.3;fill:#222222;" d="M186.295,240.798v54.601c12.039,2.956,24.619,4.534,37.57,4.534    c12.948,0,25.526-1.578,37.563-4.532v-54.603H186.295z"/>
	</g>
	<g>
		<circle style="fill:#77BC1F;" cx="223.865" cy="142.87" r="142.87"/>
		<path style="opacity:0.5;fill:#218649;" d="M223.865,0C144.96,0,80.995,63.966,80.995,142.87s63.965,142.871,142.871,142.871V0z"/>
		<path style="opacity:0.8;fill:#218649;" d="M234.186,275.42c-78.905,0-142.87-63.966-142.87-142.871    c0-36.826,13.937-70.396,36.82-95.729c-28.947,26.146-47.141,63.972-47.141,106.05c0,78.904,63.965,142.871,142.871,142.871    c42.078,0,79.905-18.194,106.05-47.141C304.582,261.482,271.013,275.42,234.186,275.42z"/>
	</g>
	<g>
		<path style="opacity:0.8;fill:#218649;" d="M190.242,63.799c0.454-0.372,0.899-0.761,1.321-1.183    c7.475-7.474,6.767-20.3,6.767-20.3s-12.825-0.708-20.3,6.767c-5.756,5.756-6.656,14.666-6.767,18.466    c-0.006,0.002-0.011,0.004-0.017,0.008c-22.65-10.613-37.275,1.157-37.275,21.744c0,16.322,9.37,33.399,24.331,37.276    c6.99,1.811,8.681-3.366,12.944-3.366c4.263,0,5.955,5.177,12.945,3.366c14.96-3.877,24.33-20.955,24.33-37.276    C208.522,75.277,201.73,65.353,190.242,63.799z"/>
		<path style="fill:#C34628;" d="M176.725,117.732c4.263,0,5.954,5.177,12.943,3.366c14.962-3.877,24.332-20.954,24.332-37.275    c0-20.588-14.626-32.358-37.275-21.746c-22.651-10.613-37.275,1.158-37.275,21.746c0,16.321,9.37,33.398,24.331,37.275    C170.77,122.91,172.461,117.732,176.725,117.732z"/>
		<path style="fill:#006F42;" d="M197.042,57.139c7.474-7.475,6.766-20.301,6.766-20.301s-12.823-0.707-20.299,6.767    c-7.474,7.474-6.766,20.298-6.766,20.298S189.569,64.611,197.042,57.139z"/>
	</g>
	<g>
		<path style="opacity:0.8;fill:#218649;" d="M317.698,126.911c0.454-0.372,0.899-0.761,1.321-1.183    c7.475-7.474,6.767-20.3,6.767-20.3s-12.825-0.708-20.3,6.767c-5.756,5.756-6.656,14.666-6.767,18.466    c-0.006,0.002-0.011,0.004-0.017,0.008c-22.65-10.612-37.275,1.157-37.275,21.744c0,16.322,9.37,33.399,24.331,37.276    c6.99,1.811,8.681-3.366,12.944-3.366c4.263,0,5.955,5.177,12.945,3.366c14.96-3.877,24.331-20.954,24.331-37.276    C335.978,138.389,329.186,128.464,317.698,126.911z"/>
		<path style="fill:#C34628;" d="M304.181,180.844c4.263,0,5.954,5.177,12.943,3.366c14.962-3.877,24.332-20.954,24.332-37.275    c0-20.588-14.625-32.358-37.275-21.746c-22.651-10.613-37.275,1.158-37.275,21.746c0,16.321,9.37,33.398,24.331,37.275    C298.227,186.021,299.918,180.844,304.181,180.844z"/>
		<path style="fill:#006F42;" d="M324.498,120.25c7.474-7.475,6.766-20.301,6.766-20.301s-12.823-0.707-20.299,6.767    c-7.474,7.474-6.766,20.298-6.766,20.298S317.025,127.722,324.498,120.25z"/>
	</g>
	<g>
		<path style="opacity:0.8;fill:#218649;" d="M202.551,171.981c0.454-0.372,0.899-0.761,1.321-1.183    c7.475-7.474,6.767-20.3,6.767-20.3s-12.825-0.708-20.3,6.767c-5.756,5.756-6.656,14.666-6.767,18.466    c-0.006,0.002-0.011,0.004-0.017,0.008c-22.65-10.613-37.275,1.157-37.275,21.744c0,16.322,9.37,33.399,24.331,37.276    c6.99,1.811,8.681-3.366,12.944-3.366c4.263,0,5.955,5.177,12.945,3.366c14.96-3.878,24.33-20.955,24.33-37.276    C220.831,183.459,214.04,173.534,202.551,171.981z"/>
		<path style="fill:#C34628;" d="M189.034,225.914c4.263,0,5.954,5.177,12.943,3.366c14.962-3.877,24.332-20.954,24.332-37.275    c0-20.588-14.625-32.358-37.275-21.746c-22.651-10.613-37.275,1.158-37.275,21.746c0,16.321,9.37,33.398,24.331,37.275    C183.08,231.091,184.77,225.914,189.034,225.914z"/>
		<path style="fill:#006F42;" d="M209.351,165.32c7.474-7.475,6.766-20.301,6.766-20.301s-12.823-0.707-20.299,6.767    c-7.474,7.474-6.766,20.298-6.766,20.298S201.878,172.792,209.351,165.32z"/>
	</g>
	<g>
		<g>
			<path style="fill:#985F35;" d="M301.255,337.222h-49.879c-6.009,0-10.881-4.872-10.881-10.881     c0-6.009,4.872-10.881,10.881-10.881h49.879c8.016,0,14.537-6.521,14.537-14.538v-30.558c0-6.009,4.872-10.881,10.881-10.881     c6.009,0,10.881,4.872,10.881,10.881v30.558C337.554,320.938,321.27,337.222,301.255,337.222z"/>
			<path style="opacity:0.3;fill:#222222;" d="M326.673,259.484c-6.009,0-10.881,4.872-10.881,10.881v27.988h21.762v-27.988     C337.554,264.356,332.683,259.484,326.673,259.484z"/>
		</g>
		<g>
			<path style="fill:#77BC1F;" d="M377.343,248.111c12.291,0,22.254,9.964,22.254,22.254s-9.963,22.255-22.254,22.255h-69.257     c-12.292,0-22.255-9.964-22.255-22.255s9.963-22.254,22.255-22.254H377.343z"/>
			<path style="opacity:0.5;fill:#218649;" d="M308.086,248.111c-12.292,0-22.255,9.964-22.255,22.254s9.963,22.255,22.255,22.255     h34.628v-44.509H308.086z"/>
			<path style="opacity:0.8;fill:#218649;" d="M383.086,286.876h-69.257c-12.291,0-22.254-9.964-22.254-22.255     c0-4.678,1.446-9.016,3.912-12.599c-5.831,4.012-9.655,10.73-9.655,18.342c0,12.29,9.963,22.255,22.255,22.255h69.257     c7.613,0,14.33-3.825,18.342-9.656C392.103,285.431,387.764,286.876,383.086,286.876z"/>
		</g>
	</g>
</g>















</svg>
