<?xml version="1.0" encoding="UTF-8" standalone="no"?>
<!-- Created with Inkscape (http://www.inkscape.org/) -->

<svg
   xmlns:dc="http://purl.org/dc/elements/1.1/"
   xmlns:cc="http://creativecommons.org/ns#"
   xmlns:rdf="http://www.w3.org/1999/02/22-rdf-syntax-ns#"
   xmlns:svg="http://www.w3.org/2000/svg"
   xmlns="http://www.w3.org/2000/svg"
   xmlns:sodipodi="http://sodipodi.sourceforge.net/DTD/sodipodi-0.dtd"
   xmlns:inkscape="http://www.inkscape.org/namespaces/inkscape"
   width="1280mm"
   height="880mm"
   viewBox="0 0 4535.4331 3118.1103"
   id="svg4240"
   version="1.1"
   inkscape:version="0.91 r13725"
   sodipodi:docname="velleda1.svg">
  <sodipodi:namedview
     id="base"
     pagecolor="#ffffff"
     bordercolor="#666666"
     borderopacity="1.0"
     inkscape:pageopacity="0.0"
     inkscape:pageshadow="2"
     inkscape:zoom="0.15261231"
     inkscape:cx="541.40448"
     inkscape:cy="276.3858"
     inkscape:document-units="mm"
     inkscape:current-layer="layer1"
     showgrid="false"
     inkscape:window-width="1855"
     inkscape:window-height="1056"
     inkscape:window-x="65"
     inkscape:window-y="24"
     inkscape:window-maximized="1" />
  <title
     id="title4788">Découpage Laser</title>
  <defs
     id="defs4242" />
  <metadata
     id="metadata4245">
    <rdf:RDF>
      <cc:Work
         rdf:about="">
        <dc:format>image/svg+xml</dc:format>
        <dc:type
           rdf:resource="http://purl.org/dc/dcmitype/StillImage" />
        <dc:title>Découpage Laser</dc:title>
        <dc:creator>
          <cc:Agent>
            <dc:title />
          </cc:Agent>
        </dc:creator>
        <dc:publisher>
          <cc:Agent>
            <dc:title>Fablab Lannion</dc:title>
          </cc:Agent>
        </dc:publisher>
        <dc:source>http://fablab-lannion.org:8080/wiki/index.php?title=Chaine_logiciel_pour_d%C3%A9coupeuse_laser#Inkscape</dc:source>
        <dc:contributor>
          <cc:Agent>
            <dc:title>JJL</dc:title>
          </cc:Agent>
        </dc:contributor>
        <cc:license
           rdf:resource="http://creativecommons.org/licenses/by-sa/3.0/" />
      </cc:Work>
      <cc:License
         rdf:about="http://creativecommons.org/licenses/by-sa/3.0/">
        <cc:permits
           rdf:resource="http://creativecommons.org/ns#Reproduction" />
        <cc:permits
           rdf:resource="http://creativecommons.org/ns#Distribution" />
        <cc:requires
           rdf:resource="http://creativecommons.org/ns#Notice" />
        <cc:requires
           rdf:resource="http://creativecommons.org/ns#Attribution" />
        <cc:permits
           rdf:resource="http://creativecommons.org/ns#DerivativeWorks" />
        <cc:requires
           rdf:resource="http://creativecommons.org/ns#ShareAlike" />
      </cc:License>
    </rdf:RDF>
  </metadata>
  <g
     inkscape:label="Calque 1"
     inkscape:groupmode="layer"
     id="layer1"
     transform="translate(0,2065.7481)">
    <rect
       style="fill:none;fill-opacity:1;stroke:#000000;stroke-width:0.35433072;stroke-miterlimit:4;stroke-dasharray:none;stroke-opacity:1"
       id="rect49777"
       width="1594.1339"
       height="1771.2992"
       x="1829.6024"
       y="-1440.0558" />
    <path
       style="fill:none;stroke:#ff0000"
       id="path53568"
       d="m 1545.9607,-1723.6975 35.6102,0 0,10.6299 35.0787,0 0,-10.6299 35.7874,0 0,10.6299 35.0788,0 0,-10.6299 35.7874,0 0,10.6299 35.0787,0 0,-10.6299 35.7874,0 0,10.6299 35.0788,0 0,-10.6299 35.7874,0 0,10.6299 35.0787,0 0,-10.6299 35.7874,0 0,10.6299 35.0787,0 0,-10.6299 35.7874,0 0,10.6299 35.0788,0 0,-10.6299 35.7874,0 0,10.6299 35.0787,0 0,-10.6299 35.7874,0 0,10.6299 35.0788,0 0,-10.6299 35.7874,0 0,10.6299 35.0787,0 0,-10.6299 35.7874,0 0,10.6299 35.0788,0 0,-10.6299 35.7874,0 0,10.6299 35.0787,0 0,-10.6299 35.7874,0 0,10.6299 35.0787,0 0,-10.6299 35.7874,0 0,10.6299 35.0788,0 0,-10.6299 35.7874,0 0,10.6299 35.0787,0 0,-10.6299 35.7874,0 0,10.6299 35.0788,0 0,-10.6299 35.7874,0 0,10.6299 35.0787,0 0,-10.6299 35.7874,0 0,10.6299 35.0787,0 0,-10.6299 35.7874,0 0,10.6299 35.0788,0 0,-10.6299 35.7874,0 0,10.6299 35.0787,0 0,-10.6299 35.7874,0 0,10.6299 35.0788,0 0,-10.6299 35.7874,0 0,10.6299 35.0787,0 0,-10.6299 35.7874,0 0,10.6299 35.0788,0 0,-10.6299 35.7874,0 0,10.6299 35.0787,0 0,-10.6299 35.7874,0 0,10.6299 35.0787,0 0,-10.6299 35.7874,0 0,10.6299 35.0788,0 0,-10.6299 35.7874,0 0,10.6299 35.0787,0 0,-10.6299 35.7874,0 0,10.6299 35.0788,0 0,-10.6299 35.7874,0 0,10.6299 35.0787,0 0,-10.6299 35.7874,0 0,10.6299 35.0787,0 0,-10.6299 35.6103,0 0,36.1553 -10.6299,0 0,35.6239 10.6299,0 0,36.3325 -10.6299,0 0,35.6239 10.6299,0 0,36.3325 -10.6299,0 0,35.6239 10.6299,0 0,36.3325 -10.6299,0 0,35.6239 10.6299,0 0,36.3325 -10.6299,0 0,35.6238 10.6299,0 0,36.3326 -10.6299,0 0,35.6238 10.6299,0 0,36.3326 -10.6299,0 0,35.6238 10.6299,0 0,36.3326 -10.6299,0 0,35.6238 10.6299,0 0,36.3325 -10.6299,0 0,35.6239 10.6299,0 0,36.3325 -10.6299,0 0,35.6239 10.6299,0 0,36.3325 -10.6299,0 0,35.62387 10.6299,0 0,36.33252 -10.6299,0 0,35.62386 10.6299,0 0,36.33253 -10.6299,0 0,35.62386 10.6299,0 0,36.33253 -10.6299,0 0,35.62387 10.6299,0 0,36.33252 -10.6299,0 0,35.62387 10.6299,0 0,36.33252 -10.6299,0 0,35.62387 10.6299,0 0,36.33252 -10.6299,0 0,35.62387 10.6299,0 0,36.33252 -10.6299,0 0,35.62387 10.6299,0 0,36.33252 -10.6299,0 0,35.62387 10.6299,0 0,36.33252 -10.6299,0 0,35.62387 10.6299,0 0,36.33252 -10.6299,0 0,35.62387 10.6299,0 0,36.33252 -10.6299,0 0,35.62387 10.6299,0 0,36.33252 -10.6299,0 0,35.623865 10.6299,0 0,36.33252 -10.6299,0 0,35.6238696 10.6299,0 0,36.3325204 -10.6299,0 0,35.62387 10.6299,0 0,36.332525 -10.6299,0 0,35.62387 10.6299,0 0,36.33254 -10.6299,0 0,35.6238 10.6299,0 0,36.3326 -10.6299,0 0,35.6238 10.6299,0 0,36.3326 -10.6299,0 0,35.6238 10.6299,0 0,36.3326 -10.6299,0 0,35.6238 10.6299,0 0,36.3325 -10.6299,0 0,35.6239 10.6299,0 0,36.3325 -10.6299,0 0,35.6239 10.6299,0 0,36.1554 -35.6103,0 0,-10.63 -35.0787,0 0,10.63 -35.7874,0 0,-10.63 -35.0787,0 0,10.63 -35.7874,0 0,-10.63 -35.0788,0 0,10.63 -35.7874,0 0,-10.63 -35.0787,0 0,10.63 -35.7874,0 0,-10.63 -35.0788,0 0,10.63 -35.7874,0 0,-10.63 -35.0787,0 0,10.63 -35.7874,0 0,-10.63 -35.0787,0 0,10.63 -35.7874,0 0,-10.63 -35.0788,0 0,10.63 -35.7874,0 0,-10.63 -35.0787,0 0,10.63 -35.7874,0 0,-10.63 -35.0788,0 0,10.63 -35.7874,0 0,-10.63 -35.0787,0 0,10.63 -35.7874,0 0,-10.63 -35.0788,0 0,10.63 -35.7874,0 0,-10.63 -35.0787,0 0,10.63 -35.7874,0 0,-10.63 -35.0787,0 0,10.63 -35.7874,0 0,-10.63 -35.0788,0 0,10.63 -35.7874,0 0,-10.63 -35.0787,0 0,10.63 -35.7874,0 0,-10.63 -35.0788,0 0,10.63 -35.7874,0 0,-10.63 -35.0787,0 0,10.63 -35.7874,0 0,-10.63 -35.0787,0 0,10.63 -35.7874,0 0,-10.63 -35.0788,0 0,10.63 -35.7874,0 0,-10.63 -35.0787,0 0,10.63 -35.7874,0 0,-10.63 -35.0788,0 0,10.63 -35.7874,0 0,-10.63 -35.0787,0 0,10.63 -35.7874,0 0,-10.63 -35.0788,0 0,10.63 -35.7874,0 0,-10.63 -35.0787,0 0,10.63 -35.7874,0 0,-10.63 -35.0787,0 0,10.63 -35.7874,0 0,-10.63 -35.0788,0 0,10.63 -35.7874,0 0,-10.63 -35.0787,0 0,10.63 -35.7874,0 0,-10.63 -35.0788,0 0,10.63 -35.7874,0 0,-10.63 -35.0787,0 0,10.63 -35.6102,0 0,-36.1554 10.6299,0 0,-35.6239 -10.6299,0 0,-36.3325 10.6299,0 0,-35.6239 -10.6299,0 0,-36.3325 10.6299,0 0,-35.6238 -10.6299,0 0,-36.3326 10.6299,0 0,-35.6238 -10.6299,0 0,-36.3326 10.6299,0 0,-35.6238 -10.6299,0 0,-36.3326 10.6299,0 0,-35.6238 -10.6299,0 0,-36.33254 10.6299,0 0,-35.62387 -10.6299,0 0,-36.332525 10.6299,0 0,-35.62387 -10.6299,0 0,-36.3325204 10.6299,0 0,-35.6238696 -10.6299,0 0,-36.33252 10.6299,0 0,-35.623865 -10.6299,0 0,-36.33252 10.6299,0 0,-35.62387 -10.6299,0 0,-36.33252 10.6299,0 0,-35.62387 -10.6299,0 0,-36.33252 10.6299,0 0,-35.62387 -10.6299,0 0,-36.33252 10.6299,0 0,-35.62387 -10.6299,0 0,-36.33252 10.6299,0 0,-35.62387 -10.6299,0 0,-36.33252 10.6299,0 0,-35.62387 -10.6299,0 0,-36.33252 10.6299,0 0,-35.62387 -10.6299,0 0,-36.33252 10.6299,0 0,-35.62387 -10.6299,0 0,-36.33252 10.6299,0 0,-35.62387 -10.6299,0 0,-36.33253 10.6299,0 0,-35.62386 -10.6299,0 0,-36.33253 10.6299,0 0,-35.62386 -10.6299,0 0,-36.33252 10.6299,0 0,-35.62387 -10.6299,0 0,-36.3325 10.6299,0 0,-35.6239 -10.6299,0 0,-36.3325 10.6299,0 0,-35.6239 -10.6299,0 0,-36.3325 10.6299,0 0,-35.6238 -10.6299,0 0,-36.3326 10.6299,0 0,-35.6238 -10.6299,0 0,-36.3326 10.6299,0 0,-35.6238 -10.6299,0 0,-36.3326 10.6299,0 0,-35.6238 -10.6299,0 0,-36.3325 10.6299,0 0,-35.6239 -10.6299,0 0,-36.3325 10.6299,0 0,-35.6239 -10.6299,0 0,-36.3325 10.6299,0 0,-35.6239 -10.6299,0 0,-36.3325 10.6299,0 0,-35.6239 -10.6299,0 0,-36.1553 z"
       inkscape:connector-curvature="0" />
    <path
       style="fill:none;stroke:#ff0000"
       id="path53570"
       d="m 3929.2602,-1709.4728 0,2161.41728 -55.689,0 0,-10.6299 -55.1574,0 0,10.6299 -55.689,0 0,-35.2559 -10.6299,0 0,-35.7874 10.6299,0 0,-35.0788 -10.6299,0 0,-35.7874 10.6299,0 0,-35.0787 -10.6299,0 0,-35.7874 10.6299,0 0,-35.0787 -10.6299,0 0,-35.7874 10.6299,0 0,-35.0788 -10.6299,0 0,-35.787396 10.6299,0 0,-35.0787 -10.6299,0 0,-35.787399 10.6299,0 0,-35.0787997 -10.6299,0 0,-35.7874003 10.6299,0 0,-35.0787 -10.6299,0 0,-35.787395 10.6299,0 0,-35.0788 -10.6299,0 0,-35.78741 10.6299,0 0,-35.0787 -10.6299,0 0,-35.7874 10.6299,0 0,-35.0787 -10.6299,0 0,-35.78745 10.6299,0 0,-35.0788 -10.6299,0 0,-35.7874 10.6299,0 0,-35.0787 -10.6299,0 0,-35.7874 10.6299,0 0,-35.0788 -10.6299,0 0,-35.7874 10.6299,0 0,-35.0787 -10.6299,0 0,-35.7874 10.6299,0 0,-35.0787 -10.6299,0 0,-35.7874 10.6299,0 0,-35.0788 -10.6299,0 0,-35.7874 10.6299,0 0,-35.0787 -10.6299,0 0,-35.7874 10.6299,0 0,-35.0788 -10.6299,0 0,-35.7874 10.6299,0 0,-35.0787 -10.6299,0 0,-35.7874 10.6299,0 0,-35.07883 -10.6299,0 0,-35.7874 10.6299,0 0,-35.0786 -10.6299,0 0,-35.7874 10.6299,0 0,-35.0787 -10.6299,0 0,-35.7874 10.6299,0 0,-35.0788 -10.6299,0 0,-35.7874 10.6299,0 0,-35.0787 -10.6299,0 0,-35.7874 10.6299,0 0,-35.0788 -10.6299,0 0,-35.7874 10.6299,0 0,-35.0787 -10.6299,0 0,-35.7874 10.6299,0 0,-35.0787 -10.6299,0 0,-35.7874 10.6299,0 0,-35.0788 -10.6299,0 0,-35.7874 10.6299,0 0,-35.0787 -10.6299,0 0,-35.7874 10.6299,0 0,-35.2559 55.689,0 0,10.6299 55.1574,0 0,-10.6299 55.689,0 z"
       inkscape:connector-curvature="0" />
    <path
       style="fill:none;stroke:#ff0000"
       id="path53572"
       d="m 1272.3242,-1696.3678 0,2161.41729 -55.6889,0 0,-10.6299 -55.1575,0 0,10.6299 -55.689,0 0,-35.2559 -10.6299,0 0,-35.7874 10.6299,0 0,-35.0787 -10.6299,0 0,-35.7874 10.6299,0 0,-35.0787 -10.6299,0 0,-35.7874 10.6299,0 0,-35.0788 -10.6299,0 0,-35.7874 10.6299,0 0,-35.0787 -10.6299,0 0,-35.7874 10.6299,0 0,-35.078802 -10.6299,0 0,-35.7874 10.6299,0 0,-35.0786998 -10.6299,0 0,-35.7874002 10.6299,0 0,-35.0788 -10.6299,0 0,-35.787398 10.6299,0 0,-35.0787 -10.6299,0 0,-35.7874 10.6299,0 0,-35.0787 -10.6299,0 0,-35.7874 10.6299,0 0,-35.0788 -10.6299,0 0,-35.78736 10.6299,0 0,-35.0787 -10.6299,0 0,-35.7874 10.6299,0 0,-35.0788 -10.6299,0 0,-35.7874 10.6299,0 0,-35.0787 -10.6299,0 0,-35.7874 10.6299,0 0,-35.0787 -10.6299,0 0,-35.7874 10.6299,0 0,-35.0788 -10.6299,0 0,-35.7874 10.6299,0 0,-35.0787 -10.6299,0 0,-35.7874 10.6299,0 0,-35.0788 -10.6299,0 0,-35.78738 10.6299,0 0,-35.07874 -10.6299,0 0,-35.7874 10.6299,0 0,-35.07874 -10.6299,0 0,-35.7874 10.6299,0 0,-35.07874 -10.6299,0 0,-35.78743 10.6299,0 0,-35.0787 -10.6299,0 0,-35.7874 10.6299,0 0,-35.0788 -10.6299,0 0,-35.7874 10.6299,0 0,-35.0787 -10.6299,0 0,-35.7874 10.6299,0 0,-35.0787 -10.6299,0 0,-35.7874 10.6299,0 0,-35.0788 -10.6299,0 0,-35.7874 10.6299,0 0,-35.0787 -10.6299,0 0,-35.7874 10.6299,0 0,-35.0788 -10.6299,0 0,-35.7874 10.6299,0 0,-35.0787 -10.6299,0 0,-35.7874 10.6299,0 0,-35.0787 -10.6299,0 0,-35.7875 10.6299,0 0,-35.2559 55.689,0 0,10.63 55.1575,0 0,-10.63 55.6889,0 z"
       inkscape:connector-curvature="0" />
    <path
       style="fill:none;stroke:#ff0000"
       id="path53574"
       d="m 4147.5382,-1676.6589 0,2296.06304 -55.3346,0 0,10.63 -55.8662,0 0,-10.63 -55.3346,0 0,-25.1711 -10.6299,0 0,-36.3325 10.6299,0 0,-35.6239 -10.6299,0 0,-36.3325 10.6299,0 0,-35.6239 -10.6299,0 0,-36.3325 10.6299,0 0,-35.6238 -10.6299,0 0,-36.3326 10.6299,0 0,-35.6238 -10.6299,0 0,-36.3326 10.6299,0 0,-35.6238 -10.6299,0 0,-36.3326 10.6299,0 0,-35.6238 -10.6299,0 0,-36.3325 10.6299,0 0,-35.6239 -10.6299,0 0,-36.3325 10.6299,0 0,-35.6239 -10.6299,0 0,-36.3325 10.6299,0 0,-35.6239 -10.6299,0 0,-36.3325 10.6299,0 0,-35.6239 -10.6299,0 0,-36.3325 10.6299,0 0,-35.6239 -10.6299,0 0,-36.3325 10.6299,0 0,-35.6239 -10.6299,0 0,-36.3325 10.6299,0 0,-35.6238 -10.6299,0 0,-36.3326 10.6299,0 0,-35.6238 -10.6299,0 0,-36.33261 10.6299,0 0,-35.62379 -10.6299,0 0,-36.33261 10.6299,0 0,-35.62379 -10.6299,0 0,-36.3325 10.6299,0 0,-35.6239 -10.6299,0 0,-36.3325 10.6299,0 0,-35.6239 -10.6299,0 0,-36.3325 10.6299,0 0,-35.6239 -10.6299,0 0,-36.3325 10.6299,0 0,-35.62391 -10.6299,0 0,-36.33249 10.6299,0 0,-35.62391 -10.6299,0 0,-36.3325 10.6299,0 0,-35.6239 -10.6299,0 0,-36.33253 10.6299,0 0,-35.6238 -10.6299,0 0,-36.3326 10.6299,0 0,-35.6238 -10.6299,0 0,-36.3326 10.6299,0 0,-35.6238 -10.6299,0 0,-36.3326 10.6299,0 0,-35.6238 -10.6299,0 0,-36.3325 10.6299,0 0,-35.6239 -10.6299,0 0,-36.3325 10.6299,0 0,-35.6239 -10.6299,0 0,-36.3325 10.6299,0 0,-35.6239 -10.6299,0 0,-36.3325 10.6299,0 0,-35.6239 -10.6299,0 0,-36.3325 10.6299,0 0,-35.6239 -10.6299,0 0,-36.3325 10.6299,0 0,-25.1711 55.3346,0 0,-10.6299 55.8662,0 0,10.6299 55.3346,0 z"
       inkscape:connector-curvature="0" />
    <path
       style="fill:none;stroke:#ff0000"
       id="path53576"
       d="m 1503.4609,-1683.2114 0,2296.06296 -55.3346,0 0,10.63 -55.8662,0 0,-10.63 -55.3346,0 0,-25.1711 -10.6299,0 0,-36.3325 10.6299,0 0,-35.6239 -10.6299,0 0,-36.3325 10.6299,0 0,-35.6239 -10.6299,0 0,-36.3325 10.6299,0 0,-35.6238 -10.6299,0 0,-36.3326 10.6299,0 0,-35.6238 -10.6299,0 0,-36.3326 10.6299,0 0,-35.6238 -10.6299,0 0,-36.3326 10.6299,0 0,-35.6238 -10.6299,0 0,-36.3325 10.6299,0 0,-35.6239 -10.6299,0 0,-36.3325 10.6299,0 0,-35.6239 -10.6299,0 0,-36.3325 10.6299,0 0,-35.6239 -10.6299,0 0,-36.332497 10.6299,0 0,-35.623903 -10.6299,0 0,-36.3325 10.6299,0 0,-35.6239 -10.6299,0 0,-36.3325 10.6299,0 0,-35.6239 -10.6299,0 0,-36.3325 10.6299,0 0,-35.6238 -10.6299,0 0,-36.3326 10.6299,0 0,-35.62376 -10.6299,0 0,-36.3326 10.6299,0 0,-35.6238 -10.6299,0 0,-36.3326 10.6299,0 0,-35.6238 -10.6299,0 0,-36.3325 10.6299,0 0,-35.6239 -10.6299,0 0,-36.3325 10.6299,0 0,-35.6239 -10.6299,0 0,-36.3325 10.6299,0 0,-35.6239 -10.6299,0 0,-36.33251 10.6299,0 0,-35.62387 -10.6299,0 0,-36.33252 10.6299,0 0,-35.62387 -10.6299,0 0,-36.33252 10.6299,0 0,-35.62391 -10.6299,0 0,-36.3325 10.6299,0 0,-35.6239 -10.6299,0 0,-36.3325 10.6299,0 0,-35.6238 -10.6299,0 0,-36.3326 10.6299,0 0,-35.6238 -10.6299,0 0,-36.3326 10.6299,0 0,-35.6238 -10.6299,0 0,-36.3325 10.6299,0 0,-35.6239 -10.6299,0 0,-36.3325 10.6299,0 0,-35.6239 -10.6299,0 0,-36.3325 10.6299,0 0,-35.6239 -10.6299,0 0,-36.3325 10.6299,0 0,-35.6239 -10.6299,0 0,-36.3325 10.6299,0 0,-35.6239 -10.6299,0 0,-36.3325 10.6299,0 0,-25.1711 55.3346,0 0,-10.6299 55.8662,0 0,10.6299 55.3346,0 z"
       inkscape:connector-curvature="0" />
  </g>
</svg>
