  0
SECTION
  2
HEADER
  9
$ACADVER
  1
AC1014
  9
$HANDSEED
  5
FFFF
  9
$MEASUREMENT
 70
     1
  0
ENDSEC
  0
SECTION
  2
TABLES
  0
TABLE
  2
VPORT
  5
8
330
0
100
AcDbSymbolTable
 70
     4
  0
VPORT
  5
2E
330
8
100
AcDbSymbolTableRecord
100
AcDbViewportTableRecord
  2
*ACTIVE
 70
     0
 10
0.0
 20
0.0
 11
1.0
 21
1.0
 12
210.0
 22
148.5
 13
0.0
 23
0.0
 14
10.0
 24
10.0
 15
10.0
 25
10.0
 16
0.0
 26
0.0
 36
1.0
 17
0.0
 27
0.0
 37
0.0
 40
341.0
 41
1.24
 42
50.0
 43
0.0
 44
0.0
 50
0.0
 51
0.0
 71
     0
 72
   100
 73
     1
 74
     3
 75
     0
 76
     0
 77
     0
 78
     0
  0
ENDTAB
  0
TABLE
  2
LTYPE
  5
5
330
0
100
AcDbSymbolTable
 70
     1
  0
LTYPE
  5
14
330
5
100
AcDbSymbolTableRecord
100
AcDbLinetypeTableRecord
  2
BYBLOCK
 70
     0
  3

 72
    65
 73
     0
 40
0.0
  0
LTYPE
  5
15
330
5
100
AcDbSymbolTableRecord
100
AcDbLinetypeTableRecord
  2
BYLAYER
 70
     0
  3

 72
    65
 73
     0
 40
0.0
  0
LTYPE
  5
16
330
5
100
AcDbSymbolTableRecord
100
AcDbLinetypeTableRecord
  2
CONTINUOUS
 70
     0
  3
Solid line
 72
    65
 73
     0
 40
0.0
  0
ENDTAB
  0
TABLE
  2
LAYER
  5
2
100
AcDbSymbolTable
 70
2
  0
LAYER
  5
50
100
AcDbSymbolTableRecord
100
AcDbLayerTableRecord
  2
0
 70
0
  6
CONTINUOUS
  0
LAYER
  5
51
100
AcDbSymbolTableRecord
100
AcDbLayerTableRecord
  2
Calque_1
 70
0
  6
CONTINUOUS
  0
ENDTAB
  0
TABLE
  2
STYLE
  5
3
330
0
100
AcDbSymbolTable
 70
     1
  0
STYLE
  5
11
330
3
100
AcDbSymbolTableRecord
100
AcDbTextStyleTableRecord
  2
STANDARD
 70
     0
 40
0.0
 41
1.0
 50
0.0
 71
     0
 42
2.5
  3
txt
  4

  0
ENDTAB
  0
TABLE
  2
VIEW
  5
6
330
0
100
AcDbSymbolTable
 70
     0
  0
ENDTAB
  0
TABLE
  2
UCS
  5
7
330
0
100
AcDbSymbolTable
 70
     0
  0
ENDTAB
  0
TABLE
  2
APPID
  5
9
330
0
100
AcDbSymbolTable
 70
     2
  0
APPID
  5
12
330
9
100
AcDbSymbolTableRecord
100
AcDbRegAppTableRecord
  2
ACAD
 70
     0
  0
ENDTAB
  0
TABLE
  2
DIMSTYLE
  5
A
330
0
100
AcDbSymbolTable
 70
     1
  0
DIMSTYLE
105
27
330
A
100
AcDbSymbolTableRecord
100
AcDbDimStyleTableRecord
  2
ISO-25
 70
     0
  3

  4

  5

  6

  7

 40
1.0
 41
2.5
 42
0.625
 43
3.75
 44
1.25
 45
0.0
 46
0.0
 47
0.0
 48
0.0
140
2.5
141
2.5
142
0.0
143
0.03937007874016
144
1.0
145
0.0
146
1.0
147
0.625
 71
     0
 72
     0
 73
     0
 74
     0
 75
     0
 76
     0
 77
     1
 78
     8
170
     0
171
     3
172
     1
173
     0
174
     0
175
     0
176
     0
177
     0
178
     0
270
     2
271
     2
272
     2
273
     2
274
     3
340
11
275
     0
280
     0
281
     0
282
     0
283
     0
284
     8
285
     0
286
     0
287
     3
288
     0
  0
ENDTAB
  0
TABLE
  2
BLOCK_RECORD
  5
1
330
0
100
AcDbSymbolTable
 70
     1
  0
BLOCK_RECORD
  5
1F
330
1
100
AcDbSymbolTableRecord
100
AcDbBlockTableRecord
  2
*MODEL_SPACE
  0
BLOCK_RECORD
  5
1B
330
1
100
AcDbSymbolTableRecord
100
AcDbBlockTableRecord
  2
*PAPER_SPACE
  0
ENDTAB
  0
ENDSEC
  0
SECTION
  2
BLOCKS
  0
BLOCK
  5
20
330
1F
100
AcDbEntity
  8
0
100
AcDbBlockBegin
  2
*MODEL_SPACE
 70
     0
 10
0.0
 20
0.0
 30
0.0
  3
*MODEL_SPACE
  1

  0
ENDBLK
  5
21
330
1F
100
AcDbEntity
  8
0
100
AcDbBlockEnd
  0
BLOCK
  5
1C
330
1B
100
AcDbEntity
 67
     1
  8
0
100
AcDbBlockBegin
  2
*PAPER_SPACE
  1

  0
ENDBLK
  5
1D
330
1B
100
AcDbEntity
 67
     1
  8
0
100
AcDbBlockEnd
  0
ENDSEC
  0
SECTION
  2
ENTITIES
  0
LINE
  5
100
100
AcDbEntity
  8
Calque_1
 62
7
100
AcDbLine
 10
516.354455
 20
703.415729
 30
0.0
 11
966.254467
 21
703.415729
 31
0.0
  0
LINE
  5
101
100
AcDbEntity
  8
Calque_1
 62
7
100
AcDbLine
 10
966.254467
 20
703.415729
 30
0.0
 11
966.254467
 21
203.515732
 31
0.0
  0
LINE
  5
102
100
AcDbEntity
  8
Calque_1
 62
7
100
AcDbLine
 10
966.254467
 20
203.515732
 30
0.0
 11
516.354455
 21
203.515732
 31
0.0
  0
LINE
  5
103
100
AcDbEntity
  8
Calque_1
 62
7
100
AcDbLine
 10
516.354455
 20
203.515732
 30
0.0
 11
516.354455
 21
703.415729
 31
0.0
  0
LINE
  5
104
100
AcDbEntity
  8
Calque_1
 62
1
100
AcDbLine
 10
436.304464
 20
783.465720
 30
0.0
 11
446.354454
 21
783.465720
 31
0.0
  0
LINE
  5
105
100
AcDbEntity
  8
Calque_1
 62
1
100
AcDbLine
 10
446.354454
 20
783.465720
 30
0.0
 11
446.354454
 21
780.465726
 31
0.0
  0
LINE
  5
106
100
AcDbEntity
  8
Calque_1
 62
1
100
AcDbLine
 10
446.354454
 20
780.465726
 30
0.0
 11
456.254443
 21
780.465726
 31
0.0
  0
LINE
  5
107
100
AcDbEntity
  8
Calque_1
 62
1
100
AcDbLine
 10
456.254443
 20
780.465726
 30
0.0
 11
456.254443
 21
783.465720
 31
0.0
  0
LINE
  5
108
100
AcDbEntity
  8
Calque_1
 62
1
100
AcDbLine
 10
456.254443
 20
783.465720
 30
0.0
 11
466.354442
 21
783.465720
 31
0.0
  0
LINE
  5
109
100
AcDbEntity
  8
Calque_1
 62
1
100
AcDbLine
 10
466.354442
 20
783.465720
 30
0.0
 11
466.354442
 21
780.465726
 31
0.0
  0
LINE
  5
10a
100
AcDbEntity
  8
Calque_1
 62
1
100
AcDbLine
 10
466.354442
 20
780.465726
 30
0.0
 11
476.254459
 21
780.465726
 31
0.0
  0
LINE
  5
10b
100
AcDbEntity
  8
Calque_1
 62
1
100
AcDbLine
 10
476.254459
 20
780.465726
 30
0.0
 11
476.254459
 21
783.465720
 31
0.0
  0
LINE
  5
10c
100
AcDbEntity
  8
Calque_1
 62
1
100
AcDbLine
 10
476.254459
 20
783.465720
 30
0.0
 11
486.354459
 21
783.465720
 31
0.0
  0
LINE
  5
10d
100
AcDbEntity
  8
Calque_1
 62
1
100
AcDbLine
 10
486.354459
 20
783.465720
 30
0.0
 11
486.354459
 21
780.465726
 31
0.0
  0
LINE
  5
10e
100
AcDbEntity
  8
Calque_1
 62
1
100
AcDbLine
 10
486.354459
 20
780.465726
 30
0.0
 11
496.254447
 21
780.465726
 31
0.0
  0
LINE
  5
10f
100
AcDbEntity
  8
Calque_1
 62
1
100
AcDbLine
 10
496.254447
 20
780.465726
 30
0.0
 11
496.254447
 21
783.465720
 31
0.0
  0
LINE
  5
110
100
AcDbEntity
  8
Calque_1
 62
1
100
AcDbLine
 10
496.254447
 20
783.465720
 30
0.0
 11
506.354447
 21
783.465720
 31
0.0
  0
LINE
  5
111
100
AcDbEntity
  8
Calque_1
 62
1
100
AcDbLine
 10
506.354447
 20
783.465720
 30
0.0
 11
506.354447
 21
780.465726
 31
0.0
  0
LINE
  5
112
100
AcDbEntity
  8
Calque_1
 62
1
100
AcDbLine
 10
506.354447
 20
780.465726
 30
0.0
 11
516.254464
 21
780.465726
 31
0.0
  0
LINE
  5
113
100
AcDbEntity
  8
Calque_1
 62
1
100
AcDbLine
 10
516.254464
 20
780.465726
 30
0.0
 11
516.254464
 21
783.465720
 31
0.0
  0
LINE
  5
114
100
AcDbEntity
  8
Calque_1
 62
1
100
AcDbLine
 10
516.254464
 20
783.465720
 30
0.0
 11
526.354463
 21
783.465720
 31
0.0
  0
LINE
  5
115
100
AcDbEntity
  8
Calque_1
 62
1
100
AcDbLine
 10
526.354463
 20
783.465720
 30
0.0
 11
526.354463
 21
780.465726
 31
0.0
  0
LINE
  5
116
100
AcDbEntity
  8
Calque_1
 62
1
100
AcDbLine
 10
526.354463
 20
780.465726
 30
0.0
 11
536.254452
 21
780.465726
 31
0.0
  0
LINE
  5
117
100
AcDbEntity
  8
Calque_1
 62
1
100
AcDbLine
 10
536.254452
 20
780.465726
 30
0.0
 11
536.254452
 21
783.465720
 31
0.0
  0
LINE
  5
118
100
AcDbEntity
  8
Calque_1
 62
1
100
AcDbLine
 10
536.254452
 20
783.465720
 30
0.0
 11
546.354452
 21
783.465720
 31
0.0
  0
LINE
  5
119
100
AcDbEntity
  8
Calque_1
 62
1
100
AcDbLine
 10
546.354452
 20
783.465720
 30
0.0
 11
546.354452
 21
780.465726
 31
0.0
  0
LINE
  5
11a
100
AcDbEntity
  8
Calque_1
 62
1
100
AcDbLine
 10
546.354452
 20
780.465726
 30
0.0
 11
556.254440
 21
780.465726
 31
0.0
  0
LINE
  5
11b
100
AcDbEntity
  8
Calque_1
 62
1
100
AcDbLine
 10
556.254440
 20
780.465726
 30
0.0
 11
556.254440
 21
783.465720
 31
0.0
  0
LINE
  5
11c
100
AcDbEntity
  8
Calque_1
 62
1
100
AcDbLine
 10
556.254440
 20
783.465720
 30
0.0
 11
566.354440
 21
783.465720
 31
0.0
  0
LINE
  5
11d
100
AcDbEntity
  8
Calque_1
 62
1
100
AcDbLine
 10
566.354440
 20
783.465720
 30
0.0
 11
566.354440
 21
780.465726
 31
0.0
  0
LINE
  5
11e
100
AcDbEntity
  8
Calque_1
 62
1
100
AcDbLine
 10
566.354440
 20
780.465726
 30
0.0
 11
576.254457
 21
780.465726
 31
0.0
  0
LINE
  5
11f
100
AcDbEntity
  8
Calque_1
 62
1
100
AcDbLine
 10
576.254457
 20
780.465726
 30
0.0
 11
576.254457
 21
783.465720
 31
0.0
  0
LINE
  5
120
100
AcDbEntity
  8
Calque_1
 62
1
100
AcDbLine
 10
576.254457
 20
783.465720
 30
0.0
 11
586.354456
 21
783.465720
 31
0.0
  0
LINE
  5
121
100
AcDbEntity
  8
Calque_1
 62
1
100
AcDbLine
 10
586.354456
 20
783.465720
 30
0.0
 11
586.354456
 21
780.465726
 31
0.0
  0
LINE
  5
122
100
AcDbEntity
  8
Calque_1
 62
1
100
AcDbLine
 10
586.354456
 20
780.465726
 30
0.0
 11
596.254445
 21
780.465726
 31
0.0
  0
LINE
  5
123
100
AcDbEntity
  8
Calque_1
 62
1
100
AcDbLine
 10
596.254445
 20
780.465726
 30
0.0
 11
596.254445
 21
783.465720
 31
0.0
  0
LINE
  5
124
100
AcDbEntity
  8
Calque_1
 62
1
100
AcDbLine
 10
596.254445
 20
783.465720
 30
0.0
 11
606.354444
 21
783.465720
 31
0.0
  0
LINE
  5
125
100
AcDbEntity
  8
Calque_1
 62
1
100
AcDbLine
 10
606.354444
 20
783.465720
 30
0.0
 11
606.354444
 21
780.465726
 31
0.0
  0
LINE
  5
126
100
AcDbEntity
  8
Calque_1
 62
1
100
AcDbLine
 10
606.354444
 20
780.465726
 30
0.0
 11
616.254461
 21
780.465726
 31
0.0
  0
LINE
  5
127
100
AcDbEntity
  8
Calque_1
 62
1
100
AcDbLine
 10
616.254461
 20
780.465726
 30
0.0
 11
616.254461
 21
783.465720
 31
0.0
  0
LINE
  5
128
100
AcDbEntity
  8
Calque_1
 62
1
100
AcDbLine
 10
616.254461
 20
783.465720
 30
0.0
 11
626.354461
 21
783.465720
 31
0.0
  0
LINE
  5
129
100
AcDbEntity
  8
Calque_1
 62
1
100
AcDbLine
 10
626.354461
 20
783.465720
 30
0.0
 11
626.354461
 21
780.465726
 31
0.0
  0
LINE
  5
12a
100
AcDbEntity
  8
Calque_1
 62
1
100
AcDbLine
 10
626.354461
 20
780.465726
 30
0.0
 11
636.254450
 21
780.465726
 31
0.0
  0
LINE
  5
12b
100
AcDbEntity
  8
Calque_1
 62
1
100
AcDbLine
 10
636.254450
 20
780.465726
 30
0.0
 11
636.254450
 21
783.465720
 31
0.0
  0
LINE
  5
12c
100
AcDbEntity
  8
Calque_1
 62
1
100
AcDbLine
 10
636.254450
 20
783.465720
 30
0.0
 11
646.354449
 21
783.465720
 31
0.0
  0
LINE
  5
12d
100
AcDbEntity
  8
Calque_1
 62
1
100
AcDbLine
 10
646.354449
 20
783.465720
 30
0.0
 11
646.354449
 21
780.465726
 31
0.0
  0
LINE
  5
12e
100
AcDbEntity
  8
Calque_1
 62
1
100
AcDbLine
 10
646.354449
 20
780.465726
 30
0.0
 11
656.254466
 21
780.465726
 31
0.0
  0
LINE
  5
12f
100
AcDbEntity
  8
Calque_1
 62
1
100
AcDbLine
 10
656.254466
 20
780.465726
 30
0.0
 11
656.254466
 21
783.465720
 31
0.0
  0
LINE
  5
130
100
AcDbEntity
  8
Calque_1
 62
1
100
AcDbLine
 10
656.254466
 20
783.465720
 30
0.0
 11
666.354466
 21
783.465720
 31
0.0
  0
LINE
  5
131
100
AcDbEntity
  8
Calque_1
 62
1
100
AcDbLine
 10
666.354466
 20
783.465720
 30
0.0
 11
666.354466
 21
780.465726
 31
0.0
  0
LINE
  5
132
100
AcDbEntity
  8
Calque_1
 62
1
100
AcDbLine
 10
666.354466
 20
780.465726
 30
0.0
 11
676.254454
 21
780.465726
 31
0.0
  0
LINE
  5
133
100
AcDbEntity
  8
Calque_1
 62
1
100
AcDbLine
 10
676.254454
 20
780.465726
 30
0.0
 11
676.254454
 21
783.465720
 31
0.0
  0
LINE
  5
134
100
AcDbEntity
  8
Calque_1
 62
1
100
AcDbLine
 10
676.254454
 20
783.465720
 30
0.0
 11
686.354454
 21
783.465720
 31
0.0
  0
LINE
  5
135
100
AcDbEntity
  8
Calque_1
 62
1
100
AcDbLine
 10
686.354454
 20
783.465720
 30
0.0
 11
686.354454
 21
780.465726
 31
0.0
  0
LINE
  5
136
100
AcDbEntity
  8
Calque_1
 62
1
100
AcDbLine
 10
686.354454
 20
780.465726
 30
0.0
 11
696.254442
 21
780.465726
 31
0.0
  0
LINE
  5
137
100
AcDbEntity
  8
Calque_1
 62
1
100
AcDbLine
 10
696.254442
 20
780.465726
 30
0.0
 11
696.254442
 21
783.465720
 31
0.0
  0
LINE
  5
138
100
AcDbEntity
  8
Calque_1
 62
1
100
AcDbLine
 10
696.254442
 20
783.465720
 30
0.0
 11
706.354442
 21
783.465720
 31
0.0
  0
LINE
  5
139
100
AcDbEntity
  8
Calque_1
 62
1
100
AcDbLine
 10
706.354442
 20
783.465720
 30
0.0
 11
706.354442
 21
780.465726
 31
0.0
  0
LINE
  5
13a
100
AcDbEntity
  8
Calque_1
 62
1
100
AcDbLine
 10
706.354442
 20
780.465726
 30
0.0
 11
716.254459
 21
780.465726
 31
0.0
  0
LINE
  5
13b
100
AcDbEntity
  8
Calque_1
 62
1
100
AcDbLine
 10
716.254459
 20
780.465726
 30
0.0
 11
716.254459
 21
783.465720
 31
0.0
  0
LINE
  5
13c
100
AcDbEntity
  8
Calque_1
 62
1
100
AcDbLine
 10
716.254459
 20
783.465720
 30
0.0
 11
726.354458
 21
783.465720
 31
0.0
  0
LINE
  5
13d
100
AcDbEntity
  8
Calque_1
 62
1
100
AcDbLine
 10
726.354458
 20
783.465720
 30
0.0
 11
726.354458
 21
780.465726
 31
0.0
  0
LINE
  5
13e
100
AcDbEntity
  8
Calque_1
 62
1
100
AcDbLine
 10
726.354458
 20
780.465726
 30
0.0
 11
736.254447
 21
780.465726
 31
0.0
  0
LINE
  5
13f
100
AcDbEntity
  8
Calque_1
 62
1
100
AcDbLine
 10
736.254447
 20
780.465726
 30
0.0
 11
736.254447
 21
783.465720
 31
0.0
  0
LINE
  5
140
100
AcDbEntity
  8
Calque_1
 62
1
100
AcDbLine
 10
736.254447
 20
783.465720
 30
0.0
 11
746.354447
 21
783.465720
 31
0.0
  0
LINE
  5
141
100
AcDbEntity
  8
Calque_1
 62
1
100
AcDbLine
 10
746.354447
 20
783.465720
 30
0.0
 11
746.354447
 21
780.465726
 31
0.0
  0
LINE
  5
142
100
AcDbEntity
  8
Calque_1
 62
1
100
AcDbLine
 10
746.354447
 20
780.465726
 30
0.0
 11
756.254464
 21
780.465726
 31
0.0
  0
LINE
  5
143
100
AcDbEntity
  8
Calque_1
 62
1
100
AcDbLine
 10
756.254464
 20
780.465726
 30
0.0
 11
756.254464
 21
783.465720
 31
0.0
  0
LINE
  5
144
100
AcDbEntity
  8
Calque_1
 62
1
100
AcDbLine
 10
756.254464
 20
783.465720
 30
0.0
 11
766.354463
 21
783.465720
 31
0.0
  0
LINE
  5
145
100
AcDbEntity
  8
Calque_1
 62
1
100
AcDbLine
 10
766.354463
 20
783.465720
 30
0.0
 11
766.354463
 21
780.465726
 31
0.0
  0
LINE
  5
146
100
AcDbEntity
  8
Calque_1
 62
1
100
AcDbLine
 10
766.354463
 20
780.465726
 30
0.0
 11
776.254452
 21
780.465726
 31
0.0
  0
LINE
  5
147
100
AcDbEntity
  8
Calque_1
 62
1
100
AcDbLine
 10
776.254452
 20
780.465726
 30
0.0
 11
776.254452
 21
783.465720
 31
0.0
  0
LINE
  5
148
100
AcDbEntity
  8
Calque_1
 62
1
100
AcDbLine
 10
776.254452
 20
783.465720
 30
0.0
 11
786.354451
 21
783.465720
 31
0.0
  0
LINE
  5
149
100
AcDbEntity
  8
Calque_1
 62
1
100
AcDbLine
 10
786.354451
 20
783.465720
 30
0.0
 11
786.354451
 21
780.465726
 31
0.0
  0
LINE
  5
14a
100
AcDbEntity
  8
Calque_1
 62
1
100
AcDbLine
 10
786.354451
 20
780.465726
 30
0.0
 11
796.254440
 21
780.465726
 31
0.0
  0
LINE
  5
14b
100
AcDbEntity
  8
Calque_1
 62
1
100
AcDbLine
 10
796.254440
 20
780.465726
 30
0.0
 11
796.254440
 21
783.465720
 31
0.0
  0
LINE
  5
14c
100
AcDbEntity
  8
Calque_1
 62
1
100
AcDbLine
 10
796.254440
 20
783.465720
 30
0.0
 11
806.354440
 21
783.465720
 31
0.0
  0
LINE
  5
14d
100
AcDbEntity
  8
Calque_1
 62
1
100
AcDbLine
 10
806.354440
 20
783.465720
 30
0.0
 11
806.354440
 21
780.465726
 31
0.0
  0
LINE
  5
14e
100
AcDbEntity
  8
Calque_1
 62
1
100
AcDbLine
 10
806.354440
 20
780.465726
 30
0.0
 11
816.254456
 21
780.465726
 31
0.0
  0
LINE
  5
14f
100
AcDbEntity
  8
Calque_1
 62
1
100
AcDbLine
 10
816.254456
 20
780.465726
 30
0.0
 11
816.254456
 21
783.465720
 31
0.0
  0
LINE
  5
150
100
AcDbEntity
  8
Calque_1
 62
1
100
AcDbLine
 10
816.254456
 20
783.465720
 30
0.0
 11
826.354456
 21
783.465720
 31
0.0
  0
LINE
  5
151
100
AcDbEntity
  8
Calque_1
 62
1
100
AcDbLine
 10
826.354456
 20
783.465720
 30
0.0
 11
826.354456
 21
780.465726
 31
0.0
  0
LINE
  5
152
100
AcDbEntity
  8
Calque_1
 62
1
100
AcDbLine
 10
826.354456
 20
780.465726
 30
0.0
 11
836.254445
 21
780.465726
 31
0.0
  0
LINE
  5
153
100
AcDbEntity
  8
Calque_1
 62
1
100
AcDbLine
 10
836.254445
 20
780.465726
 30
0.0
 11
836.254445
 21
783.465720
 31
0.0
  0
LINE
  5
154
100
AcDbEntity
  8
Calque_1
 62
1
100
AcDbLine
 10
836.254445
 20
783.465720
 30
0.0
 11
846.354444
 21
783.465720
 31
0.0
  0
LINE
  5
155
100
AcDbEntity
  8
Calque_1
 62
1
100
AcDbLine
 10
846.354444
 20
783.465720
 30
0.0
 11
846.354444
 21
780.465726
 31
0.0
  0
LINE
  5
156
100
AcDbEntity
  8
Calque_1
 62
1
100
AcDbLine
 10
846.354444
 20
780.465726
 30
0.0
 11
856.254461
 21
780.465726
 31
0.0
  0
LINE
  5
157
100
AcDbEntity
  8
Calque_1
 62
1
100
AcDbLine
 10
856.254461
 20
780.465726
 30
0.0
 11
856.254461
 21
783.465720
 31
0.0
  0
LINE
  5
158
100
AcDbEntity
  8
Calque_1
 62
1
100
AcDbLine
 10
856.254461
 20
783.465720
 30
0.0
 11
866.354461
 21
783.465720
 31
0.0
  0
LINE
  5
159
100
AcDbEntity
  8
Calque_1
 62
1
100
AcDbLine
 10
866.354461
 20
783.465720
 30
0.0
 11
866.354461
 21
780.465726
 31
0.0
  0
LINE
  5
15a
100
AcDbEntity
  8
Calque_1
 62
1
100
AcDbLine
 10
866.354461
 20
780.465726
 30
0.0
 11
876.254449
 21
780.465726
 31
0.0
  0
LINE
  5
15b
100
AcDbEntity
  8
Calque_1
 62
1
100
AcDbLine
 10
876.254449
 20
780.465726
 30
0.0
 11
876.254449
 21
783.465720
 31
0.0
  0
LINE
  5
15c
100
AcDbEntity
  8
Calque_1
 62
1
100
AcDbLine
 10
876.254449
 20
783.465720
 30
0.0
 11
886.354449
 21
783.465720
 31
0.0
  0
LINE
  5
15d
100
AcDbEntity
  8
Calque_1
 62
1
100
AcDbLine
 10
886.354449
 20
783.465720
 30
0.0
 11
886.354449
 21
780.465726
 31
0.0
  0
LINE
  5
15e
100
AcDbEntity
  8
Calque_1
 62
1
100
AcDbLine
 10
886.354449
 20
780.465726
 30
0.0
 11
896.254466
 21
780.465726
 31
0.0
  0
LINE
  5
15f
100
AcDbEntity
  8
Calque_1
 62
1
100
AcDbLine
 10
896.254466
 20
780.465726
 30
0.0
 11
896.254466
 21
783.465720
 31
0.0
  0
LINE
  5
160
100
AcDbEntity
  8
Calque_1
 62
1
100
AcDbLine
 10
896.254466
 20
783.465720
 30
0.0
 11
906.354465
 21
783.465720
 31
0.0
  0
LINE
  5
161
100
AcDbEntity
  8
Calque_1
 62
1
100
AcDbLine
 10
906.354465
 20
783.465720
 30
0.0
 11
906.354465
 21
780.465726
 31
0.0
  0
LINE
  5
162
100
AcDbEntity
  8
Calque_1
 62
1
100
AcDbLine
 10
906.354465
 20
780.465726
 30
0.0
 11
916.254454
 21
780.465726
 31
0.0
  0
LINE
  5
163
100
AcDbEntity
  8
Calque_1
 62
1
100
AcDbLine
 10
916.254454
 20
780.465726
 30
0.0
 11
916.254454
 21
783.465720
 31
0.0
  0
LINE
  5
164
100
AcDbEntity
  8
Calque_1
 62
1
100
AcDbLine
 10
916.254454
 20
783.465720
 30
0.0
 11
926.354454
 21
783.465720
 31
0.0
  0
LINE
  5
165
100
AcDbEntity
  8
Calque_1
 62
1
100
AcDbLine
 10
926.354454
 20
783.465720
 30
0.0
 11
926.354454
 21
780.465726
 31
0.0
  0
LINE
  5
166
100
AcDbEntity
  8
Calque_1
 62
1
100
AcDbLine
 10
926.354454
 20
780.465726
 30
0.0
 11
936.254442
 21
780.465726
 31
0.0
  0
LINE
  5
167
100
AcDbEntity
  8
Calque_1
 62
1
100
AcDbLine
 10
936.254442
 20
780.465726
 30
0.0
 11
936.254442
 21
783.465720
 31
0.0
  0
LINE
  5
168
100
AcDbEntity
  8
Calque_1
 62
1
100
AcDbLine
 10
936.254442
 20
783.465720
 30
0.0
 11
946.354442
 21
783.465720
 31
0.0
  0
LINE
  5
169
100
AcDbEntity
  8
Calque_1
 62
1
100
AcDbLine
 10
946.354442
 20
783.465720
 30
0.0
 11
946.354442
 21
780.465726
 31
0.0
  0
LINE
  5
16a
100
AcDbEntity
  8
Calque_1
 62
1
100
AcDbLine
 10
946.354442
 20
780.465726
 30
0.0
 11
956.254459
 21
780.465726
 31
0.0
  0
LINE
  5
16b
100
AcDbEntity
  8
Calque_1
 62
1
100
AcDbLine
 10
956.254459
 20
780.465726
 30
0.0
 11
956.254459
 21
783.465720
 31
0.0
  0
LINE
  5
16c
100
AcDbEntity
  8
Calque_1
 62
1
100
AcDbLine
 10
956.254459
 20
783.465720
 30
0.0
 11
966.354458
 21
783.465720
 31
0.0
  0
LINE
  5
16d
100
AcDbEntity
  8
Calque_1
 62
1
100
AcDbLine
 10
966.354458
 20
783.465720
 30
0.0
 11
966.354458
 21
780.465726
 31
0.0
  0
LINE
  5
16e
100
AcDbEntity
  8
Calque_1
 62
1
100
AcDbLine
 10
966.354458
 20
780.465726
 30
0.0
 11
976.254447
 21
780.465726
 31
0.0
  0
LINE
  5
16f
100
AcDbEntity
  8
Calque_1
 62
1
100
AcDbLine
 10
976.254447
 20
780.465726
 30
0.0
 11
976.254447
 21
783.465720
 31
0.0
  0
LINE
  5
170
100
AcDbEntity
  8
Calque_1
 62
1
100
AcDbLine
 10
976.254447
 20
783.465720
 30
0.0
 11
986.354446
 21
783.465720
 31
0.0
  0
LINE
  5
171
100
AcDbEntity
  8
Calque_1
 62
1
100
AcDbLine
 10
986.354446
 20
783.465720
 30
0.0
 11
986.354446
 21
780.465726
 31
0.0
  0
LINE
  5
172
100
AcDbEntity
  8
Calque_1
 62
1
100
AcDbLine
 10
986.354446
 20
780.465726
 30
0.0
 11
996.254463
 21
780.465726
 31
0.0
  0
LINE
  5
173
100
AcDbEntity
  8
Calque_1
 62
1
100
AcDbLine
 10
996.254463
 20
780.465726
 30
0.0
 11
996.254463
 21
783.465720
 31
0.0
  0
LINE
  5
174
100
AcDbEntity
  8
Calque_1
 62
1
100
AcDbLine
 10
996.254463
 20
783.465720
 30
0.0
 11
1006.354463
 21
783.465720
 31
0.0
  0
LINE
  5
175
100
AcDbEntity
  8
Calque_1
 62
1
100
AcDbLine
 10
1006.354463
 20
783.465720
 30
0.0
 11
1006.354463
 21
780.465726
 31
0.0
  0
LINE
  5
176
100
AcDbEntity
  8
Calque_1
 62
1
100
AcDbLine
 10
1006.354463
 20
780.465726
 30
0.0
 11
1016.254452
 21
780.465726
 31
0.0
  0
LINE
  5
177
100
AcDbEntity
  8
Calque_1
 62
1
100
AcDbLine
 10
1016.254452
 20
780.465726
 30
0.0
 11
1016.254452
 21
783.465720
 31
0.0
  0
LINE
  5
178
100
AcDbEntity
  8
Calque_1
 62
1
100
AcDbLine
 10
1016.254452
 20
783.465720
 30
0.0
 11
1026.354451
 21
783.465720
 31
0.0
  0
LINE
  5
179
100
AcDbEntity
  8
Calque_1
 62
1
100
AcDbLine
 10
1026.354451
 20
783.465720
 30
0.0
 11
1026.354451
 21
780.465726
 31
0.0
  0
LINE
  5
17a
100
AcDbEntity
  8
Calque_1
 62
1
100
AcDbLine
 10
1026.354451
 20
780.465726
 30
0.0
 11
1036.254440
 21
780.465726
 31
0.0
  0
LINE
  5
17b
100
AcDbEntity
  8
Calque_1
 62
1
100
AcDbLine
 10
1036.254440
 20
780.465726
 30
0.0
 11
1036.254440
 21
783.465720
 31
0.0
  0
LINE
  5
17c
100
AcDbEntity
  8
Calque_1
 62
1
100
AcDbLine
 10
1036.254440
 20
783.465720
 30
0.0
 11
1046.304458
 21
783.465720
 31
0.0
  0
LINE
  5
17d
100
AcDbEntity
  8
Calque_1
 62
1
100
AcDbLine
 10
1046.304458
 20
783.465720
 30
0.0
 11
1046.304458
 21
773.261890
 31
0.0
  0
LINE
  5
17e
100
AcDbEntity
  8
Calque_1
 62
1
100
AcDbLine
 10
1046.304458
 20
773.261890
 30
0.0
 11
1043.304464
 21
773.261890
 31
0.0
  0
LINE
  5
17f
100
AcDbEntity
  8
Calque_1
 62
1
100
AcDbLine
 10
1043.304464
 20
773.261890
 30
0.0
 11
1043.304464
 21
763.208034
 31
0.0
  0
LINE
  5
180
100
AcDbEntity
  8
Calque_1
 62
1
100
AcDbLine
 10
1043.304464
 20
763.208034
 30
0.0
 11
1046.304458
 21
763.208034
 31
0.0
  0
LINE
  5
181
100
AcDbEntity
  8
Calque_1
 62
1
100
AcDbLine
 10
1046.304458
 20
763.208034
 30
0.0
 11
1046.304458
 21
752.954195
 31
0.0
  0
LINE
  5
182
100
AcDbEntity
  8
Calque_1
 62
1
100
AcDbLine
 10
1046.304458
 20
752.954195
 30
0.0
 11
1043.304464
 21
752.954195
 31
0.0
  0
LINE
  5
183
100
AcDbEntity
  8
Calque_1
 62
1
100
AcDbLine
 10
1043.304464
 20
752.954195
 30
0.0
 11
1043.304464
 21
742.900339
 31
0.0
  0
LINE
  5
184
100
AcDbEntity
  8
Calque_1
 62
1
100
AcDbLine
 10
1043.304464
 20
742.900339
 30
0.0
 11
1046.304458
 21
742.900339
 31
0.0
  0
LINE
  5
185
100
AcDbEntity
  8
Calque_1
 62
1
100
AcDbLine
 10
1046.304458
 20
742.900339
 30
0.0
 11
1046.304458
 21
732.646500
 31
0.0
  0
LINE
  5
186
100
AcDbEntity
  8
Calque_1
 62
1
100
AcDbLine
 10
1046.304458
 20
732.646500
 30
0.0
 11
1043.304464
 21
732.646500
 31
0.0
  0
LINE
  5
187
100
AcDbEntity
  8
Calque_1
 62
1
100
AcDbLine
 10
1043.304464
 20
732.646500
 30
0.0
 11
1043.304464
 21
722.592644
 31
0.0
  0
LINE
  5
188
100
AcDbEntity
  8
Calque_1
 62
1
100
AcDbLine
 10
1043.304464
 20
722.592644
 30
0.0
 11
1046.304458
 21
722.592644
 31
0.0
  0
LINE
  5
189
100
AcDbEntity
  8
Calque_1
 62
1
100
AcDbLine
 10
1046.304458
 20
722.592644
 30
0.0
 11
1046.304458
 21
712.338805
 31
0.0
  0
LINE
  5
18a
100
AcDbEntity
  8
Calque_1
 62
1
100
AcDbLine
 10
1046.304458
 20
712.338805
 30
0.0
 11
1043.304464
 21
712.338805
 31
0.0
  0
LINE
  5
18b
100
AcDbEntity
  8
Calque_1
 62
1
100
AcDbLine
 10
1043.304464
 20
712.338805
 30
0.0
 11
1043.304464
 21
702.284949
 31
0.0
  0
LINE
  5
18c
100
AcDbEntity
  8
Calque_1
 62
1
100
AcDbLine
 10
1043.304464
 20
702.284949
 30
0.0
 11
1046.304458
 21
702.284949
 31
0.0
  0
LINE
  5
18d
100
AcDbEntity
  8
Calque_1
 62
1
100
AcDbLine
 10
1046.304458
 20
702.284949
 30
0.0
 11
1046.304458
 21
692.031110
 31
0.0
  0
LINE
  5
18e
100
AcDbEntity
  8
Calque_1
 62
1
100
AcDbLine
 10
1046.304458
 20
692.031110
 30
0.0
 11
1043.304464
 21
692.031110
 31
0.0
  0
LINE
  5
18f
100
AcDbEntity
  8
Calque_1
 62
1
100
AcDbLine
 10
1043.304464
 20
692.031110
 30
0.0
 11
1043.304464
 21
681.977282
 31
0.0
  0
LINE
  5
190
100
AcDbEntity
  8
Calque_1
 62
1
100
AcDbLine
 10
1043.304464
 20
681.977282
 30
0.0
 11
1046.304458
 21
681.977282
 31
0.0
  0
LINE
  5
191
100
AcDbEntity
  8
Calque_1
 62
1
100
AcDbLine
 10
1046.304458
 20
681.977282
 30
0.0
 11
1046.304458
 21
671.723415
 31
0.0
  0
LINE
  5
192
100
AcDbEntity
  8
Calque_1
 62
1
100
AcDbLine
 10
1046.304458
 20
671.723415
 30
0.0
 11
1043.304464
 21
671.723415
 31
0.0
  0
LINE
  5
193
100
AcDbEntity
  8
Calque_1
 62
1
100
AcDbLine
 10
1043.304464
 20
671.723415
 30
0.0
 11
1043.304464
 21
661.669587
 31
0.0
  0
LINE
  5
194
100
AcDbEntity
  8
Calque_1
 62
1
100
AcDbLine
 10
1043.304464
 20
661.669587
 30
0.0
 11
1046.304458
 21
661.669587
 31
0.0
  0
LINE
  5
195
100
AcDbEntity
  8
Calque_1
 62
1
100
AcDbLine
 10
1046.304458
 20
661.669587
 30
0.0
 11
1046.304458
 21
651.415720
 31
0.0
  0
LINE
  5
196
100
AcDbEntity
  8
Calque_1
 62
1
100
AcDbLine
 10
1046.304458
 20
651.415720
 30
0.0
 11
1043.304464
 21
651.415720
 31
0.0
  0
LINE
  5
197
100
AcDbEntity
  8
Calque_1
 62
1
100
AcDbLine
 10
1043.304464
 20
651.415720
 30
0.0
 11
1043.304464
 21
641.361892
 31
0.0
  0
LINE
  5
198
100
AcDbEntity
  8
Calque_1
 62
1
100
AcDbLine
 10
1043.304464
 20
641.361892
 30
0.0
 11
1046.304458
 21
641.361892
 31
0.0
  0
LINE
  5
199
100
AcDbEntity
  8
Calque_1
 62
1
100
AcDbLine
 10
1046.304458
 20
641.361892
 30
0.0
 11
1046.304458
 21
631.108025
 31
0.0
  0
LINE
  5
19a
100
AcDbEntity
  8
Calque_1
 62
1
100
AcDbLine
 10
1046.304458
 20
631.108025
 30
0.0
 11
1043.304464
 21
631.108025
 31
0.0
  0
LINE
  5
19b
100
AcDbEntity
  8
Calque_1
 62
1
100
AcDbLine
 10
1043.304464
 20
631.108025
 30
0.0
 11
1043.304464
 21
621.054197
 31
0.0
  0
LINE
  5
19c
100
AcDbEntity
  8
Calque_1
 62
1
100
AcDbLine
 10
1043.304464
 20
621.054197
 30
0.0
 11
1046.304458
 21
621.054197
 31
0.0
  0
LINE
  5
19d
100
AcDbEntity
  8
Calque_1
 62
1
100
AcDbLine
 10
1046.304458
 20
621.054197
 30
0.0
 11
1046.304458
 21
610.800358
 31
0.0
  0
LINE
  5
19e
100
AcDbEntity
  8
Calque_1
 62
1
100
AcDbLine
 10
1046.304458
 20
610.800358
 30
0.0
 11
1043.304464
 21
610.800358
 31
0.0
  0
LINE
  5
19f
100
AcDbEntity
  8
Calque_1
 62
1
100
AcDbLine
 10
1043.304464
 20
610.800358
 30
0.0
 11
1043.304464
 21
600.746502
 31
0.0
  0
LINE
  5
1a0
100
AcDbEntity
  8
Calque_1
 62
1
100
AcDbLine
 10
1043.304464
 20
600.746502
 30
0.0
 11
1046.304458
 21
600.746502
 31
0.0
  0
LINE
  5
1a1
100
AcDbEntity
  8
Calque_1
 62
1
100
AcDbLine
 10
1046.304458
 20
600.746502
 30
0.0
 11
1046.304458
 21
590.492663
 31
0.0
  0
LINE
  5
1a2
100
AcDbEntity
  8
Calque_1
 62
1
100
AcDbLine
 10
1046.304458
 20
590.492663
 30
0.0
 11
1043.304464
 21
590.492663
 31
0.0
  0
LINE
  5
1a3
100
AcDbEntity
  8
Calque_1
 62
1
100
AcDbLine
 10
1043.304464
 20
590.492663
 30
0.0
 11
1043.304464
 21
580.438806
 31
0.0
  0
LINE
  5
1a4
100
AcDbEntity
  8
Calque_1
 62
1
100
AcDbLine
 10
1043.304464
 20
580.438806
 30
0.0
 11
1046.304458
 21
580.438806
 31
0.0
  0
LINE
  5
1a5
100
AcDbEntity
  8
Calque_1
 62
1
100
AcDbLine
 10
1046.304458
 20
580.438806
 30
0.0
 11
1046.304458
 21
570.184968
 31
0.0
  0
LINE
  5
1a6
100
AcDbEntity
  8
Calque_1
 62
1
100
AcDbLine
 10
1046.304458
 20
570.184968
 30
0.0
 11
1043.304464
 21
570.184968
 31
0.0
  0
LINE
  5
1a7
100
AcDbEntity
  8
Calque_1
 62
1
100
AcDbLine
 10
1043.304464
 20
570.184968
 30
0.0
 11
1043.304464
 21
560.131120
 31
0.0
  0
LINE
  5
1a8
100
AcDbEntity
  8
Calque_1
 62
1
100
AcDbLine
 10
1043.304464
 20
560.131120
 30
0.0
 11
1046.304458
 21
560.131120
 31
0.0
  0
LINE
  5
1a9
100
AcDbEntity
  8
Calque_1
 62
1
100
AcDbLine
 10
1046.304458
 20
560.131120
 30
0.0
 11
1046.304458
 21
549.877275
 31
0.0
  0
LINE
  5
1aa
100
AcDbEntity
  8
Calque_1
 62
1
100
AcDbLine
 10
1046.304458
 20
549.877275
 30
0.0
 11
1043.304464
 21
549.877275
 31
0.0
  0
LINE
  5
1ab
100
AcDbEntity
  8
Calque_1
 62
1
100
AcDbLine
 10
1043.304464
 20
549.877275
 30
0.0
 11
1043.304464
 21
539.823430
 31
0.0
  0
LINE
  5
1ac
100
AcDbEntity
  8
Calque_1
 62
1
100
AcDbLine
 10
1043.304464
 20
539.823430
 30
0.0
 11
1046.304458
 21
539.823430
 31
0.0
  0
LINE
  5
1ad
100
AcDbEntity
  8
Calque_1
 62
1
100
AcDbLine
 10
1046.304458
 20
539.823430
 30
0.0
 11
1046.304458
 21
529.569583
 31
0.0
  0
LINE
  5
1ae
100
AcDbEntity
  8
Calque_1
 62
1
100
AcDbLine
 10
1046.304458
 20
529.569583
 30
0.0
 11
1043.304464
 21
529.569583
 31
0.0
  0
LINE
  5
1af
100
AcDbEntity
  8
Calque_1
 62
1
100
AcDbLine
 10
1043.304464
 20
529.569583
 30
0.0
 11
1043.304464
 21
519.515738
 31
0.0
  0
LINE
  5
1b0
100
AcDbEntity
  8
Calque_1
 62
1
100
AcDbLine
 10
1043.304464
 20
519.515738
 30
0.0
 11
1046.304458
 21
519.515738
 31
0.0
  0
LINE
  5
1b1
100
AcDbEntity
  8
Calque_1
 62
1
100
AcDbLine
 10
1046.304458
 20
519.515738
 30
0.0
 11
1046.304458
 21
509.261891
 31
0.0
  0
LINE
  5
1b2
100
AcDbEntity
  8
Calque_1
 62
1
100
AcDbLine
 10
1046.304458
 20
509.261891
 30
0.0
 11
1043.304464
 21
509.261891
 31
0.0
  0
LINE
  5
1b3
100
AcDbEntity
  8
Calque_1
 62
1
100
AcDbLine
 10
1043.304464
 20
509.261891
 30
0.0
 11
1043.304464
 21
499.208043
 31
0.0
  0
LINE
  5
1b4
100
AcDbEntity
  8
Calque_1
 62
1
100
AcDbLine
 10
1043.304464
 20
499.208043
 30
0.0
 11
1046.304458
 21
499.208043
 31
0.0
  0
LINE
  5
1b5
100
AcDbEntity
  8
Calque_1
 62
1
100
AcDbLine
 10
1046.304458
 20
499.208043
 30
0.0
 11
1046.304458
 21
488.954198
 31
0.0
  0
LINE
  5
1b6
100
AcDbEntity
  8
Calque_1
 62
1
100
AcDbLine
 10
1046.304458
 20
488.954198
 30
0.0
 11
1043.304464
 21
488.954198
 31
0.0
  0
LINE
  5
1b7
100
AcDbEntity
  8
Calque_1
 62
1
100
AcDbLine
 10
1043.304464
 20
488.954198
 30
0.0
 11
1043.304464
 21
478.900351
 31
0.0
  0
LINE
  5
1b8
100
AcDbEntity
  8
Calque_1
 62
1
100
AcDbLine
 10
1043.304464
 20
478.900351
 30
0.0
 11
1046.304458
 21
478.900351
 31
0.0
  0
LINE
  5
1b9
100
AcDbEntity
  8
Calque_1
 62
1
100
AcDbLine
 10
1046.304458
 20
478.900351
 30
0.0
 11
1046.304458
 21
468.646506
 31
0.0
  0
LINE
  5
1ba
100
AcDbEntity
  8
Calque_1
 62
1
100
AcDbLine
 10
1046.304458
 20
468.646506
 30
0.0
 11
1043.304464
 21
468.646506
 31
0.0
  0
LINE
  5
1bb
100
AcDbEntity
  8
Calque_1
 62
1
100
AcDbLine
 10
1043.304464
 20
468.646506
 30
0.0
 11
1043.304464
 21
458.592658
 31
0.0
  0
LINE
  5
1bc
100
AcDbEntity
  8
Calque_1
 62
1
100
AcDbLine
 10
1043.304464
 20
458.592658
 30
0.0
 11
1046.304458
 21
458.592658
 31
0.0
  0
LINE
  5
1bd
100
AcDbEntity
  8
Calque_1
 62
1
100
AcDbLine
 10
1046.304458
 20
458.592658
 30
0.0
 11
1046.304458
 21
448.338814
 31
0.0
  0
LINE
  5
1be
100
AcDbEntity
  8
Calque_1
 62
1
100
AcDbLine
 10
1046.304458
 20
448.338814
 30
0.0
 11
1043.304464
 21
448.338814
 31
0.0
  0
LINE
  5
1bf
100
AcDbEntity
  8
Calque_1
 62
1
100
AcDbLine
 10
1043.304464
 20
448.338814
 30
0.0
 11
1043.304464
 21
438.284966
 31
0.0
  0
LINE
  5
1c0
100
AcDbEntity
  8
Calque_1
 62
1
100
AcDbLine
 10
1043.304464
 20
438.284966
 30
0.0
 11
1046.304458
 21
438.284966
 31
0.0
  0
LINE
  5
1c1
100
AcDbEntity
  8
Calque_1
 62
1
100
AcDbLine
 10
1046.304458
 20
438.284966
 30
0.0
 11
1046.304458
 21
428.031122
 31
0.0
  0
LINE
  5
1c2
100
AcDbEntity
  8
Calque_1
 62
1
100
AcDbLine
 10
1046.304458
 20
428.031122
 30
0.0
 11
1043.304464
 21
428.031122
 31
0.0
  0
LINE
  5
1c3
100
AcDbEntity
  8
Calque_1
 62
1
100
AcDbLine
 10
1043.304464
 20
428.031122
 30
0.0
 11
1043.304464
 21
417.977274
 31
0.0
  0
LINE
  5
1c4
100
AcDbEntity
  8
Calque_1
 62
1
100
AcDbLine
 10
1043.304464
 20
417.977274
 30
0.0
 11
1046.304458
 21
417.977274
 31
0.0
  0
LINE
  5
1c5
100
AcDbEntity
  8
Calque_1
 62
1
100
AcDbLine
 10
1046.304458
 20
417.977274
 30
0.0
 11
1046.304458
 21
407.723429
 31
0.0
  0
LINE
  5
1c6
100
AcDbEntity
  8
Calque_1
 62
1
100
AcDbLine
 10
1046.304458
 20
407.723429
 30
0.0
 11
1043.304464
 21
407.723429
 31
0.0
  0
LINE
  5
1c7
100
AcDbEntity
  8
Calque_1
 62
1
100
AcDbLine
 10
1043.304464
 20
407.723429
 30
0.0
 11
1043.304464
 21
397.669581
 31
0.0
  0
LINE
  5
1c8
100
AcDbEntity
  8
Calque_1
 62
1
100
AcDbLine
 10
1043.304464
 20
397.669581
 30
0.0
 11
1046.304458
 21
397.669581
 31
0.0
  0
LINE
  5
1c9
100
AcDbEntity
  8
Calque_1
 62
1
100
AcDbLine
 10
1046.304458
 20
397.669581
 30
0.0
 11
1046.304458
 21
387.415737
 31
0.0
  0
LINE
  5
1ca
100
AcDbEntity
  8
Calque_1
 62
1
100
AcDbLine
 10
1046.304458
 20
387.415737
 30
0.0
 11
1043.304464
 21
387.415737
 31
0.0
  0
LINE
  5
1cb
100
AcDbEntity
  8
Calque_1
 62
1
100
AcDbLine
 10
1043.304464
 20
387.415737
 30
0.0
 11
1043.304464
 21
377.361889
 31
0.0
  0
LINE
  5
1cc
100
AcDbEntity
  8
Calque_1
 62
1
100
AcDbLine
 10
1043.304464
 20
377.361889
 30
0.0
 11
1046.304458
 21
377.361889
 31
0.0
  0
LINE
  5
1cd
100
AcDbEntity
  8
Calque_1
 62
1
100
AcDbLine
 10
1046.304458
 20
377.361889
 30
0.0
 11
1046.304458
 21
367.108045
 31
0.0
  0
LINE
  5
1ce
100
AcDbEntity
  8
Calque_1
 62
1
100
AcDbLine
 10
1046.304458
 20
367.108045
 30
0.0
 11
1043.304464
 21
367.108045
 31
0.0
  0
LINE
  5
1cf
100
AcDbEntity
  8
Calque_1
 62
1
100
AcDbLine
 10
1043.304464
 20
367.108045
 30
0.0
 11
1043.304464
 21
357.054197
 31
0.0
  0
LINE
  5
1d0
100
AcDbEntity
  8
Calque_1
 62
1
100
AcDbLine
 10
1043.304464
 20
357.054197
 30
0.0
 11
1046.304458
 21
357.054197
 31
0.0
  0
LINE
  5
1d1
100
AcDbEntity
  8
Calque_1
 62
1
100
AcDbLine
 10
1046.304458
 20
357.054197
 30
0.0
 11
1046.304458
 21
346.800352
 31
0.0
  0
LINE
  5
1d2
100
AcDbEntity
  8
Calque_1
 62
1
100
AcDbLine
 10
1046.304458
 20
346.800352
 30
0.0
 11
1043.304464
 21
346.800352
 31
0.0
  0
LINE
  5
1d3
100
AcDbEntity
  8
Calque_1
 62
1
100
AcDbLine
 10
1043.304464
 20
346.800352
 30
0.0
 11
1043.304464
 21
336.746505
 31
0.0
  0
LINE
  5
1d4
100
AcDbEntity
  8
Calque_1
 62
1
100
AcDbLine
 10
1043.304464
 20
336.746505
 30
0.0
 11
1046.304458
 21
336.746505
 31
0.0
  0
LINE
  5
1d5
100
AcDbEntity
  8
Calque_1
 62
1
100
AcDbLine
 10
1046.304458
 20
336.746505
 30
0.0
 11
1046.304458
 21
326.492660
 31
0.0
  0
LINE
  5
1d6
100
AcDbEntity
  8
Calque_1
 62
1
100
AcDbLine
 10
1046.304458
 20
326.492660
 30
0.0
 11
1043.304464
 21
326.492660
 31
0.0
  0
LINE
  5
1d7
100
AcDbEntity
  8
Calque_1
 62
1
100
AcDbLine
 10
1043.304464
 20
326.492660
 30
0.0
 11
1043.304464
 21
316.438814
 31
0.0
  0
LINE
  5
1d8
100
AcDbEntity
  8
Calque_1
 62
1
100
AcDbLine
 10
1043.304464
 20
316.438814
 30
0.0
 11
1046.304458
 21
316.438814
 31
0.0
  0
LINE
  5
1d9
100
AcDbEntity
  8
Calque_1
 62
1
100
AcDbLine
 10
1046.304458
 20
316.438814
 30
0.0
 11
1046.304458
 21
306.184969
 31
0.0
  0
LINE
  5
1da
100
AcDbEntity
  8
Calque_1
 62
1
100
AcDbLine
 10
1046.304458
 20
306.184969
 30
0.0
 11
1043.304464
 21
306.184969
 31
0.0
  0
LINE
  5
1db
100
AcDbEntity
  8
Calque_1
 62
1
100
AcDbLine
 10
1043.304464
 20
306.184969
 30
0.0
 11
1043.304464
 21
296.131122
 31
0.0
  0
LINE
  5
1dc
100
AcDbEntity
  8
Calque_1
 62
1
100
AcDbLine
 10
1043.304464
 20
296.131122
 30
0.0
 11
1046.304458
 21
296.131122
 31
0.0
  0
LINE
  5
1dd
100
AcDbEntity
  8
Calque_1
 62
1
100
AcDbLine
 10
1046.304458
 20
296.131122
 30
0.0
 11
1046.304458
 21
285.877277
 31
0.0
  0
LINE
  5
1de
100
AcDbEntity
  8
Calque_1
 62
1
100
AcDbLine
 10
1046.304458
 20
285.877277
 30
0.0
 11
1043.304464
 21
285.877277
 31
0.0
  0
LINE
  5
1df
100
AcDbEntity
  8
Calque_1
 62
1
100
AcDbLine
 10
1043.304464
 20
285.877277
 30
0.0
 11
1043.304464
 21
275.823429
 31
0.0
  0
LINE
  5
1e0
100
AcDbEntity
  8
Calque_1
 62
1
100
AcDbLine
 10
1043.304464
 20
275.823429
 30
0.0
 11
1046.304458
 21
275.823429
 31
0.0
  0
LINE
  5
1e1
100
AcDbEntity
  8
Calque_1
 62
1
100
AcDbLine
 10
1046.304458
 20
275.823429
 30
0.0
 11
1046.304458
 21
265.569583
 31
0.0
  0
LINE
  5
1e2
100
AcDbEntity
  8
Calque_1
 62
1
100
AcDbLine
 10
1046.304458
 20
265.569583
 30
0.0
 11
1043.304464
 21
265.569583
 31
0.0
  0
LINE
  5
1e3
100
AcDbEntity
  8
Calque_1
 62
1
100
AcDbLine
 10
1043.304464
 20
265.569583
 30
0.0
 11
1043.304464
 21
255.515735
 31
0.0
  0
LINE
  5
1e4
100
AcDbEntity
  8
Calque_1
 62
1
100
AcDbLine
 10
1043.304464
 20
255.515735
 30
0.0
 11
1046.304458
 21
255.515735
 31
0.0
  0
LINE
  5
1e5
100
AcDbEntity
  8
Calque_1
 62
1
100
AcDbLine
 10
1046.304458
 20
255.515735
 30
0.0
 11
1046.304458
 21
245.261885
 31
0.0
  0
LINE
  5
1e6
100
AcDbEntity
  8
Calque_1
 62
1
100
AcDbLine
 10
1046.304458
 20
245.261885
 30
0.0
 11
1043.304464
 21
245.261885
 31
0.0
  0
LINE
  5
1e7
100
AcDbEntity
  8
Calque_1
 62
1
100
AcDbLine
 10
1043.304464
 20
245.261885
 30
0.0
 11
1043.304464
 21
235.208057
 31
0.0
  0
LINE
  5
1e8
100
AcDbEntity
  8
Calque_1
 62
1
100
AcDbLine
 10
1043.304464
 20
235.208057
 30
0.0
 11
1046.304458
 21
235.208057
 31
0.0
  0
LINE
  5
1e9
100
AcDbEntity
  8
Calque_1
 62
1
100
AcDbLine
 10
1046.304458
 20
235.208057
 30
0.0
 11
1046.304458
 21
224.954190
 31
0.0
  0
LINE
  5
1ea
100
AcDbEntity
  8
Calque_1
 62
1
100
AcDbLine
 10
1046.304458
 20
224.954190
 30
0.0
 11
1043.304464
 21
224.954190
 31
0.0
  0
LINE
  5
1eb
100
AcDbEntity
  8
Calque_1
 62
1
100
AcDbLine
 10
1043.304464
 20
224.954190
 30
0.0
 11
1043.304464
 21
214.900362
 31
0.0
  0
LINE
  5
1ec
100
AcDbEntity
  8
Calque_1
 62
1
100
AcDbLine
 10
1043.304464
 20
214.900362
 30
0.0
 11
1046.304458
 21
214.900362
 31
0.0
  0
LINE
  5
1ed
100
AcDbEntity
  8
Calque_1
 62
1
100
AcDbLine
 10
1046.304458
 20
214.900362
 30
0.0
 11
1046.304458
 21
204.646495
 31
0.0
  0
LINE
  5
1ee
100
AcDbEntity
  8
Calque_1
 62
1
100
AcDbLine
 10
1046.304458
 20
204.646495
 30
0.0
 11
1043.304464
 21
204.646495
 31
0.0
  0
LINE
  5
1ef
100
AcDbEntity
  8
Calque_1
 62
1
100
AcDbLine
 10
1043.304464
 20
204.646495
 30
0.0
 11
1043.304464
 21
194.592667
 31
0.0
  0
LINE
  5
1f0
100
AcDbEntity
  8
Calque_1
 62
1
100
AcDbLine
 10
1043.304464
 20
194.592667
 30
0.0
 11
1046.304458
 21
194.592667
 31
0.0
  0
LINE
  5
1f1
100
AcDbEntity
  8
Calque_1
 62
1
100
AcDbLine
 10
1046.304458
 20
194.592667
 30
0.0
 11
1046.304458
 21
184.338800
 31
0.0
  0
LINE
  5
1f2
100
AcDbEntity
  8
Calque_1
 62
1
100
AcDbLine
 10
1046.304458
 20
184.338800
 30
0.0
 11
1043.304464
 21
184.338800
 31
0.0
  0
LINE
  5
1f3
100
AcDbEntity
  8
Calque_1
 62
1
100
AcDbLine
 10
1043.304464
 20
184.338800
 30
0.0
 11
1043.304464
 21
174.284972
 31
0.0
  0
LINE
  5
1f4
100
AcDbEntity
  8
Calque_1
 62
1
100
AcDbLine
 10
1043.304464
 20
174.284972
 30
0.0
 11
1046.304458
 21
174.284972
 31
0.0
  0
LINE
  5
1f5
100
AcDbEntity
  8
Calque_1
 62
1
100
AcDbLine
 10
1046.304458
 20
174.284972
 30
0.0
 11
1046.304458
 21
164.031133
 31
0.0
  0
LINE
  5
1f6
100
AcDbEntity
  8
Calque_1
 62
1
100
AcDbLine
 10
1046.304458
 20
164.031133
 30
0.0
 11
1043.304464
 21
164.031133
 31
0.0
  0
LINE
  5
1f7
100
AcDbEntity
  8
Calque_1
 62
1
100
AcDbLine
 10
1043.304464
 20
164.031133
 30
0.0
 11
1043.304464
 21
153.977277
 31
0.0
  0
LINE
  5
1f8
100
AcDbEntity
  8
Calque_1
 62
1
100
AcDbLine
 10
1043.304464
 20
153.977277
 30
0.0
 11
1046.304458
 21
153.977277
 31
0.0
  0
LINE
  5
1f9
100
AcDbEntity
  8
Calque_1
 62
1
100
AcDbLine
 10
1046.304458
 20
153.977277
 30
0.0
 11
1046.304458
 21
143.723438
 31
0.0
  0
LINE
  5
1fa
100
AcDbEntity
  8
Calque_1
 62
1
100
AcDbLine
 10
1046.304458
 20
143.723438
 30
0.0
 11
1043.304464
 21
143.723438
 31
0.0
  0
LINE
  5
1fb
100
AcDbEntity
  8
Calque_1
 62
1
100
AcDbLine
 10
1043.304464
 20
143.723438
 30
0.0
 11
1043.304464
 21
133.669582
 31
0.0
  0
LINE
  5
1fc
100
AcDbEntity
  8
Calque_1
 62
1
100
AcDbLine
 10
1043.304464
 20
133.669582
 30
0.0
 11
1046.304458
 21
133.669582
 31
0.0
  0
LINE
  5
1fd
100
AcDbEntity
  8
Calque_1
 62
1
100
AcDbLine
 10
1046.304458
 20
133.669582
 30
0.0
 11
1046.304458
 21
123.465724
 31
0.0
  0
LINE
  5
1fe
100
AcDbEntity
  8
Calque_1
 62
1
100
AcDbLine
 10
1046.304458
 20
123.465724
 30
0.0
 11
1036.254440
 21
123.465724
 31
0.0
  0
LINE
  5
1ff
100
AcDbEntity
  8
Calque_1
 62
1
100
AcDbLine
 10
1036.254440
 20
123.465724
 30
0.0
 11
1036.254440
 21
126.465747
 31
0.0
  0
LINE
  5
200
100
AcDbEntity
  8
Calque_1
 62
1
100
AcDbLine
 10
1036.254440
 20
126.465747
 30
0.0
 11
1026.354451
 21
126.465747
 31
0.0
  0
LINE
  5
201
100
AcDbEntity
  8
Calque_1
 62
1
100
AcDbLine
 10
1026.354451
 20
126.465747
 30
0.0
 11
1026.354451
 21
123.465724
 31
0.0
  0
LINE
  5
202
100
AcDbEntity
  8
Calque_1
 62
1
100
AcDbLine
 10
1026.354451
 20
123.465724
 30
0.0
 11
1016.254452
 21
123.465724
 31
0.0
  0
LINE
  5
203
100
AcDbEntity
  8
Calque_1
 62
1
100
AcDbLine
 10
1016.254452
 20
123.465724
 30
0.0
 11
1016.254452
 21
126.465747
 31
0.0
  0
LINE
  5
204
100
AcDbEntity
  8
Calque_1
 62
1
100
AcDbLine
 10
1016.254452
 20
126.465747
 30
0.0
 11
1006.354463
 21
126.465747
 31
0.0
  0
LINE
  5
205
100
AcDbEntity
  8
Calque_1
 62
1
100
AcDbLine
 10
1006.354463
 20
126.465747
 30
0.0
 11
1006.354463
 21
123.465724
 31
0.0
  0
LINE
  5
206
100
AcDbEntity
  8
Calque_1
 62
1
100
AcDbLine
 10
1006.354463
 20
123.465724
 30
0.0
 11
996.254463
 21
123.465724
 31
0.0
  0
LINE
  5
207
100
AcDbEntity
  8
Calque_1
 62
1
100
AcDbLine
 10
996.254463
 20
123.465724
 30
0.0
 11
996.254463
 21
126.465747
 31
0.0
  0
LINE
  5
208
100
AcDbEntity
  8
Calque_1
 62
1
100
AcDbLine
 10
996.254463
 20
126.465747
 30
0.0
 11
986.354446
 21
126.465747
 31
0.0
  0
LINE
  5
209
100
AcDbEntity
  8
Calque_1
 62
1
100
AcDbLine
 10
986.354446
 20
126.465747
 30
0.0
 11
986.354446
 21
123.465724
 31
0.0
  0
LINE
  5
20a
100
AcDbEntity
  8
Calque_1
 62
1
100
AcDbLine
 10
986.354446
 20
123.465724
 30
0.0
 11
976.254447
 21
123.465724
 31
0.0
  0
LINE
  5
20b
100
AcDbEntity
  8
Calque_1
 62
1
100
AcDbLine
 10
976.254447
 20
123.465724
 30
0.0
 11
976.254447
 21
126.465747
 31
0.0
  0
LINE
  5
20c
100
AcDbEntity
  8
Calque_1
 62
1
100
AcDbLine
 10
976.254447
 20
126.465747
 30
0.0
 11
966.354458
 21
126.465747
 31
0.0
  0
LINE
  5
20d
100
AcDbEntity
  8
Calque_1
 62
1
100
AcDbLine
 10
966.354458
 20
126.465747
 30
0.0
 11
966.354458
 21
123.465724
 31
0.0
  0
LINE
  5
20e
100
AcDbEntity
  8
Calque_1
 62
1
100
AcDbLine
 10
966.354458
 20
123.465724
 30
0.0
 11
956.254459
 21
123.465724
 31
0.0
  0
LINE
  5
20f
100
AcDbEntity
  8
Calque_1
 62
1
100
AcDbLine
 10
956.254459
 20
123.465724
 30
0.0
 11
956.254459
 21
126.465747
 31
0.0
  0
LINE
  5
210
100
AcDbEntity
  8
Calque_1
 62
1
100
AcDbLine
 10
956.254459
 20
126.465747
 30
0.0
 11
946.354442
 21
126.465747
 31
0.0
  0
LINE
  5
211
100
AcDbEntity
  8
Calque_1
 62
1
100
AcDbLine
 10
946.354442
 20
126.465747
 30
0.0
 11
946.354442
 21
123.465724
 31
0.0
  0
LINE
  5
212
100
AcDbEntity
  8
Calque_1
 62
1
100
AcDbLine
 10
946.354442
 20
123.465724
 30
0.0
 11
936.254442
 21
123.465724
 31
0.0
  0
LINE
  5
213
100
AcDbEntity
  8
Calque_1
 62
1
100
AcDbLine
 10
936.254442
 20
123.465724
 30
0.0
 11
936.254442
 21
126.465747
 31
0.0
  0
LINE
  5
214
100
AcDbEntity
  8
Calque_1
 62
1
100
AcDbLine
 10
936.254442
 20
126.465747
 30
0.0
 11
926.354454
 21
126.465747
 31
0.0
  0
LINE
  5
215
100
AcDbEntity
  8
Calque_1
 62
1
100
AcDbLine
 10
926.354454
 20
126.465747
 30
0.0
 11
926.354454
 21
123.465724
 31
0.0
  0
LINE
  5
216
100
AcDbEntity
  8
Calque_1
 62
1
100
AcDbLine
 10
926.354454
 20
123.465724
 30
0.0
 11
916.254454
 21
123.465724
 31
0.0
  0
LINE
  5
217
100
AcDbEntity
  8
Calque_1
 62
1
100
AcDbLine
 10
916.254454
 20
123.465724
 30
0.0
 11
916.254454
 21
126.465747
 31
0.0
  0
LINE
  5
218
100
AcDbEntity
  8
Calque_1
 62
1
100
AcDbLine
 10
916.254454
 20
126.465747
 30
0.0
 11
906.354465
 21
126.465747
 31
0.0
  0
LINE
  5
219
100
AcDbEntity
  8
Calque_1
 62
1
100
AcDbLine
 10
906.354465
 20
126.465747
 30
0.0
 11
906.354465
 21
123.465724
 31
0.0
  0
LINE
  5
21a
100
AcDbEntity
  8
Calque_1
 62
1
100
AcDbLine
 10
906.354465
 20
123.465724
 30
0.0
 11
896.254466
 21
123.465724
 31
0.0
  0
LINE
  5
21b
100
AcDbEntity
  8
Calque_1
 62
1
100
AcDbLine
 10
896.254466
 20
123.465724
 30
0.0
 11
896.254466
 21
126.465747
 31
0.0
  0
LINE
  5
21c
100
AcDbEntity
  8
Calque_1
 62
1
100
AcDbLine
 10
896.254466
 20
126.465747
 30
0.0
 11
886.354449
 21
126.465747
 31
0.0
  0
LINE
  5
21d
100
AcDbEntity
  8
Calque_1
 62
1
100
AcDbLine
 10
886.354449
 20
126.465747
 30
0.0
 11
886.354449
 21
123.465724
 31
0.0
  0
LINE
  5
21e
100
AcDbEntity
  8
Calque_1
 62
1
100
AcDbLine
 10
886.354449
 20
123.465724
 30
0.0
 11
876.254449
 21
123.465724
 31
0.0
  0
LINE
  5
21f
100
AcDbEntity
  8
Calque_1
 62
1
100
AcDbLine
 10
876.254449
 20
123.465724
 30
0.0
 11
876.254449
 21
126.465747
 31
0.0
  0
LINE
  5
220
100
AcDbEntity
  8
Calque_1
 62
1
100
AcDbLine
 10
876.254449
 20
126.465747
 30
0.0
 11
866.354461
 21
126.465747
 31
0.0
  0
LINE
  5
221
100
AcDbEntity
  8
Calque_1
 62
1
100
AcDbLine
 10
866.354461
 20
126.465747
 30
0.0
 11
866.354461
 21
123.465724
 31
0.0
  0
LINE
  5
222
100
AcDbEntity
  8
Calque_1
 62
1
100
AcDbLine
 10
866.354461
 20
123.465724
 30
0.0
 11
856.254461
 21
123.465724
 31
0.0
  0
LINE
  5
223
100
AcDbEntity
  8
Calque_1
 62
1
100
AcDbLine
 10
856.254461
 20
123.465724
 30
0.0
 11
856.254461
 21
126.465747
 31
0.0
  0
LINE
  5
224
100
AcDbEntity
  8
Calque_1
 62
1
100
AcDbLine
 10
856.254461
 20
126.465747
 30
0.0
 11
846.354444
 21
126.465747
 31
0.0
  0
LINE
  5
225
100
AcDbEntity
  8
Calque_1
 62
1
100
AcDbLine
 10
846.354444
 20
126.465747
 30
0.0
 11
846.354444
 21
123.465724
 31
0.0
  0
LINE
  5
226
100
AcDbEntity
  8
Calque_1
 62
1
100
AcDbLine
 10
846.354444
 20
123.465724
 30
0.0
 11
836.254445
 21
123.465724
 31
0.0
  0
LINE
  5
227
100
AcDbEntity
  8
Calque_1
 62
1
100
AcDbLine
 10
836.254445
 20
123.465724
 30
0.0
 11
836.254445
 21
126.465747
 31
0.0
  0
LINE
  5
228
100
AcDbEntity
  8
Calque_1
 62
1
100
AcDbLine
 10
836.254445
 20
126.465747
 30
0.0
 11
826.354456
 21
126.465747
 31
0.0
  0
LINE
  5
229
100
AcDbEntity
  8
Calque_1
 62
1
100
AcDbLine
 10
826.354456
 20
126.465747
 30
0.0
 11
826.354456
 21
123.465724
 31
0.0
  0
LINE
  5
22a
100
AcDbEntity
  8
Calque_1
 62
1
100
AcDbLine
 10
826.354456
 20
123.465724
 30
0.0
 11
816.254456
 21
123.465724
 31
0.0
  0
LINE
  5
22b
100
AcDbEntity
  8
Calque_1
 62
1
100
AcDbLine
 10
816.254456
 20
123.465724
 30
0.0
 11
816.254456
 21
126.465747
 31
0.0
  0
LINE
  5
22c
100
AcDbEntity
  8
Calque_1
 62
1
100
AcDbLine
 10
816.254456
 20
126.465747
 30
0.0
 11
806.354440
 21
126.465747
 31
0.0
  0
LINE
  5
22d
100
AcDbEntity
  8
Calque_1
 62
1
100
AcDbLine
 10
806.354440
 20
126.465747
 30
0.0
 11
806.354440
 21
123.465724
 31
0.0
  0
LINE
  5
22e
100
AcDbEntity
  8
Calque_1
 62
1
100
AcDbLine
 10
806.354440
 20
123.465724
 30
0.0
 11
796.254440
 21
123.465724
 31
0.0
  0
LINE
  5
22f
100
AcDbEntity
  8
Calque_1
 62
1
100
AcDbLine
 10
796.254440
 20
123.465724
 30
0.0
 11
796.254440
 21
126.465747
 31
0.0
  0
LINE
  5
230
100
AcDbEntity
  8
Calque_1
 62
1
100
AcDbLine
 10
796.254440
 20
126.465747
 30
0.0
 11
786.354451
 21
126.465747
 31
0.0
  0
LINE
  5
231
100
AcDbEntity
  8
Calque_1
 62
1
100
AcDbLine
 10
786.354451
 20
126.465747
 30
0.0
 11
786.354451
 21
123.465724
 31
0.0
  0
LINE
  5
232
100
AcDbEntity
  8
Calque_1
 62
1
100
AcDbLine
 10
786.354451
 20
123.465724
 30
0.0
 11
776.254452
 21
123.465724
 31
0.0
  0
LINE
  5
233
100
AcDbEntity
  8
Calque_1
 62
1
100
AcDbLine
 10
776.254452
 20
123.465724
 30
0.0
 11
776.254452
 21
126.465747
 31
0.0
  0
LINE
  5
234
100
AcDbEntity
  8
Calque_1
 62
1
100
AcDbLine
 10
776.254452
 20
126.465747
 30
0.0
 11
766.354463
 21
126.465747
 31
0.0
  0
LINE
  5
235
100
AcDbEntity
  8
Calque_1
 62
1
100
AcDbLine
 10
766.354463
 20
126.465747
 30
0.0
 11
766.354463
 21
123.465724
 31
0.0
  0
LINE
  5
236
100
AcDbEntity
  8
Calque_1
 62
1
100
AcDbLine
 10
766.354463
 20
123.465724
 30
0.0
 11
756.254464
 21
123.465724
 31
0.0
  0
LINE
  5
237
100
AcDbEntity
  8
Calque_1
 62
1
100
AcDbLine
 10
756.254464
 20
123.465724
 30
0.0
 11
756.254464
 21
126.465747
 31
0.0
  0
LINE
  5
238
100
AcDbEntity
  8
Calque_1
 62
1
100
AcDbLine
 10
756.254464
 20
126.465747
 30
0.0
 11
746.354447
 21
126.465747
 31
0.0
  0
LINE
  5
239
100
AcDbEntity
  8
Calque_1
 62
1
100
AcDbLine
 10
746.354447
 20
126.465747
 30
0.0
 11
746.354447
 21
123.465724
 31
0.0
  0
LINE
  5
23a
100
AcDbEntity
  8
Calque_1
 62
1
100
AcDbLine
 10
746.354447
 20
123.465724
 30
0.0
 11
736.254447
 21
123.465724
 31
0.0
  0
LINE
  5
23b
100
AcDbEntity
  8
Calque_1
 62
1
100
AcDbLine
 10
736.254447
 20
123.465724
 30
0.0
 11
736.254447
 21
126.465747
 31
0.0
  0
LINE
  5
23c
100
AcDbEntity
  8
Calque_1
 62
1
100
AcDbLine
 10
736.254447
 20
126.465747
 30
0.0
 11
726.354458
 21
126.465747
 31
0.0
  0
LINE
  5
23d
100
AcDbEntity
  8
Calque_1
 62
1
100
AcDbLine
 10
726.354458
 20
126.465747
 30
0.0
 11
726.354458
 21
123.465724
 31
0.0
  0
LINE
  5
23e
100
AcDbEntity
  8
Calque_1
 62
1
100
AcDbLine
 10
726.354458
 20
123.465724
 30
0.0
 11
716.254459
 21
123.465724
 31
0.0
  0
LINE
  5
23f
100
AcDbEntity
  8
Calque_1
 62
1
100
AcDbLine
 10
716.254459
 20
123.465724
 30
0.0
 11
716.254459
 21
126.465747
 31
0.0
  0
LINE
  5
240
100
AcDbEntity
  8
Calque_1
 62
1
100
AcDbLine
 10
716.254459
 20
126.465747
 30
0.0
 11
706.354442
 21
126.465747
 31
0.0
  0
LINE
  5
241
100
AcDbEntity
  8
Calque_1
 62
1
100
AcDbLine
 10
706.354442
 20
126.465747
 30
0.0
 11
706.354442
 21
123.465724
 31
0.0
  0
LINE
  5
242
100
AcDbEntity
  8
Calque_1
 62
1
100
AcDbLine
 10
706.354442
 20
123.465724
 30
0.0
 11
696.254442
 21
123.465724
 31
0.0
  0
LINE
  5
243
100
AcDbEntity
  8
Calque_1
 62
1
100
AcDbLine
 10
696.254442
 20
123.465724
 30
0.0
 11
696.254442
 21
126.465747
 31
0.0
  0
LINE
  5
244
100
AcDbEntity
  8
Calque_1
 62
1
100
AcDbLine
 10
696.254442
 20
126.465747
 30
0.0
 11
686.354454
 21
126.465747
 31
0.0
  0
LINE
  5
245
100
AcDbEntity
  8
Calque_1
 62
1
100
AcDbLine
 10
686.354454
 20
126.465747
 30
0.0
 11
686.354454
 21
123.465724
 31
0.0
  0
LINE
  5
246
100
AcDbEntity
  8
Calque_1
 62
1
100
AcDbLine
 10
686.354454
 20
123.465724
 30
0.0
 11
676.254454
 21
123.465724
 31
0.0
  0
LINE
  5
247
100
AcDbEntity
  8
Calque_1
 62
1
100
AcDbLine
 10
676.254454
 20
123.465724
 30
0.0
 11
676.254454
 21
126.465747
 31
0.0
  0
LINE
  5
248
100
AcDbEntity
  8
Calque_1
 62
1
100
AcDbLine
 10
676.254454
 20
126.465747
 30
0.0
 11
666.354466
 21
126.465747
 31
0.0
  0
LINE
  5
249
100
AcDbEntity
  8
Calque_1
 62
1
100
AcDbLine
 10
666.354466
 20
126.465747
 30
0.0
 11
666.354466
 21
123.465724
 31
0.0
  0
LINE
  5
24a
100
AcDbEntity
  8
Calque_1
 62
1
100
AcDbLine
 10
666.354466
 20
123.465724
 30
0.0
 11
656.254466
 21
123.465724
 31
0.0
  0
LINE
  5
24b
100
AcDbEntity
  8
Calque_1
 62
1
100
AcDbLine
 10
656.254466
 20
123.465724
 30
0.0
 11
656.254466
 21
126.465747
 31
0.0
  0
LINE
  5
24c
100
AcDbEntity
  8
Calque_1
 62
1
100
AcDbLine
 10
656.254466
 20
126.465747
 30
0.0
 11
646.354449
 21
126.465747
 31
0.0
  0
LINE
  5
24d
100
AcDbEntity
  8
Calque_1
 62
1
100
AcDbLine
 10
646.354449
 20
126.465747
 30
0.0
 11
646.354449
 21
123.465724
 31
0.0
  0
LINE
  5
24e
100
AcDbEntity
  8
Calque_1
 62
1
100
AcDbLine
 10
646.354449
 20
123.465724
 30
0.0
 11
636.254450
 21
123.465724
 31
0.0
  0
LINE
  5
24f
100
AcDbEntity
  8
Calque_1
 62
1
100
AcDbLine
 10
636.254450
 20
123.465724
 30
0.0
 11
636.254450
 21
126.465747
 31
0.0
  0
LINE
  5
250
100
AcDbEntity
  8
Calque_1
 62
1
100
AcDbLine
 10
636.254450
 20
126.465747
 30
0.0
 11
626.354461
 21
126.465747
 31
0.0
  0
LINE
  5
251
100
AcDbEntity
  8
Calque_1
 62
1
100
AcDbLine
 10
626.354461
 20
126.465747
 30
0.0
 11
626.354461
 21
123.465724
 31
0.0
  0
LINE
  5
252
100
AcDbEntity
  8
Calque_1
 62
1
100
AcDbLine
 10
626.354461
 20
123.465724
 30
0.0
 11
616.254461
 21
123.465724
 31
0.0
  0
LINE
  5
253
100
AcDbEntity
  8
Calque_1
 62
1
100
AcDbLine
 10
616.254461
 20
123.465724
 30
0.0
 11
616.254461
 21
126.465747
 31
0.0
  0
LINE
  5
254
100
AcDbEntity
  8
Calque_1
 62
1
100
AcDbLine
 10
616.254461
 20
126.465747
 30
0.0
 11
606.354444
 21
126.465747
 31
0.0
  0
LINE
  5
255
100
AcDbEntity
  8
Calque_1
 62
1
100
AcDbLine
 10
606.354444
 20
126.465747
 30
0.0
 11
606.354444
 21
123.465724
 31
0.0
  0
LINE
  5
256
100
AcDbEntity
  8
Calque_1
 62
1
100
AcDbLine
 10
606.354444
 20
123.465724
 30
0.0
 11
596.254445
 21
123.465724
 31
0.0
  0
LINE
  5
257
100
AcDbEntity
  8
Calque_1
 62
1
100
AcDbLine
 10
596.254445
 20
123.465724
 30
0.0
 11
596.254445
 21
126.465747
 31
0.0
  0
LINE
  5
258
100
AcDbEntity
  8
Calque_1
 62
1
100
AcDbLine
 10
596.254445
 20
126.465747
 30
0.0
 11
586.354456
 21
126.465747
 31
0.0
  0
LINE
  5
259
100
AcDbEntity
  8
Calque_1
 62
1
100
AcDbLine
 10
586.354456
 20
126.465747
 30
0.0
 11
586.354456
 21
123.465724
 31
0.0
  0
LINE
  5
25a
100
AcDbEntity
  8
Calque_1
 62
1
100
AcDbLine
 10
586.354456
 20
123.465724
 30
0.0
 11
576.254457
 21
123.465724
 31
0.0
  0
LINE
  5
25b
100
AcDbEntity
  8
Calque_1
 62
1
100
AcDbLine
 10
576.254457
 20
123.465724
 30
0.0
 11
576.254457
 21
126.465747
 31
0.0
  0
LINE
  5
25c
100
AcDbEntity
  8
Calque_1
 62
1
100
AcDbLine
 10
576.254457
 20
126.465747
 30
0.0
 11
566.354440
 21
126.465747
 31
0.0
  0
LINE
  5
25d
100
AcDbEntity
  8
Calque_1
 62
1
100
AcDbLine
 10
566.354440
 20
126.465747
 30
0.0
 11
566.354440
 21
123.465724
 31
0.0
  0
LINE
  5
25e
100
AcDbEntity
  8
Calque_1
 62
1
100
AcDbLine
 10
566.354440
 20
123.465724
 30
0.0
 11
556.254440
 21
123.465724
 31
0.0
  0
LINE
  5
25f
100
AcDbEntity
  8
Calque_1
 62
1
100
AcDbLine
 10
556.254440
 20
123.465724
 30
0.0
 11
556.254440
 21
126.465747
 31
0.0
  0
LINE
  5
260
100
AcDbEntity
  8
Calque_1
 62
1
100
AcDbLine
 10
556.254440
 20
126.465747
 30
0.0
 11
546.354452
 21
126.465747
 31
0.0
  0
LINE
  5
261
100
AcDbEntity
  8
Calque_1
 62
1
100
AcDbLine
 10
546.354452
 20
126.465747
 30
0.0
 11
546.354452
 21
123.465724
 31
0.0
  0
LINE
  5
262
100
AcDbEntity
  8
Calque_1
 62
1
100
AcDbLine
 10
546.354452
 20
123.465724
 30
0.0
 11
536.254452
 21
123.465724
 31
0.0
  0
LINE
  5
263
100
AcDbEntity
  8
Calque_1
 62
1
100
AcDbLine
 10
536.254452
 20
123.465724
 30
0.0
 11
536.254452
 21
126.465747
 31
0.0
  0
LINE
  5
264
100
AcDbEntity
  8
Calque_1
 62
1
100
AcDbLine
 10
536.254452
 20
126.465747
 30
0.0
 11
526.354463
 21
126.465747
 31
0.0
  0
LINE
  5
265
100
AcDbEntity
  8
Calque_1
 62
1
100
AcDbLine
 10
526.354463
 20
126.465747
 30
0.0
 11
526.354463
 21
123.465724
 31
0.0
  0
LINE
  5
266
100
AcDbEntity
  8
Calque_1
 62
1
100
AcDbLine
 10
526.354463
 20
123.465724
 30
0.0
 11
516.254464
 21
123.465724
 31
0.0
  0
LINE
  5
267
100
AcDbEntity
  8
Calque_1
 62
1
100
AcDbLine
 10
516.254464
 20
123.465724
 30
0.0
 11
516.254464
 21
126.465747
 31
0.0
  0
LINE
  5
268
100
AcDbEntity
  8
Calque_1
 62
1
100
AcDbLine
 10
516.254464
 20
126.465747
 30
0.0
 11
506.354447
 21
126.465747
 31
0.0
  0
LINE
  5
269
100
AcDbEntity
  8
Calque_1
 62
1
100
AcDbLine
 10
506.354447
 20
126.465747
 30
0.0
 11
506.354447
 21
123.465724
 31
0.0
  0
LINE
  5
26a
100
AcDbEntity
  8
Calque_1
 62
1
100
AcDbLine
 10
506.354447
 20
123.465724
 30
0.0
 11
496.254447
 21
123.465724
 31
0.0
  0
LINE
  5
26b
100
AcDbEntity
  8
Calque_1
 62
1
100
AcDbLine
 10
496.254447
 20
123.465724
 30
0.0
 11
496.254447
 21
126.465747
 31
0.0
  0
LINE
  5
26c
100
AcDbEntity
  8
Calque_1
 62
1
100
AcDbLine
 10
496.254447
 20
126.465747
 30
0.0
 11
486.354459
 21
126.465747
 31
0.0
  0
LINE
  5
26d
100
AcDbEntity
  8
Calque_1
 62
1
100
AcDbLine
 10
486.354459
 20
126.465747
 30
0.0
 11
486.354459
 21
123.465724
 31
0.0
  0
LINE
  5
26e
100
AcDbEntity
  8
Calque_1
 62
1
100
AcDbLine
 10
486.354459
 20
123.465724
 30
0.0
 11
476.254459
 21
123.465724
 31
0.0
  0
LINE
  5
26f
100
AcDbEntity
  8
Calque_1
 62
1
100
AcDbLine
 10
476.254459
 20
123.465724
 30
0.0
 11
476.254459
 21
126.465747
 31
0.0
  0
LINE
  5
270
100
AcDbEntity
  8
Calque_1
 62
1
100
AcDbLine
 10
476.254459
 20
126.465747
 30
0.0
 11
466.354442
 21
126.465747
 31
0.0
  0
LINE
  5
271
100
AcDbEntity
  8
Calque_1
 62
1
100
AcDbLine
 10
466.354442
 20
126.465747
 30
0.0
 11
466.354442
 21
123.465724
 31
0.0
  0
LINE
  5
272
100
AcDbEntity
  8
Calque_1
 62
1
100
AcDbLine
 10
466.354442
 20
123.465724
 30
0.0
 11
456.254443
 21
123.465724
 31
0.0
  0
LINE
  5
273
100
AcDbEntity
  8
Calque_1
 62
1
100
AcDbLine
 10
456.254443
 20
123.465724
 30
0.0
 11
456.254443
 21
126.465747
 31
0.0
  0
LINE
  5
274
100
AcDbEntity
  8
Calque_1
 62
1
100
AcDbLine
 10
456.254443
 20
126.465747
 30
0.0
 11
446.354454
 21
126.465747
 31
0.0
  0
LINE
  5
275
100
AcDbEntity
  8
Calque_1
 62
1
100
AcDbLine
 10
446.354454
 20
126.465747
 30
0.0
 11
446.354454
 21
123.465724
 31
0.0
  0
LINE
  5
276
100
AcDbEntity
  8
Calque_1
 62
1
100
AcDbLine
 10
446.354454
 20
123.465724
 30
0.0
 11
436.304464
 21
123.465724
 31
0.0
  0
LINE
  5
277
100
AcDbEntity
  8
Calque_1
 62
1
100
AcDbLine
 10
436.304464
 20
123.465724
 30
0.0
 11
436.304464
 21
133.669582
 31
0.0
  0
LINE
  5
278
100
AcDbEntity
  8
Calque_1
 62
1
100
AcDbLine
 10
436.304464
 20
133.669582
 30
0.0
 11
439.304458
 21
133.669582
 31
0.0
  0
LINE
  5
279
100
AcDbEntity
  8
Calque_1
 62
1
100
AcDbLine
 10
439.304458
 20
133.669582
 30
0.0
 11
439.304458
 21
143.723438
 31
0.0
  0
LINE
  5
27a
100
AcDbEntity
  8
Calque_1
 62
1
100
AcDbLine
 10
439.304458
 20
143.723438
 30
0.0
 11
436.304464
 21
143.723438
 31
0.0
  0
LINE
  5
27b
100
AcDbEntity
  8
Calque_1
 62
1
100
AcDbLine
 10
436.304464
 20
143.723438
 30
0.0
 11
436.304464
 21
153.977277
 31
0.0
  0
LINE
  5
27c
100
AcDbEntity
  8
Calque_1
 62
1
100
AcDbLine
 10
436.304464
 20
153.977277
 30
0.0
 11
439.304458
 21
153.977277
 31
0.0
  0
LINE
  5
27d
100
AcDbEntity
  8
Calque_1
 62
1
100
AcDbLine
 10
439.304458
 20
153.977277
 30
0.0
 11
439.304458
 21
164.031133
 31
0.0
  0
LINE
  5
27e
100
AcDbEntity
  8
Calque_1
 62
1
100
AcDbLine
 10
439.304458
 20
164.031133
 30
0.0
 11
436.304464
 21
164.031133
 31
0.0
  0
LINE
  5
27f
100
AcDbEntity
  8
Calque_1
 62
1
100
AcDbLine
 10
436.304464
 20
164.031133
 30
0.0
 11
436.304464
 21
174.284972
 31
0.0
  0
LINE
  5
280
100
AcDbEntity
  8
Calque_1
 62
1
100
AcDbLine
 10
436.304464
 20
174.284972
 30
0.0
 11
439.304458
 21
174.284972
 31
0.0
  0
LINE
  5
281
100
AcDbEntity
  8
Calque_1
 62
1
100
AcDbLine
 10
439.304458
 20
174.284972
 30
0.0
 11
439.304458
 21
184.338800
 31
0.0
  0
LINE
  5
282
100
AcDbEntity
  8
Calque_1
 62
1
100
AcDbLine
 10
439.304458
 20
184.338800
 30
0.0
 11
436.304464
 21
184.338800
 31
0.0
  0
LINE
  5
283
100
AcDbEntity
  8
Calque_1
 62
1
100
AcDbLine
 10
436.304464
 20
184.338800
 30
0.0
 11
436.304464
 21
194.592667
 31
0.0
  0
LINE
  5
284
100
AcDbEntity
  8
Calque_1
 62
1
100
AcDbLine
 10
436.304464
 20
194.592667
 30
0.0
 11
439.304458
 21
194.592667
 31
0.0
  0
LINE
  5
285
100
AcDbEntity
  8
Calque_1
 62
1
100
AcDbLine
 10
439.304458
 20
194.592667
 30
0.0
 11
439.304458
 21
204.646495
 31
0.0
  0
LINE
  5
286
100
AcDbEntity
  8
Calque_1
 62
1
100
AcDbLine
 10
439.304458
 20
204.646495
 30
0.0
 11
436.304464
 21
204.646495
 31
0.0
  0
LINE
  5
287
100
AcDbEntity
  8
Calque_1
 62
1
100
AcDbLine
 10
436.304464
 20
204.646495
 30
0.0
 11
436.304464
 21
214.900362
 31
0.0
  0
LINE
  5
288
100
AcDbEntity
  8
Calque_1
 62
1
100
AcDbLine
 10
436.304464
 20
214.900362
 30
0.0
 11
439.304458
 21
214.900362
 31
0.0
  0
LINE
  5
289
100
AcDbEntity
  8
Calque_1
 62
1
100
AcDbLine
 10
439.304458
 20
214.900362
 30
0.0
 11
439.304458
 21
224.954190
 31
0.0
  0
LINE
  5
28a
100
AcDbEntity
  8
Calque_1
 62
1
100
AcDbLine
 10
439.304458
 20
224.954190
 30
0.0
 11
436.304464
 21
224.954190
 31
0.0
  0
LINE
  5
28b
100
AcDbEntity
  8
Calque_1
 62
1
100
AcDbLine
 10
436.304464
 20
224.954190
 30
0.0
 11
436.304464
 21
235.208057
 31
0.0
  0
LINE
  5
28c
100
AcDbEntity
  8
Calque_1
 62
1
100
AcDbLine
 10
436.304464
 20
235.208057
 30
0.0
 11
439.304458
 21
235.208057
 31
0.0
  0
LINE
  5
28d
100
AcDbEntity
  8
Calque_1
 62
1
100
AcDbLine
 10
439.304458
 20
235.208057
 30
0.0
 11
439.304458
 21
245.261885
 31
0.0
  0
LINE
  5
28e
100
AcDbEntity
  8
Calque_1
 62
1
100
AcDbLine
 10
439.304458
 20
245.261885
 30
0.0
 11
436.304464
 21
245.261885
 31
0.0
  0
LINE
  5
28f
100
AcDbEntity
  8
Calque_1
 62
1
100
AcDbLine
 10
436.304464
 20
245.261885
 30
0.0
 11
436.304464
 21
255.515735
 31
0.0
  0
LINE
  5
290
100
AcDbEntity
  8
Calque_1
 62
1
100
AcDbLine
 10
436.304464
 20
255.515735
 30
0.0
 11
439.304458
 21
255.515735
 31
0.0
  0
LINE
  5
291
100
AcDbEntity
  8
Calque_1
 62
1
100
AcDbLine
 10
439.304458
 20
255.515735
 30
0.0
 11
439.304458
 21
265.569583
 31
0.0
  0
LINE
  5
292
100
AcDbEntity
  8
Calque_1
 62
1
100
AcDbLine
 10
439.304458
 20
265.569583
 30
0.0
 11
436.304464
 21
265.569583
 31
0.0
  0
LINE
  5
293
100
AcDbEntity
  8
Calque_1
 62
1
100
AcDbLine
 10
436.304464
 20
265.569583
 30
0.0
 11
436.304464
 21
275.823429
 31
0.0
  0
LINE
  5
294
100
AcDbEntity
  8
Calque_1
 62
1
100
AcDbLine
 10
436.304464
 20
275.823429
 30
0.0
 11
439.304458
 21
275.823429
 31
0.0
  0
LINE
  5
295
100
AcDbEntity
  8
Calque_1
 62
1
100
AcDbLine
 10
439.304458
 20
275.823429
 30
0.0
 11
439.304458
 21
285.877277
 31
0.0
  0
LINE
  5
296
100
AcDbEntity
  8
Calque_1
 62
1
100
AcDbLine
 10
439.304458
 20
285.877277
 30
0.0
 11
436.304464
 21
285.877277
 31
0.0
  0
LINE
  5
297
100
AcDbEntity
  8
Calque_1
 62
1
100
AcDbLine
 10
436.304464
 20
285.877277
 30
0.0
 11
436.304464
 21
296.131122
 31
0.0
  0
LINE
  5
298
100
AcDbEntity
  8
Calque_1
 62
1
100
AcDbLine
 10
436.304464
 20
296.131122
 30
0.0
 11
439.304458
 21
296.131122
 31
0.0
  0
LINE
  5
299
100
AcDbEntity
  8
Calque_1
 62
1
100
AcDbLine
 10
439.304458
 20
296.131122
 30
0.0
 11
439.304458
 21
306.184969
 31
0.0
  0
LINE
  5
29a
100
AcDbEntity
  8
Calque_1
 62
1
100
AcDbLine
 10
439.304458
 20
306.184969
 30
0.0
 11
436.304464
 21
306.184969
 31
0.0
  0
LINE
  5
29b
100
AcDbEntity
  8
Calque_1
 62
1
100
AcDbLine
 10
436.304464
 20
306.184969
 30
0.0
 11
436.304464
 21
316.438814
 31
0.0
  0
LINE
  5
29c
100
AcDbEntity
  8
Calque_1
 62
1
100
AcDbLine
 10
436.304464
 20
316.438814
 30
0.0
 11
439.304458
 21
316.438814
 31
0.0
  0
LINE
  5
29d
100
AcDbEntity
  8
Calque_1
 62
1
100
AcDbLine
 10
439.304458
 20
316.438814
 30
0.0
 11
439.304458
 21
326.492660
 31
0.0
  0
LINE
  5
29e
100
AcDbEntity
  8
Calque_1
 62
1
100
AcDbLine
 10
439.304458
 20
326.492660
 30
0.0
 11
436.304464
 21
326.492660
 31
0.0
  0
LINE
  5
29f
100
AcDbEntity
  8
Calque_1
 62
1
100
AcDbLine
 10
436.304464
 20
326.492660
 30
0.0
 11
436.304464
 21
336.746505
 31
0.0
  0
LINE
  5
2a0
100
AcDbEntity
  8
Calque_1
 62
1
100
AcDbLine
 10
436.304464
 20
336.746505
 30
0.0
 11
439.304458
 21
336.746505
 31
0.0
  0
LINE
  5
2a1
100
AcDbEntity
  8
Calque_1
 62
1
100
AcDbLine
 10
439.304458
 20
336.746505
 30
0.0
 11
439.304458
 21
346.800352
 31
0.0
  0
LINE
  5
2a2
100
AcDbEntity
  8
Calque_1
 62
1
100
AcDbLine
 10
439.304458
 20
346.800352
 30
0.0
 11
436.304464
 21
346.800352
 31
0.0
  0
LINE
  5
2a3
100
AcDbEntity
  8
Calque_1
 62
1
100
AcDbLine
 10
436.304464
 20
346.800352
 30
0.0
 11
436.304464
 21
357.054197
 31
0.0
  0
LINE
  5
2a4
100
AcDbEntity
  8
Calque_1
 62
1
100
AcDbLine
 10
436.304464
 20
357.054197
 30
0.0
 11
439.304458
 21
357.054197
 31
0.0
  0
LINE
  5
2a5
100
AcDbEntity
  8
Calque_1
 62
1
100
AcDbLine
 10
439.304458
 20
357.054197
 30
0.0
 11
439.304458
 21
367.108045
 31
0.0
  0
LINE
  5
2a6
100
AcDbEntity
  8
Calque_1
 62
1
100
AcDbLine
 10
439.304458
 20
367.108045
 30
0.0
 11
436.304464
 21
367.108045
 31
0.0
  0
LINE
  5
2a7
100
AcDbEntity
  8
Calque_1
 62
1
100
AcDbLine
 10
436.304464
 20
367.108045
 30
0.0
 11
436.304464
 21
377.361889
 31
0.0
  0
LINE
  5
2a8
100
AcDbEntity
  8
Calque_1
 62
1
100
AcDbLine
 10
436.304464
 20
377.361889
 30
0.0
 11
439.304458
 21
377.361889
 31
0.0
  0
LINE
  5
2a9
100
AcDbEntity
  8
Calque_1
 62
1
100
AcDbLine
 10
439.304458
 20
377.361889
 30
0.0
 11
439.304458
 21
387.415737
 31
0.0
  0
LINE
  5
2aa
100
AcDbEntity
  8
Calque_1
 62
1
100
AcDbLine
 10
439.304458
 20
387.415737
 30
0.0
 11
436.304464
 21
387.415737
 31
0.0
  0
LINE
  5
2ab
100
AcDbEntity
  8
Calque_1
 62
1
100
AcDbLine
 10
436.304464
 20
387.415737
 30
0.0
 11
436.304464
 21
397.669581
 31
0.0
  0
LINE
  5
2ac
100
AcDbEntity
  8
Calque_1
 62
1
100
AcDbLine
 10
436.304464
 20
397.669581
 30
0.0
 11
439.304458
 21
397.669581
 31
0.0
  0
LINE
  5
2ad
100
AcDbEntity
  8
Calque_1
 62
1
100
AcDbLine
 10
439.304458
 20
397.669581
 30
0.0
 11
439.304458
 21
407.723429
 31
0.0
  0
LINE
  5
2ae
100
AcDbEntity
  8
Calque_1
 62
1
100
AcDbLine
 10
439.304458
 20
407.723429
 30
0.0
 11
436.304464
 21
407.723429
 31
0.0
  0
LINE
  5
2af
100
AcDbEntity
  8
Calque_1
 62
1
100
AcDbLine
 10
436.304464
 20
407.723429
 30
0.0
 11
436.304464
 21
417.977274
 31
0.0
  0
LINE
  5
2b0
100
AcDbEntity
  8
Calque_1
 62
1
100
AcDbLine
 10
436.304464
 20
417.977274
 30
0.0
 11
439.304458
 21
417.977274
 31
0.0
  0
LINE
  5
2b1
100
AcDbEntity
  8
Calque_1
 62
1
100
AcDbLine
 10
439.304458
 20
417.977274
 30
0.0
 11
439.304458
 21
428.031122
 31
0.0
  0
LINE
  5
2b2
100
AcDbEntity
  8
Calque_1
 62
1
100
AcDbLine
 10
439.304458
 20
428.031122
 30
0.0
 11
436.304464
 21
428.031122
 31
0.0
  0
LINE
  5
2b3
100
AcDbEntity
  8
Calque_1
 62
1
100
AcDbLine
 10
436.304464
 20
428.031122
 30
0.0
 11
436.304464
 21
438.284966
 31
0.0
  0
LINE
  5
2b4
100
AcDbEntity
  8
Calque_1
 62
1
100
AcDbLine
 10
436.304464
 20
438.284966
 30
0.0
 11
439.304458
 21
438.284966
 31
0.0
  0
LINE
  5
2b5
100
AcDbEntity
  8
Calque_1
 62
1
100
AcDbLine
 10
439.304458
 20
438.284966
 30
0.0
 11
439.304458
 21
448.338814
 31
0.0
  0
LINE
  5
2b6
100
AcDbEntity
  8
Calque_1
 62
1
100
AcDbLine
 10
439.304458
 20
448.338814
 30
0.0
 11
436.304464
 21
448.338814
 31
0.0
  0
LINE
  5
2b7
100
AcDbEntity
  8
Calque_1
 62
1
100
AcDbLine
 10
436.304464
 20
448.338814
 30
0.0
 11
436.304464
 21
458.592658
 31
0.0
  0
LINE
  5
2b8
100
AcDbEntity
  8
Calque_1
 62
1
100
AcDbLine
 10
436.304464
 20
458.592658
 30
0.0
 11
439.304458
 21
458.592658
 31
0.0
  0
LINE
  5
2b9
100
AcDbEntity
  8
Calque_1
 62
1
100
AcDbLine
 10
439.304458
 20
458.592658
 30
0.0
 11
439.304458
 21
468.646506
 31
0.0
  0
LINE
  5
2ba
100
AcDbEntity
  8
Calque_1
 62
1
100
AcDbLine
 10
439.304458
 20
468.646506
 30
0.0
 11
436.304464
 21
468.646506
 31
0.0
  0
LINE
  5
2bb
100
AcDbEntity
  8
Calque_1
 62
1
100
AcDbLine
 10
436.304464
 20
468.646506
 30
0.0
 11
436.304464
 21
478.900351
 31
0.0
  0
LINE
  5
2bc
100
AcDbEntity
  8
Calque_1
 62
1
100
AcDbLine
 10
436.304464
 20
478.900351
 30
0.0
 11
439.304458
 21
478.900351
 31
0.0
  0
LINE
  5
2bd
100
AcDbEntity
  8
Calque_1
 62
1
100
AcDbLine
 10
439.304458
 20
478.900351
 30
0.0
 11
439.304458
 21
488.954198
 31
0.0
  0
LINE
  5
2be
100
AcDbEntity
  8
Calque_1
 62
1
100
AcDbLine
 10
439.304458
 20
488.954198
 30
0.0
 11
436.304464
 21
488.954198
 31
0.0
  0
LINE
  5
2bf
100
AcDbEntity
  8
Calque_1
 62
1
100
AcDbLine
 10
436.304464
 20
488.954198
 30
0.0
 11
436.304464
 21
499.208043
 31
0.0
  0
LINE
  5
2c0
100
AcDbEntity
  8
Calque_1
 62
1
100
AcDbLine
 10
436.304464
 20
499.208043
 30
0.0
 11
439.304458
 21
499.208043
 31
0.0
  0
LINE
  5
2c1
100
AcDbEntity
  8
Calque_1
 62
1
100
AcDbLine
 10
439.304458
 20
499.208043
 30
0.0
 11
439.304458
 21
509.261891
 31
0.0
  0
LINE
  5
2c2
100
AcDbEntity
  8
Calque_1
 62
1
100
AcDbLine
 10
439.304458
 20
509.261891
 30
0.0
 11
436.304464
 21
509.261891
 31
0.0
  0
LINE
  5
2c3
100
AcDbEntity
  8
Calque_1
 62
1
100
AcDbLine
 10
436.304464
 20
509.261891
 30
0.0
 11
436.304464
 21
519.515738
 31
0.0
  0
LINE
  5
2c4
100
AcDbEntity
  8
Calque_1
 62
1
100
AcDbLine
 10
436.304464
 20
519.515738
 30
0.0
 11
439.304458
 21
519.515738
 31
0.0
  0
LINE
  5
2c5
100
AcDbEntity
  8
Calque_1
 62
1
100
AcDbLine
 10
439.304458
 20
519.515738
 30
0.0
 11
439.304458
 21
529.569583
 31
0.0
  0
LINE
  5
2c6
100
AcDbEntity
  8
Calque_1
 62
1
100
AcDbLine
 10
439.304458
 20
529.569583
 30
0.0
 11
436.304464
 21
529.569583
 31
0.0
  0
LINE
  5
2c7
100
AcDbEntity
  8
Calque_1
 62
1
100
AcDbLine
 10
436.304464
 20
529.569583
 30
0.0
 11
436.304464
 21
539.823430
 31
0.0
  0
LINE
  5
2c8
100
AcDbEntity
  8
Calque_1
 62
1
100
AcDbLine
 10
436.304464
 20
539.823430
 30
0.0
 11
439.304458
 21
539.823430
 31
0.0
  0
LINE
  5
2c9
100
AcDbEntity
  8
Calque_1
 62
1
100
AcDbLine
 10
439.304458
 20
539.823430
 30
0.0
 11
439.304458
 21
549.877275
 31
0.0
  0
LINE
  5
2ca
100
AcDbEntity
  8
Calque_1
 62
1
100
AcDbLine
 10
439.304458
 20
549.877275
 30
0.0
 11
436.304464
 21
549.877275
 31
0.0
  0
LINE
  5
2cb
100
AcDbEntity
  8
Calque_1
 62
1
100
AcDbLine
 10
436.304464
 20
549.877275
 30
0.0
 11
436.304464
 21
560.131120
 31
0.0
  0
LINE
  5
2cc
100
AcDbEntity
  8
Calque_1
 62
1
100
AcDbLine
 10
436.304464
 20
560.131120
 30
0.0
 11
439.304458
 21
560.131120
 31
0.0
  0
LINE
  5
2cd
100
AcDbEntity
  8
Calque_1
 62
1
100
AcDbLine
 10
439.304458
 20
560.131120
 30
0.0
 11
439.304458
 21
570.184968
 31
0.0
  0
LINE
  5
2ce
100
AcDbEntity
  8
Calque_1
 62
1
100
AcDbLine
 10
439.304458
 20
570.184968
 30
0.0
 11
436.304464
 21
570.184968
 31
0.0
  0
LINE
  5
2cf
100
AcDbEntity
  8
Calque_1
 62
1
100
AcDbLine
 10
436.304464
 20
570.184968
 30
0.0
 11
436.304464
 21
580.438806
 31
0.0
  0
LINE
  5
2d0
100
AcDbEntity
  8
Calque_1
 62
1
100
AcDbLine
 10
436.304464
 20
580.438806
 30
0.0
 11
439.304458
 21
580.438806
 31
0.0
  0
LINE
  5
2d1
100
AcDbEntity
  8
Calque_1
 62
1
100
AcDbLine
 10
439.304458
 20
580.438806
 30
0.0
 11
439.304458
 21
590.492663
 31
0.0
  0
LINE
  5
2d2
100
AcDbEntity
  8
Calque_1
 62
1
100
AcDbLine
 10
439.304458
 20
590.492663
 30
0.0
 11
436.304464
 21
590.492663
 31
0.0
  0
LINE
  5
2d3
100
AcDbEntity
  8
Calque_1
 62
1
100
AcDbLine
 10
436.304464
 20
590.492663
 30
0.0
 11
436.304464
 21
600.746502
 31
0.0
  0
LINE
  5
2d4
100
AcDbEntity
  8
Calque_1
 62
1
100
AcDbLine
 10
436.304464
 20
600.746502
 30
0.0
 11
439.304458
 21
600.746502
 31
0.0
  0
LINE
  5
2d5
100
AcDbEntity
  8
Calque_1
 62
1
100
AcDbLine
 10
439.304458
 20
600.746502
 30
0.0
 11
439.304458
 21
610.800358
 31
0.0
  0
LINE
  5
2d6
100
AcDbEntity
  8
Calque_1
 62
1
100
AcDbLine
 10
439.304458
 20
610.800358
 30
0.0
 11
436.304464
 21
610.800358
 31
0.0
  0
LINE
  5
2d7
100
AcDbEntity
  8
Calque_1
 62
1
100
AcDbLine
 10
436.304464
 20
610.800358
 30
0.0
 11
436.304464
 21
621.054197
 31
0.0
  0
LINE
  5
2d8
100
AcDbEntity
  8
Calque_1
 62
1
100
AcDbLine
 10
436.304464
 20
621.054197
 30
0.0
 11
439.304458
 21
621.054197
 31
0.0
  0
LINE
  5
2d9
100
AcDbEntity
  8
Calque_1
 62
1
100
AcDbLine
 10
439.304458
 20
621.054197
 30
0.0
 11
439.304458
 21
631.108025
 31
0.0
  0
LINE
  5
2da
100
AcDbEntity
  8
Calque_1
 62
1
100
AcDbLine
 10
439.304458
 20
631.108025
 30
0.0
 11
436.304464
 21
631.108025
 31
0.0
  0
LINE
  5
2db
100
AcDbEntity
  8
Calque_1
 62
1
100
AcDbLine
 10
436.304464
 20
631.108025
 30
0.0
 11
436.304464
 21
641.361892
 31
0.0
  0
LINE
  5
2dc
100
AcDbEntity
  8
Calque_1
 62
1
100
AcDbLine
 10
436.304464
 20
641.361892
 30
0.0
 11
439.304458
 21
641.361892
 31
0.0
  0
LINE
  5
2dd
100
AcDbEntity
  8
Calque_1
 62
1
100
AcDbLine
 10
439.304458
 20
641.361892
 30
0.0
 11
439.304458
 21
651.415720
 31
0.0
  0
LINE
  5
2de
100
AcDbEntity
  8
Calque_1
 62
1
100
AcDbLine
 10
439.304458
 20
651.415720
 30
0.0
 11
436.304464
 21
651.415720
 31
0.0
  0
LINE
  5
2df
100
AcDbEntity
  8
Calque_1
 62
1
100
AcDbLine
 10
436.304464
 20
651.415720
 30
0.0
 11
436.304464
 21
661.669587
 31
0.0
  0
LINE
  5
2e0
100
AcDbEntity
  8
Calque_1
 62
1
100
AcDbLine
 10
436.304464
 20
661.669587
 30
0.0
 11
439.304458
 21
661.669587
 31
0.0
  0
LINE
  5
2e1
100
AcDbEntity
  8
Calque_1
 62
1
100
AcDbLine
 10
439.304458
 20
661.669587
 30
0.0
 11
439.304458
 21
671.723415
 31
0.0
  0
LINE
  5
2e2
100
AcDbEntity
  8
Calque_1
 62
1
100
AcDbLine
 10
439.304458
 20
671.723415
 30
0.0
 11
436.304464
 21
671.723415
 31
0.0
  0
LINE
  5
2e3
100
AcDbEntity
  8
Calque_1
 62
1
100
AcDbLine
 10
436.304464
 20
671.723415
 30
0.0
 11
436.304464
 21
681.977282
 31
0.0
  0
LINE
  5
2e4
100
AcDbEntity
  8
Calque_1
 62
1
100
AcDbLine
 10
436.304464
 20
681.977282
 30
0.0
 11
439.304458
 21
681.977282
 31
0.0
  0
LINE
  5
2e5
100
AcDbEntity
  8
Calque_1
 62
1
100
AcDbLine
 10
439.304458
 20
681.977282
 30
0.0
 11
439.304458
 21
692.031110
 31
0.0
  0
LINE
  5
2e6
100
AcDbEntity
  8
Calque_1
 62
1
100
AcDbLine
 10
439.304458
 20
692.031110
 30
0.0
 11
436.304464
 21
692.031110
 31
0.0
  0
LINE
  5
2e7
100
AcDbEntity
  8
Calque_1
 62
1
100
AcDbLine
 10
436.304464
 20
692.031110
 30
0.0
 11
436.304464
 21
702.284949
 31
0.0
  0
LINE
  5
2e8
100
AcDbEntity
  8
Calque_1
 62
1
100
AcDbLine
 10
436.304464
 20
702.284949
 30
0.0
 11
439.304458
 21
702.284949
 31
0.0
  0
LINE
  5
2e9
100
AcDbEntity
  8
Calque_1
 62
1
100
AcDbLine
 10
439.304458
 20
702.284949
 30
0.0
 11
439.304458
 21
712.338805
 31
0.0
  0
LINE
  5
2ea
100
AcDbEntity
  8
Calque_1
 62
1
100
AcDbLine
 10
439.304458
 20
712.338805
 30
0.0
 11
436.304464
 21
712.338805
 31
0.0
  0
LINE
  5
2eb
100
AcDbEntity
  8
Calque_1
 62
1
100
AcDbLine
 10
436.304464
 20
712.338805
 30
0.0
 11
436.304464
 21
722.592644
 31
0.0
  0
LINE
  5
2ec
100
AcDbEntity
  8
Calque_1
 62
1
100
AcDbLine
 10
436.304464
 20
722.592644
 30
0.0
 11
439.304458
 21
722.592644
 31
0.0
  0
LINE
  5
2ed
100
AcDbEntity
  8
Calque_1
 62
1
100
AcDbLine
 10
439.304458
 20
722.592644
 30
0.0
 11
439.304458
 21
732.646500
 31
0.0
  0
LINE
  5
2ee
100
AcDbEntity
  8
Calque_1
 62
1
100
AcDbLine
 10
439.304458
 20
732.646500
 30
0.0
 11
436.304464
 21
732.646500
 31
0.0
  0
LINE
  5
2ef
100
AcDbEntity
  8
Calque_1
 62
1
100
AcDbLine
 10
436.304464
 20
732.646500
 30
0.0
 11
436.304464
 21
742.900339
 31
0.0
  0
LINE
  5
2f0
100
AcDbEntity
  8
Calque_1
 62
1
100
AcDbLine
 10
436.304464
 20
742.900339
 30
0.0
 11
439.304458
 21
742.900339
 31
0.0
  0
LINE
  5
2f1
100
AcDbEntity
  8
Calque_1
 62
1
100
AcDbLine
 10
439.304458
 20
742.900339
 30
0.0
 11
439.304458
 21
752.954195
 31
0.0
  0
LINE
  5
2f2
100
AcDbEntity
  8
Calque_1
 62
1
100
AcDbLine
 10
439.304458
 20
752.954195
 30
0.0
 11
436.304464
 21
752.954195
 31
0.0
  0
LINE
  5
2f3
100
AcDbEntity
  8
Calque_1
 62
1
100
AcDbLine
 10
436.304464
 20
752.954195
 30
0.0
 11
436.304464
 21
763.208034
 31
0.0
  0
LINE
  5
2f4
100
AcDbEntity
  8
Calque_1
 62
1
100
AcDbLine
 10
436.304464
 20
763.208034
 30
0.0
 11
439.304458
 21
763.208034
 31
0.0
  0
LINE
  5
2f5
100
AcDbEntity
  8
Calque_1
 62
1
100
AcDbLine
 10
439.304458
 20
763.208034
 30
0.0
 11
439.304458
 21
773.261890
 31
0.0
  0
LINE
  5
2f6
100
AcDbEntity
  8
Calque_1
 62
1
100
AcDbLine
 10
439.304458
 20
773.261890
 30
0.0
 11
436.304464
 21
773.261890
 31
0.0
  0
LINE
  5
2f7
100
AcDbEntity
  8
Calque_1
 62
1
100
AcDbLine
 10
436.304464
 20
773.261890
 30
0.0
 11
436.304464
 21
783.465720
 31
0.0
  0
LINE
  5
2f8
100
AcDbEntity
  8
Calque_1
 62
1
100
AcDbLine
 10
436.304464
 20
783.465720
 30
0.0
 11
436.304464
 21
783.465720
 31
0.0
  0
LINE
  5
2f9
100
AcDbEntity
  8
Calque_1
 62
1
100
AcDbLine
 10
1108.924545
 20
779.451193
 30
0.0
 11
1108.924545
 21
169.451205
 31
0.0
  0
LINE
  5
2fa
100
AcDbEntity
  8
Calque_1
 62
1
100
AcDbLine
 10
1108.924545
 20
169.451205
 30
0.0
 11
1093.207872
 21
169.451205
 31
0.0
  0
LINE
  5
2fb
100
AcDbEntity
  8
Calque_1
 62
1
100
AcDbLine
 10
1093.207872
 20
169.451205
 30
0.0
 11
1093.207872
 21
172.451199
 31
0.0
  0
LINE
  5
2fc
100
AcDbEntity
  8
Calque_1
 62
1
100
AcDbLine
 10
1093.207872
 20
172.451199
 30
0.0
 11
1077.641228
 21
172.451199
 31
0.0
  0
LINE
  5
2fd
100
AcDbEntity
  8
Calque_1
 62
1
100
AcDbLine
 10
1077.641228
 20
172.451199
 30
0.0
 11
1077.641228
 21
169.451205
 31
0.0
  0
LINE
  5
2fe
100
AcDbEntity
  8
Calque_1
 62
1
100
AcDbLine
 10
1077.641228
 20
169.451205
 30
0.0
 11
1061.924555
 21
169.451205
 31
0.0
  0
LINE
  5
2ff
100
AcDbEntity
  8
Calque_1
 62
1
100
AcDbLine
 10
1061.924555
 20
169.451205
 30
0.0
 11
1061.924555
 21
179.401204
 31
0.0
  0
LINE
  5
300
100
AcDbEntity
  8
Calque_1
 62
1
100
AcDbLine
 10
1061.924555
 20
179.401204
 30
0.0
 11
1058.924561
 21
179.401204
 31
0.0
  0
LINE
  5
301
100
AcDbEntity
  8
Calque_1
 62
1
100
AcDbLine
 10
1058.924561
 20
179.401204
 30
0.0
 11
1058.924561
 21
189.501203
 31
0.0
  0
LINE
  5
302
100
AcDbEntity
  8
Calque_1
 62
1
100
AcDbLine
 10
1058.924561
 20
189.501203
 30
0.0
 11
1061.924555
 21
189.501203
 31
0.0
  0
LINE
  5
303
100
AcDbEntity
  8
Calque_1
 62
1
100
AcDbLine
 10
1061.924555
 20
189.501203
 30
0.0
 11
1061.924555
 21
199.401220
 31
0.0
  0
LINE
  5
304
100
AcDbEntity
  8
Calque_1
 62
1
100
AcDbLine
 10
1061.924555
 20
199.401220
 30
0.0
 11
1058.924561
 21
199.401220
 31
0.0
  0
LINE
  5
305
100
AcDbEntity
  8
Calque_1
 62
1
100
AcDbLine
 10
1058.924561
 20
199.401220
 30
0.0
 11
1058.924561
 21
209.501220
 31
0.0
  0
LINE
  5
306
100
AcDbEntity
  8
Calque_1
 62
1
100
AcDbLine
 10
1058.924561
 20
209.501220
 30
0.0
 11
1061.924555
 21
209.501220
 31
0.0
  0
LINE
  5
307
100
AcDbEntity
  8
Calque_1
 62
1
100
AcDbLine
 10
1061.924555
 20
209.501220
 30
0.0
 11
1061.924555
 21
219.401208
 31
0.0
  0
LINE
  5
308
100
AcDbEntity
  8
Calque_1
 62
1
100
AcDbLine
 10
1061.924555
 20
219.401208
 30
0.0
 11
1058.924561
 21
219.401208
 31
0.0
  0
LINE
  5
309
100
AcDbEntity
  8
Calque_1
 62
1
100
AcDbLine
 10
1058.924561
 20
219.401208
 30
0.0
 11
1058.924561
 21
229.501208
 31
0.0
  0
LINE
  5
30a
100
AcDbEntity
  8
Calque_1
 62
1
100
AcDbLine
 10
1058.924561
 20
229.501208
 30
0.0
 11
1061.924555
 21
229.501208
 31
0.0
  0
LINE
  5
30b
100
AcDbEntity
  8
Calque_1
 62
1
100
AcDbLine
 10
1061.924555
 20
229.501208
 30
0.0
 11
1061.924555
 21
239.401197
 31
0.0
  0
LINE
  5
30c
100
AcDbEntity
  8
Calque_1
 62
1
100
AcDbLine
 10
1061.924555
 20
239.401197
 30
0.0
 11
1058.924561
 21
239.401197
 31
0.0
  0
LINE
  5
30d
100
AcDbEntity
  8
Calque_1
 62
1
100
AcDbLine
 10
1058.924561
 20
239.401197
 30
0.0
 11
1058.924561
 21
249.501196
 31
0.0
  0
LINE
  5
30e
100
AcDbEntity
  8
Calque_1
 62
1
100
AcDbLine
 10
1058.924561
 20
249.501196
 30
0.0
 11
1061.924555
 21
249.501196
 31
0.0
  0
LINE
  5
30f
100
AcDbEntity
  8
Calque_1
 62
1
100
AcDbLine
 10
1061.924555
 20
249.501196
 30
0.0
 11
1061.924555
 21
259.401213
 31
0.0
  0
LINE
  5
310
100
AcDbEntity
  8
Calque_1
 62
1
100
AcDbLine
 10
1061.924555
 20
259.401213
 30
0.0
 11
1058.924561
 21
259.401213
 31
0.0
  0
LINE
  5
311
100
AcDbEntity
  8
Calque_1
 62
1
100
AcDbLine
 10
1058.924561
 20
259.401213
 30
0.0
 11
1058.924561
 21
269.501211
 31
0.0
  0
LINE
  5
312
100
AcDbEntity
  8
Calque_1
 62
1
100
AcDbLine
 10
1058.924561
 20
269.501211
 30
0.0
 11
1061.924555
 21
269.501211
 31
0.0
  0
LINE
  5
313
100
AcDbEntity
  8
Calque_1
 62
1
100
AcDbLine
 10
1061.924555
 20
269.501211
 30
0.0
 11
1061.924555
 21
279.401200
 31
0.0
  0
LINE
  5
314
100
AcDbEntity
  8
Calque_1
 62
1
100
AcDbLine
 10
1061.924555
 20
279.401200
 30
0.0
 11
1058.924561
 21
279.401200
 31
0.0
  0
LINE
  5
315
100
AcDbEntity
  8
Calque_1
 62
1
100
AcDbLine
 10
1058.924561
 20
279.401200
 30
0.0
 11
1058.924561
 21
289.501199
 31
0.0
  0
LINE
  5
316
100
AcDbEntity
  8
Calque_1
 62
1
100
AcDbLine
 10
1058.924561
 20
289.501199
 30
0.0
 11
1061.924555
 21
289.501199
 31
0.0
  0
LINE
  5
317
100
AcDbEntity
  8
Calque_1
 62
1
100
AcDbLine
 10
1061.924555
 20
289.501199
 30
0.0
 11
1061.924555
 21
299.401216
 31
0.0
  0
LINE
  5
318
100
AcDbEntity
  8
Calque_1
 62
1
100
AcDbLine
 10
1061.924555
 20
299.401216
 30
0.0
 11
1058.924561
 21
299.401216
 31
0.0
  0
LINE
  5
319
100
AcDbEntity
  8
Calque_1
 62
1
100
AcDbLine
 10
1058.924561
 20
299.401216
 30
0.0
 11
1058.924561
 21
309.501216
 31
0.0
  0
LINE
  5
31a
100
AcDbEntity
  8
Calque_1
 62
1
100
AcDbLine
 10
1058.924561
 20
309.501216
 30
0.0
 11
1061.924555
 21
309.501216
 31
0.0
  0
LINE
  5
31b
100
AcDbEntity
  8
Calque_1
 62
1
100
AcDbLine
 10
1061.924555
 20
309.501216
 30
0.0
 11
1061.924555
 21
319.401204
 31
0.0
  0
LINE
  5
31c
100
AcDbEntity
  8
Calque_1
 62
1
100
AcDbLine
 10
1061.924555
 20
319.401204
 30
0.0
 11
1058.924561
 21
319.401204
 31
0.0
  0
LINE
  5
31d
100
AcDbEntity
  8
Calque_1
 62
1
100
AcDbLine
 10
1058.924561
 20
319.401204
 30
0.0
 11
1058.924561
 21
329.501203
 31
0.0
  0
LINE
  5
31e
100
AcDbEntity
  8
Calque_1
 62
1
100
AcDbLine
 10
1058.924561
 20
329.501203
 30
0.0
 11
1061.924555
 21
329.501203
 31
0.0
  0
LINE
  5
31f
100
AcDbEntity
  8
Calque_1
 62
1
100
AcDbLine
 10
1061.924555
 20
329.501203
 30
0.0
 11
1061.924555
 21
339.401219
 31
0.0
  0
LINE
  5
320
100
AcDbEntity
  8
Calque_1
 62
1
100
AcDbLine
 10
1061.924555
 20
339.401219
 30
0.0
 11
1058.924561
 21
339.401219
 31
0.0
  0
LINE
  5
321
100
AcDbEntity
  8
Calque_1
 62
1
100
AcDbLine
 10
1058.924561
 20
339.401219
 30
0.0
 11
1058.924561
 21
349.501222
 31
0.0
  0
LINE
  5
322
100
AcDbEntity
  8
Calque_1
 62
1
100
AcDbLine
 10
1058.924561
 20
349.501222
 30
0.0
 11
1061.924555
 21
349.501222
 31
0.0
  0
LINE
  5
323
100
AcDbEntity
  8
Calque_1
 62
1
100
AcDbLine
 10
1061.924555
 20
349.501222
 30
0.0
 11
1061.924555
 21
359.401211
 31
0.0
  0
LINE
  5
324
100
AcDbEntity
  8
Calque_1
 62
1
100
AcDbLine
 10
1061.924555
 20
359.401211
 30
0.0
 11
1058.924561
 21
359.401211
 31
0.0
  0
LINE
  5
325
100
AcDbEntity
  8
Calque_1
 62
1
100
AcDbLine
 10
1058.924561
 20
359.401211
 30
0.0
 11
1058.924561
 21
369.501210
 31
0.0
  0
LINE
  5
326
100
AcDbEntity
  8
Calque_1
 62
1
100
AcDbLine
 10
1058.924561
 20
369.501210
 30
0.0
 11
1061.924555
 21
369.501210
 31
0.0
  0
LINE
  5
327
100
AcDbEntity
  8
Calque_1
 62
1
100
AcDbLine
 10
1061.924555
 20
369.501210
 30
0.0
 11
1061.924555
 21
379.401199
 31
0.0
  0
LINE
  5
328
100
AcDbEntity
  8
Calque_1
 62
1
100
AcDbLine
 10
1061.924555
 20
379.401199
 30
0.0
 11
1058.924561
 21
379.401199
 31
0.0
  0
LINE
  5
329
100
AcDbEntity
  8
Calque_1
 62
1
100
AcDbLine
 10
1058.924561
 20
379.401199
 30
0.0
 11
1058.924561
 21
389.501212
 31
0.0
  0
LINE
  5
32a
100
AcDbEntity
  8
Calque_1
 62
1
100
AcDbLine
 10
1058.924561
 20
389.501212
 30
0.0
 11
1061.924555
 21
389.501212
 31
0.0
  0
LINE
  5
32b
100
AcDbEntity
  8
Calque_1
 62
1
100
AcDbLine
 10
1061.924555
 20
389.501212
 30
0.0
 11
1061.924555
 21
399.401229
 31
0.0
  0
LINE
  5
32c
100
AcDbEntity
  8
Calque_1
 62
1
100
AcDbLine
 10
1061.924555
 20
399.401229
 30
0.0
 11
1058.924561
 21
399.401229
 31
0.0
  0
LINE
  5
32d
100
AcDbEntity
  8
Calque_1
 62
1
100
AcDbLine
 10
1058.924561
 20
399.401229
 30
0.0
 11
1058.924561
 21
409.501229
 31
0.0
  0
LINE
  5
32e
100
AcDbEntity
  8
Calque_1
 62
1
100
AcDbLine
 10
1058.924561
 20
409.501229
 30
0.0
 11
1061.924555
 21
409.501229
 31
0.0
  0
LINE
  5
32f
100
AcDbEntity
  8
Calque_1
 62
1
100
AcDbLine
 10
1061.924555
 20
409.501229
 30
0.0
 11
1061.924555
 21
419.401218
 31
0.0
  0
LINE
  5
330
100
AcDbEntity
  8
Calque_1
 62
1
100
AcDbLine
 10
1061.924555
 20
419.401218
 30
0.0
 11
1058.924561
 21
419.401218
 31
0.0
  0
LINE
  5
331
100
AcDbEntity
  8
Calque_1
 62
1
100
AcDbLine
 10
1058.924561
 20
419.401218
 30
0.0
 11
1058.924561
 21
429.501217
 31
0.0
  0
LINE
  5
332
100
AcDbEntity
  8
Calque_1
 62
1
100
AcDbLine
 10
1058.924561
 20
429.501217
 30
0.0
 11
1061.924555
 21
429.501217
 31
0.0
  0
LINE
  5
333
100
AcDbEntity
  8
Calque_1
 62
1
100
AcDbLine
 10
1061.924555
 20
429.501217
 30
0.0
 11
1061.924555
 21
439.401234
 31
0.0
  0
LINE
  5
334
100
AcDbEntity
  8
Calque_1
 62
1
100
AcDbLine
 10
1061.924555
 20
439.401234
 30
0.0
 11
1058.924561
 21
439.401234
 31
0.0
  0
LINE
  5
335
100
AcDbEntity
  8
Calque_1
 62
1
100
AcDbLine
 10
1058.924561
 20
439.401234
 30
0.0
 11
1058.924561
 21
449.501234
 31
0.0
  0
LINE
  5
336
100
AcDbEntity
  8
Calque_1
 62
1
100
AcDbLine
 10
1058.924561
 20
449.501234
 30
0.0
 11
1061.924555
 21
449.501234
 31
0.0
  0
LINE
  5
337
100
AcDbEntity
  8
Calque_1
 62
1
100
AcDbLine
 10
1061.924555
 20
449.501234
 30
0.0
 11
1061.924555
 21
459.401222
 31
0.0
  0
LINE
  5
338
100
AcDbEntity
  8
Calque_1
 62
1
100
AcDbLine
 10
1061.924555
 20
459.401222
 30
0.0
 11
1058.924561
 21
459.401222
 31
0.0
  0
LINE
  5
339
100
AcDbEntity
  8
Calque_1
 62
1
100
AcDbLine
 10
1058.924561
 20
459.401222
 30
0.0
 11
1058.924561
 21
469.501222
 31
0.0
  0
LINE
  5
33a
100
AcDbEntity
  8
Calque_1
 62
1
100
AcDbLine
 10
1058.924561
 20
469.501222
 30
0.0
 11
1061.924555
 21
469.501222
 31
0.0
  0
LINE
  5
33b
100
AcDbEntity
  8
Calque_1
 62
1
100
AcDbLine
 10
1061.924555
 20
469.501222
 30
0.0
 11
1061.924555
 21
479.401210
 31
0.0
  0
LINE
  5
33c
100
AcDbEntity
  8
Calque_1
 62
1
100
AcDbLine
 10
1061.924555
 20
479.401210
 30
0.0
 11
1058.924561
 21
479.401210
 31
0.0
  0
LINE
  5
33d
100
AcDbEntity
  8
Calque_1
 62
1
100
AcDbLine
 10
1058.924561
 20
479.401210
 30
0.0
 11
1058.924561
 21
489.501210
 31
0.0
  0
LINE
  5
33e
100
AcDbEntity
  8
Calque_1
 62
1
100
AcDbLine
 10
1058.924561
 20
489.501210
 30
0.0
 11
1061.924555
 21
489.501210
 31
0.0
  0
LINE
  5
33f
100
AcDbEntity
  8
Calque_1
 62
1
100
AcDbLine
 10
1061.924555
 20
489.501210
 30
0.0
 11
1061.924555
 21
499.401227
 31
0.0
  0
LINE
  5
340
100
AcDbEntity
  8
Calque_1
 62
1
100
AcDbLine
 10
1061.924555
 20
499.401227
 30
0.0
 11
1058.924561
 21
499.401227
 31
0.0
  0
LINE
  5
341
100
AcDbEntity
  8
Calque_1
 62
1
100
AcDbLine
 10
1058.924561
 20
499.401227
 30
0.0
 11
1058.924561
 21
509.501226
 31
0.0
  0
LINE
  5
342
100
AcDbEntity
  8
Calque_1
 62
1
100
AcDbLine
 10
1058.924561
 20
509.501226
 30
0.0
 11
1061.924555
 21
509.501226
 31
0.0
  0
LINE
  5
343
100
AcDbEntity
  8
Calque_1
 62
1
100
AcDbLine
 10
1061.924555
 20
509.501226
 30
0.0
 11
1061.924555
 21
519.401215
 31
0.0
  0
LINE
  5
344
100
AcDbEntity
  8
Calque_1
 62
1
100
AcDbLine
 10
1061.924555
 20
519.401215
 30
0.0
 11
1058.924561
 21
519.401215
 31
0.0
  0
LINE
  5
345
100
AcDbEntity
  8
Calque_1
 62
1
100
AcDbLine
 10
1058.924561
 20
519.401215
 30
0.0
 11
1058.924561
 21
529.501215
 31
0.0
  0
LINE
  5
346
100
AcDbEntity
  8
Calque_1
 62
1
100
AcDbLine
 10
1058.924561
 20
529.501215
 30
0.0
 11
1061.924555
 21
529.501215
 31
0.0
  0
LINE
  5
347
100
AcDbEntity
  8
Calque_1
 62
1
100
AcDbLine
 10
1061.924555
 20
529.501215
 30
0.0
 11
1061.924555
 21
539.401232
 31
0.0
  0
LINE
  5
348
100
AcDbEntity
  8
Calque_1
 62
1
100
AcDbLine
 10
1061.924555
 20
539.401232
 30
0.0
 11
1058.924561
 21
539.401232
 31
0.0
  0
LINE
  5
349
100
AcDbEntity
  8
Calque_1
 62
1
100
AcDbLine
 10
1058.924561
 20
539.401232
 30
0.0
 11
1058.924561
 21
549.501231
 31
0.0
  0
LINE
  5
34a
100
AcDbEntity
  8
Calque_1
 62
1
100
AcDbLine
 10
1058.924561
 20
549.501231
 30
0.0
 11
1061.924555
 21
549.501231
 31
0.0
  0
LINE
  5
34b
100
AcDbEntity
  8
Calque_1
 62
1
100
AcDbLine
 10
1061.924555
 20
549.501231
 30
0.0
 11
1061.924555
 21
559.401220
 31
0.0
  0
LINE
  5
34c
100
AcDbEntity
  8
Calque_1
 62
1
100
AcDbLine
 10
1061.924555
 20
559.401220
 30
0.0
 11
1058.924561
 21
559.401220
 31
0.0
  0
LINE
  5
34d
100
AcDbEntity
  8
Calque_1
 62
1
100
AcDbLine
 10
1058.924561
 20
559.401220
 30
0.0
 11
1058.924561
 21
569.501219
 31
0.0
  0
LINE
  5
34e
100
AcDbEntity
  8
Calque_1
 62
1
100
AcDbLine
 10
1058.924561
 20
569.501219
 30
0.0
 11
1061.924555
 21
569.501219
 31
0.0
  0
LINE
  5
34f
100
AcDbEntity
  8
Calque_1
 62
1
100
AcDbLine
 10
1061.924555
 20
569.501219
 30
0.0
 11
1061.924555
 21
579.401245
 31
0.0
  0
LINE
  5
350
100
AcDbEntity
  8
Calque_1
 62
1
100
AcDbLine
 10
1061.924555
 20
579.401245
 30
0.0
 11
1058.924561
 21
579.401245
 31
0.0
  0
LINE
  5
351
100
AcDbEntity
  8
Calque_1
 62
1
100
AcDbLine
 10
1058.924561
 20
579.401245
 30
0.0
 11
1058.924561
 21
589.501244
 31
0.0
  0
LINE
  5
352
100
AcDbEntity
  8
Calque_1
 62
1
100
AcDbLine
 10
1058.924561
 20
589.501244
 30
0.0
 11
1061.924555
 21
589.501244
 31
0.0
  0
LINE
  5
353
100
AcDbEntity
  8
Calque_1
 62
1
100
AcDbLine
 10
1061.924555
 20
589.501244
 30
0.0
 11
1061.924555
 21
599.401205
 31
0.0
  0
LINE
  5
354
100
AcDbEntity
  8
Calque_1
 62
1
100
AcDbLine
 10
1061.924555
 20
599.401205
 30
0.0
 11
1058.924561
 21
599.401205
 31
0.0
  0
LINE
  5
355
100
AcDbEntity
  8
Calque_1
 62
1
100
AcDbLine
 10
1058.924561
 20
599.401205
 30
0.0
 11
1058.924561
 21
609.501204
 31
0.0
  0
LINE
  5
356
100
AcDbEntity
  8
Calque_1
 62
1
100
AcDbLine
 10
1058.924561
 20
609.501204
 30
0.0
 11
1061.924555
 21
609.501204
 31
0.0
  0
LINE
  5
357
100
AcDbEntity
  8
Calque_1
 62
1
100
AcDbLine
 10
1061.924555
 20
609.501204
 30
0.0
 11
1061.924555
 21
619.401193
 31
0.0
  0
LINE
  5
358
100
AcDbEntity
  8
Calque_1
 62
1
100
AcDbLine
 10
1061.924555
 20
619.401193
 30
0.0
 11
1058.924561
 21
619.401193
 31
0.0
  0
LINE
  5
359
100
AcDbEntity
  8
Calque_1
 62
1
100
AcDbLine
 10
1058.924561
 20
619.401193
 30
0.0
 11
1058.924561
 21
629.501192
 31
0.0
  0
LINE
  5
35a
100
AcDbEntity
  8
Calque_1
 62
1
100
AcDbLine
 10
1058.924561
 20
629.501192
 30
0.0
 11
1061.924555
 21
629.501192
 31
0.0
  0
LINE
  5
35b
100
AcDbEntity
  8
Calque_1
 62
1
100
AcDbLine
 10
1061.924555
 20
629.501192
 30
0.0
 11
1061.924555
 21
639.401209
 31
0.0
  0
LINE
  5
35c
100
AcDbEntity
  8
Calque_1
 62
1
100
AcDbLine
 10
1061.924555
 20
639.401209
 30
0.0
 11
1058.924561
 21
639.401209
 31
0.0
  0
LINE
  5
35d
100
AcDbEntity
  8
Calque_1
 62
1
100
AcDbLine
 10
1058.924561
 20
639.401209
 30
0.0
 11
1058.924561
 21
649.501209
 31
0.0
  0
LINE
  5
35e
100
AcDbEntity
  8
Calque_1
 62
1
100
AcDbLine
 10
1058.924561
 20
649.501209
 30
0.0
 11
1061.924555
 21
649.501209
 31
0.0
  0
LINE
  5
35f
100
AcDbEntity
  8
Calque_1
 62
1
100
AcDbLine
 10
1061.924555
 20
649.501209
 30
0.0
 11
1061.924555
 21
659.401198
 31
0.0
  0
LINE
  5
360
100
AcDbEntity
  8
Calque_1
 62
1
100
AcDbLine
 10
1061.924555
 20
659.401198
 30
0.0
 11
1058.924561
 21
659.401198
 31
0.0
  0
LINE
  5
361
100
AcDbEntity
  8
Calque_1
 62
1
100
AcDbLine
 10
1058.924561
 20
659.401198
 30
0.0
 11
1058.924561
 21
669.501197
 31
0.0
  0
LINE
  5
362
100
AcDbEntity
  8
Calque_1
 62
1
100
AcDbLine
 10
1058.924561
 20
669.501197
 30
0.0
 11
1061.924555
 21
669.501197
 31
0.0
  0
LINE
  5
363
100
AcDbEntity
  8
Calque_1
 62
1
100
AcDbLine
 10
1061.924555
 20
669.501197
 30
0.0
 11
1061.924555
 21
679.401214
 31
0.0
  0
LINE
  5
364
100
AcDbEntity
  8
Calque_1
 62
1
100
AcDbLine
 10
1061.924555
 20
679.401214
 30
0.0
 11
1058.924561
 21
679.401214
 31
0.0
  0
LINE
  5
365
100
AcDbEntity
  8
Calque_1
 62
1
100
AcDbLine
 10
1058.924561
 20
679.401214
 30
0.0
 11
1058.924561
 21
689.501214
 31
0.0
  0
LINE
  5
366
100
AcDbEntity
  8
Calque_1
 62
1
100
AcDbLine
 10
1058.924561
 20
689.501214
 30
0.0
 11
1061.924555
 21
689.501214
 31
0.0
  0
LINE
  5
367
100
AcDbEntity
  8
Calque_1
 62
1
100
AcDbLine
 10
1061.924555
 20
689.501214
 30
0.0
 11
1061.924555
 21
699.401202
 31
0.0
  0
LINE
  5
368
100
AcDbEntity
  8
Calque_1
 62
1
100
AcDbLine
 10
1061.924555
 20
699.401202
 30
0.0
 11
1058.924561
 21
699.401202
 31
0.0
  0
LINE
  5
369
100
AcDbEntity
  8
Calque_1
 62
1
100
AcDbLine
 10
1058.924561
 20
699.401202
 30
0.0
 11
1058.924561
 21
709.501202
 31
0.0
  0
LINE
  5
36a
100
AcDbEntity
  8
Calque_1
 62
1
100
AcDbLine
 10
1058.924561
 20
709.501202
 30
0.0
 11
1061.924555
 21
709.501202
 31
0.0
  0
LINE
  5
36b
100
AcDbEntity
  8
Calque_1
 62
1
100
AcDbLine
 10
1061.924555
 20
709.501202
 30
0.0
 11
1061.924555
 21
719.401190
 31
0.0
  0
LINE
  5
36c
100
AcDbEntity
  8
Calque_1
 62
1
100
AcDbLine
 10
1061.924555
 20
719.401190
 30
0.0
 11
1058.924561
 21
719.401190
 31
0.0
  0
LINE
  5
36d
100
AcDbEntity
  8
Calque_1
 62
1
100
AcDbLine
 10
1058.924561
 20
719.401190
 30
0.0
 11
1058.924561
 21
729.501190
 31
0.0
  0
LINE
  5
36e
100
AcDbEntity
  8
Calque_1
 62
1
100
AcDbLine
 10
1058.924561
 20
729.501190
 30
0.0
 11
1061.924555
 21
729.501190
 31
0.0
  0
LINE
  5
36f
100
AcDbEntity
  8
Calque_1
 62
1
100
AcDbLine
 10
1061.924555
 20
729.501190
 30
0.0
 11
1061.924555
 21
739.401207
 31
0.0
  0
LINE
  5
370
100
AcDbEntity
  8
Calque_1
 62
1
100
AcDbLine
 10
1061.924555
 20
739.401207
 30
0.0
 11
1058.924561
 21
739.401207
 31
0.0
  0
LINE
  5
371
100
AcDbEntity
  8
Calque_1
 62
1
100
AcDbLine
 10
1058.924561
 20
739.401207
 30
0.0
 11
1058.924561
 21
749.501206
 31
0.0
  0
LINE
  5
372
100
AcDbEntity
  8
Calque_1
 62
1
100
AcDbLine
 10
1058.924561
 20
749.501206
 30
0.0
 11
1061.924555
 21
749.501206
 31
0.0
  0
LINE
  5
373
100
AcDbEntity
  8
Calque_1
 62
1
100
AcDbLine
 10
1061.924555
 20
749.501206
 30
0.0
 11
1061.924555
 21
759.401195
 31
0.0
  0
LINE
  5
374
100
AcDbEntity
  8
Calque_1
 62
1
100
AcDbLine
 10
1061.924555
 20
759.401195
 30
0.0
 11
1058.924561
 21
759.401195
 31
0.0
  0
LINE
  5
375
100
AcDbEntity
  8
Calque_1
 62
1
100
AcDbLine
 10
1058.924561
 20
759.401195
 30
0.0
 11
1058.924561
 21
769.501195
 31
0.0
  0
LINE
  5
376
100
AcDbEntity
  8
Calque_1
 62
1
100
AcDbLine
 10
1058.924561
 20
769.501195
 30
0.0
 11
1061.924555
 21
769.501195
 31
0.0
  0
LINE
  5
377
100
AcDbEntity
  8
Calque_1
 62
1
100
AcDbLine
 10
1061.924555
 20
769.501195
 30
0.0
 11
1061.924555
 21
779.451193
 31
0.0
  0
LINE
  5
378
100
AcDbEntity
  8
Calque_1
 62
1
100
AcDbLine
 10
1061.924555
 20
779.451193
 30
0.0
 11
1077.641228
 21
779.451193
 31
0.0
  0
LINE
  5
379
100
AcDbEntity
  8
Calque_1
 62
1
100
AcDbLine
 10
1077.641228
 20
779.451193
 30
0.0
 11
1077.641228
 21
776.451199
 31
0.0
  0
LINE
  5
37a
100
AcDbEntity
  8
Calque_1
 62
1
100
AcDbLine
 10
1077.641228
 20
776.451199
 30
0.0
 11
1093.207872
 21
776.451199
 31
0.0
  0
LINE
  5
37b
100
AcDbEntity
  8
Calque_1
 62
1
100
AcDbLine
 10
1093.207872
 20
776.451199
 30
0.0
 11
1093.207872
 21
779.451193
 31
0.0
  0
LINE
  5
37c
100
AcDbEntity
  8
Calque_1
 62
1
100
AcDbLine
 10
1093.207872
 20
779.451193
 30
0.0
 11
1108.924545
 21
779.451193
 31
0.0
  0
LINE
  5
37d
100
AcDbEntity
  8
Calque_1
 62
1
100
AcDbLine
 10
1108.924545
 20
779.451193
 30
0.0
 11
1108.924545
 21
779.451193
 31
0.0
  0
LINE
  5
37e
100
AcDbEntity
  8
Calque_1
 62
1
100
AcDbLine
 10
359.078163
 20
775.752671
 30
0.0
 11
359.078163
 21
165.752680
 31
0.0
  0
LINE
  5
37f
100
AcDbEntity
  8
Calque_1
 62
1
100
AcDbLine
 10
359.078163
 20
165.752680
 30
0.0
 11
343.361518
 21
165.752680
 31
0.0
  0
LINE
  5
380
100
AcDbEntity
  8
Calque_1
 62
1
100
AcDbLine
 10
343.361518
 20
165.752680
 30
0.0
 11
343.361518
 21
168.752674
 31
0.0
  0
LINE
  5
381
100
AcDbEntity
  8
Calque_1
 62
1
100
AcDbLine
 10
343.361518
 20
168.752674
 30
0.0
 11
327.794846
 21
168.752674
 31
0.0
  0
LINE
  5
382
100
AcDbEntity
  8
Calque_1
 62
1
100
AcDbLine
 10
327.794846
 20
168.752674
 30
0.0
 11
327.794846
 21
165.752680
 31
0.0
  0
LINE
  5
383
100
AcDbEntity
  8
Calque_1
 62
1
100
AcDbLine
 10
327.794846
 20
165.752680
 30
0.0
 11
312.078172
 21
165.752680
 31
0.0
  0
LINE
  5
384
100
AcDbEntity
  8
Calque_1
 62
1
100
AcDbLine
 10
312.078172
 20
165.752680
 30
0.0
 11
312.078172
 21
175.702679
 31
0.0
  0
LINE
  5
385
100
AcDbEntity
  8
Calque_1
 62
1
100
AcDbLine
 10
312.078172
 20
175.702679
 30
0.0
 11
309.078178
 21
175.702679
 31
0.0
  0
LINE
  5
386
100
AcDbEntity
  8
Calque_1
 62
1
100
AcDbLine
 10
309.078178
 20
175.702679
 30
0.0
 11
309.078178
 21
185.802678
 31
0.0
  0
LINE
  5
387
100
AcDbEntity
  8
Calque_1
 62
1
100
AcDbLine
 10
309.078178
 20
185.802678
 30
0.0
 11
312.078172
 21
185.802678
 31
0.0
  0
LINE
  5
388
100
AcDbEntity
  8
Calque_1
 62
1
100
AcDbLine
 10
312.078172
 20
185.802678
 30
0.0
 11
312.078172
 21
195.702667
 31
0.0
  0
LINE
  5
389
100
AcDbEntity
  8
Calque_1
 62
1
100
AcDbLine
 10
312.078172
 20
195.702667
 30
0.0
 11
309.078178
 21
195.702667
 31
0.0
  0
LINE
  5
38a
100
AcDbEntity
  8
Calque_1
 62
1
100
AcDbLine
 10
309.078178
 20
195.702667
 30
0.0
 11
309.078178
 21
205.802666
 31
0.0
  0
LINE
  5
38b
100
AcDbEntity
  8
Calque_1
 62
1
100
AcDbLine
 10
309.078178
 20
205.802666
 30
0.0
 11
312.078172
 21
205.802666
 31
0.0
  0
LINE
  5
38c
100
AcDbEntity
  8
Calque_1
 62
1
100
AcDbLine
 10
312.078172
 20
205.802666
 30
0.0
 11
312.078172
 21
215.702655
 31
0.0
  0
LINE
  5
38d
100
AcDbEntity
  8
Calque_1
 62
1
100
AcDbLine
 10
312.078172
 20
215.702655
 30
0.0
 11
309.078178
 21
215.702655
 31
0.0
  0
LINE
  5
38e
100
AcDbEntity
  8
Calque_1
 62
1
100
AcDbLine
 10
309.078178
 20
215.702655
 30
0.0
 11
309.078178
 21
225.802655
 31
0.0
  0
LINE
  5
38f
100
AcDbEntity
  8
Calque_1
 62
1
100
AcDbLine
 10
309.078178
 20
225.802655
 30
0.0
 11
312.078172
 21
225.802655
 31
0.0
  0
LINE
  5
390
100
AcDbEntity
  8
Calque_1
 62
1
100
AcDbLine
 10
312.078172
 20
225.802655
 30
0.0
 11
312.078172
 21
235.702671
 31
0.0
  0
LINE
  5
391
100
AcDbEntity
  8
Calque_1
 62
1
100
AcDbLine
 10
312.078172
 20
235.702671
 30
0.0
 11
309.078178
 21
235.702671
 31
0.0
  0
LINE
  5
392
100
AcDbEntity
  8
Calque_1
 62
1
100
AcDbLine
 10
309.078178
 20
235.702671
 30
0.0
 11
309.078178
 21
245.802671
 31
0.0
  0
LINE
  5
393
100
AcDbEntity
  8
Calque_1
 62
1
100
AcDbLine
 10
309.078178
 20
245.802671
 30
0.0
 11
312.078172
 21
245.802671
 31
0.0
  0
LINE
  5
394
100
AcDbEntity
  8
Calque_1
 62
1
100
AcDbLine
 10
312.078172
 20
245.802671
 30
0.0
 11
312.078172
 21
255.702660
 31
0.0
  0
LINE
  5
395
100
AcDbEntity
  8
Calque_1
 62
1
100
AcDbLine
 10
312.078172
 20
255.702660
 30
0.0
 11
309.078178
 21
255.702660
 31
0.0
  0
LINE
  5
396
100
AcDbEntity
  8
Calque_1
 62
1
100
AcDbLine
 10
309.078178
 20
255.702660
 30
0.0
 11
309.078178
 21
265.802659
 31
0.0
  0
LINE
  5
397
100
AcDbEntity
  8
Calque_1
 62
1
100
AcDbLine
 10
309.078178
 20
265.802659
 30
0.0
 11
312.078172
 21
265.802659
 31
0.0
  0
LINE
  5
398
100
AcDbEntity
  8
Calque_1
 62
1
100
AcDbLine
 10
312.078172
 20
265.802659
 30
0.0
 11
312.078172
 21
275.702677
 31
0.0
  0
LINE
  5
399
100
AcDbEntity
  8
Calque_1
 62
1
100
AcDbLine
 10
312.078172
 20
275.702677
 30
0.0
 11
309.078178
 21
275.702677
 31
0.0
  0
LINE
  5
39a
100
AcDbEntity
  8
Calque_1
 62
1
100
AcDbLine
 10
309.078178
 20
275.702677
 30
0.0
 11
309.078178
 21
285.802676
 31
0.0
  0
LINE
  5
39b
100
AcDbEntity
  8
Calque_1
 62
1
100
AcDbLine
 10
309.078178
 20
285.802676
 30
0.0
 11
312.078172
 21
285.802676
 31
0.0
  0
LINE
  5
39c
100
AcDbEntity
  8
Calque_1
 62
1
100
AcDbLine
 10
312.078172
 20
285.802676
 30
0.0
 11
312.078172
 21
295.702665
 31
0.0
  0
LINE
  5
39d
100
AcDbEntity
  8
Calque_1
 62
1
100
AcDbLine
 10
312.078172
 20
295.702665
 30
0.0
 11
309.078178
 21
295.702665
 31
0.0
  0
LINE
  5
39e
100
AcDbEntity
  8
Calque_1
 62
1
100
AcDbLine
 10
309.078178
 20
295.702665
 30
0.0
 11
309.078178
 21
305.802664
 31
0.0
  0
LINE
  5
39f
100
AcDbEntity
  8
Calque_1
 62
1
100
AcDbLine
 10
309.078178
 20
305.802664
 30
0.0
 11
312.078172
 21
305.802664
 31
0.0
  0
LINE
  5
3a0
100
AcDbEntity
  8
Calque_1
 62
1
100
AcDbLine
 10
312.078172
 20
305.802664
 30
0.0
 11
312.078172
 21
315.702681
 31
0.0
  0
LINE
  5
3a1
100
AcDbEntity
  8
Calque_1
 62
1
100
AcDbLine
 10
312.078172
 20
315.702681
 30
0.0
 11
309.078178
 21
315.702681
 31
0.0
  0
LINE
  5
3a2
100
AcDbEntity
  8
Calque_1
 62
1
100
AcDbLine
 10
309.078178
 20
315.702681
 30
0.0
 11
309.078178
 21
325.802680
 31
0.0
  0
LINE
  5
3a3
100
AcDbEntity
  8
Calque_1
 62
1
100
AcDbLine
 10
309.078178
 20
325.802680
 30
0.0
 11
312.078172
 21
325.802680
 31
0.0
  0
LINE
  5
3a4
100
AcDbEntity
  8
Calque_1
 62
1
100
AcDbLine
 10
312.078172
 20
325.802680
 30
0.0
 11
312.078172
 21
335.702669
 31
0.0
  0
LINE
  5
3a5
100
AcDbEntity
  8
Calque_1
 62
1
100
AcDbLine
 10
312.078172
 20
335.702669
 30
0.0
 11
309.078178
 21
335.702669
 31
0.0
  0
LINE
  5
3a6
100
AcDbEntity
  8
Calque_1
 62
1
100
AcDbLine
 10
309.078178
 20
335.702669
 30
0.0
 11
309.078178
 21
345.802669
 31
0.0
  0
LINE
  5
3a7
100
AcDbEntity
  8
Calque_1
 62
1
100
AcDbLine
 10
309.078178
 20
345.802669
 30
0.0
 11
312.078172
 21
345.802669
 31
0.0
  0
LINE
  5
3a8
100
AcDbEntity
  8
Calque_1
 62
1
100
AcDbLine
 10
312.078172
 20
345.802669
 30
0.0
 11
312.078172
 21
355.702657
 31
0.0
  0
LINE
  5
3a9
100
AcDbEntity
  8
Calque_1
 62
1
100
AcDbLine
 10
312.078172
 20
355.702657
 30
0.0
 11
309.078178
 21
355.702657
 31
0.0
  0
LINE
  5
3aa
100
AcDbEntity
  8
Calque_1
 62
1
100
AcDbLine
 10
309.078178
 20
355.702657
 30
0.0
 11
309.078178
 21
365.802657
 31
0.0
  0
LINE
  5
3ab
100
AcDbEntity
  8
Calque_1
 62
1
100
AcDbLine
 10
309.078178
 20
365.802657
 30
0.0
 11
312.078172
 21
365.802657
 31
0.0
  0
LINE
  5
3ac
100
AcDbEntity
  8
Calque_1
 62
1
100
AcDbLine
 10
312.078172
 20
365.802657
 30
0.0
 11
312.078172
 21
375.702674
 31
0.0
  0
LINE
  5
3ad
100
AcDbEntity
  8
Calque_1
 62
1
100
AcDbLine
 10
312.078172
 20
375.702674
 30
0.0
 11
309.078178
 21
375.702674
 31
0.0
  0
LINE
  5
3ae
100
AcDbEntity
  8
Calque_1
 62
1
100
AcDbLine
 10
309.078178
 20
375.702674
 30
0.0
 11
309.078178
 21
385.802662
 31
0.0
  0
LINE
  5
3af
100
AcDbEntity
  8
Calque_1
 62
1
100
AcDbLine
 10
309.078178
 20
385.802662
 30
0.0
 11
312.078172
 21
385.802662
 31
0.0
  0
LINE
  5
3b0
100
AcDbEntity
  8
Calque_1
 62
1
100
AcDbLine
 10
312.078172
 20
385.802662
 30
0.0
 11
312.078172
 21
395.702651
 31
0.0
  0
LINE
  5
3b1
100
AcDbEntity
  8
Calque_1
 62
1
100
AcDbLine
 10
312.078172
 20
395.702651
 30
0.0
 11
309.078178
 21
395.702651
 31
0.0
  0
LINE
  5
3b2
100
AcDbEntity
  8
Calque_1
 62
1
100
AcDbLine
 10
309.078178
 20
395.702651
 30
0.0
 11
309.078178
 21
405.802650
 31
0.0
  0
LINE
  5
3b3
100
AcDbEntity
  8
Calque_1
 62
1
100
AcDbLine
 10
309.078178
 20
405.802650
 30
0.0
 11
312.078172
 21
405.802650
 31
0.0
  0
LINE
  5
3b4
100
AcDbEntity
  8
Calque_1
 62
1
100
AcDbLine
 10
312.078172
 20
405.802650
 30
0.0
 11
312.078172
 21
415.702667
 31
0.0
  0
LINE
  5
3b5
100
AcDbEntity
  8
Calque_1
 62
1
100
AcDbLine
 10
312.078172
 20
415.702667
 30
0.0
 11
309.078178
 21
415.702667
 31
0.0
  0
LINE
  5
3b6
100
AcDbEntity
  8
Calque_1
 62
1
100
AcDbLine
 10
309.078178
 20
415.702667
 30
0.0
 11
309.078178
 21
425.802667
 31
0.0
  0
LINE
  5
3b7
100
AcDbEntity
  8
Calque_1
 62
1
100
AcDbLine
 10
309.078178
 20
425.802667
 30
0.0
 11
312.078172
 21
425.802667
 31
0.0
  0
LINE
  5
3b8
100
AcDbEntity
  8
Calque_1
 62
1
100
AcDbLine
 10
312.078172
 20
425.802667
 30
0.0
 11
312.078172
 21
435.702655
 31
0.0
  0
LINE
  5
3b9
100
AcDbEntity
  8
Calque_1
 62
1
100
AcDbLine
 10
312.078172
 20
435.702655
 30
0.0
 11
309.078178
 21
435.702655
 31
0.0
  0
LINE
  5
3ba
100
AcDbEntity
  8
Calque_1
 62
1
100
AcDbLine
 10
309.078178
 20
435.702655
 30
0.0
 11
309.078178
 21
445.802655
 31
0.0
  0
LINE
  5
3bb
100
AcDbEntity
  8
Calque_1
 62
1
100
AcDbLine
 10
309.078178
 20
445.802655
 30
0.0
 11
312.078172
 21
445.802655
 31
0.0
  0
LINE
  5
3bc
100
AcDbEntity
  8
Calque_1
 62
1
100
AcDbLine
 10
312.078172
 20
445.802655
 30
0.0
 11
312.078172
 21
455.702644
 31
0.0
  0
LINE
  5
3bd
100
AcDbEntity
  8
Calque_1
 62
1
100
AcDbLine
 10
312.078172
 20
455.702644
 30
0.0
 11
309.078178
 21
455.702644
 31
0.0
  0
LINE
  5
3be
100
AcDbEntity
  8
Calque_1
 62
1
100
AcDbLine
 10
309.078178
 20
455.702644
 30
0.0
 11
309.078178
 21
465.802643
 31
0.0
  0
LINE
  5
3bf
100
AcDbEntity
  8
Calque_1
 62
1
100
AcDbLine
 10
309.078178
 20
465.802643
 30
0.0
 11
312.078172
 21
465.802643
 31
0.0
  0
LINE
  5
3c0
100
AcDbEntity
  8
Calque_1
 62
1
100
AcDbLine
 10
312.078172
 20
465.802643
 30
0.0
 11
312.078172
 21
475.702660
 31
0.0
  0
LINE
  5
3c1
100
AcDbEntity
  8
Calque_1
 62
1
100
AcDbLine
 10
312.078172
 20
475.702660
 30
0.0
 11
309.078178
 21
475.702660
 31
0.0
  0
LINE
  5
3c2
100
AcDbEntity
  8
Calque_1
 62
1
100
AcDbLine
 10
309.078178
 20
475.702660
 30
0.0
 11
309.078178
 21
485.802660
 31
0.0
  0
LINE
  5
3c3
100
AcDbEntity
  8
Calque_1
 62
1
100
AcDbLine
 10
309.078178
 20
485.802660
 30
0.0
 11
312.078172
 21
485.802660
 31
0.0
  0
LINE
  5
3c4
100
AcDbEntity
  8
Calque_1
 62
1
100
AcDbLine
 10
312.078172
 20
485.802660
 30
0.0
 11
312.078172
 21
495.702648
 31
0.0
  0
LINE
  5
3c5
100
AcDbEntity
  8
Calque_1
 62
1
100
AcDbLine
 10
312.078172
 20
495.702648
 30
0.0
 11
309.078178
 21
495.702648
 31
0.0
  0
LINE
  5
3c6
100
AcDbEntity
  8
Calque_1
 62
1
100
AcDbLine
 10
309.078178
 20
495.702648
 30
0.0
 11
309.078178
 21
505.802648
 31
0.0
  0
LINE
  5
3c7
100
AcDbEntity
  8
Calque_1
 62
1
100
AcDbLine
 10
309.078178
 20
505.802648
 30
0.0
 11
312.078172
 21
505.802648
 31
0.0
  0
LINE
  5
3c8
100
AcDbEntity
  8
Calque_1
 62
1
100
AcDbLine
 10
312.078172
 20
505.802648
 30
0.0
 11
312.078172
 21
515.702665
 31
0.0
  0
LINE
  5
3c9
100
AcDbEntity
  8
Calque_1
 62
1
100
AcDbLine
 10
312.078172
 20
515.702665
 30
0.0
 11
309.078178
 21
515.702665
 31
0.0
  0
LINE
  5
3ca
100
AcDbEntity
  8
Calque_1
 62
1
100
AcDbLine
 10
309.078178
 20
515.702665
 30
0.0
 11
309.078178
 21
525.802659
 31
0.0
  0
LINE
  5
3cb
100
AcDbEntity
  8
Calque_1
 62
1
100
AcDbLine
 10
309.078178
 20
525.802659
 30
0.0
 11
312.078172
 21
525.802659
 31
0.0
  0
LINE
  5
3cc
100
AcDbEntity
  8
Calque_1
 62
1
100
AcDbLine
 10
312.078172
 20
525.802659
 30
0.0
 11
312.078172
 21
535.702659
 31
0.0
  0
LINE
  5
3cd
100
AcDbEntity
  8
Calque_1
 62
1
100
AcDbLine
 10
312.078172
 20
535.702659
 30
0.0
 11
309.078178
 21
535.702659
 31
0.0
  0
LINE
  5
3ce
100
AcDbEntity
  8
Calque_1
 62
1
100
AcDbLine
 10
309.078178
 20
535.702659
 30
0.0
 11
309.078178
 21
545.802658
 31
0.0
  0
LINE
  5
3cf
100
AcDbEntity
  8
Calque_1
 62
1
100
AcDbLine
 10
309.078178
 20
545.802658
 30
0.0
 11
312.078172
 21
545.802658
 31
0.0
  0
LINE
  5
3d0
100
AcDbEntity
  8
Calque_1
 62
1
100
AcDbLine
 10
312.078172
 20
545.802658
 30
0.0
 11
312.078172
 21
555.702658
 31
0.0
  0
LINE
  5
3d1
100
AcDbEntity
  8
Calque_1
 62
1
100
AcDbLine
 10
312.078172
 20
555.702658
 30
0.0
 11
309.078178
 21
555.702658
 31
0.0
  0
LINE
  5
3d2
100
AcDbEntity
  8
Calque_1
 62
1
100
AcDbLine
 10
309.078178
 20
555.702658
 30
0.0
 11
309.078178
 21
565.802658
 31
0.0
  0
LINE
  5
3d3
100
AcDbEntity
  8
Calque_1
 62
1
100
AcDbLine
 10
309.078178
 20
565.802658
 30
0.0
 11
312.078172
 21
565.802658
 31
0.0
  0
LINE
  5
3d4
100
AcDbEntity
  8
Calque_1
 62
1
100
AcDbLine
 10
312.078172
 20
565.802658
 30
0.0
 11
312.078172
 21
575.702658
 31
0.0
  0
LINE
  5
3d5
100
AcDbEntity
  8
Calque_1
 62
1
100
AcDbLine
 10
312.078172
 20
575.702658
 30
0.0
 11
309.078178
 21
575.702658
 31
0.0
  0
LINE
  5
3d6
100
AcDbEntity
  8
Calque_1
 62
1
100
AcDbLine
 10
309.078178
 20
575.702658
 30
0.0
 11
309.078178
 21
585.802666
 31
0.0
  0
LINE
  5
3d7
100
AcDbEntity
  8
Calque_1
 62
1
100
AcDbLine
 10
309.078178
 20
585.802666
 30
0.0
 11
312.078172
 21
585.802666
 31
0.0
  0
LINE
  5
3d8
100
AcDbEntity
  8
Calque_1
 62
1
100
AcDbLine
 10
312.078172
 20
585.802666
 30
0.0
 11
312.078172
 21
595.702654
 31
0.0
  0
LINE
  5
3d9
100
AcDbEntity
  8
Calque_1
 62
1
100
AcDbLine
 10
312.078172
 20
595.702654
 30
0.0
 11
309.078178
 21
595.702654
 31
0.0
  0
LINE
  5
3da
100
AcDbEntity
  8
Calque_1
 62
1
100
AcDbLine
 10
309.078178
 20
595.702654
 30
0.0
 11
309.078178
 21
605.802654
 31
0.0
  0
LINE
  5
3db
100
AcDbEntity
  8
Calque_1
 62
1
100
AcDbLine
 10
309.078178
 20
605.802654
 30
0.0
 11
312.078172
 21
605.802654
 31
0.0
  0
LINE
  5
3dc
100
AcDbEntity
  8
Calque_1
 62
1
100
AcDbLine
 10
312.078172
 20
605.802654
 30
0.0
 11
312.078172
 21
615.702671
 31
0.0
  0
LINE
  5
3dd
100
AcDbEntity
  8
Calque_1
 62
1
100
AcDbLine
 10
312.078172
 20
615.702671
 30
0.0
 11
309.078178
 21
615.702671
 31
0.0
  0
LINE
  5
3de
100
AcDbEntity
  8
Calque_1
 62
1
100
AcDbLine
 10
309.078178
 20
615.702671
 30
0.0
 11
309.078178
 21
625.802670
 31
0.0
  0
LINE
  5
3df
100
AcDbEntity
  8
Calque_1
 62
1
100
AcDbLine
 10
309.078178
 20
625.802670
 30
0.0
 11
312.078172
 21
625.802670
 31
0.0
  0
LINE
  5
3e0
100
AcDbEntity
  8
Calque_1
 62
1
100
AcDbLine
 10
312.078172
 20
625.802670
 30
0.0
 11
312.078172
 21
635.702659
 31
0.0
  0
LINE
  5
3e1
100
AcDbEntity
  8
Calque_1
 62
1
100
AcDbLine
 10
312.078172
 20
635.702659
 30
0.0
 11
309.078178
 21
635.702659
 31
0.0
  0
LINE
  5
3e2
100
AcDbEntity
  8
Calque_1
 62
1
100
AcDbLine
 10
309.078178
 20
635.702659
 30
0.0
 11
309.078178
 21
645.802658
 31
0.0
  0
LINE
  5
3e3
100
AcDbEntity
  8
Calque_1
 62
1
100
AcDbLine
 10
309.078178
 20
645.802658
 30
0.0
 11
312.078172
 21
645.802658
 31
0.0
  0
LINE
  5
3e4
100
AcDbEntity
  8
Calque_1
 62
1
100
AcDbLine
 10
312.078172
 20
645.802658
 30
0.0
 11
312.078172
 21
655.702647
 31
0.0
  0
LINE
  5
3e5
100
AcDbEntity
  8
Calque_1
 62
1
100
AcDbLine
 10
312.078172
 20
655.702647
 30
0.0
 11
309.078178
 21
655.702647
 31
0.0
  0
LINE
  5
3e6
100
AcDbEntity
  8
Calque_1
 62
1
100
AcDbLine
 10
309.078178
 20
655.702647
 30
0.0
 11
309.078178
 21
665.802647
 31
0.0
  0
LINE
  5
3e7
100
AcDbEntity
  8
Calque_1
 62
1
100
AcDbLine
 10
309.078178
 20
665.802647
 30
0.0
 11
312.078172
 21
665.802647
 31
0.0
  0
LINE
  5
3e8
100
AcDbEntity
  8
Calque_1
 62
1
100
AcDbLine
 10
312.078172
 20
665.802647
 30
0.0
 11
312.078172
 21
675.702664
 31
0.0
  0
LINE
  5
3e9
100
AcDbEntity
  8
Calque_1
 62
1
100
AcDbLine
 10
312.078172
 20
675.702664
 30
0.0
 11
309.078178
 21
675.702664
 31
0.0
  0
LINE
  5
3ea
100
AcDbEntity
  8
Calque_1
 62
1
100
AcDbLine
 10
309.078178
 20
675.702664
 30
0.0
 11
309.078178
 21
685.802663
 31
0.0
  0
LINE
  5
3eb
100
AcDbEntity
  8
Calque_1
 62
1
100
AcDbLine
 10
309.078178
 20
685.802663
 30
0.0
 11
312.078172
 21
685.802663
 31
0.0
  0
LINE
  5
3ec
100
AcDbEntity
  8
Calque_1
 62
1
100
AcDbLine
 10
312.078172
 20
685.802663
 30
0.0
 11
312.078172
 21
695.702652
 31
0.0
  0
LINE
  5
3ed
100
AcDbEntity
  8
Calque_1
 62
1
100
AcDbLine
 10
312.078172
 20
695.702652
 30
0.0
 11
309.078178
 21
695.702652
 31
0.0
  0
LINE
  5
3ee
100
AcDbEntity
  8
Calque_1
 62
1
100
AcDbLine
 10
309.078178
 20
695.702652
 30
0.0
 11
309.078178
 21
705.802651
 31
0.0
  0
LINE
  5
3ef
100
AcDbEntity
  8
Calque_1
 62
1
100
AcDbLine
 10
309.078178
 20
705.802651
 30
0.0
 11
312.078172
 21
705.802651
 31
0.0
  0
LINE
  5
3f0
100
AcDbEntity
  8
Calque_1
 62
1
100
AcDbLine
 10
312.078172
 20
705.802651
 30
0.0
 11
312.078172
 21
715.702668
 31
0.0
  0
LINE
  5
3f1
100
AcDbEntity
  8
Calque_1
 62
1
100
AcDbLine
 10
312.078172
 20
715.702668
 30
0.0
 11
309.078178
 21
715.702668
 31
0.0
  0
LINE
  5
3f2
100
AcDbEntity
  8
Calque_1
 62
1
100
AcDbLine
 10
309.078178
 20
715.702668
 30
0.0
 11
309.078178
 21
725.802668
 31
0.0
  0
LINE
  5
3f3
100
AcDbEntity
  8
Calque_1
 62
1
100
AcDbLine
 10
309.078178
 20
725.802668
 30
0.0
 11
312.078172
 21
725.802668
 31
0.0
  0
LINE
  5
3f4
100
AcDbEntity
  8
Calque_1
 62
1
100
AcDbLine
 10
312.078172
 20
725.802668
 30
0.0
 11
312.078172
 21
735.702656
 31
0.0
  0
LINE
  5
3f5
100
AcDbEntity
  8
Calque_1
 62
1
100
AcDbLine
 10
312.078172
 20
735.702656
 30
0.0
 11
309.078178
 21
735.702656
 31
0.0
  0
LINE
  5
3f6
100
AcDbEntity
  8
Calque_1
 62
1
100
AcDbLine
 10
309.078178
 20
735.702656
 30
0.0
 11
309.078178
 21
745.802656
 31
0.0
  0
LINE
  5
3f7
100
AcDbEntity
  8
Calque_1
 62
1
100
AcDbLine
 10
309.078178
 20
745.802656
 30
0.0
 11
312.078172
 21
745.802656
 31
0.0
  0
LINE
  5
3f8
100
AcDbEntity
  8
Calque_1
 62
1
100
AcDbLine
 10
312.078172
 20
745.802656
 30
0.0
 11
312.078172
 21
755.702645
 31
0.0
  0
LINE
  5
3f9
100
AcDbEntity
  8
Calque_1
 62
1
100
AcDbLine
 10
312.078172
 20
755.702645
 30
0.0
 11
309.078178
 21
755.702645
 31
0.0
  0
LINE
  5
3fa
100
AcDbEntity
  8
Calque_1
 62
1
100
AcDbLine
 10
309.078178
 20
755.702645
 30
0.0
 11
309.078178
 21
765.802672
 31
0.0
  0
LINE
  5
3fb
100
AcDbEntity
  8
Calque_1
 62
1
100
AcDbLine
 10
309.078178
 20
765.802672
 30
0.0
 11
312.078172
 21
765.802672
 31
0.0
  0
LINE
  5
3fc
100
AcDbEntity
  8
Calque_1
 62
1
100
AcDbLine
 10
312.078172
 20
765.802672
 30
0.0
 11
312.078172
 21
775.752671
 31
0.0
  0
LINE
  5
3fd
100
AcDbEntity
  8
Calque_1
 62
1
100
AcDbLine
 10
312.078172
 20
775.752671
 30
0.0
 11
327.794846
 21
775.752671
 31
0.0
  0
LINE
  5
3fe
100
AcDbEntity
  8
Calque_1
 62
1
100
AcDbLine
 10
327.794846
 20
775.752671
 30
0.0
 11
327.794846
 21
772.752649
 31
0.0
  0
LINE
  5
3ff
100
AcDbEntity
  8
Calque_1
 62
1
100
AcDbLine
 10
327.794846
 20
772.752649
 30
0.0
 11
343.361518
 21
772.752649
 31
0.0
  0
LINE
  5
400
100
AcDbEntity
  8
Calque_1
 62
1
100
AcDbLine
 10
343.361518
 20
772.752649
 30
0.0
 11
343.361518
 21
775.752671
 31
0.0
  0
LINE
  5
401
100
AcDbEntity
  8
Calque_1
 62
1
100
AcDbLine
 10
343.361518
 20
775.752671
 30
0.0
 11
359.078163
 21
775.752671
 31
0.0
  0
LINE
  5
402
100
AcDbEntity
  8
Calque_1
 62
1
100
AcDbLine
 10
359.078163
 20
775.752671
 30
0.0
 11
359.078163
 21
775.752671
 31
0.0
  0
LINE
  5
403
100
AcDbEntity
  8
Calque_1
 62
1
100
AcDbLine
 10
1170.527448
 20
770.190381
 30
0.0
 11
1170.527448
 21
122.190368
 31
0.0
  0
LINE
  5
404
100
AcDbEntity
  8
Calque_1
 62
1
100
AcDbLine
 10
1170.527448
 20
122.190368
 30
0.0
 11
1154.910794
 21
122.190368
 31
0.0
  0
LINE
  5
405
100
AcDbEntity
  8
Calque_1
 62
1
100
AcDbLine
 10
1154.910794
 20
122.190368
 30
0.0
 11
1154.910794
 21
119.190346
 31
0.0
  0
LINE
  5
406
100
AcDbEntity
  8
Calque_1
 62
1
100
AcDbLine
 10
1154.910794
 20
119.190346
 30
0.0
 11
1139.144111
 21
119.190346
 31
0.0
  0
LINE
  5
407
100
AcDbEntity
  8
Calque_1
 62
1
100
AcDbLine
 10
1139.144111
 20
119.190346
 30
0.0
 11
1139.144111
 21
122.190368
 31
0.0
  0
LINE
  5
408
100
AcDbEntity
  8
Calque_1
 62
1
100
AcDbLine
 10
1139.144111
 20
122.190368
 30
0.0
 11
1123.527457
 21
122.190368
 31
0.0
  0
LINE
  5
409
100
AcDbEntity
  8
Calque_1
 62
1
100
AcDbLine
 10
1123.527457
 20
122.190368
 30
0.0
 11
1123.527457
 21
129.294212
 31
0.0
  0
LINE
  5
40a
100
AcDbEntity
  8
Calque_1
 62
1
100
AcDbLine
 10
1123.527457
 20
129.294212
 30
0.0
 11
1120.527463
 21
129.294212
 31
0.0
  0
LINE
  5
40b
100
AcDbEntity
  8
Calque_1
 62
1
100
AcDbLine
 10
1120.527463
 20
129.294212
 30
0.0
 11
1120.527463
 21
139.548050
 31
0.0
  0
LINE
  5
40c
100
AcDbEntity
  8
Calque_1
 62
1
100
AcDbLine
 10
1120.527463
 20
139.548050
 30
0.0
 11
1123.527457
 21
139.548050
 31
0.0
  0
LINE
  5
40d
100
AcDbEntity
  8
Calque_1
 62
1
100
AcDbLine
 10
1123.527457
 20
139.548050
 30
0.0
 11
1123.527457
 21
149.601907
 31
0.0
  0
LINE
  5
40e
100
AcDbEntity
  8
Calque_1
 62
1
100
AcDbLine
 10
1123.527457
 20
149.601907
 30
0.0
 11
1120.527463
 21
149.601907
 31
0.0
  0
LINE
  5
40f
100
AcDbEntity
  8
Calque_1
 62
1
100
AcDbLine
 10
1120.527463
 20
149.601907
 30
0.0
 11
1120.527463
 21
159.855746
 31
0.0
  0
LINE
  5
410
100
AcDbEntity
  8
Calque_1
 62
1
100
AcDbLine
 10
1120.527463
 20
159.855746
 30
0.0
 11
1123.527457
 21
159.855746
 31
0.0
  0
LINE
  5
411
100
AcDbEntity
  8
Calque_1
 62
1
100
AcDbLine
 10
1123.527457
 20
159.855746
 30
0.0
 11
1123.527457
 21
169.909602
 31
0.0
  0
LINE
  5
412
100
AcDbEntity
  8
Calque_1
 62
1
100
AcDbLine
 10
1123.527457
 20
169.909602
 30
0.0
 11
1120.527463
 21
169.909602
 31
0.0
  0
LINE
  5
413
100
AcDbEntity
  8
Calque_1
 62
1
100
AcDbLine
 10
1120.527463
 20
169.909602
 30
0.0
 11
1120.527463
 21
180.163441
 31
0.0
  0
LINE
  5
414
100
AcDbEntity
  8
Calque_1
 62
1
100
AcDbLine
 10
1120.527463
 20
180.163441
 30
0.0
 11
1123.527457
 21
180.163441
 31
0.0
  0
LINE
  5
415
100
AcDbEntity
  8
Calque_1
 62
1
100
AcDbLine
 10
1123.527457
 20
180.163441
 30
0.0
 11
1123.527457
 21
190.217269
 31
0.0
  0
LINE
  5
416
100
AcDbEntity
  8
Calque_1
 62
1
100
AcDbLine
 10
1123.527457
 20
190.217269
 30
0.0
 11
1120.527463
 21
190.217269
 31
0.0
  0
LINE
  5
417
100
AcDbEntity
  8
Calque_1
 62
1
100
AcDbLine
 10
1120.527463
 20
190.217269
 30
0.0
 11
1120.527463
 21
200.471136
 31
0.0
  0
LINE
  5
418
100
AcDbEntity
  8
Calque_1
 62
1
100
AcDbLine
 10
1120.527463
 20
200.471136
 30
0.0
 11
1123.527457
 21
200.471136
 31
0.0
  0
LINE
  5
419
100
AcDbEntity
  8
Calque_1
 62
1
100
AcDbLine
 10
1123.527457
 20
200.471136
 30
0.0
 11
1123.527457
 21
210.524964
 31
0.0
  0
LINE
  5
41a
100
AcDbEntity
  8
Calque_1
 62
1
100
AcDbLine
 10
1123.527457
 20
210.524964
 30
0.0
 11
1120.527463
 21
210.524964
 31
0.0
  0
LINE
  5
41b
100
AcDbEntity
  8
Calque_1
 62
1
100
AcDbLine
 10
1120.527463
 20
210.524964
 30
0.0
 11
1120.527463
 21
220.778831
 31
0.0
  0
LINE
  5
41c
100
AcDbEntity
  8
Calque_1
 62
1
100
AcDbLine
 10
1120.527463
 20
220.778831
 30
0.0
 11
1123.527457
 21
220.778831
 31
0.0
  0
LINE
  5
41d
100
AcDbEntity
  8
Calque_1
 62
1
100
AcDbLine
 10
1123.527457
 20
220.778831
 30
0.0
 11
1123.527457
 21
230.832659
 31
0.0
  0
LINE
  5
41e
100
AcDbEntity
  8
Calque_1
 62
1
100
AcDbLine
 10
1123.527457
 20
230.832659
 30
0.0
 11
1120.527463
 21
230.832659
 31
0.0
  0
LINE
  5
41f
100
AcDbEntity
  8
Calque_1
 62
1
100
AcDbLine
 10
1120.527463
 20
230.832659
 30
0.0
 11
1120.527463
 21
241.086526
 31
0.0
  0
LINE
  5
420
100
AcDbEntity
  8
Calque_1
 62
1
100
AcDbLine
 10
1120.527463
 20
241.086526
 30
0.0
 11
1123.527457
 21
241.086526
 31
0.0
  0
LINE
  5
421
100
AcDbEntity
  8
Calque_1
 62
1
100
AcDbLine
 10
1123.527457
 20
241.086526
 30
0.0
 11
1123.527457
 21
251.140354
 31
0.0
  0
LINE
  5
422
100
AcDbEntity
  8
Calque_1
 62
1
100
AcDbLine
 10
1123.527457
 20
251.140354
 30
0.0
 11
1120.527463
 21
251.140354
 31
0.0
  0
LINE
  5
423
100
AcDbEntity
  8
Calque_1
 62
1
100
AcDbLine
 10
1120.527463
 20
251.140354
 30
0.0
 11
1120.527463
 21
261.394193
 31
0.0
  0
LINE
  5
424
100
AcDbEntity
  8
Calque_1
 62
1
100
AcDbLine
 10
1120.527463
 20
261.394193
 30
0.0
 11
1123.527457
 21
261.394193
 31
0.0
  0
LINE
  5
425
100
AcDbEntity
  8
Calque_1
 62
1
100
AcDbLine
 10
1123.527457
 20
261.394193
 30
0.0
 11
1123.527457
 21
271.448049
 31
0.0
  0
LINE
  5
426
100
AcDbEntity
  8
Calque_1
 62
1
100
AcDbLine
 10
1123.527457
 20
271.448049
 30
0.0
 11
1120.527463
 21
271.448049
 31
0.0
  0
LINE
  5
427
100
AcDbEntity
  8
Calque_1
 62
1
100
AcDbLine
 10
1120.527463
 20
271.448049
 30
0.0
 11
1120.527463
 21
281.701888
 31
0.0
  0
LINE
  5
428
100
AcDbEntity
  8
Calque_1
 62
1
100
AcDbLine
 10
1120.527463
 20
281.701888
 30
0.0
 11
1123.527457
 21
281.701888
 31
0.0
  0
LINE
  5
429
100
AcDbEntity
  8
Calque_1
 62
1
100
AcDbLine
 10
1123.527457
 20
281.701888
 30
0.0
 11
1123.527457
 21
291.755744
 31
0.0
  0
LINE
  5
42a
100
AcDbEntity
  8
Calque_1
 62
1
100
AcDbLine
 10
1123.527457
 20
291.755744
 30
0.0
 11
1120.527463
 21
291.755744
 31
0.0
  0
LINE
  5
42b
100
AcDbEntity
  8
Calque_1
 62
1
100
AcDbLine
 10
1120.527463
 20
291.755744
 30
0.0
 11
1120.527463
 21
302.009583
 31
0.0
  0
LINE
  5
42c
100
AcDbEntity
  8
Calque_1
 62
1
100
AcDbLine
 10
1120.527463
 20
302.009583
 30
0.0
 11
1123.527457
 21
302.009583
 31
0.0
  0
LINE
  5
42d
100
AcDbEntity
  8
Calque_1
 62
1
100
AcDbLine
 10
1123.527457
 20
302.009583
 30
0.0
 11
1123.527457
 21
312.063439
 31
0.0
  0
LINE
  5
42e
100
AcDbEntity
  8
Calque_1
 62
1
100
AcDbLine
 10
1123.527457
 20
312.063439
 30
0.0
 11
1120.527463
 21
312.063439
 31
0.0
  0
LINE
  5
42f
100
AcDbEntity
  8
Calque_1
 62
1
100
AcDbLine
 10
1120.527463
 20
312.063439
 30
0.0
 11
1120.527463
 21
322.317278
 31
0.0
  0
LINE
  5
430
100
AcDbEntity
  8
Calque_1
 62
1
100
AcDbLine
 10
1120.527463
 20
322.317278
 30
0.0
 11
1123.527457
 21
322.317278
 31
0.0
  0
LINE
  5
431
100
AcDbEntity
  8
Calque_1
 62
1
100
AcDbLine
 10
1123.527457
 20
322.317278
 30
0.0
 11
1123.527457
 21
332.371134
 31
0.0
  0
LINE
  5
432
100
AcDbEntity
  8
Calque_1
 62
1
100
AcDbLine
 10
1123.527457
 20
332.371134
 30
0.0
 11
1120.527463
 21
332.371134
 31
0.0
  0
LINE
  5
433
100
AcDbEntity
  8
Calque_1
 62
1
100
AcDbLine
 10
1120.527463
 20
332.371134
 30
0.0
 11
1120.527463
 21
342.624973
 31
0.0
  0
LINE
  5
434
100
AcDbEntity
  8
Calque_1
 62
1
100
AcDbLine
 10
1120.527463
 20
342.624973
 30
0.0
 11
1123.527457
 21
342.624973
 31
0.0
  0
LINE
  5
435
100
AcDbEntity
  8
Calque_1
 62
1
100
AcDbLine
 10
1123.527457
 20
342.624973
 30
0.0
 11
1123.527457
 21
352.678830
 31
0.0
  0
LINE
  5
436
100
AcDbEntity
  8
Calque_1
 62
1
100
AcDbLine
 10
1123.527457
 20
352.678830
 30
0.0
 11
1120.527463
 21
352.678830
 31
0.0
  0
LINE
  5
437
100
AcDbEntity
  8
Calque_1
 62
1
100
AcDbLine
 10
1120.527463
 20
352.678830
 30
0.0
 11
1120.527463
 21
362.932668
 31
0.0
  0
LINE
  5
438
100
AcDbEntity
  8
Calque_1
 62
1
100
AcDbLine
 10
1120.527463
 20
362.932668
 30
0.0
 11
1123.527457
 21
362.932668
 31
0.0
  0
LINE
  5
439
100
AcDbEntity
  8
Calque_1
 62
1
100
AcDbLine
 10
1123.527457
 20
362.932668
 30
0.0
 11
1123.527457
 21
372.986525
 31
0.0
  0
LINE
  5
43a
100
AcDbEntity
  8
Calque_1
 62
1
100
AcDbLine
 10
1123.527457
 20
372.986525
 30
0.0
 11
1120.527463
 21
372.986525
 31
0.0
  0
LINE
  5
43b
100
AcDbEntity
  8
Calque_1
 62
1
100
AcDbLine
 10
1120.527463
 20
372.986525
 30
0.0
 11
1120.527463
 21
383.240364
 31
0.0
  0
LINE
  5
43c
100
AcDbEntity
  8
Calque_1
 62
1
100
AcDbLine
 10
1120.527463
 20
383.240364
 30
0.0
 11
1123.527457
 21
383.240364
 31
0.0
  0
LINE
  5
43d
100
AcDbEntity
  8
Calque_1
 62
1
100
AcDbLine
 10
1123.527457
 20
383.240364
 30
0.0
 11
1123.527457
 21
393.294192
 31
0.0
  0
LINE
  5
43e
100
AcDbEntity
  8
Calque_1
 62
1
100
AcDbLine
 10
1123.527457
 20
393.294192
 30
0.0
 11
1120.527463
 21
393.294192
 31
0.0
  0
LINE
  5
43f
100
AcDbEntity
  8
Calque_1
 62
1
100
AcDbLine
 10
1120.527463
 20
393.294192
 30
0.0
 11
1120.527463
 21
403.548059
 31
0.0
  0
LINE
  5
440
100
AcDbEntity
  8
Calque_1
 62
1
100
AcDbLine
 10
1120.527463
 20
403.548059
 30
0.0
 11
1123.527457
 21
403.548059
 31
0.0
  0
LINE
  5
441
100
AcDbEntity
  8
Calque_1
 62
1
100
AcDbLine
 10
1123.527457
 20
403.548059
 30
0.0
 11
1123.527457
 21
413.601887
 31
0.0
  0
LINE
  5
442
100
AcDbEntity
  8
Calque_1
 62
1
100
AcDbLine
 10
1123.527457
 20
413.601887
 30
0.0
 11
1120.527463
 21
413.601887
 31
0.0
  0
LINE
  5
443
100
AcDbEntity
  8
Calque_1
 62
1
100
AcDbLine
 10
1120.527463
 20
413.601887
 30
0.0
 11
1120.527463
 21
423.855757
 31
0.0
  0
LINE
  5
444
100
AcDbEntity
  8
Calque_1
 62
1
100
AcDbLine
 10
1120.527463
 20
423.855757
 30
0.0
 11
1123.527457
 21
423.855757
 31
0.0
  0
LINE
  5
445
100
AcDbEntity
  8
Calque_1
 62
1
100
AcDbLine
 10
1123.527457
 20
423.855757
 30
0.0
 11
1123.527457
 21
433.909582
 31
0.0
  0
LINE
  5
446
100
AcDbEntity
  8
Calque_1
 62
1
100
AcDbLine
 10
1123.527457
 20
433.909582
 30
0.0
 11
1120.527463
 21
433.909582
 31
0.0
  0
LINE
  5
447
100
AcDbEntity
  8
Calque_1
 62
1
100
AcDbLine
 10
1120.527463
 20
433.909582
 30
0.0
 11
1120.527463
 21
444.163452
 31
0.0
  0
LINE
  5
448
100
AcDbEntity
  8
Calque_1
 62
1
100
AcDbLine
 10
1120.527463
 20
444.163452
 30
0.0
 11
1123.527457
 21
444.163452
 31
0.0
  0
LINE
  5
449
100
AcDbEntity
  8
Calque_1
 62
1
100
AcDbLine
 10
1123.527457
 20
444.163452
 30
0.0
 11
1123.527457
 21
454.217277
 31
0.0
  0
LINE
  5
44a
100
AcDbEntity
  8
Calque_1
 62
1
100
AcDbLine
 10
1123.527457
 20
454.217277
 30
0.0
 11
1120.527463
 21
454.217277
 31
0.0
  0
LINE
  5
44b
100
AcDbEntity
  8
Calque_1
 62
1
100
AcDbLine
 10
1120.527463
 20
454.217277
 30
0.0
 11
1120.527463
 21
464.471116
 31
0.0
  0
LINE
  5
44c
100
AcDbEntity
  8
Calque_1
 62
1
100
AcDbLine
 10
1120.527463
 20
464.471116
 30
0.0
 11
1123.527457
 21
464.471116
 31
0.0
  0
LINE
  5
44d
100
AcDbEntity
  8
Calque_1
 62
1
100
AcDbLine
 10
1123.527457
 20
464.471116
 30
0.0
 11
1123.527457
 21
474.524972
 31
0.0
  0
LINE
  5
44e
100
AcDbEntity
  8
Calque_1
 62
1
100
AcDbLine
 10
1123.527457
 20
474.524972
 30
0.0
 11
1120.527463
 21
474.524972
 31
0.0
  0
LINE
  5
44f
100
AcDbEntity
  8
Calque_1
 62
1
100
AcDbLine
 10
1120.527463
 20
474.524972
 30
0.0
 11
1120.527463
 21
484.778811
 31
0.0
  0
LINE
  5
450
100
AcDbEntity
  8
Calque_1
 62
1
100
AcDbLine
 10
1120.527463
 20
484.778811
 30
0.0
 11
1123.527457
 21
484.778811
 31
0.0
  0
LINE
  5
451
100
AcDbEntity
  8
Calque_1
 62
1
100
AcDbLine
 10
1123.527457
 20
484.778811
 30
0.0
 11
1123.527457
 21
494.832667
 31
0.0
  0
LINE
  5
452
100
AcDbEntity
  8
Calque_1
 62
1
100
AcDbLine
 10
1123.527457
 20
494.832667
 30
0.0
 11
1120.527463
 21
494.832667
 31
0.0
  0
LINE
  5
453
100
AcDbEntity
  8
Calque_1
 62
1
100
AcDbLine
 10
1120.527463
 20
494.832667
 30
0.0
 11
1120.527463
 21
505.086506
 31
0.0
  0
LINE
  5
454
100
AcDbEntity
  8
Calque_1
 62
1
100
AcDbLine
 10
1120.527463
 20
505.086506
 30
0.0
 11
1123.527457
 21
505.086506
 31
0.0
  0
LINE
  5
455
100
AcDbEntity
  8
Calque_1
 62
1
100
AcDbLine
 10
1123.527457
 20
505.086506
 30
0.0
 11
1123.527457
 21
515.140362
 31
0.0
  0
LINE
  5
456
100
AcDbEntity
  8
Calque_1
 62
1
100
AcDbLine
 10
1123.527457
 20
515.140362
 30
0.0
 11
1120.527463
 21
515.140362
 31
0.0
  0
LINE
  5
457
100
AcDbEntity
  8
Calque_1
 62
1
100
AcDbLine
 10
1120.527463
 20
515.140362
 30
0.0
 11
1120.527463
 21
525.394201
 31
0.0
  0
LINE
  5
458
100
AcDbEntity
  8
Calque_1
 62
1
100
AcDbLine
 10
1120.527463
 20
525.394201
 30
0.0
 11
1123.527457
 21
525.394201
 31
0.0
  0
LINE
  5
459
100
AcDbEntity
  8
Calque_1
 62
1
100
AcDbLine
 10
1123.527457
 20
525.394201
 30
0.0
 11
1123.527457
 21
535.448060
 31
0.0
  0
LINE
  5
45a
100
AcDbEntity
  8
Calque_1
 62
1
100
AcDbLine
 10
1123.527457
 20
535.448060
 30
0.0
 11
1120.527463
 21
535.448060
 31
0.0
  0
LINE
  5
45b
100
AcDbEntity
  8
Calque_1
 62
1
100
AcDbLine
 10
1120.527463
 20
535.448060
 30
0.0
 11
1120.527463
 21
545.701896
 31
0.0
  0
LINE
  5
45c
100
AcDbEntity
  8
Calque_1
 62
1
100
AcDbLine
 10
1120.527463
 20
545.701896
 30
0.0
 11
1123.527457
 21
545.701896
 31
0.0
  0
LINE
  5
45d
100
AcDbEntity
  8
Calque_1
 62
1
100
AcDbLine
 10
1123.527457
 20
545.701896
 30
0.0
 11
1123.527457
 21
555.755755
 31
0.0
  0
LINE
  5
45e
100
AcDbEntity
  8
Calque_1
 62
1
100
AcDbLine
 10
1123.527457
 20
555.755755
 30
0.0
 11
1120.527463
 21
555.755755
 31
0.0
  0
LINE
  5
45f
100
AcDbEntity
  8
Calque_1
 62
1
100
AcDbLine
 10
1120.527463
 20
555.755755
 30
0.0
 11
1120.527463
 21
566.009594
 31
0.0
  0
LINE
  5
460
100
AcDbEntity
  8
Calque_1
 62
1
100
AcDbLine
 10
1120.527463
 20
566.009594
 30
0.0
 11
1123.527457
 21
566.009594
 31
0.0
  0
LINE
  5
461
100
AcDbEntity
  8
Calque_1
 62
1
100
AcDbLine
 10
1123.527457
 20
566.009594
 30
0.0
 11
1123.527457
 21
576.063450
 31
0.0
  0
LINE
  5
462
100
AcDbEntity
  8
Calque_1
 62
1
100
AcDbLine
 10
1123.527457
 20
576.063450
 30
0.0
 11
1120.527463
 21
576.063450
 31
0.0
  0
LINE
  5
463
100
AcDbEntity
  8
Calque_1
 62
1
100
AcDbLine
 10
1120.527463
 20
576.063450
 30
0.0
 11
1120.527463
 21
586.317298
 31
0.0
  0
LINE
  5
464
100
AcDbEntity
  8
Calque_1
 62
1
100
AcDbLine
 10
1120.527463
 20
586.317298
 30
0.0
 11
1123.527457
 21
586.317298
 31
0.0
  0
LINE
  5
465
100
AcDbEntity
  8
Calque_1
 62
1
100
AcDbLine
 10
1123.527457
 20
586.317298
 30
0.0
 11
1123.527457
 21
596.371126
 31
0.0
  0
LINE
  5
466
100
AcDbEntity
  8
Calque_1
 62
1
100
AcDbLine
 10
1123.527457
 20
596.371126
 30
0.0
 11
1120.527463
 21
596.371126
 31
0.0
  0
LINE
  5
467
100
AcDbEntity
  8
Calque_1
 62
1
100
AcDbLine
 10
1120.527463
 20
596.371126
 30
0.0
 11
1120.527463
 21
606.624993
 31
0.0
  0
LINE
  5
468
100
AcDbEntity
  8
Calque_1
 62
1
100
AcDbLine
 10
1120.527463
 20
606.624993
 30
0.0
 11
1123.527457
 21
606.624993
 31
0.0
  0
LINE
  5
469
100
AcDbEntity
  8
Calque_1
 62
1
100
AcDbLine
 10
1123.527457
 20
606.624993
 30
0.0
 11
1123.527457
 21
616.678821
 31
0.0
  0
LINE
  5
46a
100
AcDbEntity
  8
Calque_1
 62
1
100
AcDbLine
 10
1123.527457
 20
616.678821
 30
0.0
 11
1120.527463
 21
616.678821
 31
0.0
  0
LINE
  5
46b
100
AcDbEntity
  8
Calque_1
 62
1
100
AcDbLine
 10
1120.527463
 20
616.678821
 30
0.0
 11
1120.527463
 21
626.932688
 31
0.0
  0
LINE
  5
46c
100
AcDbEntity
  8
Calque_1
 62
1
100
AcDbLine
 10
1120.527463
 20
626.932688
 30
0.0
 11
1123.527457
 21
626.932688
 31
0.0
  0
LINE
  5
46d
100
AcDbEntity
  8
Calque_1
 62
1
100
AcDbLine
 10
1123.527457
 20
626.932688
 30
0.0
 11
1123.527457
 21
636.986516
 31
0.0
  0
LINE
  5
46e
100
AcDbEntity
  8
Calque_1
 62
1
100
AcDbLine
 10
1123.527457
 20
636.986516
 30
0.0
 11
1120.527463
 21
636.986516
 31
0.0
  0
LINE
  5
46f
100
AcDbEntity
  8
Calque_1
 62
1
100
AcDbLine
 10
1120.527463
 20
636.986516
 30
0.0
 11
1120.527463
 21
647.240383
 31
0.0
  0
LINE
  5
470
100
AcDbEntity
  8
Calque_1
 62
1
100
AcDbLine
 10
1120.527463
 20
647.240383
 30
0.0
 11
1123.527457
 21
647.240383
 31
0.0
  0
LINE
  5
471
100
AcDbEntity
  8
Calque_1
 62
1
100
AcDbLine
 10
1123.527457
 20
647.240383
 30
0.0
 11
1123.527457
 21
657.294211
 31
0.0
  0
LINE
  5
472
100
AcDbEntity
  8
Calque_1
 62
1
100
AcDbLine
 10
1123.527457
 20
657.294211
 30
0.0
 11
1120.527463
 21
657.294211
 31
0.0
  0
LINE
  5
473
100
AcDbEntity
  8
Calque_1
 62
1
100
AcDbLine
 10
1120.527463
 20
657.294211
 30
0.0
 11
1120.527463
 21
667.548050
 31
0.0
  0
LINE
  5
474
100
AcDbEntity
  8
Calque_1
 62
1
100
AcDbLine
 10
1120.527463
 20
667.548050
 30
0.0
 11
1123.527457
 21
667.548050
 31
0.0
  0
LINE
  5
475
100
AcDbEntity
  8
Calque_1
 62
1
100
AcDbLine
 10
1123.527457
 20
667.548050
 30
0.0
 11
1123.527457
 21
677.601906
 31
0.0
  0
LINE
  5
476
100
AcDbEntity
  8
Calque_1
 62
1
100
AcDbLine
 10
1123.527457
 20
677.601906
 30
0.0
 11
1120.527463
 21
677.601906
 31
0.0
  0
LINE
  5
477
100
AcDbEntity
  8
Calque_1
 62
1
100
AcDbLine
 10
1120.527463
 20
677.601906
 30
0.0
 11
1120.527463
 21
687.855745
 31
0.0
  0
LINE
  5
478
100
AcDbEntity
  8
Calque_1
 62
1
100
AcDbLine
 10
1120.527463
 20
687.855745
 30
0.0
 11
1123.527457
 21
687.855745
 31
0.0
  0
LINE
  5
479
100
AcDbEntity
  8
Calque_1
 62
1
100
AcDbLine
 10
1123.527457
 20
687.855745
 30
0.0
 11
1123.527457
 21
697.909601
 31
0.0
  0
LINE
  5
47a
100
AcDbEntity
  8
Calque_1
 62
1
100
AcDbLine
 10
1123.527457
 20
697.909601
 30
0.0
 11
1120.527463
 21
697.909601
 31
0.0
  0
LINE
  5
47b
100
AcDbEntity
  8
Calque_1
 62
1
100
AcDbLine
 10
1120.527463
 20
697.909601
 30
0.0
 11
1120.527463
 21
708.163440
 31
0.0
  0
LINE
  5
47c
100
AcDbEntity
  8
Calque_1
 62
1
100
AcDbLine
 10
1120.527463
 20
708.163440
 30
0.0
 11
1123.527457
 21
708.163440
 31
0.0
  0
LINE
  5
47d
100
AcDbEntity
  8
Calque_1
 62
1
100
AcDbLine
 10
1123.527457
 20
708.163440
 30
0.0
 11
1123.527457
 21
718.217296
 31
0.0
  0
LINE
  5
47e
100
AcDbEntity
  8
Calque_1
 62
1
100
AcDbLine
 10
1123.527457
 20
718.217296
 30
0.0
 11
1120.527463
 21
718.217296
 31
0.0
  0
LINE
  5
47f
100
AcDbEntity
  8
Calque_1
 62
1
100
AcDbLine
 10
1120.527463
 20
718.217296
 30
0.0
 11
1120.527463
 21
728.471135
 31
0.0
  0
LINE
  5
480
100
AcDbEntity
  8
Calque_1
 62
1
100
AcDbLine
 10
1120.527463
 20
728.471135
 30
0.0
 11
1123.527457
 21
728.471135
 31
0.0
  0
LINE
  5
481
100
AcDbEntity
  8
Calque_1
 62
1
100
AcDbLine
 10
1123.527457
 20
728.471135
 30
0.0
 11
1123.527457
 21
738.524992
 31
0.0
  0
LINE
  5
482
100
AcDbEntity
  8
Calque_1
 62
1
100
AcDbLine
 10
1123.527457
 20
738.524992
 30
0.0
 11
1120.527463
 21
738.524992
 31
0.0
  0
LINE
  5
483
100
AcDbEntity
  8
Calque_1
 62
1
100
AcDbLine
 10
1120.527463
 20
738.524992
 30
0.0
 11
1120.527463
 21
748.778830
 31
0.0
  0
LINE
  5
484
100
AcDbEntity
  8
Calque_1
 62
1
100
AcDbLine
 10
1120.527463
 20
748.778830
 30
0.0
 11
1123.527457
 21
748.778830
 31
0.0
  0
LINE
  5
485
100
AcDbEntity
  8
Calque_1
 62
1
100
AcDbLine
 10
1123.527457
 20
748.778830
 30
0.0
 11
1123.527457
 21
758.832687
 31
0.0
  0
LINE
  5
486
100
AcDbEntity
  8
Calque_1
 62
1
100
AcDbLine
 10
1123.527457
 20
758.832687
 30
0.0
 11
1120.527463
 21
758.832687
 31
0.0
  0
LINE
  5
487
100
AcDbEntity
  8
Calque_1
 62
1
100
AcDbLine
 10
1120.527463
 20
758.832687
 30
0.0
 11
1120.527463
 21
769.086526
 31
0.0
  0
LINE
  5
488
100
AcDbEntity
  8
Calque_1
 62
1
100
AcDbLine
 10
1120.527463
 20
769.086526
 30
0.0
 11
1123.527457
 21
769.086526
 31
0.0
  0
LINE
  5
489
100
AcDbEntity
  8
Calque_1
 62
1
100
AcDbLine
 10
1123.527457
 20
769.086526
 30
0.0
 11
1123.527457
 21
776.190369
 31
0.0
  0
LINE
  5
48a
100
AcDbEntity
  8
Calque_1
 62
1
100
AcDbLine
 10
1123.527457
 20
776.190369
 30
0.0
 11
1139.144111
 21
776.190369
 31
0.0
  0
LINE
  5
48b
100
AcDbEntity
  8
Calque_1
 62
1
100
AcDbLine
 10
1139.144111
 20
776.190369
 30
0.0
 11
1139.144111
 21
779.190363
 31
0.0
  0
LINE
  5
48c
100
AcDbEntity
  8
Calque_1
 62
1
100
AcDbLine
 10
1139.144111
 20
779.190363
 30
0.0
 11
1154.910794
 21
779.190363
 31
0.0
  0
LINE
  5
48d
100
AcDbEntity
  8
Calque_1
 62
1
100
AcDbLine
 10
1154.910794
 20
779.190363
 30
0.0
 11
1154.910794
 21
776.190369
 31
0.0
  0
LINE
  5
48e
100
AcDbEntity
  8
Calque_1
 62
1
100
AcDbLine
 10
1154.910794
 20
776.190369
 30
0.0
 11
1170.527448
 21
776.190369
 31
0.0
  0
LINE
  5
48f
100
AcDbEntity
  8
Calque_1
 62
1
100
AcDbLine
 10
1170.527448
 20
776.190369
 30
0.0
 11
1170.527448
 21
770.190381
 31
0.0
  0
LINE
  5
490
100
AcDbEntity
  8
Calque_1
 62
1
100
AcDbLine
 10
424.310076
 20
772.039642
 30
0.0
 11
424.310076
 21
124.039652
 31
0.0
  0
LINE
  5
491
100
AcDbEntity
  8
Calque_1
 62
1
100
AcDbLine
 10
424.310076
 20
124.039652
 30
0.0
 11
408.693422
 21
124.039652
 31
0.0
  0
LINE
  5
492
100
AcDbEntity
  8
Calque_1
 62
1
100
AcDbLine
 10
408.693422
 20
124.039652
 30
0.0
 11
408.693422
 21
121.039629
 31
0.0
  0
LINE
  5
493
100
AcDbEntity
  8
Calque_1
 62
1
100
AcDbLine
 10
408.693422
 20
121.039629
 30
0.0
 11
392.926739
 21
121.039629
 31
0.0
  0
LINE
  5
494
100
AcDbEntity
  8
Calque_1
 62
1
100
AcDbLine
 10
392.926739
 20
121.039629
 30
0.0
 11
392.926739
 21
124.039652
 31
0.0
  0
LINE
  5
495
100
AcDbEntity
  8
Calque_1
 62
1
100
AcDbLine
 10
392.926739
 20
124.039652
 30
0.0
 11
377.310086
 21
124.039652
 31
0.0
  0
LINE
  5
496
100
AcDbEntity
  8
Calque_1
 62
1
100
AcDbLine
 10
377.310086
 20
124.039652
 30
0.0
 11
377.310086
 21
131.143495
 31
0.0
  0
LINE
  5
497
100
AcDbEntity
  8
Calque_1
 62
1
100
AcDbLine
 10
377.310086
 20
131.143495
 30
0.0
 11
374.310092
 21
131.143495
 31
0.0
  0
LINE
  5
498
100
AcDbEntity
  8
Calque_1
 62
1
100
AcDbLine
 10
374.310092
 20
131.143495
 30
0.0
 11
374.310092
 21
141.397334
 31
0.0
  0
LINE
  5
499
100
AcDbEntity
  8
Calque_1
 62
1
100
AcDbLine
 10
374.310092
 20
141.397334
 30
0.0
 11
377.310086
 21
141.397334
 31
0.0
  0
LINE
  5
49a
100
AcDbEntity
  8
Calque_1
 62
1
100
AcDbLine
 10
377.310086
 20
141.397334
 30
0.0
 11
377.310086
 21
151.451190
 31
0.0
  0
LINE
  5
49b
100
AcDbEntity
  8
Calque_1
 62
1
100
AcDbLine
 10
377.310086
 20
151.451190
 30
0.0
 11
374.310092
 21
151.451190
 31
0.0
  0
LINE
  5
49c
100
AcDbEntity
  8
Calque_1
 62
1
100
AcDbLine
 10
374.310092
 20
151.451190
 30
0.0
 11
374.310092
 21
161.705029
 31
0.0
  0
LINE
  5
49d
100
AcDbEntity
  8
Calque_1
 62
1
100
AcDbLine
 10
374.310092
 20
161.705029
 30
0.0
 11
377.310086
 21
161.705029
 31
0.0
  0
LINE
  5
49e
100
AcDbEntity
  8
Calque_1
 62
1
100
AcDbLine
 10
377.310086
 20
161.705029
 30
0.0
 11
377.310086
 21
171.758886
 31
0.0
  0
LINE
  5
49f
100
AcDbEntity
  8
Calque_1
 62
1
100
AcDbLine
 10
377.310086
 20
171.758886
 30
0.0
 11
374.310092
 21
171.758886
 31
0.0
  0
LINE
  5
4a0
100
AcDbEntity
  8
Calque_1
 62
1
100
AcDbLine
 10
374.310092
 20
171.758886
 30
0.0
 11
374.310092
 21
182.012724
 31
0.0
  0
LINE
  5
4a1
100
AcDbEntity
  8
Calque_1
 62
1
100
AcDbLine
 10
374.310092
 20
182.012724
 30
0.0
 11
377.310086
 21
182.012724
 31
0.0
  0
LINE
  5
4a2
100
AcDbEntity
  8
Calque_1
 62
1
100
AcDbLine
 10
377.310086
 20
182.012724
 30
0.0
 11
377.310086
 21
192.066552
 31
0.0
  0
LINE
  5
4a3
100
AcDbEntity
  8
Calque_1
 62
1
100
AcDbLine
 10
377.310086
 20
192.066552
 30
0.0
 11
374.310092
 21
192.066552
 31
0.0
  0
LINE
  5
4a4
100
AcDbEntity
  8
Calque_1
 62
1
100
AcDbLine
 10
374.310092
 20
192.066552
 30
0.0
 11
374.310092
 21
202.320420
 31
0.0
  0
LINE
  5
4a5
100
AcDbEntity
  8
Calque_1
 62
1
100
AcDbLine
 10
374.310092
 20
202.320420
 30
0.0
 11
377.310086
 21
202.320420
 31
0.0
  0
LINE
  5
4a6
100
AcDbEntity
  8
Calque_1
 62
1
100
AcDbLine
 10
377.310086
 20
202.320420
 30
0.0
 11
377.310086
 21
212.374248
 31
0.0
  0
LINE
  5
4a7
100
AcDbEntity
  8
Calque_1
 62
1
100
AcDbLine
 10
377.310086
 20
212.374248
 30
0.0
 11
374.310092
 21
212.374248
 31
0.0
  0
LINE
  5
4a8
100
AcDbEntity
  8
Calque_1
 62
1
100
AcDbLine
 10
374.310092
 20
212.374248
 30
0.0
 11
374.310092
 21
222.628115
 31
0.0
  0
LINE
  5
4a9
100
AcDbEntity
  8
Calque_1
 62
1
100
AcDbLine
 10
374.310092
 20
222.628115
 30
0.0
 11
377.310086
 21
222.628115
 31
0.0
  0
LINE
  5
4aa
100
AcDbEntity
  8
Calque_1
 62
1
100
AcDbLine
 10
377.310086
 20
222.628115
 30
0.0
 11
377.310086
 21
232.681943
 31
0.0
  0
LINE
  5
4ab
100
AcDbEntity
  8
Calque_1
 62
1
100
AcDbLine
 10
377.310086
 20
232.681943
 30
0.0
 11
374.310092
 21
232.681943
 31
0.0
  0
LINE
  5
4ac
100
AcDbEntity
  8
Calque_1
 62
1
100
AcDbLine
 10
374.310092
 20
232.681943
 30
0.0
 11
374.310092
 21
242.935810
 31
0.0
  0
LINE
  5
4ad
100
AcDbEntity
  8
Calque_1
 62
1
100
AcDbLine
 10
374.310092
 20
242.935810
 30
0.0
 11
377.310086
 21
242.935810
 31
0.0
  0
LINE
  5
4ae
100
AcDbEntity
  8
Calque_1
 62
1
100
AcDbLine
 10
377.310086
 20
242.935810
 30
0.0
 11
377.310086
 21
252.989638
 31
0.0
  0
LINE
  5
4af
100
AcDbEntity
  8
Calque_1
 62
1
100
AcDbLine
 10
377.310086
 20
252.989638
 30
0.0
 11
374.310092
 21
252.989638
 31
0.0
  0
LINE
  5
4b0
100
AcDbEntity
  8
Calque_1
 62
1
100
AcDbLine
 10
374.310092
 20
252.989638
 30
0.0
 11
374.310092
 21
263.243477
 31
0.0
  0
LINE
  5
4b1
100
AcDbEntity
  8
Calque_1
 62
1
100
AcDbLine
 10
374.310092
 20
263.243477
 30
0.0
 11
377.310086
 21
263.243477
 31
0.0
  0
LINE
  5
4b2
100
AcDbEntity
  8
Calque_1
 62
1
100
AcDbLine
 10
377.310086
 20
263.243477
 30
0.0
 11
377.310086
 21
273.297333
 31
0.0
  0
LINE
  5
4b3
100
AcDbEntity
  8
Calque_1
 62
1
100
AcDbLine
 10
377.310086
 20
273.297333
 30
0.0
 11
374.310092
 21
273.297333
 31
0.0
  0
LINE
  5
4b4
100
AcDbEntity
  8
Calque_1
 62
1
100
AcDbLine
 10
374.310092
 20
273.297333
 30
0.0
 11
374.310092
 21
283.551172
 31
0.0
  0
LINE
  5
4b5
100
AcDbEntity
  8
Calque_1
 62
1
100
AcDbLine
 10
374.310092
 20
283.551172
 30
0.0
 11
377.310086
 21
283.551172
 31
0.0
  0
LINE
  5
4b6
100
AcDbEntity
  8
Calque_1
 62
1
100
AcDbLine
 10
377.310086
 20
283.551172
 30
0.0
 11
377.310086
 21
293.605028
 31
0.0
  0
LINE
  5
4b7
100
AcDbEntity
  8
Calque_1
 62
1
100
AcDbLine
 10
377.310086
 20
293.605028
 30
0.0
 11
374.310092
 21
293.605028
 31
0.0
  0
LINE
  5
4b8
100
AcDbEntity
  8
Calque_1
 62
1
100
AcDbLine
 10
374.310092
 20
293.605028
 30
0.0
 11
374.310092
 21
303.858867
 31
0.0
  0
LINE
  5
4b9
100
AcDbEntity
  8
Calque_1
 62
1
100
AcDbLine
 10
374.310092
 20
303.858867
 30
0.0
 11
377.310086
 21
303.858867
 31
0.0
  0
LINE
  5
4ba
100
AcDbEntity
  8
Calque_1
 62
1
100
AcDbLine
 10
377.310086
 20
303.858867
 30
0.0
 11
377.310086
 21
313.912723
 31
0.0
  0
LINE
  5
4bb
100
AcDbEntity
  8
Calque_1
 62
1
100
AcDbLine
 10
377.310086
 20
313.912723
 30
0.0
 11
374.310092
 21
313.912723
 31
0.0
  0
LINE
  5
4bc
100
AcDbEntity
  8
Calque_1
 62
1
100
AcDbLine
 10
374.310092
 20
313.912723
 30
0.0
 11
374.310092
 21
324.166561
 31
0.0
  0
LINE
  5
4bd
100
AcDbEntity
  8
Calque_1
 62
1
100
AcDbLine
 10
374.310092
 20
324.166561
 30
0.0
 11
377.310086
 21
324.166561
 31
0.0
  0
LINE
  5
4be
100
AcDbEntity
  8
Calque_1
 62
1
100
AcDbLine
 10
377.310086
 20
324.166561
 30
0.0
 11
377.310086
 21
334.220418
 31
0.0
  0
LINE
  5
4bf
100
AcDbEntity
  8
Calque_1
 62
1
100
AcDbLine
 10
377.310086
 20
334.220418
 30
0.0
 11
374.310092
 21
334.220418
 31
0.0
  0
LINE
  5
4c0
100
AcDbEntity
  8
Calque_1
 62
1
100
AcDbLine
 10
374.310092
 20
334.220418
 30
0.0
 11
374.310092
 21
344.474257
 31
0.0
  0
LINE
  5
4c1
100
AcDbEntity
  8
Calque_1
 62
1
100
AcDbLine
 10
374.310092
 20
344.474257
 30
0.0
 11
377.310086
 21
344.474257
 31
0.0
  0
LINE
  5
4c2
100
AcDbEntity
  8
Calque_1
 62
1
100
AcDbLine
 10
377.310086
 20
344.474257
 30
0.0
 11
377.310086
 21
354.528113
 31
0.0
  0
LINE
  5
4c3
100
AcDbEntity
  8
Calque_1
 62
1
100
AcDbLine
 10
377.310086
 20
354.528113
 30
0.0
 11
374.310092
 21
354.528113
 31
0.0
  0
LINE
  5
4c4
100
AcDbEntity
  8
Calque_1
 62
1
100
AcDbLine
 10
374.310092
 20
354.528113
 30
0.0
 11
374.310092
 21
364.781952
 31
0.0
  0
LINE
  5
4c5
100
AcDbEntity
  8
Calque_1
 62
1
100
AcDbLine
 10
374.310092
 20
364.781952
 30
0.0
 11
377.310086
 21
364.781952
 31
0.0
  0
LINE
  5
4c6
100
AcDbEntity
  8
Calque_1
 62
1
100
AcDbLine
 10
377.310086
 20
364.781952
 30
0.0
 11
377.310086
 21
374.835808
 31
0.0
  0
LINE
  5
4c7
100
AcDbEntity
  8
Calque_1
 62
1
100
AcDbLine
 10
377.310086
 20
374.835808
 30
0.0
 11
374.310092
 21
374.835808
 31
0.0
  0
LINE
  5
4c8
100
AcDbEntity
  8
Calque_1
 62
1
100
AcDbLine
 10
374.310092
 20
374.835808
 30
0.0
 11
374.310092
 21
385.089647
 31
0.0
  0
LINE
  5
4c9
100
AcDbEntity
  8
Calque_1
 62
1
100
AcDbLine
 10
374.310092
 20
385.089647
 30
0.0
 11
377.310086
 21
385.089647
 31
0.0
  0
LINE
  5
4ca
100
AcDbEntity
  8
Calque_1
 62
1
100
AcDbLine
 10
377.310086
 20
385.089647
 30
0.0
 11
377.310086
 21
395.143475
 31
0.0
  0
LINE
  5
4cb
100
AcDbEntity
  8
Calque_1
 62
1
100
AcDbLine
 10
377.310086
 20
395.143475
 30
0.0
 11
374.310092
 21
395.143475
 31
0.0
  0
LINE
  5
4cc
100
AcDbEntity
  8
Calque_1
 62
1
100
AcDbLine
 10
374.310092
 20
395.143475
 30
0.0
 11
374.310092
 21
405.397342
 31
0.0
  0
LINE
  5
4cd
100
AcDbEntity
  8
Calque_1
 62
1
100
AcDbLine
 10
374.310092
 20
405.397342
 30
0.0
 11
377.310086
 21
405.397342
 31
0.0
  0
LINE
  5
4ce
100
AcDbEntity
  8
Calque_1
 62
1
100
AcDbLine
 10
377.310086
 20
405.397342
 30
0.0
 11
377.310086
 21
415.451159
 31
0.0
  0
LINE
  5
4cf
100
AcDbEntity
  8
Calque_1
 62
1
100
AcDbLine
 10
377.310086
 20
415.451159
 30
0.0
 11
374.310092
 21
415.451159
 31
0.0
  0
LINE
  5
4d0
100
AcDbEntity
  8
Calque_1
 62
1
100
AcDbLine
 10
374.310092
 20
415.451159
 30
0.0
 11
374.310092
 21
425.705026
 31
0.0
  0
LINE
  5
4d1
100
AcDbEntity
  8
Calque_1
 62
1
100
AcDbLine
 10
374.310092
 20
425.705026
 30
0.0
 11
377.310086
 21
425.705026
 31
0.0
  0
LINE
  5
4d2
100
AcDbEntity
  8
Calque_1
 62
1
100
AcDbLine
 10
377.310086
 20
425.705026
 30
0.0
 11
377.310086
 21
435.758854
 31
0.0
  0
LINE
  5
4d3
100
AcDbEntity
  8
Calque_1
 62
1
100
AcDbLine
 10
377.310086
 20
435.758854
 30
0.0
 11
374.310092
 21
435.758854
 31
0.0
  0
LINE
  5
4d4
100
AcDbEntity
  8
Calque_1
 62
1
100
AcDbLine
 10
374.310092
 20
435.758854
 30
0.0
 11
374.310092
 21
446.012721
 31
0.0
  0
LINE
  5
4d5
100
AcDbEntity
  8
Calque_1
 62
1
100
AcDbLine
 10
374.310092
 20
446.012721
 30
0.0
 11
377.310086
 21
446.012721
 31
0.0
  0
LINE
  5
4d6
100
AcDbEntity
  8
Calque_1
 62
1
100
AcDbLine
 10
377.310086
 20
446.012721
 30
0.0
 11
377.310086
 21
456.066549
 31
0.0
  0
LINE
  5
4d7
100
AcDbEntity
  8
Calque_1
 62
1
100
AcDbLine
 10
377.310086
 20
456.066549
 30
0.0
 11
374.310092
 21
456.066549
 31
0.0
  0
LINE
  5
4d8
100
AcDbEntity
  8
Calque_1
 62
1
100
AcDbLine
 10
374.310092
 20
456.066549
 30
0.0
 11
374.310092
 21
466.320388
 31
0.0
  0
LINE
  5
4d9
100
AcDbEntity
  8
Calque_1
 62
1
100
AcDbLine
 10
374.310092
 20
466.320388
 30
0.0
 11
377.310086
 21
466.320388
 31
0.0
  0
LINE
  5
4da
100
AcDbEntity
  8
Calque_1
 62
1
100
AcDbLine
 10
377.310086
 20
466.320388
 30
0.0
 11
377.310086
 21
476.374244
 31
0.0
  0
LINE
  5
4db
100
AcDbEntity
  8
Calque_1
 62
1
100
AcDbLine
 10
377.310086
 20
476.374244
 30
0.0
 11
374.310092
 21
476.374244
 31
0.0
  0
LINE
  5
4dc
100
AcDbEntity
  8
Calque_1
 62
1
100
AcDbLine
 10
374.310092
 20
476.374244
 30
0.0
 11
374.310092
 21
486.628083
 31
0.0
  0
LINE
  5
4dd
100
AcDbEntity
  8
Calque_1
 62
1
100
AcDbLine
 10
374.310092
 20
486.628083
 30
0.0
 11
377.310086
 21
486.628083
 31
0.0
  0
LINE
  5
4de
100
AcDbEntity
  8
Calque_1
 62
1
100
AcDbLine
 10
377.310086
 20
486.628083
 30
0.0
 11
377.310086
 21
496.681940
 31
0.0
  0
LINE
  5
4df
100
AcDbEntity
  8
Calque_1
 62
1
100
AcDbLine
 10
377.310086
 20
496.681940
 30
0.0
 11
374.310092
 21
496.681940
 31
0.0
  0
LINE
  5
4e0
100
AcDbEntity
  8
Calque_1
 62
1
100
AcDbLine
 10
374.310092
 20
496.681940
 30
0.0
 11
374.310092
 21
506.935778
 31
0.0
  0
LINE
  5
4e1
100
AcDbEntity
  8
Calque_1
 62
1
100
AcDbLine
 10
374.310092
 20
506.935778
 30
0.0
 11
377.310086
 21
506.935778
 31
0.0
  0
LINE
  5
4e2
100
AcDbEntity
  8
Calque_1
 62
1
100
AcDbLine
 10
377.310086
 20
506.935778
 30
0.0
 11
377.310086
 21
516.989635
 31
0.0
  0
LINE
  5
4e3
100
AcDbEntity
  8
Calque_1
 62
1
100
AcDbLine
 10
377.310086
 20
516.989635
 30
0.0
 11
374.310092
 21
516.989635
 31
0.0
  0
LINE
  5
4e4
100
AcDbEntity
  8
Calque_1
 62
1
100
AcDbLine
 10
374.310092
 20
516.989635
 30
0.0
 11
374.310092
 21
527.243476
 31
0.0
  0
LINE
  5
4e5
100
AcDbEntity
  8
Calque_1
 62
1
100
AcDbLine
 10
374.310092
 20
527.243476
 30
0.0
 11
377.310086
 21
527.243476
 31
0.0
  0
LINE
  5
4e6
100
AcDbEntity
  8
Calque_1
 62
1
100
AcDbLine
 10
377.310086
 20
527.243476
 30
0.0
 11
377.310086
 21
537.297324
 31
0.0
  0
LINE
  5
4e7
100
AcDbEntity
  8
Calque_1
 62
1
100
AcDbLine
 10
377.310086
 20
537.297324
 30
0.0
 11
374.310092
 21
537.297324
 31
0.0
  0
LINE
  5
4e8
100
AcDbEntity
  8
Calque_1
 62
1
100
AcDbLine
 10
374.310092
 20
537.297324
 30
0.0
 11
374.310092
 21
547.551169
 31
0.0
  0
LINE
  5
4e9
100
AcDbEntity
  8
Calque_1
 62
1
100
AcDbLine
 10
374.310092
 20
547.551169
 30
0.0
 11
377.310086
 21
547.551169
 31
0.0
  0
LINE
  5
4ea
100
AcDbEntity
  8
Calque_1
 62
1
100
AcDbLine
 10
377.310086
 20
547.551169
 30
0.0
 11
377.310086
 21
557.605016
 31
0.0
  0
LINE
  5
4eb
100
AcDbEntity
  8
Calque_1
 62
1
100
AcDbLine
 10
377.310086
 20
557.605016
 30
0.0
 11
374.310092
 21
557.605016
 31
0.0
  0
LINE
  5
4ec
100
AcDbEntity
  8
Calque_1
 62
1
100
AcDbLine
 10
374.310092
 20
557.605016
 30
0.0
 11
374.310092
 21
567.858861
 31
0.0
  0
LINE
  5
4ed
100
AcDbEntity
  8
Calque_1
 62
1
100
AcDbLine
 10
374.310092
 20
567.858861
 30
0.0
 11
377.310086
 21
567.858861
 31
0.0
  0
LINE
  5
4ee
100
AcDbEntity
  8
Calque_1
 62
1
100
AcDbLine
 10
377.310086
 20
567.858861
 30
0.0
 11
377.310086
 21
577.912720
 31
0.0
  0
LINE
  5
4ef
100
AcDbEntity
  8
Calque_1
 62
1
100
AcDbLine
 10
377.310086
 20
577.912720
 30
0.0
 11
374.310092
 21
577.912720
 31
0.0
  0
LINE
  5
4f0
100
AcDbEntity
  8
Calque_1
 62
1
100
AcDbLine
 10
374.310092
 20
577.912720
 30
0.0
 11
374.310092
 21
588.166559
 31
0.0
  0
LINE
  5
4f1
100
AcDbEntity
  8
Calque_1
 62
1
100
AcDbLine
 10
374.310092
 20
588.166559
 30
0.0
 11
377.310086
 21
588.166559
 31
0.0
  0
LINE
  5
4f2
100
AcDbEntity
  8
Calque_1
 62
1
100
AcDbLine
 10
377.310086
 20
588.166559
 30
0.0
 11
377.310086
 21
598.220415
 31
0.0
  0
LINE
  5
4f3
100
AcDbEntity
  8
Calque_1
 62
1
100
AcDbLine
 10
377.310086
 20
598.220415
 30
0.0
 11
374.310092
 21
598.220415
 31
0.0
  0
LINE
  5
4f4
100
AcDbEntity
  8
Calque_1
 62
1
100
AcDbLine
 10
374.310092
 20
598.220415
 30
0.0
 11
374.310092
 21
608.474254
 31
0.0
  0
LINE
  5
4f5
100
AcDbEntity
  8
Calque_1
 62
1
100
AcDbLine
 10
374.310092
 20
608.474254
 30
0.0
 11
377.310086
 21
608.474254
 31
0.0
  0
LINE
  5
4f6
100
AcDbEntity
  8
Calque_1
 62
1
100
AcDbLine
 10
377.310086
 20
608.474254
 30
0.0
 11
377.310086
 21
618.528082
 31
0.0
  0
LINE
  5
4f7
100
AcDbEntity
  8
Calque_1
 62
1
100
AcDbLine
 10
377.310086
 20
618.528082
 30
0.0
 11
374.310092
 21
618.528082
 31
0.0
  0
LINE
  5
4f8
100
AcDbEntity
  8
Calque_1
 62
1
100
AcDbLine
 10
374.310092
 20
618.528082
 30
0.0
 11
374.310092
 21
628.781949
 31
0.0
  0
LINE
  5
4f9
100
AcDbEntity
  8
Calque_1
 62
1
100
AcDbLine
 10
374.310092
 20
628.781949
 30
0.0
 11
377.310086
 21
628.781949
 31
0.0
  0
LINE
  5
4fa
100
AcDbEntity
  8
Calque_1
 62
1
100
AcDbLine
 10
377.310086
 20
628.781949
 30
0.0
 11
377.310086
 21
638.835777
 31
0.0
  0
LINE
  5
4fb
100
AcDbEntity
  8
Calque_1
 62
1
100
AcDbLine
 10
377.310086
 20
638.835777
 30
0.0
 11
374.310092
 21
638.835777
 31
0.0
  0
LINE
  5
4fc
100
AcDbEntity
  8
Calque_1
 62
1
100
AcDbLine
 10
374.310092
 20
638.835777
 30
0.0
 11
374.310092
 21
649.089644
 31
0.0
  0
LINE
  5
4fd
100
AcDbEntity
  8
Calque_1
 62
1
100
AcDbLine
 10
374.310092
 20
649.089644
 30
0.0
 11
377.310086
 21
649.089644
 31
0.0
  0
LINE
  5
4fe
100
AcDbEntity
  8
Calque_1
 62
1
100
AcDbLine
 10
377.310086
 20
649.089644
 30
0.0
 11
377.310086
 21
659.143472
 31
0.0
  0
LINE
  5
4ff
100
AcDbEntity
  8
Calque_1
 62
1
100
AcDbLine
 10
377.310086
 20
659.143472
 30
0.0
 11
374.310092
 21
659.143472
 31
0.0
  0
LINE
  5
500
100
AcDbEntity
  8
Calque_1
 62
1
100
AcDbLine
 10
374.310092
 20
659.143472
 30
0.0
 11
374.310092
 21
669.397311
 31
0.0
  0
LINE
  5
501
100
AcDbEntity
  8
Calque_1
 62
1
100
AcDbLine
 10
374.310092
 20
669.397311
 30
0.0
 11
377.310086
 21
669.397311
 31
0.0
  0
LINE
  5
502
100
AcDbEntity
  8
Calque_1
 62
1
100
AcDbLine
 10
377.310086
 20
669.397311
 30
0.0
 11
377.310086
 21
679.451167
 31
0.0
  0
LINE
  5
503
100
AcDbEntity
  8
Calque_1
 62
1
100
AcDbLine
 10
377.310086
 20
679.451167
 30
0.0
 11
374.310092
 21
679.451167
 31
0.0
  0
LINE
  5
504
100
AcDbEntity
  8
Calque_1
 62
1
100
AcDbLine
 10
374.310092
 20
679.451167
 30
0.0
 11
374.310092
 21
689.705006
 31
0.0
  0
LINE
  5
505
100
AcDbEntity
  8
Calque_1
 62
1
100
AcDbLine
 10
374.310092
 20
689.705006
 30
0.0
 11
377.310086
 21
689.705006
 31
0.0
  0
LINE
  5
506
100
AcDbEntity
  8
Calque_1
 62
1
100
AcDbLine
 10
377.310086
 20
689.705006
 30
0.0
 11
377.310086
 21
699.758862
 31
0.0
  0
LINE
  5
507
100
AcDbEntity
  8
Calque_1
 62
1
100
AcDbLine
 10
377.310086
 20
699.758862
 30
0.0
 11
374.310092
 21
699.758862
 31
0.0
  0
LINE
  5
508
100
AcDbEntity
  8
Calque_1
 62
1
100
AcDbLine
 10
374.310092
 20
699.758862
 30
0.0
 11
374.310092
 21
710.012701
 31
0.0
  0
LINE
  5
509
100
AcDbEntity
  8
Calque_1
 62
1
100
AcDbLine
 10
374.310092
 20
710.012701
 30
0.0
 11
377.310086
 21
710.012701
 31
0.0
  0
LINE
  5
50a
100
AcDbEntity
  8
Calque_1
 62
1
100
AcDbLine
 10
377.310086
 20
710.012701
 30
0.0
 11
377.310086
 21
720.066558
 31
0.0
  0
LINE
  5
50b
100
AcDbEntity
  8
Calque_1
 62
1
100
AcDbLine
 10
377.310086
 20
720.066558
 30
0.0
 11
374.310092
 21
720.066558
 31
0.0
  0
LINE
  5
50c
100
AcDbEntity
  8
Calque_1
 62
1
100
AcDbLine
 10
374.310092
 20
720.066558
 30
0.0
 11
374.310092
 21
730.320396
 31
0.0
  0
LINE
  5
50d
100
AcDbEntity
  8
Calque_1
 62
1
100
AcDbLine
 10
374.310092
 20
730.320396
 30
0.0
 11
377.310086
 21
730.320396
 31
0.0
  0
LINE
  5
50e
100
AcDbEntity
  8
Calque_1
 62
1
100
AcDbLine
 10
377.310086
 20
730.320396
 30
0.0
 11
377.310086
 21
740.374253
 31
0.0
  0
LINE
  5
50f
100
AcDbEntity
  8
Calque_1
 62
1
100
AcDbLine
 10
377.310086
 20
740.374253
 30
0.0
 11
374.310092
 21
740.374253
 31
0.0
  0
LINE
  5
510
100
AcDbEntity
  8
Calque_1
 62
1
100
AcDbLine
 10
374.310092
 20
740.374253
 30
0.0
 11
374.310092
 21
750.628092
 31
0.0
  0
LINE
  5
511
100
AcDbEntity
  8
Calque_1
 62
1
100
AcDbLine
 10
374.310092
 20
750.628092
 30
0.0
 11
377.310086
 21
750.628092
 31
0.0
  0
LINE
  5
512
100
AcDbEntity
  8
Calque_1
 62
1
100
AcDbLine
 10
377.310086
 20
750.628092
 30
0.0
 11
377.310086
 21
760.681948
 31
0.0
  0
LINE
  5
513
100
AcDbEntity
  8
Calque_1
 62
1
100
AcDbLine
 10
377.310086
 20
760.681948
 30
0.0
 11
374.310092
 21
760.681948
 31
0.0
  0
LINE
  5
514
100
AcDbEntity
  8
Calque_1
 62
1
100
AcDbLine
 10
374.310092
 20
760.681948
 30
0.0
 11
374.310092
 21
770.935787
 31
0.0
  0
LINE
  5
515
100
AcDbEntity
  8
Calque_1
 62
1
100
AcDbLine
 10
374.310092
 20
770.935787
 30
0.0
 11
377.310086
 21
770.935787
 31
0.0
  0
LINE
  5
516
100
AcDbEntity
  8
Calque_1
 62
1
100
AcDbLine
 10
377.310086
 20
770.935787
 30
0.0
 11
377.310086
 21
778.039630
 31
0.0
  0
LINE
  5
517
100
AcDbEntity
  8
Calque_1
 62
1
100
AcDbLine
 10
377.310086
 20
778.039630
 30
0.0
 11
392.926739
 21
778.039630
 31
0.0
  0
LINE
  5
518
100
AcDbEntity
  8
Calque_1
 62
1
100
AcDbLine
 10
392.926739
 20
778.039630
 30
0.0
 11
392.926739
 21
781.039624
 31
0.0
  0
LINE
  5
519
100
AcDbEntity
  8
Calque_1
 62
1
100
AcDbLine
 10
392.926739
 20
781.039624
 30
0.0
 11
408.693422
 21
781.039624
 31
0.0
  0
LINE
  5
51a
100
AcDbEntity
  8
Calque_1
 62
1
100
AcDbLine
 10
408.693422
 20
781.039624
 30
0.0
 11
408.693422
 21
778.039630
 31
0.0
  0
LINE
  5
51b
100
AcDbEntity
  8
Calque_1
 62
1
100
AcDbLine
 10
408.693422
 20
778.039630
 30
0.0
 11
424.310076
 21
778.039630
 31
0.0
  0
LINE
  5
51c
100
AcDbEntity
  8
Calque_1
 62
1
100
AcDbLine
 10
424.310076
 20
778.039630
 30
0.0
 11
424.310076
 21
772.039642
 31
0.0
  0
ENDSEC
  0
SECTION
  2
OBJECTS
  0
DICTIONARY
  5
C
330
0
100
AcDbDictionary
  3
ACAD_GROUP
350
D
  3
ACAD_MLINESTYLE
350
17
  0
DICTIONARY
  5
D
330
C
100
AcDbDictionary
  0
DICTIONARY
  5
1A
330
C
100
AcDbDictionary
  0
DICTIONARY
  5
17
330
C
100
AcDbDictionary
  3
STANDARD
350
18
  0
DICTIONARY
  5
19
330
C
100
AcDbDictionary
  0
ENDSEC
  0
EOF
