  0
SECTION
  2
HEADER
  9
$ACADVER
  1
AC1014
  9
$HANDSEED
  5
FFFF
  9
$MEASUREMENT
 70
     1
  0
ENDSEC
  0
SECTION
  2
TABLES
  0
TABLE
  2
VPORT
  5
8
330
0
100
AcDbSymbolTable
 70
     4
  0
VPORT
  5
2E
330
8
100
AcDbSymbolTableRecord
100
AcDbViewportTableRecord
  2
*ACTIVE
 70
     0
 10
0.0
 20
0.0
 11
1.0
 21
1.0
 12
210.0
 22
148.5
 13
0.0
 23
0.0
 14
10.0
 24
10.0
 15
10.0
 25
10.0
 16
0.0
 26
0.0
 36
1.0
 17
0.0
 27
0.0
 37
0.0
 40
341.0
 41
1.24
 42
50.0
 43
0.0
 44
0.0
 50
0.0
 51
0.0
 71
     0
 72
   100
 73
     1
 74
     3
 75
     0
 76
     0
 77
     0
 78
     0
  0
ENDTAB
  0
TABLE
  2
LTYPE
  5
5
330
0
100
AcDbSymbolTable
 70
     1
  0
LTYPE
  5
14
330
5
100
AcDbSymbolTableRecord
100
AcDbLinetypeTableRecord
  2
BYBLOCK
 70
     0
  3

 72
    65
 73
     0
 40
0.0
  0
LTYPE
  5
15
330
5
100
AcDbSymbolTableRecord
100
AcDbLinetypeTableRecord
  2
BYLAYER
 70
     0
  3

 72
    65
 73
     0
 40
0.0
  0
LTYPE
  5
16
330
5
100
AcDbSymbolTableRecord
100
AcDbLinetypeTableRecord
  2
CONTINUOUS
 70
     0
  3
Solid line
 72
    65
 73
     0
 40
0.0
  0
ENDTAB
  0
TABLE
  2
LAYER
  5
2
100
AcDbSymbolTable
 70
2
  0
LAYER
  5
50
100
AcDbSymbolTableRecord
100
AcDbLayerTableRecord
  2
0
 70
0
  6
CONTINUOUS
  0
LAYER
  5
51
100
AcDbSymbolTableRecord
100
AcDbLayerTableRecord
  2
Calque_1
 70
0
  6
CONTINUOUS
  0
ENDTAB
  0
TABLE
  2
STYLE
  5
3
330
0
100
AcDbSymbolTable
 70
     1
  0
STYLE
  5
11
330
3
100
AcDbSymbolTableRecord
100
AcDbTextStyleTableRecord
  2
STANDARD
 70
     0
 40
0.0
 41
1.0
 50
0.0
 71
     0
 42
2.5
  3
txt
  4

  0
ENDTAB
  0
TABLE
  2
VIEW
  5
6
330
0
100
AcDbSymbolTable
 70
     0
  0
ENDTAB
  0
TABLE
  2
UCS
  5
7
330
0
100
AcDbSymbolTable
 70
     0
  0
ENDTAB
  0
TABLE
  2
APPID
  5
9
330
0
100
AcDbSymbolTable
 70
     2
  0
APPID
  5
12
330
9
100
AcDbSymbolTableRecord
100
AcDbRegAppTableRecord
  2
ACAD
 70
     0
  0
ENDTAB
  0
TABLE
  2
DIMSTYLE
  5
A
330
0
100
AcDbSymbolTable
 70
     1
  0
DIMSTYLE
105
27
330
A
100
AcDbSymbolTableRecord
100
AcDbDimStyleTableRecord
  2
ISO-25
 70
     0
  3

  4

  5

  6

  7

 40
1.0
 41
2.5
 42
0.625
 43
3.75
 44
1.25
 45
0.0
 46
0.0
 47
0.0
 48
0.0
140
2.5
141
2.5
142
0.0
143
0.03937007874016
144
1.0
145
0.0
146
1.0
147
0.625
 71
     0
 72
     0
 73
     0
 74
     0
 75
     0
 76
     0
 77
     1
 78
     8
170
     0
171
     3
172
     1
173
     0
174
     0
175
     0
176
     0
177
     0
178
     0
270
     2
271
     2
272
     2
273
     2
274
     3
340
11
275
     0
280
     0
281
     0
282
     0
283
     0
284
     8
285
     0
286
     0
287
     3
288
     0
  0
ENDTAB
  0
TABLE
  2
BLOCK_RECORD
  5
1
330
0
100
AcDbSymbolTable
 70
     1
  0
BLOCK_RECORD
  5
1F
330
1
100
AcDbSymbolTableRecord
100
AcDbBlockTableRecord
  2
*MODEL_SPACE
  0
BLOCK_RECORD
  5
1B
330
1
100
AcDbSymbolTableRecord
100
AcDbBlockTableRecord
  2
*PAPER_SPACE
  0
ENDTAB
  0
ENDSEC
  0
SECTION
  2
BLOCKS
  0
BLOCK
  5
20
330
1F
100
AcDbEntity
  8
0
100
AcDbBlockBegin
  2
*MODEL_SPACE
 70
     0
 10
0.0
 20
0.0
 30
0.0
  3
*MODEL_SPACE
  1

  0
ENDBLK
  5
21
330
1F
100
AcDbEntity
  8
0
100
AcDbBlockEnd
  0
BLOCK
  5
1C
330
1B
100
AcDbEntity
 67
     1
  8
0
100
AcDbBlockBegin
  2
*PAPER_SPACE
  1

  0
ENDBLK
  5
1D
330
1B
100
AcDbEntity
 67
     1
  8
0
100
AcDbBlockEnd
  0
ENDSEC
  0
SECTION
  2
ENTITIES
  0
LINE
  5
100
100
AcDbEntity
  8
Calque_1
 62
1
100
AcDbLine
 10
436.304464
 20
783.465720
 30
0.0
 11
457.388948
 21
783.465720
 31
0.0
  0
LINE
  5
101
100
AcDbEntity
  8
Calque_1
 62
1
100
AcDbLine
 10
457.388948
 20
783.465720
 30
0.0
 11
457.388948
 21
780.465726
 31
0.0
  0
LINE
  5
102
100
AcDbEntity
  8
Calque_1
 62
1
100
AcDbLine
 10
457.388948
 20
780.465726
 30
0.0
 11
478.323430
 21
780.465726
 31
0.0
  0
LINE
  5
103
100
AcDbEntity
  8
Calque_1
 62
1
100
AcDbLine
 10
478.323430
 20
780.465726
 30
0.0
 11
478.323430
 21
783.465720
 31
0.0
  0
LINE
  5
104
100
AcDbEntity
  8
Calque_1
 62
1
100
AcDbLine
 10
478.323430
 20
783.465720
 30
0.0
 11
499.457924
 21
783.465720
 31
0.0
  0
LINE
  5
105
100
AcDbEntity
  8
Calque_1
 62
1
100
AcDbLine
 10
499.457924
 20
783.465720
 30
0.0
 11
499.457924
 21
780.465726
 31
0.0
  0
LINE
  5
106
100
AcDbEntity
  8
Calque_1
 62
1
100
AcDbLine
 10
499.457924
 20
780.465726
 30
0.0
 11
520.392406
 21
780.465726
 31
0.0
  0
LINE
  5
107
100
AcDbEntity
  8
Calque_1
 62
1
100
AcDbLine
 10
520.392406
 20
780.465726
 30
0.0
 11
520.392406
 21
783.465720
 31
0.0
  0
LINE
  5
108
100
AcDbEntity
  8
Calque_1
 62
1
100
AcDbLine
 10
520.392406
 20
783.465720
 30
0.0
 11
541.526871
 21
783.465720
 31
0.0
  0
LINE
  5
109
100
AcDbEntity
  8
Calque_1
 62
1
100
AcDbLine
 10
541.526871
 20
783.465720
 30
0.0
 11
541.526871
 21
780.465726
 31
0.0
  0
LINE
  5
10a
100
AcDbEntity
  8
Calque_1
 62
1
100
AcDbLine
 10
541.526871
 20
780.465726
 30
0.0
 11
562.461354
 21
780.465726
 31
0.0
  0
LINE
  5
10b
100
AcDbEntity
  8
Calque_1
 62
1
100
AcDbLine
 10
562.461354
 20
780.465726
 30
0.0
 11
562.461354
 21
783.465720
 31
0.0
  0
LINE
  5
10c
100
AcDbEntity
  8
Calque_1
 62
1
100
AcDbLine
 10
562.461354
 20
783.465720
 30
0.0
 11
583.595847
 21
783.465720
 31
0.0
  0
LINE
  5
10d
100
AcDbEntity
  8
Calque_1
 62
1
100
AcDbLine
 10
583.595847
 20
783.465720
 30
0.0
 11
583.595847
 21
780.465726
 31
0.0
  0
LINE
  5
10e
100
AcDbEntity
  8
Calque_1
 62
1
100
AcDbLine
 10
583.595847
 20
780.465726
 30
0.0
 11
604.530329
 21
780.465726
 31
0.0
  0
LINE
  5
10f
100
AcDbEntity
  8
Calque_1
 62
1
100
AcDbLine
 10
604.530329
 20
780.465726
 30
0.0
 11
604.530329
 21
783.465720
 31
0.0
  0
LINE
  5
110
100
AcDbEntity
  8
Calque_1
 62
1
100
AcDbLine
 10
604.530329
 20
783.465720
 30
0.0
 11
625.664823
 21
783.465720
 31
0.0
  0
LINE
  5
111
100
AcDbEntity
  8
Calque_1
 62
1
100
AcDbLine
 10
625.664823
 20
783.465720
 30
0.0
 11
625.664823
 21
780.465726
 31
0.0
  0
LINE
  5
112
100
AcDbEntity
  8
Calque_1
 62
1
100
AcDbLine
 10
625.664823
 20
780.465726
 30
0.0
 11
646.599305
 21
780.465726
 31
0.0
  0
LINE
  5
113
100
AcDbEntity
  8
Calque_1
 62
1
100
AcDbLine
 10
646.599305
 20
780.465726
 30
0.0
 11
646.599305
 21
783.465720
 31
0.0
  0
LINE
  5
114
100
AcDbEntity
  8
Calque_1
 62
1
100
AcDbLine
 10
646.599305
 20
783.465720
 30
0.0
 11
667.733770
 21
783.465720
 31
0.0
  0
LINE
  5
115
100
AcDbEntity
  8
Calque_1
 62
1
100
AcDbLine
 10
667.733770
 20
783.465720
 30
0.0
 11
667.733770
 21
780.465726
 31
0.0
  0
LINE
  5
116
100
AcDbEntity
  8
Calque_1
 62
1
100
AcDbLine
 10
667.733770
 20
780.465726
 30
0.0
 11
688.668253
 21
780.465726
 31
0.0
  0
LINE
  5
117
100
AcDbEntity
  8
Calque_1
 62
1
100
AcDbLine
 10
688.668253
 20
780.465726
 30
0.0
 11
688.668253
 21
783.465720
 31
0.0
  0
LINE
  5
118
100
AcDbEntity
  8
Calque_1
 62
1
100
AcDbLine
 10
688.668253
 20
783.465720
 30
0.0
 11
709.802746
 21
783.465720
 31
0.0
  0
LINE
  5
119
100
AcDbEntity
  8
Calque_1
 62
1
100
AcDbLine
 10
709.802746
 20
783.465720
 30
0.0
 11
709.802746
 21
780.465726
 31
0.0
  0
LINE
  5
11a
100
AcDbEntity
  8
Calque_1
 62
1
100
AcDbLine
 10
709.802746
 20
780.465726
 30
0.0
 11
730.737228
 21
780.465726
 31
0.0
  0
LINE
  5
11b
100
AcDbEntity
  8
Calque_1
 62
1
100
AcDbLine
 10
730.737228
 20
780.465726
 30
0.0
 11
730.737228
 21
783.465720
 31
0.0
  0
LINE
  5
11c
100
AcDbEntity
  8
Calque_1
 62
1
100
AcDbLine
 10
730.737228
 20
783.465720
 30
0.0
 11
751.871722
 21
783.465720
 31
0.0
  0
LINE
  5
11d
100
AcDbEntity
  8
Calque_1
 62
1
100
AcDbLine
 10
751.871722
 20
783.465720
 30
0.0
 11
751.871722
 21
780.465726
 31
0.0
  0
LINE
  5
11e
100
AcDbEntity
  8
Calque_1
 62
1
100
AcDbLine
 10
751.871722
 20
780.465726
 30
0.0
 11
772.806204
 21
780.465726
 31
0.0
  0
LINE
  5
11f
100
AcDbEntity
  8
Calque_1
 62
1
100
AcDbLine
 10
772.806204
 20
780.465726
 30
0.0
 11
772.806204
 21
783.465720
 31
0.0
  0
LINE
  5
120
100
AcDbEntity
  8
Calque_1
 62
1
100
AcDbLine
 10
772.806204
 20
783.465720
 30
0.0
 11
793.940669
 21
783.465720
 31
0.0
  0
LINE
  5
121
100
AcDbEntity
  8
Calque_1
 62
1
100
AcDbLine
 10
793.940669
 20
783.465720
 30
0.0
 11
793.940669
 21
780.465726
 31
0.0
  0
LINE
  5
122
100
AcDbEntity
  8
Calque_1
 62
1
100
AcDbLine
 10
793.940669
 20
780.465726
 30
0.0
 11
814.875152
 21
780.465726
 31
0.0
  0
LINE
  5
123
100
AcDbEntity
  8
Calque_1
 62
1
100
AcDbLine
 10
814.875152
 20
780.465726
 30
0.0
 11
814.875152
 21
783.465720
 31
0.0
  0
LINE
  5
124
100
AcDbEntity
  8
Calque_1
 62
1
100
AcDbLine
 10
814.875152
 20
783.465720
 30
0.0
 11
836.009645
 21
783.465720
 31
0.0
  0
LINE
  5
125
100
AcDbEntity
  8
Calque_1
 62
1
100
AcDbLine
 10
836.009645
 20
783.465720
 30
0.0
 11
836.009645
 21
780.465726
 31
0.0
  0
LINE
  5
126
100
AcDbEntity
  8
Calque_1
 62
1
100
AcDbLine
 10
836.009645
 20
780.465726
 30
0.0
 11
856.944128
 21
780.465726
 31
0.0
  0
LINE
  5
127
100
AcDbEntity
  8
Calque_1
 62
1
100
AcDbLine
 10
856.944128
 20
780.465726
 30
0.0
 11
856.944128
 21
783.465720
 31
0.0
  0
LINE
  5
128
100
AcDbEntity
  8
Calque_1
 62
1
100
AcDbLine
 10
856.944128
 20
783.465720
 30
0.0
 11
878.078621
 21
783.465720
 31
0.0
  0
LINE
  5
129
100
AcDbEntity
  8
Calque_1
 62
1
100
AcDbLine
 10
878.078621
 20
783.465720
 30
0.0
 11
878.078621
 21
780.465726
 31
0.0
  0
LINE
  5
12a
100
AcDbEntity
  8
Calque_1
 62
1
100
AcDbLine
 10
878.078621
 20
780.465726
 30
0.0
 11
899.013103
 21
780.465726
 31
0.0
  0
LINE
  5
12b
100
AcDbEntity
  8
Calque_1
 62
1
100
AcDbLine
 10
899.013103
 20
780.465726
 30
0.0
 11
899.013103
 21
783.465720
 31
0.0
  0
LINE
  5
12c
100
AcDbEntity
  8
Calque_1
 62
1
100
AcDbLine
 10
899.013103
 20
783.465720
 30
0.0
 11
920.147568
 21
783.465720
 31
0.0
  0
LINE
  5
12d
100
AcDbEntity
  8
Calque_1
 62
1
100
AcDbLine
 10
920.147568
 20
783.465720
 30
0.0
 11
920.147568
 21
780.465726
 31
0.0
  0
LINE
  5
12e
100
AcDbEntity
  8
Calque_1
 62
1
100
AcDbLine
 10
920.147568
 20
780.465726
 30
0.0
 11
941.082051
 21
780.465726
 31
0.0
  0
LINE
  5
12f
100
AcDbEntity
  8
Calque_1
 62
1
100
AcDbLine
 10
941.082051
 20
780.465726
 30
0.0
 11
941.082051
 21
783.465720
 31
0.0
  0
LINE
  5
130
100
AcDbEntity
  8
Calque_1
 62
1
100
AcDbLine
 10
941.082051
 20
783.465720
 30
0.0
 11
962.216544
 21
783.465720
 31
0.0
  0
LINE
  5
131
100
AcDbEntity
  8
Calque_1
 62
1
100
AcDbLine
 10
962.216544
 20
783.465720
 30
0.0
 11
962.216544
 21
780.465726
 31
0.0
  0
LINE
  5
132
100
AcDbEntity
  8
Calque_1
 62
1
100
AcDbLine
 10
962.216544
 20
780.465726
 30
0.0
 11
983.151027
 21
780.465726
 31
0.0
  0
LINE
  5
133
100
AcDbEntity
  8
Calque_1
 62
1
100
AcDbLine
 10
983.151027
 20
780.465726
 30
0.0
 11
983.151027
 21
783.465720
 31
0.0
  0
LINE
  5
134
100
AcDbEntity
  8
Calque_1
 62
1
100
AcDbLine
 10
983.151027
 20
783.465720
 30
0.0
 11
1004.285492
 21
783.465720
 31
0.0
  0
LINE
  5
135
100
AcDbEntity
  8
Calque_1
 62
1
100
AcDbLine
 10
1004.285492
 20
783.465720
 30
0.0
 11
1004.285492
 21
780.465726
 31
0.0
  0
LINE
  5
136
100
AcDbEntity
  8
Calque_1
 62
1
100
AcDbLine
 10
1004.285492
 20
780.465726
 30
0.0
 11
1025.219974
 21
780.465726
 31
0.0
  0
LINE
  5
137
100
AcDbEntity
  8
Calque_1
 62
1
100
AcDbLine
 10
1025.219974
 20
780.465726
 30
0.0
 11
1025.219974
 21
783.465720
 31
0.0
  0
LINE
  5
138
100
AcDbEntity
  8
Calque_1
 62
1
100
AcDbLine
 10
1025.219974
 20
783.465720
 30
0.0
 11
1046.304458
 21
783.465720
 31
0.0
  0
LINE
  5
139
100
AcDbEntity
  8
Calque_1
 62
1
100
AcDbLine
 10
1046.304458
 20
783.465720
 30
0.0
 11
1046.304458
 21
763.415722
 31
0.0
  0
LINE
  5
13a
100
AcDbEntity
  8
Calque_1
 62
1
100
AcDbLine
 10
1046.304458
 20
763.415722
 30
0.0
 11
1043.304464
 21
763.415722
 31
0.0
  0
LINE
  5
13b
100
AcDbEntity
  8
Calque_1
 62
1
100
AcDbLine
 10
1043.304464
 20
763.415722
 30
0.0
 11
1043.304464
 21
743.515725
 31
0.0
  0
LINE
  5
13c
100
AcDbEntity
  8
Calque_1
 62
1
100
AcDbLine
 10
1043.304464
 20
743.515725
 30
0.0
 11
1046.304458
 21
743.515725
 31
0.0
  0
LINE
  5
13d
100
AcDbEntity
  8
Calque_1
 62
1
100
AcDbLine
 10
1046.304458
 20
743.515725
 30
0.0
 11
1046.304458
 21
723.415745
 31
0.0
  0
LINE
  5
13e
100
AcDbEntity
  8
Calque_1
 62
1
100
AcDbLine
 10
1046.304458
 20
723.415745
 30
0.0
 11
1043.304464
 21
723.415745
 31
0.0
  0
LINE
  5
13f
100
AcDbEntity
  8
Calque_1
 62
1
100
AcDbLine
 10
1043.304464
 20
723.415745
 30
0.0
 11
1043.304464
 21
703.515720
 31
0.0
  0
LINE
  5
140
100
AcDbEntity
  8
Calque_1
 62
1
100
AcDbLine
 10
1043.304464
 20
703.515720
 30
0.0
 11
1046.304458
 21
703.515720
 31
0.0
  0
LINE
  5
141
100
AcDbEntity
  8
Calque_1
 62
1
100
AcDbLine
 10
1046.304458
 20
703.515720
 30
0.0
 11
1046.304458
 21
683.415740
 31
0.0
  0
LINE
  5
142
100
AcDbEntity
  8
Calque_1
 62
1
100
AcDbLine
 10
1046.304458
 20
683.415740
 30
0.0
 11
1043.304464
 21
683.415740
 31
0.0
  0
LINE
  5
143
100
AcDbEntity
  8
Calque_1
 62
1
100
AcDbLine
 10
1043.304464
 20
683.415740
 30
0.0
 11
1043.304464
 21
663.515744
 31
0.0
  0
LINE
  5
144
100
AcDbEntity
  8
Calque_1
 62
1
100
AcDbLine
 10
1043.304464
 20
663.515744
 30
0.0
 11
1046.304458
 21
663.515744
 31
0.0
  0
LINE
  5
145
100
AcDbEntity
  8
Calque_1
 62
1
100
AcDbLine
 10
1046.304458
 20
663.515744
 30
0.0
 11
1046.304458
 21
643.415736
 31
0.0
  0
LINE
  5
146
100
AcDbEntity
  8
Calque_1
 62
1
100
AcDbLine
 10
1046.304458
 20
643.415736
 30
0.0
 11
1043.304464
 21
643.415736
 31
0.0
  0
LINE
  5
147
100
AcDbEntity
  8
Calque_1
 62
1
100
AcDbLine
 10
1043.304464
 20
643.415736
 30
0.0
 11
1043.304464
 21
623.515739
 31
0.0
  0
LINE
  5
148
100
AcDbEntity
  8
Calque_1
 62
1
100
AcDbLine
 10
1043.304464
 20
623.515739
 30
0.0
 11
1046.304458
 21
623.515739
 31
0.0
  0
LINE
  5
149
100
AcDbEntity
  8
Calque_1
 62
1
100
AcDbLine
 10
1046.304458
 20
623.515739
 30
0.0
 11
1046.304458
 21
603.415731
 31
0.0
  0
LINE
  5
14a
100
AcDbEntity
  8
Calque_1
 62
1
100
AcDbLine
 10
1046.304458
 20
603.415731
 30
0.0
 11
1043.304464
 21
603.415731
 31
0.0
  0
LINE
  5
14b
100
AcDbEntity
  8
Calque_1
 62
1
100
AcDbLine
 10
1043.304464
 20
603.415731
 30
0.0
 11
1043.304464
 21
583.515734
 31
0.0
  0
LINE
  5
14c
100
AcDbEntity
  8
Calque_1
 62
1
100
AcDbLine
 10
1043.304464
 20
583.515734
 30
0.0
 11
1046.304458
 21
583.515734
 31
0.0
  0
LINE
  5
14d
100
AcDbEntity
  8
Calque_1
 62
1
100
AcDbLine
 10
1046.304458
 20
583.515734
 30
0.0
 11
1046.304458
 21
563.415732
 31
0.0
  0
LINE
  5
14e
100
AcDbEntity
  8
Calque_1
 62
1
100
AcDbLine
 10
1046.304458
 20
563.415732
 30
0.0
 11
1043.304464
 21
563.415732
 31
0.0
  0
LINE
  5
14f
100
AcDbEntity
  8
Calque_1
 62
1
100
AcDbLine
 10
1043.304464
 20
563.415732
 30
0.0
 11
1043.304464
 21
543.515732
 31
0.0
  0
LINE
  5
150
100
AcDbEntity
  8
Calque_1
 62
1
100
AcDbLine
 10
1043.304464
 20
543.515732
 30
0.0
 11
1046.304458
 21
543.515732
 31
0.0
  0
LINE
  5
151
100
AcDbEntity
  8
Calque_1
 62
1
100
AcDbLine
 10
1046.304458
 20
543.515732
 30
0.0
 11
1046.304458
 21
523.415730
 31
0.0
  0
LINE
  5
152
100
AcDbEntity
  8
Calque_1
 62
1
100
AcDbLine
 10
1046.304458
 20
523.415730
 30
0.0
 11
1043.304464
 21
523.415730
 31
0.0
  0
LINE
  5
153
100
AcDbEntity
  8
Calque_1
 62
1
100
AcDbLine
 10
1043.304464
 20
523.415730
 30
0.0
 11
1043.304464
 21
503.515731
 31
0.0
  0
LINE
  5
154
100
AcDbEntity
  8
Calque_1
 62
1
100
AcDbLine
 10
1043.304464
 20
503.515731
 30
0.0
 11
1046.304458
 21
503.515731
 31
0.0
  0
LINE
  5
155
100
AcDbEntity
  8
Calque_1
 62
1
100
AcDbLine
 10
1046.304458
 20
503.515731
 30
0.0
 11
1046.304458
 21
483.415731
 31
0.0
  0
LINE
  5
156
100
AcDbEntity
  8
Calque_1
 62
1
100
AcDbLine
 10
1046.304458
 20
483.415731
 30
0.0
 11
1043.304464
 21
483.415731
 31
0.0
  0
LINE
  5
157
100
AcDbEntity
  8
Calque_1
 62
1
100
AcDbLine
 10
1043.304464
 20
483.415731
 30
0.0
 11
1043.304464
 21
463.515732
 31
0.0
  0
LINE
  5
158
100
AcDbEntity
  8
Calque_1
 62
1
100
AcDbLine
 10
1043.304464
 20
463.515732
 30
0.0
 11
1046.304458
 21
463.515732
 31
0.0
  0
LINE
  5
159
100
AcDbEntity
  8
Calque_1
 62
1
100
AcDbLine
 10
1046.304458
 20
463.515732
 30
0.0
 11
1046.304458
 21
443.415732
 31
0.0
  0
LINE
  5
15a
100
AcDbEntity
  8
Calque_1
 62
1
100
AcDbLine
 10
1046.304458
 20
443.415732
 30
0.0
 11
1043.304464
 21
443.415732
 31
0.0
  0
LINE
  5
15b
100
AcDbEntity
  8
Calque_1
 62
1
100
AcDbLine
 10
1043.304464
 20
443.415732
 30
0.0
 11
1043.304464
 21
423.515732
 31
0.0
  0
LINE
  5
15c
100
AcDbEntity
  8
Calque_1
 62
1
100
AcDbLine
 10
1043.304464
 20
423.515732
 30
0.0
 11
1046.304458
 21
423.515732
 31
0.0
  0
LINE
  5
15d
100
AcDbEntity
  8
Calque_1
 62
1
100
AcDbLine
 10
1046.304458
 20
423.515732
 30
0.0
 11
1046.304458
 21
403.415730
 31
0.0
  0
LINE
  5
15e
100
AcDbEntity
  8
Calque_1
 62
1
100
AcDbLine
 10
1046.304458
 20
403.415730
 30
0.0
 11
1043.304464
 21
403.415730
 31
0.0
  0
LINE
  5
15f
100
AcDbEntity
  8
Calque_1
 62
1
100
AcDbLine
 10
1043.304464
 20
403.415730
 30
0.0
 11
1043.304464
 21
383.515731
 31
0.0
  0
LINE
  5
160
100
AcDbEntity
  8
Calque_1
 62
1
100
AcDbLine
 10
1043.304464
 20
383.515731
 30
0.0
 11
1046.304458
 21
383.515731
 31
0.0
  0
LINE
  5
161
100
AcDbEntity
  8
Calque_1
 62
1
100
AcDbLine
 10
1046.304458
 20
383.515731
 30
0.0
 11
1046.304458
 21
363.415731
 31
0.0
  0
LINE
  5
162
100
AcDbEntity
  8
Calque_1
 62
1
100
AcDbLine
 10
1046.304458
 20
363.415731
 30
0.0
 11
1043.304464
 21
363.415731
 31
0.0
  0
LINE
  5
163
100
AcDbEntity
  8
Calque_1
 62
1
100
AcDbLine
 10
1043.304464
 20
363.415731
 30
0.0
 11
1043.304464
 21
343.515732
 31
0.0
  0
LINE
  5
164
100
AcDbEntity
  8
Calque_1
 62
1
100
AcDbLine
 10
1043.304464
 20
343.515732
 30
0.0
 11
1046.304458
 21
343.515732
 31
0.0
  0
LINE
  5
165
100
AcDbEntity
  8
Calque_1
 62
1
100
AcDbLine
 10
1046.304458
 20
343.515732
 30
0.0
 11
1046.304458
 21
323.415732
 31
0.0
  0
LINE
  5
166
100
AcDbEntity
  8
Calque_1
 62
1
100
AcDbLine
 10
1046.304458
 20
323.415732
 30
0.0
 11
1043.304464
 21
323.415732
 31
0.0
  0
LINE
  5
167
100
AcDbEntity
  8
Calque_1
 62
1
100
AcDbLine
 10
1043.304464
 20
323.415732
 30
0.0
 11
1043.304464
 21
303.515732
 31
0.0
  0
LINE
  5
168
100
AcDbEntity
  8
Calque_1
 62
1
100
AcDbLine
 10
1043.304464
 20
303.515732
 30
0.0
 11
1046.304458
 21
303.515732
 31
0.0
  0
LINE
  5
169
100
AcDbEntity
  8
Calque_1
 62
1
100
AcDbLine
 10
1046.304458
 20
303.515732
 30
0.0
 11
1046.304458
 21
283.415732
 31
0.0
  0
LINE
  5
16a
100
AcDbEntity
  8
Calque_1
 62
1
100
AcDbLine
 10
1046.304458
 20
283.415732
 30
0.0
 11
1043.304464
 21
283.415732
 31
0.0
  0
LINE
  5
16b
100
AcDbEntity
  8
Calque_1
 62
1
100
AcDbLine
 10
1043.304464
 20
283.415732
 30
0.0
 11
1043.304464
 21
263.515731
 31
0.0
  0
LINE
  5
16c
100
AcDbEntity
  8
Calque_1
 62
1
100
AcDbLine
 10
1043.304464
 20
263.515731
 30
0.0
 11
1046.304458
 21
263.515731
 31
0.0
  0
LINE
  5
16d
100
AcDbEntity
  8
Calque_1
 62
1
100
AcDbLine
 10
1046.304458
 20
263.515731
 30
0.0
 11
1046.304458
 21
243.415731
 31
0.0
  0
LINE
  5
16e
100
AcDbEntity
  8
Calque_1
 62
1
100
AcDbLine
 10
1046.304458
 20
243.415731
 30
0.0
 11
1043.304464
 21
243.415731
 31
0.0
  0
LINE
  5
16f
100
AcDbEntity
  8
Calque_1
 62
1
100
AcDbLine
 10
1043.304464
 20
243.415731
 30
0.0
 11
1043.304464
 21
223.515732
 31
0.0
  0
LINE
  5
170
100
AcDbEntity
  8
Calque_1
 62
1
100
AcDbLine
 10
1043.304464
 20
223.515732
 30
0.0
 11
1046.304458
 21
223.515732
 31
0.0
  0
LINE
  5
171
100
AcDbEntity
  8
Calque_1
 62
1
100
AcDbLine
 10
1046.304458
 20
223.515732
 30
0.0
 11
1046.304458
 21
203.415732
 31
0.0
  0
LINE
  5
172
100
AcDbEntity
  8
Calque_1
 62
1
100
AcDbLine
 10
1046.304458
 20
203.415732
 30
0.0
 11
1043.304464
 21
203.415732
 31
0.0
  0
LINE
  5
173
100
AcDbEntity
  8
Calque_1
 62
1
100
AcDbLine
 10
1043.304464
 20
203.415732
 30
0.0
 11
1043.304464
 21
183.515733
 31
0.0
  0
LINE
  5
174
100
AcDbEntity
  8
Calque_1
 62
1
100
AcDbLine
 10
1043.304464
 20
183.515733
 30
0.0
 11
1046.304458
 21
183.515733
 31
0.0
  0
LINE
  5
175
100
AcDbEntity
  8
Calque_1
 62
1
100
AcDbLine
 10
1046.304458
 20
183.515733
 30
0.0
 11
1046.304458
 21
163.415731
 31
0.0
  0
LINE
  5
176
100
AcDbEntity
  8
Calque_1
 62
1
100
AcDbLine
 10
1046.304458
 20
163.415731
 30
0.0
 11
1043.304464
 21
163.415731
 31
0.0
  0
LINE
  5
177
100
AcDbEntity
  8
Calque_1
 62
1
100
AcDbLine
 10
1043.304464
 20
163.415731
 30
0.0
 11
1043.304464
 21
143.515731
 31
0.0
  0
LINE
  5
178
100
AcDbEntity
  8
Calque_1
 62
1
100
AcDbLine
 10
1043.304464
 20
143.515731
 30
0.0
 11
1046.304458
 21
143.515731
 31
0.0
  0
LINE
  5
179
100
AcDbEntity
  8
Calque_1
 62
1
100
AcDbLine
 10
1046.304458
 20
143.515731
 30
0.0
 11
1046.304458
 21
123.465733
 31
0.0
  0
LINE
  5
17a
100
AcDbEntity
  8
Calque_1
 62
1
100
AcDbLine
 10
1046.304458
 20
123.465733
 30
0.0
 11
1025.219974
 21
123.465733
 31
0.0
  0
LINE
  5
17b
100
AcDbEntity
  8
Calque_1
 62
1
100
AcDbLine
 10
1025.219974
 20
123.465733
 30
0.0
 11
1025.219974
 21
126.465733
 31
0.0
  0
LINE
  5
17c
100
AcDbEntity
  8
Calque_1
 62
1
100
AcDbLine
 10
1025.219974
 20
126.465733
 30
0.0
 11
1004.285492
 21
126.465733
 31
0.0
  0
LINE
  5
17d
100
AcDbEntity
  8
Calque_1
 62
1
100
AcDbLine
 10
1004.285492
 20
126.465733
 30
0.0
 11
1004.285492
 21
123.465733
 31
0.0
  0
LINE
  5
17e
100
AcDbEntity
  8
Calque_1
 62
1
100
AcDbLine
 10
1004.285492
 20
123.465733
 30
0.0
 11
983.151027
 21
123.465733
 31
0.0
  0
LINE
  5
17f
100
AcDbEntity
  8
Calque_1
 62
1
100
AcDbLine
 10
983.151027
 20
123.465733
 30
0.0
 11
983.151027
 21
126.465733
 31
0.0
  0
LINE
  5
180
100
AcDbEntity
  8
Calque_1
 62
1
100
AcDbLine
 10
983.151027
 20
126.465733
 30
0.0
 11
962.216544
 21
126.465733
 31
0.0
  0
LINE
  5
181
100
AcDbEntity
  8
Calque_1
 62
1
100
AcDbLine
 10
962.216544
 20
126.465733
 30
0.0
 11
962.216544
 21
123.465733
 31
0.0
  0
LINE
  5
182
100
AcDbEntity
  8
Calque_1
 62
1
100
AcDbLine
 10
962.216544
 20
123.465733
 30
0.0
 11
941.082051
 21
123.465733
 31
0.0
  0
LINE
  5
183
100
AcDbEntity
  8
Calque_1
 62
1
100
AcDbLine
 10
941.082051
 20
123.465733
 30
0.0
 11
941.082051
 21
126.465733
 31
0.0
  0
LINE
  5
184
100
AcDbEntity
  8
Calque_1
 62
1
100
AcDbLine
 10
941.082051
 20
126.465733
 30
0.0
 11
920.147568
 21
126.465733
 31
0.0
  0
LINE
  5
185
100
AcDbEntity
  8
Calque_1
 62
1
100
AcDbLine
 10
920.147568
 20
126.465733
 30
0.0
 11
920.147568
 21
123.465733
 31
0.0
  0
LINE
  5
186
100
AcDbEntity
  8
Calque_1
 62
1
100
AcDbLine
 10
920.147568
 20
123.465733
 30
0.0
 11
899.013103
 21
123.465733
 31
0.0
  0
LINE
  5
187
100
AcDbEntity
  8
Calque_1
 62
1
100
AcDbLine
 10
899.013103
 20
123.465733
 30
0.0
 11
899.013103
 21
126.465733
 31
0.0
  0
LINE
  5
188
100
AcDbEntity
  8
Calque_1
 62
1
100
AcDbLine
 10
899.013103
 20
126.465733
 30
0.0
 11
878.078621
 21
126.465733
 31
0.0
  0
LINE
  5
189
100
AcDbEntity
  8
Calque_1
 62
1
100
AcDbLine
 10
878.078621
 20
126.465733
 30
0.0
 11
878.078621
 21
123.465733
 31
0.0
  0
LINE
  5
18a
100
AcDbEntity
  8
Calque_1
 62
1
100
AcDbLine
 10
878.078621
 20
123.465733
 30
0.0
 11
856.944128
 21
123.465733
 31
0.0
  0
LINE
  5
18b
100
AcDbEntity
  8
Calque_1
 62
1
100
AcDbLine
 10
856.944128
 20
123.465733
 30
0.0
 11
856.944128
 21
126.465733
 31
0.0
  0
LINE
  5
18c
100
AcDbEntity
  8
Calque_1
 62
1
100
AcDbLine
 10
856.944128
 20
126.465733
 30
0.0
 11
836.009645
 21
126.465733
 31
0.0
  0
LINE
  5
18d
100
AcDbEntity
  8
Calque_1
 62
1
100
AcDbLine
 10
836.009645
 20
126.465733
 30
0.0
 11
836.009645
 21
123.465733
 31
0.0
  0
LINE
  5
18e
100
AcDbEntity
  8
Calque_1
 62
1
100
AcDbLine
 10
836.009645
 20
123.465733
 30
0.0
 11
814.875152
 21
123.465733
 31
0.0
  0
LINE
  5
18f
100
AcDbEntity
  8
Calque_1
 62
1
100
AcDbLine
 10
814.875152
 20
123.465733
 30
0.0
 11
814.875152
 21
126.465733
 31
0.0
  0
LINE
  5
190
100
AcDbEntity
  8
Calque_1
 62
1
100
AcDbLine
 10
814.875152
 20
126.465733
 30
0.0
 11
793.940669
 21
126.465733
 31
0.0
  0
LINE
  5
191
100
AcDbEntity
  8
Calque_1
 62
1
100
AcDbLine
 10
793.940669
 20
126.465733
 30
0.0
 11
793.940669
 21
123.465733
 31
0.0
  0
LINE
  5
192
100
AcDbEntity
  8
Calque_1
 62
1
100
AcDbLine
 10
793.940669
 20
123.465733
 30
0.0
 11
772.806204
 21
123.465733
 31
0.0
  0
LINE
  5
193
100
AcDbEntity
  8
Calque_1
 62
1
100
AcDbLine
 10
772.806204
 20
123.465733
 30
0.0
 11
772.806204
 21
126.465733
 31
0.0
  0
LINE
  5
194
100
AcDbEntity
  8
Calque_1
 62
1
100
AcDbLine
 10
772.806204
 20
126.465733
 30
0.0
 11
751.871722
 21
126.465733
 31
0.0
  0
LINE
  5
195
100
AcDbEntity
  8
Calque_1
 62
1
100
AcDbLine
 10
751.871722
 20
126.465733
 30
0.0
 11
751.871722
 21
123.465733
 31
0.0
  0
LINE
  5
196
100
AcDbEntity
  8
Calque_1
 62
1
100
AcDbLine
 10
751.871722
 20
123.465733
 30
0.0
 11
730.737228
 21
123.465733
 31
0.0
  0
LINE
  5
197
100
AcDbEntity
  8
Calque_1
 62
1
100
AcDbLine
 10
730.737228
 20
123.465733
 30
0.0
 11
730.737228
 21
126.465733
 31
0.0
  0
LINE
  5
198
100
AcDbEntity
  8
Calque_1
 62
1
100
AcDbLine
 10
730.737228
 20
126.465733
 30
0.0
 11
709.802746
 21
126.465733
 31
0.0
  0
LINE
  5
199
100
AcDbEntity
  8
Calque_1
 62
1
100
AcDbLine
 10
709.802746
 20
126.465733
 30
0.0
 11
709.802746
 21
123.465733
 31
0.0
  0
LINE
  5
19a
100
AcDbEntity
  8
Calque_1
 62
1
100
AcDbLine
 10
709.802746
 20
123.465733
 30
0.0
 11
688.668253
 21
123.465733
 31
0.0
  0
LINE
  5
19b
100
AcDbEntity
  8
Calque_1
 62
1
100
AcDbLine
 10
688.668253
 20
123.465733
 30
0.0
 11
688.668253
 21
126.465733
 31
0.0
  0
LINE
  5
19c
100
AcDbEntity
  8
Calque_1
 62
1
100
AcDbLine
 10
688.668253
 20
126.465733
 30
0.0
 11
667.733770
 21
126.465733
 31
0.0
  0
LINE
  5
19d
100
AcDbEntity
  8
Calque_1
 62
1
100
AcDbLine
 10
667.733770
 20
126.465733
 30
0.0
 11
667.733770
 21
123.465733
 31
0.0
  0
LINE
  5
19e
100
AcDbEntity
  8
Calque_1
 62
1
100
AcDbLine
 10
667.733770
 20
123.465733
 30
0.0
 11
646.599305
 21
123.465733
 31
0.0
  0
LINE
  5
19f
100
AcDbEntity
  8
Calque_1
 62
1
100
AcDbLine
 10
646.599305
 20
123.465733
 30
0.0
 11
646.599305
 21
126.465733
 31
0.0
  0
LINE
  5
1a0
100
AcDbEntity
  8
Calque_1
 62
1
100
AcDbLine
 10
646.599305
 20
126.465733
 30
0.0
 11
625.664823
 21
126.465733
 31
0.0
  0
LINE
  5
1a1
100
AcDbEntity
  8
Calque_1
 62
1
100
AcDbLine
 10
625.664823
 20
126.465733
 30
0.0
 11
625.664823
 21
123.465733
 31
0.0
  0
LINE
  5
1a2
100
AcDbEntity
  8
Calque_1
 62
1
100
AcDbLine
 10
625.664823
 20
123.465733
 30
0.0
 11
604.530329
 21
123.465733
 31
0.0
  0
LINE
  5
1a3
100
AcDbEntity
  8
Calque_1
 62
1
100
AcDbLine
 10
604.530329
 20
123.465733
 30
0.0
 11
604.530329
 21
126.465733
 31
0.0
  0
LINE
  5
1a4
100
AcDbEntity
  8
Calque_1
 62
1
100
AcDbLine
 10
604.530329
 20
126.465733
 30
0.0
 11
583.595847
 21
126.465733
 31
0.0
  0
LINE
  5
1a5
100
AcDbEntity
  8
Calque_1
 62
1
100
AcDbLine
 10
583.595847
 20
126.465733
 30
0.0
 11
583.595847
 21
123.465733
 31
0.0
  0
LINE
  5
1a6
100
AcDbEntity
  8
Calque_1
 62
1
100
AcDbLine
 10
583.595847
 20
123.465733
 30
0.0
 11
562.461354
 21
123.465733
 31
0.0
  0
LINE
  5
1a7
100
AcDbEntity
  8
Calque_1
 62
1
100
AcDbLine
 10
562.461354
 20
123.465733
 30
0.0
 11
562.461354
 21
126.465733
 31
0.0
  0
LINE
  5
1a8
100
AcDbEntity
  8
Calque_1
 62
1
100
AcDbLine
 10
562.461354
 20
126.465733
 30
0.0
 11
541.526871
 21
126.465733
 31
0.0
  0
LINE
  5
1a9
100
AcDbEntity
  8
Calque_1
 62
1
100
AcDbLine
 10
541.526871
 20
126.465733
 30
0.0
 11
541.526871
 21
123.465733
 31
0.0
  0
LINE
  5
1aa
100
AcDbEntity
  8
Calque_1
 62
1
100
AcDbLine
 10
541.526871
 20
123.465733
 30
0.0
 11
520.392406
 21
123.465733
 31
0.0
  0
LINE
  5
1ab
100
AcDbEntity
  8
Calque_1
 62
1
100
AcDbLine
 10
520.392406
 20
123.465733
 30
0.0
 11
520.392406
 21
126.465733
 31
0.0
  0
LINE
  5
1ac
100
AcDbEntity
  8
Calque_1
 62
1
100
AcDbLine
 10
520.392406
 20
126.465733
 30
0.0
 11
499.457924
 21
126.465733
 31
0.0
  0
LINE
  5
1ad
100
AcDbEntity
  8
Calque_1
 62
1
100
AcDbLine
 10
499.457924
 20
126.465733
 30
0.0
 11
499.457924
 21
123.465733
 31
0.0
  0
LINE
  5
1ae
100
AcDbEntity
  8
Calque_1
 62
1
100
AcDbLine
 10
499.457924
 20
123.465733
 30
0.0
 11
478.323430
 21
123.465733
 31
0.0
  0
LINE
  5
1af
100
AcDbEntity
  8
Calque_1
 62
1
100
AcDbLine
 10
478.323430
 20
123.465733
 30
0.0
 11
478.323430
 21
126.465733
 31
0.0
  0
LINE
  5
1b0
100
AcDbEntity
  8
Calque_1
 62
1
100
AcDbLine
 10
478.323430
 20
126.465733
 30
0.0
 11
457.388948
 21
126.465733
 31
0.0
  0
LINE
  5
1b1
100
AcDbEntity
  8
Calque_1
 62
1
100
AcDbLine
 10
457.388948
 20
126.465733
 30
0.0
 11
457.388948
 21
123.465733
 31
0.0
  0
LINE
  5
1b2
100
AcDbEntity
  8
Calque_1
 62
1
100
AcDbLine
 10
457.388948
 20
123.465733
 30
0.0
 11
436.304464
 21
123.465733
 31
0.0
  0
LINE
  5
1b3
100
AcDbEntity
  8
Calque_1
 62
1
100
AcDbLine
 10
436.304464
 20
123.465733
 30
0.0
 11
436.304464
 21
143.515731
 31
0.0
  0
LINE
  5
1b4
100
AcDbEntity
  8
Calque_1
 62
1
100
AcDbLine
 10
436.304464
 20
143.515731
 30
0.0
 11
439.304458
 21
143.515731
 31
0.0
  0
LINE
  5
1b5
100
AcDbEntity
  8
Calque_1
 62
1
100
AcDbLine
 10
439.304458
 20
143.515731
 30
0.0
 11
439.304458
 21
163.415731
 31
0.0
  0
LINE
  5
1b6
100
AcDbEntity
  8
Calque_1
 62
1
100
AcDbLine
 10
439.304458
 20
163.415731
 30
0.0
 11
436.304464
 21
163.415731
 31
0.0
  0
LINE
  5
1b7
100
AcDbEntity
  8
Calque_1
 62
1
100
AcDbLine
 10
436.304464
 20
163.415731
 30
0.0
 11
436.304464
 21
183.515733
 31
0.0
  0
LINE
  5
1b8
100
AcDbEntity
  8
Calque_1
 62
1
100
AcDbLine
 10
436.304464
 20
183.515733
 30
0.0
 11
439.304458
 21
183.515733
 31
0.0
  0
LINE
  5
1b9
100
AcDbEntity
  8
Calque_1
 62
1
100
AcDbLine
 10
439.304458
 20
183.515733
 30
0.0
 11
439.304458
 21
203.415732
 31
0.0
  0
LINE
  5
1ba
100
AcDbEntity
  8
Calque_1
 62
1
100
AcDbLine
 10
439.304458
 20
203.415732
 30
0.0
 11
436.304464
 21
203.415732
 31
0.0
  0
LINE
  5
1bb
100
AcDbEntity
  8
Calque_1
 62
1
100
AcDbLine
 10
436.304464
 20
203.415732
 30
0.0
 11
436.304464
 21
223.515732
 31
0.0
  0
LINE
  5
1bc
100
AcDbEntity
  8
Calque_1
 62
1
100
AcDbLine
 10
436.304464
 20
223.515732
 30
0.0
 11
439.304458
 21
223.515732
 31
0.0
  0
LINE
  5
1bd
100
AcDbEntity
  8
Calque_1
 62
1
100
AcDbLine
 10
439.304458
 20
223.515732
 30
0.0
 11
439.304458
 21
243.415731
 31
0.0
  0
LINE
  5
1be
100
AcDbEntity
  8
Calque_1
 62
1
100
AcDbLine
 10
439.304458
 20
243.415731
 30
0.0
 11
436.304464
 21
243.415731
 31
0.0
  0
LINE
  5
1bf
100
AcDbEntity
  8
Calque_1
 62
1
100
AcDbLine
 10
436.304464
 20
243.415731
 30
0.0
 11
436.304464
 21
263.515731
 31
0.0
  0
LINE
  5
1c0
100
AcDbEntity
  8
Calque_1
 62
1
100
AcDbLine
 10
436.304464
 20
263.515731
 30
0.0
 11
439.304458
 21
263.515731
 31
0.0
  0
LINE
  5
1c1
100
AcDbEntity
  8
Calque_1
 62
1
100
AcDbLine
 10
439.304458
 20
263.515731
 30
0.0
 11
439.304458
 21
283.415732
 31
0.0
  0
LINE
  5
1c2
100
AcDbEntity
  8
Calque_1
 62
1
100
AcDbLine
 10
439.304458
 20
283.415732
 30
0.0
 11
436.304464
 21
283.415732
 31
0.0
  0
LINE
  5
1c3
100
AcDbEntity
  8
Calque_1
 62
1
100
AcDbLine
 10
436.304464
 20
283.415732
 30
0.0
 11
436.304464
 21
303.515732
 31
0.0
  0
LINE
  5
1c4
100
AcDbEntity
  8
Calque_1
 62
1
100
AcDbLine
 10
436.304464
 20
303.515732
 30
0.0
 11
439.304458
 21
303.515732
 31
0.0
  0
LINE
  5
1c5
100
AcDbEntity
  8
Calque_1
 62
1
100
AcDbLine
 10
439.304458
 20
303.515732
 30
0.0
 11
439.304458
 21
323.415732
 31
0.0
  0
LINE
  5
1c6
100
AcDbEntity
  8
Calque_1
 62
1
100
AcDbLine
 10
439.304458
 20
323.415732
 30
0.0
 11
436.304464
 21
323.415732
 31
0.0
  0
LINE
  5
1c7
100
AcDbEntity
  8
Calque_1
 62
1
100
AcDbLine
 10
436.304464
 20
323.415732
 30
0.0
 11
436.304464
 21
343.515732
 31
0.0
  0
LINE
  5
1c8
100
AcDbEntity
  8
Calque_1
 62
1
100
AcDbLine
 10
436.304464
 20
343.515732
 30
0.0
 11
439.304458
 21
343.515732
 31
0.0
  0
LINE
  5
1c9
100
AcDbEntity
  8
Calque_1
 62
1
100
AcDbLine
 10
439.304458
 20
343.515732
 30
0.0
 11
439.304458
 21
363.415731
 31
0.0
  0
LINE
  5
1ca
100
AcDbEntity
  8
Calque_1
 62
1
100
AcDbLine
 10
439.304458
 20
363.415731
 30
0.0
 11
436.304464
 21
363.415731
 31
0.0
  0
LINE
  5
1cb
100
AcDbEntity
  8
Calque_1
 62
1
100
AcDbLine
 10
436.304464
 20
363.415731
 30
0.0
 11
436.304464
 21
383.515731
 31
0.0
  0
LINE
  5
1cc
100
AcDbEntity
  8
Calque_1
 62
1
100
AcDbLine
 10
436.304464
 20
383.515731
 30
0.0
 11
439.304458
 21
383.515731
 31
0.0
  0
LINE
  5
1cd
100
AcDbEntity
  8
Calque_1
 62
1
100
AcDbLine
 10
439.304458
 20
383.515731
 30
0.0
 11
439.304458
 21
403.415730
 31
0.0
  0
LINE
  5
1ce
100
AcDbEntity
  8
Calque_1
 62
1
100
AcDbLine
 10
439.304458
 20
403.415730
 30
0.0
 11
436.304464
 21
403.415730
 31
0.0
  0
LINE
  5
1cf
100
AcDbEntity
  8
Calque_1
 62
1
100
AcDbLine
 10
436.304464
 20
403.415730
 30
0.0
 11
436.304464
 21
423.515732
 31
0.0
  0
LINE
  5
1d0
100
AcDbEntity
  8
Calque_1
 62
1
100
AcDbLine
 10
436.304464
 20
423.515732
 30
0.0
 11
439.304458
 21
423.515732
 31
0.0
  0
LINE
  5
1d1
100
AcDbEntity
  8
Calque_1
 62
1
100
AcDbLine
 10
439.304458
 20
423.515732
 30
0.0
 11
439.304458
 21
443.415732
 31
0.0
  0
LINE
  5
1d2
100
AcDbEntity
  8
Calque_1
 62
1
100
AcDbLine
 10
439.304458
 20
443.415732
 30
0.0
 11
436.304464
 21
443.415732
 31
0.0
  0
LINE
  5
1d3
100
AcDbEntity
  8
Calque_1
 62
1
100
AcDbLine
 10
436.304464
 20
443.415732
 30
0.0
 11
436.304464
 21
463.515732
 31
0.0
  0
LINE
  5
1d4
100
AcDbEntity
  8
Calque_1
 62
1
100
AcDbLine
 10
436.304464
 20
463.515732
 30
0.0
 11
439.304458
 21
463.515732
 31
0.0
  0
LINE
  5
1d5
100
AcDbEntity
  8
Calque_1
 62
1
100
AcDbLine
 10
439.304458
 20
463.515732
 30
0.0
 11
439.304458
 21
483.415731
 31
0.0
  0
LINE
  5
1d6
100
AcDbEntity
  8
Calque_1
 62
1
100
AcDbLine
 10
439.304458
 20
483.415731
 30
0.0
 11
436.304464
 21
483.415731
 31
0.0
  0
LINE
  5
1d7
100
AcDbEntity
  8
Calque_1
 62
1
100
AcDbLine
 10
436.304464
 20
483.415731
 30
0.0
 11
436.304464
 21
503.515731
 31
0.0
  0
LINE
  5
1d8
100
AcDbEntity
  8
Calque_1
 62
1
100
AcDbLine
 10
436.304464
 20
503.515731
 30
0.0
 11
439.304458
 21
503.515731
 31
0.0
  0
LINE
  5
1d9
100
AcDbEntity
  8
Calque_1
 62
1
100
AcDbLine
 10
439.304458
 20
503.515731
 30
0.0
 11
439.304458
 21
523.415730
 31
0.0
  0
LINE
  5
1da
100
AcDbEntity
  8
Calque_1
 62
1
100
AcDbLine
 10
439.304458
 20
523.415730
 30
0.0
 11
436.304464
 21
523.415730
 31
0.0
  0
LINE
  5
1db
100
AcDbEntity
  8
Calque_1
 62
1
100
AcDbLine
 10
436.304464
 20
523.415730
 30
0.0
 11
436.304464
 21
543.515732
 31
0.0
  0
LINE
  5
1dc
100
AcDbEntity
  8
Calque_1
 62
1
100
AcDbLine
 10
436.304464
 20
543.515732
 30
0.0
 11
439.304458
 21
543.515732
 31
0.0
  0
LINE
  5
1dd
100
AcDbEntity
  8
Calque_1
 62
1
100
AcDbLine
 10
439.304458
 20
543.515732
 30
0.0
 11
439.304458
 21
563.415732
 31
0.0
  0
LINE
  5
1de
100
AcDbEntity
  8
Calque_1
 62
1
100
AcDbLine
 10
439.304458
 20
563.415732
 30
0.0
 11
436.304464
 21
563.415732
 31
0.0
  0
LINE
  5
1df
100
AcDbEntity
  8
Calque_1
 62
1
100
AcDbLine
 10
436.304464
 20
563.415732
 30
0.0
 11
436.304464
 21
583.515734
 31
0.0
  0
LINE
  5
1e0
100
AcDbEntity
  8
Calque_1
 62
1
100
AcDbLine
 10
436.304464
 20
583.515734
 30
0.0
 11
439.304458
 21
583.515734
 31
0.0
  0
LINE
  5
1e1
100
AcDbEntity
  8
Calque_1
 62
1
100
AcDbLine
 10
439.304458
 20
583.515734
 30
0.0
 11
439.304458
 21
603.415731
 31
0.0
  0
LINE
  5
1e2
100
AcDbEntity
  8
Calque_1
 62
1
100
AcDbLine
 10
439.304458
 20
603.415731
 30
0.0
 11
436.304464
 21
603.415731
 31
0.0
  0
LINE
  5
1e3
100
AcDbEntity
  8
Calque_1
 62
1
100
AcDbLine
 10
436.304464
 20
603.415731
 30
0.0
 11
436.304464
 21
623.515739
 31
0.0
  0
LINE
  5
1e4
100
AcDbEntity
  8
Calque_1
 62
1
100
AcDbLine
 10
436.304464
 20
623.515739
 30
0.0
 11
439.304458
 21
623.515739
 31
0.0
  0
LINE
  5
1e5
100
AcDbEntity
  8
Calque_1
 62
1
100
AcDbLine
 10
439.304458
 20
623.515739
 30
0.0
 11
439.304458
 21
643.415736
 31
0.0
  0
LINE
  5
1e6
100
AcDbEntity
  8
Calque_1
 62
1
100
AcDbLine
 10
439.304458
 20
643.415736
 30
0.0
 11
436.304464
 21
643.415736
 31
0.0
  0
LINE
  5
1e7
100
AcDbEntity
  8
Calque_1
 62
1
100
AcDbLine
 10
436.304464
 20
643.415736
 30
0.0
 11
436.304464
 21
663.515744
 31
0.0
  0
LINE
  5
1e8
100
AcDbEntity
  8
Calque_1
 62
1
100
AcDbLine
 10
436.304464
 20
663.515744
 30
0.0
 11
439.304458
 21
663.515744
 31
0.0
  0
LINE
  5
1e9
100
AcDbEntity
  8
Calque_1
 62
1
100
AcDbLine
 10
439.304458
 20
663.515744
 30
0.0
 11
439.304458
 21
683.415740
 31
0.0
  0
LINE
  5
1ea
100
AcDbEntity
  8
Calque_1
 62
1
100
AcDbLine
 10
439.304458
 20
683.415740
 30
0.0
 11
436.304464
 21
683.415740
 31
0.0
  0
LINE
  5
1eb
100
AcDbEntity
  8
Calque_1
 62
1
100
AcDbLine
 10
436.304464
 20
683.415740
 30
0.0
 11
436.304464
 21
703.515720
 31
0.0
  0
LINE
  5
1ec
100
AcDbEntity
  8
Calque_1
 62
1
100
AcDbLine
 10
436.304464
 20
703.515720
 30
0.0
 11
439.304458
 21
703.515720
 31
0.0
  0
LINE
  5
1ed
100
AcDbEntity
  8
Calque_1
 62
1
100
AcDbLine
 10
439.304458
 20
703.515720
 30
0.0
 11
439.304458
 21
723.415745
 31
0.0
  0
LINE
  5
1ee
100
AcDbEntity
  8
Calque_1
 62
1
100
AcDbLine
 10
439.304458
 20
723.415745
 30
0.0
 11
436.304464
 21
723.415745
 31
0.0
  0
LINE
  5
1ef
100
AcDbEntity
  8
Calque_1
 62
1
100
AcDbLine
 10
436.304464
 20
723.415745
 30
0.0
 11
436.304464
 21
743.515725
 31
0.0
  0
LINE
  5
1f0
100
AcDbEntity
  8
Calque_1
 62
1
100
AcDbLine
 10
436.304464
 20
743.515725
 30
0.0
 11
439.304458
 21
743.515725
 31
0.0
  0
LINE
  5
1f1
100
AcDbEntity
  8
Calque_1
 62
1
100
AcDbLine
 10
439.304458
 20
743.515725
 30
0.0
 11
439.304458
 21
763.415722
 31
0.0
  0
LINE
  5
1f2
100
AcDbEntity
  8
Calque_1
 62
1
100
AcDbLine
 10
439.304458
 20
763.415722
 30
0.0
 11
436.304464
 21
763.415722
 31
0.0
  0
LINE
  5
1f3
100
AcDbEntity
  8
Calque_1
 62
1
100
AcDbLine
 10
436.304464
 20
763.415722
 30
0.0
 11
436.304464
 21
783.465720
 31
0.0
  0
LINE
  5
1f4
100
AcDbEntity
  8
Calque_1
 62
1
100
AcDbLine
 10
436.304464
 20
783.465720
 30
0.0
 11
436.304464
 21
783.465720
 31
0.0
  0
LINE
  5
1f5
100
AcDbEntity
  8
Calque_1
 62
1
100
AcDbLine
 10
445.515972
 20
821.341212
 30
0.0
 11
1055.515965
 21
821.341212
 31
0.0
  0
LINE
  5
1f6
100
AcDbEntity
  8
Calque_1
 62
1
100
AcDbLine
 10
1055.515965
 20
821.341212
 30
0.0
 11
1055.515965
 21
794.291228
 31
0.0
  0
LINE
  5
1f7
100
AcDbEntity
  8
Calque_1
 62
1
100
AcDbLine
 10
1055.515965
 20
794.291228
 30
0.0
 11
1034.531473
 21
794.291228
 31
0.0
  0
LINE
  5
1f8
100
AcDbEntity
  8
Calque_1
 62
1
100
AcDbLine
 10
1034.531473
 20
794.291228
 30
0.0
 11
1034.531473
 21
791.291206
 31
0.0
  0
LINE
  5
1f9
100
AcDbEntity
  8
Calque_1
 62
1
100
AcDbLine
 10
1034.531473
 20
791.291206
 30
0.0
 11
1013.397008
 21
791.291206
 31
0.0
  0
LINE
  5
1fa
100
AcDbEntity
  8
Calque_1
 62
1
100
AcDbLine
 10
1013.397008
 20
791.291206
 30
0.0
 11
1013.397008
 21
794.291228
 31
0.0
  0
LINE
  5
1fb
100
AcDbEntity
  8
Calque_1
 62
1
100
AcDbLine
 10
1013.397008
 20
794.291228
 30
0.0
 11
992.462526
 21
794.291228
 31
0.0
  0
LINE
  5
1fc
100
AcDbEntity
  8
Calque_1
 62
1
100
AcDbLine
 10
992.462526
 20
794.291228
 30
0.0
 11
992.462526
 21
791.291206
 31
0.0
  0
LINE
  5
1fd
100
AcDbEntity
  8
Calque_1
 62
1
100
AcDbLine
 10
992.462526
 20
791.291206
 30
0.0
 11
971.328032
 21
791.291206
 31
0.0
  0
LINE
  5
1fe
100
AcDbEntity
  8
Calque_1
 62
1
100
AcDbLine
 10
971.328032
 20
791.291206
 30
0.0
 11
971.328032
 21
794.291228
 31
0.0
  0
LINE
  5
1ff
100
AcDbEntity
  8
Calque_1
 62
1
100
AcDbLine
 10
971.328032
 20
794.291228
 30
0.0
 11
950.393550
 21
794.291228
 31
0.0
  0
LINE
  5
200
100
AcDbEntity
  8
Calque_1
 62
1
100
AcDbLine
 10
950.393550
 20
794.291228
 30
0.0
 11
950.393550
 21
791.291206
 31
0.0
  0
LINE
  5
201
100
AcDbEntity
  8
Calque_1
 62
1
100
AcDbLine
 10
950.393550
 20
791.291206
 30
0.0
 11
929.259056
 21
791.291206
 31
0.0
  0
LINE
  5
202
100
AcDbEntity
  8
Calque_1
 62
1
100
AcDbLine
 10
929.259056
 20
791.291206
 30
0.0
 11
929.259056
 21
794.291228
 31
0.0
  0
LINE
  5
203
100
AcDbEntity
  8
Calque_1
 62
1
100
AcDbLine
 10
929.259056
 20
794.291228
 30
0.0
 11
908.324574
 21
794.291228
 31
0.0
  0
LINE
  5
204
100
AcDbEntity
  8
Calque_1
 62
1
100
AcDbLine
 10
908.324574
 20
794.291228
 30
0.0
 11
908.324574
 21
791.291206
 31
0.0
  0
LINE
  5
205
100
AcDbEntity
  8
Calque_1
 62
1
100
AcDbLine
 10
908.324574
 20
791.291206
 30
0.0
 11
887.190109
 21
791.291206
 31
0.0
  0
LINE
  5
206
100
AcDbEntity
  8
Calque_1
 62
1
100
AcDbLine
 10
887.190109
 20
791.291206
 30
0.0
 11
887.190109
 21
794.291228
 31
0.0
  0
LINE
  5
207
100
AcDbEntity
  8
Calque_1
 62
1
100
AcDbLine
 10
887.190109
 20
794.291228
 30
0.0
 11
866.255626
 21
794.291228
 31
0.0
  0
LINE
  5
208
100
AcDbEntity
  8
Calque_1
 62
1
100
AcDbLine
 10
866.255626
 20
794.291228
 30
0.0
 11
866.255626
 21
791.291206
 31
0.0
  0
LINE
  5
209
100
AcDbEntity
  8
Calque_1
 62
1
100
AcDbLine
 10
866.255626
 20
791.291206
 30
0.0
 11
845.121133
 21
791.291206
 31
0.0
  0
LINE
  5
20a
100
AcDbEntity
  8
Calque_1
 62
1
100
AcDbLine
 10
845.121133
 20
791.291206
 30
0.0
 11
845.121133
 21
794.291228
 31
0.0
  0
LINE
  5
20b
100
AcDbEntity
  8
Calque_1
 62
1
100
AcDbLine
 10
845.121133
 20
794.291228
 30
0.0
 11
824.186651
 21
794.291228
 31
0.0
  0
LINE
  5
20c
100
AcDbEntity
  8
Calque_1
 62
1
100
AcDbLine
 10
824.186651
 20
794.291228
 30
0.0
 11
824.186651
 21
791.291206
 31
0.0
  0
LINE
  5
20d
100
AcDbEntity
  8
Calque_1
 62
1
100
AcDbLine
 10
824.186651
 20
791.291206
 30
0.0
 11
803.052157
 21
791.291206
 31
0.0
  0
LINE
  5
20e
100
AcDbEntity
  8
Calque_1
 62
1
100
AcDbLine
 10
803.052157
 20
791.291206
 30
0.0
 11
803.052157
 21
794.291228
 31
0.0
  0
LINE
  5
20f
100
AcDbEntity
  8
Calque_1
 62
1
100
AcDbLine
 10
803.052157
 20
794.291228
 30
0.0
 11
782.117675
 21
794.291228
 31
0.0
  0
LINE
  5
210
100
AcDbEntity
  8
Calque_1
 62
1
100
AcDbLine
 10
782.117675
 20
794.291228
 30
0.0
 11
782.117675
 21
791.291206
 31
0.0
  0
LINE
  5
211
100
AcDbEntity
  8
Calque_1
 62
1
100
AcDbLine
 10
782.117675
 20
791.291206
 30
0.0
 11
760.983210
 21
791.291206
 31
0.0
  0
LINE
  5
212
100
AcDbEntity
  8
Calque_1
 62
1
100
AcDbLine
 10
760.983210
 20
791.291206
 30
0.0
 11
760.983210
 21
794.291228
 31
0.0
  0
LINE
  5
213
100
AcDbEntity
  8
Calque_1
 62
1
100
AcDbLine
 10
760.983210
 20
794.291228
 30
0.0
 11
740.048727
 21
794.291228
 31
0.0
  0
LINE
  5
214
100
AcDbEntity
  8
Calque_1
 62
1
100
AcDbLine
 10
740.048727
 20
794.291228
 30
0.0
 11
740.048727
 21
791.291206
 31
0.0
  0
LINE
  5
215
100
AcDbEntity
  8
Calque_1
 62
1
100
AcDbLine
 10
740.048727
 20
791.291206
 30
0.0
 11
718.914234
 21
791.291206
 31
0.0
  0
LINE
  5
216
100
AcDbEntity
  8
Calque_1
 62
1
100
AcDbLine
 10
718.914234
 20
791.291206
 30
0.0
 11
718.914234
 21
794.291228
 31
0.0
  0
LINE
  5
217
100
AcDbEntity
  8
Calque_1
 62
1
100
AcDbLine
 10
718.914234
 20
794.291228
 30
0.0
 11
697.979752
 21
794.291228
 31
0.0
  0
LINE
  5
218
100
AcDbEntity
  8
Calque_1
 62
1
100
AcDbLine
 10
697.979752
 20
794.291228
 30
0.0
 11
697.979752
 21
791.291206
 31
0.0
  0
LINE
  5
219
100
AcDbEntity
  8
Calque_1
 62
1
100
AcDbLine
 10
697.979752
 20
791.291206
 30
0.0
 11
676.845286
 21
791.291206
 31
0.0
  0
LINE
  5
21a
100
AcDbEntity
  8
Calque_1
 62
1
100
AcDbLine
 10
676.845286
 20
791.291206
 30
0.0
 11
676.845286
 21
794.291228
 31
0.0
  0
LINE
  5
21b
100
AcDbEntity
  8
Calque_1
 62
1
100
AcDbLine
 10
676.845286
 20
794.291228
 30
0.0
 11
655.910776
 21
794.291228
 31
0.0
  0
LINE
  5
21c
100
AcDbEntity
  8
Calque_1
 62
1
100
AcDbLine
 10
655.910776
 20
794.291228
 30
0.0
 11
655.910776
 21
791.291206
 31
0.0
  0
LINE
  5
21d
100
AcDbEntity
  8
Calque_1
 62
1
100
AcDbLine
 10
655.910776
 20
791.291206
 30
0.0
 11
634.776311
 21
791.291206
 31
0.0
  0
LINE
  5
21e
100
AcDbEntity
  8
Calque_1
 62
1
100
AcDbLine
 10
634.776311
 20
791.291206
 30
0.0
 11
634.776311
 21
794.291228
 31
0.0
  0
LINE
  5
21f
100
AcDbEntity
  8
Calque_1
 62
1
100
AcDbLine
 10
634.776311
 20
794.291228
 30
0.0
 11
613.841828
 21
794.291228
 31
0.0
  0
LINE
  5
220
100
AcDbEntity
  8
Calque_1
 62
1
100
AcDbLine
 10
613.841828
 20
794.291228
 30
0.0
 11
613.841828
 21
791.291206
 31
0.0
  0
LINE
  5
221
100
AcDbEntity
  8
Calque_1
 62
1
100
AcDbLine
 10
613.841828
 20
791.291206
 30
0.0
 11
592.707335
 21
791.291206
 31
0.0
  0
LINE
  5
222
100
AcDbEntity
  8
Calque_1
 62
1
100
AcDbLine
 10
592.707335
 20
791.291206
 30
0.0
 11
592.707335
 21
794.291228
 31
0.0
  0
LINE
  5
223
100
AcDbEntity
  8
Calque_1
 62
1
100
AcDbLine
 10
592.707335
 20
794.291228
 30
0.0
 11
571.772852
 21
794.291228
 31
0.0
  0
LINE
  5
224
100
AcDbEntity
  8
Calque_1
 62
1
100
AcDbLine
 10
571.772852
 20
794.291228
 30
0.0
 11
571.772852
 21
791.291206
 31
0.0
  0
LINE
  5
225
100
AcDbEntity
  8
Calque_1
 62
1
100
AcDbLine
 10
571.772852
 20
791.291206
 30
0.0
 11
550.638387
 21
791.291206
 31
0.0
  0
LINE
  5
226
100
AcDbEntity
  8
Calque_1
 62
1
100
AcDbLine
 10
550.638387
 20
791.291206
 30
0.0
 11
550.638387
 21
794.291228
 31
0.0
  0
LINE
  5
227
100
AcDbEntity
  8
Calque_1
 62
1
100
AcDbLine
 10
550.638387
 20
794.291228
 30
0.0
 11
529.703905
 21
794.291228
 31
0.0
  0
LINE
  5
228
100
AcDbEntity
  8
Calque_1
 62
1
100
AcDbLine
 10
529.703905
 20
794.291228
 30
0.0
 11
529.703905
 21
791.291206
 31
0.0
  0
LINE
  5
229
100
AcDbEntity
  8
Calque_1
 62
1
100
AcDbLine
 10
529.703905
 20
791.291206
 30
0.0
 11
508.569412
 21
791.291206
 31
0.0
  0
LINE
  5
22a
100
AcDbEntity
  8
Calque_1
 62
1
100
AcDbLine
 10
508.569412
 20
791.291206
 30
0.0
 11
508.569412
 21
794.291228
 31
0.0
  0
LINE
  5
22b
100
AcDbEntity
  8
Calque_1
 62
1
100
AcDbLine
 10
508.569412
 20
794.291228
 30
0.0
 11
487.634929
 21
794.291228
 31
0.0
  0
LINE
  5
22c
100
AcDbEntity
  8
Calque_1
 62
1
100
AcDbLine
 10
487.634929
 20
794.291228
 30
0.0
 11
487.634929
 21
791.291206
 31
0.0
  0
LINE
  5
22d
100
AcDbEntity
  8
Calque_1
 62
1
100
AcDbLine
 10
487.634929
 20
791.291206
 30
0.0
 11
466.500436
 21
791.291206
 31
0.0
  0
LINE
  5
22e
100
AcDbEntity
  8
Calque_1
 62
1
100
AcDbLine
 10
466.500436
 20
791.291206
 30
0.0
 11
466.500436
 21
794.291228
 31
0.0
  0
LINE
  5
22f
100
AcDbEntity
  8
Calque_1
 62
1
100
AcDbLine
 10
466.500436
 20
794.291228
 30
0.0
 11
445.515972
 21
794.291228
 31
0.0
  0
LINE
  5
230
100
AcDbEntity
  8
Calque_1
 62
1
100
AcDbLine
 10
445.515972
 20
794.291228
 30
0.0
 11
445.515972
 21
821.341212
 31
0.0
  0
LINE
  5
231
100
AcDbEntity
  8
Calque_1
 62
1
100
AcDbLine
 10
445.515972
 20
821.341212
 30
0.0
 11
445.515972
 21
821.341212
 31
0.0
  0
LINE
  5
232
100
AcDbEntity
  8
Calque_1
 62
1
100
AcDbLine
 10
436.304464
 20
120.465730
 30
0.0
 11
1046.304458
 21
120.465730
 31
0.0
  0
LINE
  5
233
100
AcDbEntity
  8
Calque_1
 62
1
100
AcDbLine
 10
1046.304458
 20
120.465730
 30
0.0
 11
1046.304458
 21
93.415732
 31
0.0
  0
LINE
  5
234
100
AcDbEntity
  8
Calque_1
 62
1
100
AcDbLine
 10
1046.304458
 20
93.415732
 30
0.0
 11
1025.319994
 21
93.415732
 31
0.0
  0
LINE
  5
235
100
AcDbEntity
  8
Calque_1
 62
1
100
AcDbLine
 10
1025.319994
 20
93.415732
 30
0.0
 11
1025.319994
 21
90.415733
 31
0.0
  0
LINE
  5
236
100
AcDbEntity
  8
Calque_1
 62
1
100
AcDbLine
 10
1025.319994
 20
90.415733
 30
0.0
 11
1004.185500
 21
90.415733
 31
0.0
  0
LINE
  5
237
100
AcDbEntity
  8
Calque_1
 62
1
100
AcDbLine
 10
1004.185500
 20
90.415733
 30
0.0
 11
1004.185500
 21
93.415732
 31
0.0
  0
LINE
  5
238
100
AcDbEntity
  8
Calque_1
 62
1
100
AcDbLine
 10
1004.185500
 20
93.415732
 30
0.0
 11
983.251018
 21
93.415732
 31
0.0
  0
LINE
  5
239
100
AcDbEntity
  8
Calque_1
 62
1
100
AcDbLine
 10
983.251018
 20
93.415732
 30
0.0
 11
983.251018
 21
90.415733
 31
0.0
  0
LINE
  5
23a
100
AcDbEntity
  8
Calque_1
 62
1
100
AcDbLine
 10
983.251018
 20
90.415733
 30
0.0
 11
962.116553
 21
90.415733
 31
0.0
  0
LINE
  5
23b
100
AcDbEntity
  8
Calque_1
 62
1
100
AcDbLine
 10
962.116553
 20
90.415733
 30
0.0
 11
962.116553
 21
93.415732
 31
0.0
  0
LINE
  5
23c
100
AcDbEntity
  8
Calque_1
 62
1
100
AcDbLine
 10
962.116553
 20
93.415732
 30
0.0
 11
941.182070
 21
93.415732
 31
0.0
  0
LINE
  5
23d
100
AcDbEntity
  8
Calque_1
 62
1
100
AcDbLine
 10
941.182070
 20
93.415732
 30
0.0
 11
941.182070
 21
90.415733
 31
0.0
  0
LINE
  5
23e
100
AcDbEntity
  8
Calque_1
 62
1
100
AcDbLine
 10
941.182070
 20
90.415733
 30
0.0
 11
920.047577
 21
90.415733
 31
0.0
  0
LINE
  5
23f
100
AcDbEntity
  8
Calque_1
 62
1
100
AcDbLine
 10
920.047577
 20
90.415733
 30
0.0
 11
920.047577
 21
93.415732
 31
0.0
  0
LINE
  5
240
100
AcDbEntity
  8
Calque_1
 62
1
100
AcDbLine
 10
920.047577
 20
93.415732
 30
0.0
 11
899.113095
 21
93.415732
 31
0.0
  0
LINE
  5
241
100
AcDbEntity
  8
Calque_1
 62
1
100
AcDbLine
 10
899.113095
 20
93.415732
 30
0.0
 11
899.113095
 21
90.415733
 31
0.0
  0
LINE
  5
242
100
AcDbEntity
  8
Calque_1
 62
1
100
AcDbLine
 10
899.113095
 20
90.415733
 30
0.0
 11
877.978601
 21
90.415733
 31
0.0
  0
LINE
  5
243
100
AcDbEntity
  8
Calque_1
 62
1
100
AcDbLine
 10
877.978601
 20
90.415733
 30
0.0
 11
877.978601
 21
93.415732
 31
0.0
  0
LINE
  5
244
100
AcDbEntity
  8
Calque_1
 62
1
100
AcDbLine
 10
877.978601
 20
93.415732
 30
0.0
 11
857.044119
 21
93.415732
 31
0.0
  0
LINE
  5
245
100
AcDbEntity
  8
Calque_1
 62
1
100
AcDbLine
 10
857.044119
 20
93.415732
 30
0.0
 11
857.044119
 21
90.415733
 31
0.0
  0
LINE
  5
246
100
AcDbEntity
  8
Calque_1
 62
1
100
AcDbLine
 10
857.044119
 20
90.415733
 30
0.0
 11
835.909654
 21
90.415733
 31
0.0
  0
LINE
  5
247
100
AcDbEntity
  8
Calque_1
 62
1
100
AcDbLine
 10
835.909654
 20
90.415733
 30
0.0
 11
835.909654
 21
93.415732
 31
0.0
  0
LINE
  5
248
100
AcDbEntity
  8
Calque_1
 62
1
100
AcDbLine
 10
835.909654
 20
93.415732
 30
0.0
 11
814.975171
 21
93.415732
 31
0.0
  0
LINE
  5
249
100
AcDbEntity
  8
Calque_1
 62
1
100
AcDbLine
 10
814.975171
 20
93.415732
 30
0.0
 11
814.975171
 21
90.415733
 31
0.0
  0
LINE
  5
24a
100
AcDbEntity
  8
Calque_1
 62
1
100
AcDbLine
 10
814.975171
 20
90.415733
 30
0.0
 11
793.840678
 21
90.415733
 31
0.0
  0
LINE
  5
24b
100
AcDbEntity
  8
Calque_1
 62
1
100
AcDbLine
 10
793.840678
 20
90.415733
 30
0.0
 11
793.840678
 21
93.415732
 31
0.0
  0
LINE
  5
24c
100
AcDbEntity
  8
Calque_1
 62
1
100
AcDbLine
 10
793.840678
 20
93.415732
 30
0.0
 11
772.906196
 21
93.415732
 31
0.0
  0
LINE
  5
24d
100
AcDbEntity
  8
Calque_1
 62
1
100
AcDbLine
 10
772.906196
 20
93.415732
 30
0.0
 11
772.906196
 21
90.415733
 31
0.0
  0
LINE
  5
24e
100
AcDbEntity
  8
Calque_1
 62
1
100
AcDbLine
 10
772.906196
 20
90.415733
 30
0.0
 11
751.771702
 21
90.415733
 31
0.0
  0
LINE
  5
24f
100
AcDbEntity
  8
Calque_1
 62
1
100
AcDbLine
 10
751.771702
 20
90.415733
 30
0.0
 11
751.771702
 21
93.415732
 31
0.0
  0
LINE
  5
250
100
AcDbEntity
  8
Calque_1
 62
1
100
AcDbLine
 10
751.771702
 20
93.415732
 30
0.0
 11
730.837220
 21
93.415732
 31
0.0
  0
LINE
  5
251
100
AcDbEntity
  8
Calque_1
 62
1
100
AcDbLine
 10
730.837220
 20
93.415732
 30
0.0
 11
730.837220
 21
90.415733
 31
0.0
  0
LINE
  5
252
100
AcDbEntity
  8
Calque_1
 62
1
100
AcDbLine
 10
730.837220
 20
90.415733
 30
0.0
 11
709.702755
 21
90.415733
 31
0.0
  0
LINE
  5
253
100
AcDbEntity
  8
Calque_1
 62
1
100
AcDbLine
 10
709.702755
 20
90.415733
 30
0.0
 11
709.702755
 21
93.415732
 31
0.0
  0
LINE
  5
254
100
AcDbEntity
  8
Calque_1
 62
1
100
AcDbLine
 10
709.702755
 20
93.415732
 30
0.0
 11
688.768272
 21
93.415732
 31
0.0
  0
LINE
  5
255
100
AcDbEntity
  8
Calque_1
 62
1
100
AcDbLine
 10
688.768272
 20
93.415732
 30
0.0
 11
688.768272
 21
90.415733
 31
0.0
  0
LINE
  5
256
100
AcDbEntity
  8
Calque_1
 62
1
100
AcDbLine
 10
688.768272
 20
90.415733
 30
0.0
 11
667.633779
 21
90.415733
 31
0.0
  0
LINE
  5
257
100
AcDbEntity
  8
Calque_1
 62
1
100
AcDbLine
 10
667.633779
 20
90.415733
 30
0.0
 11
667.633779
 21
93.415732
 31
0.0
  0
LINE
  5
258
100
AcDbEntity
  8
Calque_1
 62
1
100
AcDbLine
 10
667.633779
 20
93.415732
 30
0.0
 11
646.699296
 21
93.415732
 31
0.0
  0
LINE
  5
259
100
AcDbEntity
  8
Calque_1
 62
1
100
AcDbLine
 10
646.699296
 20
93.415732
 30
0.0
 11
646.699296
 21
90.415733
 31
0.0
  0
LINE
  5
25a
100
AcDbEntity
  8
Calque_1
 62
1
100
AcDbLine
 10
646.699296
 20
90.415733
 30
0.0
 11
625.564803
 21
90.415733
 31
0.0
  0
LINE
  5
25b
100
AcDbEntity
  8
Calque_1
 62
1
100
AcDbLine
 10
625.564803
 20
90.415733
 30
0.0
 11
625.564803
 21
93.415732
 31
0.0
  0
LINE
  5
25c
100
AcDbEntity
  8
Calque_1
 62
1
100
AcDbLine
 10
625.564803
 20
93.415732
 30
0.0
 11
604.630321
 21
93.415732
 31
0.0
  0
LINE
  5
25d
100
AcDbEntity
  8
Calque_1
 62
1
100
AcDbLine
 10
604.630321
 20
93.415732
 30
0.0
 11
604.630321
 21
90.415733
 31
0.0
  0
LINE
  5
25e
100
AcDbEntity
  8
Calque_1
 62
1
100
AcDbLine
 10
604.630321
 20
90.415733
 30
0.0
 11
583.495856
 21
90.415733
 31
0.0
  0
LINE
  5
25f
100
AcDbEntity
  8
Calque_1
 62
1
100
AcDbLine
 10
583.495856
 20
90.415733
 30
0.0
 11
583.495856
 21
93.415732
 31
0.0
  0
LINE
  5
260
100
AcDbEntity
  8
Calque_1
 62
1
100
AcDbLine
 10
583.495856
 20
93.415732
 30
0.0
 11
562.561373
 21
93.415732
 31
0.0
  0
LINE
  5
261
100
AcDbEntity
  8
Calque_1
 62
1
100
AcDbLine
 10
562.561373
 20
93.415732
 30
0.0
 11
562.561373
 21
90.415733
 31
0.0
  0
LINE
  5
262
100
AcDbEntity
  8
Calque_1
 62
1
100
AcDbLine
 10
562.561373
 20
90.415733
 30
0.0
 11
541.426880
 21
90.415733
 31
0.0
  0
LINE
  5
263
100
AcDbEntity
  8
Calque_1
 62
1
100
AcDbLine
 10
541.426880
 20
90.415733
 30
0.0
 11
541.426880
 21
93.415732
 31
0.0
  0
LINE
  5
264
100
AcDbEntity
  8
Calque_1
 62
1
100
AcDbLine
 10
541.426880
 20
93.415732
 30
0.0
 11
520.492397
 21
93.415732
 31
0.0
  0
LINE
  5
265
100
AcDbEntity
  8
Calque_1
 62
1
100
AcDbLine
 10
520.492397
 20
93.415732
 30
0.0
 11
520.492397
 21
90.415733
 31
0.0
  0
LINE
  5
266
100
AcDbEntity
  8
Calque_1
 62
1
100
AcDbLine
 10
520.492397
 20
90.415733
 30
0.0
 11
499.357932
 21
90.415733
 31
0.0
  0
LINE
  5
267
100
AcDbEntity
  8
Calque_1
 62
1
100
AcDbLine
 10
499.357932
 20
90.415733
 30
0.0
 11
499.357932
 21
93.415732
 31
0.0
  0
LINE
  5
268
100
AcDbEntity
  8
Calque_1
 62
1
100
AcDbLine
 10
499.357932
 20
93.415732
 30
0.0
 11
478.423450
 21
93.415732
 31
0.0
  0
LINE
  5
269
100
AcDbEntity
  8
Calque_1
 62
1
100
AcDbLine
 10
478.423450
 20
93.415732
 30
0.0
 11
478.423450
 21
90.415733
 31
0.0
  0
LINE
  5
26a
100
AcDbEntity
  8
Calque_1
 62
1
100
AcDbLine
 10
478.423450
 20
90.415733
 30
0.0
 11
457.288956
 21
90.415733
 31
0.0
  0
LINE
  5
26b
100
AcDbEntity
  8
Calque_1
 62
1
100
AcDbLine
 10
457.288956
 20
90.415733
 30
0.0
 11
457.288956
 21
93.415732
 31
0.0
  0
LINE
  5
26c
100
AcDbEntity
  8
Calque_1
 62
1
100
AcDbLine
 10
457.288956
 20
93.415732
 30
0.0
 11
436.304464
 21
93.415732
 31
0.0
  0
LINE
  5
26d
100
AcDbEntity
  8
Calque_1
 62
1
100
AcDbLine
 10
436.304464
 20
93.415732
 30
0.0
 11
436.304464
 21
120.465730
 31
0.0
  0
LINE
  5
26e
100
AcDbEntity
  8
Calque_1
 62
1
100
AcDbLine
 10
436.304464
 20
120.465730
 30
0.0
 11
436.304464
 21
120.465730
 31
0.0
  0
LINE
  5
26f
100
AcDbEntity
  8
Calque_1
 62
1
100
AcDbLine
 10
1050.494639
 20
96.380643
 30
0.0
 11
1050.494639
 21
744.380651
 31
0.0
  0
LINE
  5
270
100
AcDbEntity
  8
Calque_1
 62
1
100
AcDbLine
 10
1050.494639
 20
744.380651
 30
0.0
 11
1077.444632
 21
744.380651
 31
0.0
  0
LINE
  5
271
100
AcDbEntity
  8
Calque_1
 62
1
100
AcDbLine
 10
1077.444632
 20
744.380651
 30
0.0
 11
1077.444632
 21
727.430667
 31
0.0
  0
LINE
  5
272
100
AcDbEntity
  8
Calque_1
 62
1
100
AcDbLine
 10
1077.444632
 20
727.430667
 30
0.0
 11
1080.444626
 21
727.430667
 31
0.0
  0
LINE
  5
273
100
AcDbEntity
  8
Calque_1
 62
1
100
AcDbLine
 10
1080.444626
 20
727.430667
 30
0.0
 11
1080.444626
 21
707.330659
 31
0.0
  0
LINE
  5
274
100
AcDbEntity
  8
Calque_1
 62
1
100
AcDbLine
 10
1080.444626
 20
707.330659
 30
0.0
 11
1077.444632
 21
707.330659
 31
0.0
  0
LINE
  5
275
100
AcDbEntity
  8
Calque_1
 62
1
100
AcDbLine
 10
1077.444632
 20
707.330659
 30
0.0
 11
1077.444632
 21
687.430662
 31
0.0
  0
LINE
  5
276
100
AcDbEntity
  8
Calque_1
 62
1
100
AcDbLine
 10
1077.444632
 20
687.430662
 30
0.0
 11
1080.444626
 21
687.430662
 31
0.0
  0
LINE
  5
277
100
AcDbEntity
  8
Calque_1
 62
1
100
AcDbLine
 10
1080.444626
 20
687.430662
 30
0.0
 11
1080.444626
 21
667.330654
 31
0.0
  0
LINE
  5
278
100
AcDbEntity
  8
Calque_1
 62
1
100
AcDbLine
 10
1080.444626
 20
667.330654
 30
0.0
 11
1077.444632
 21
667.330654
 31
0.0
  0
LINE
  5
279
100
AcDbEntity
  8
Calque_1
 62
1
100
AcDbLine
 10
1077.444632
 20
667.330654
 30
0.0
 11
1077.444632
 21
647.430657
 31
0.0
  0
LINE
  5
27a
100
AcDbEntity
  8
Calque_1
 62
1
100
AcDbLine
 10
1077.444632
 20
647.430657
 30
0.0
 11
1080.444626
 21
647.430657
 31
0.0
  0
LINE
  5
27b
100
AcDbEntity
  8
Calque_1
 62
1
100
AcDbLine
 10
1080.444626
 20
647.430657
 30
0.0
 11
1080.444626
 21
627.330650
 31
0.0
  0
LINE
  5
27c
100
AcDbEntity
  8
Calque_1
 62
1
100
AcDbLine
 10
1080.444626
 20
627.330650
 30
0.0
 11
1077.444632
 21
627.330650
 31
0.0
  0
LINE
  5
27d
100
AcDbEntity
  8
Calque_1
 62
1
100
AcDbLine
 10
1077.444632
 20
627.330650
 30
0.0
 11
1077.444632
 21
607.430653
 31
0.0
  0
LINE
  5
27e
100
AcDbEntity
  8
Calque_1
 62
1
100
AcDbLine
 10
1077.444632
 20
607.430653
 30
0.0
 11
1080.444626
 21
607.430653
 31
0.0
  0
LINE
  5
27f
100
AcDbEntity
  8
Calque_1
 62
1
100
AcDbLine
 10
1080.444626
 20
607.430653
 30
0.0
 11
1080.444626
 21
587.330673
 31
0.0
  0
LINE
  5
280
100
AcDbEntity
  8
Calque_1
 62
1
100
AcDbLine
 10
1080.444626
 20
587.330673
 30
0.0
 11
1077.444632
 21
587.330673
 31
0.0
  0
LINE
  5
281
100
AcDbEntity
  8
Calque_1
 62
1
100
AcDbLine
 10
1077.444632
 20
587.330673
 30
0.0
 11
1077.444632
 21
567.430640
 31
0.0
  0
LINE
  5
282
100
AcDbEntity
  8
Calque_1
 62
1
100
AcDbLine
 10
1077.444632
 20
567.430640
 30
0.0
 11
1080.444626
 21
567.430640
 31
0.0
  0
LINE
  5
283
100
AcDbEntity
  8
Calque_1
 62
1
100
AcDbLine
 10
1080.444626
 20
567.430640
 30
0.0
 11
1080.444626
 21
547.330660
 31
0.0
  0
LINE
  5
284
100
AcDbEntity
  8
Calque_1
 62
1
100
AcDbLine
 10
1080.444626
 20
547.330660
 30
0.0
 11
1077.444632
 21
547.330660
 31
0.0
  0
LINE
  5
285
100
AcDbEntity
  8
Calque_1
 62
1
100
AcDbLine
 10
1077.444632
 20
547.330660
 30
0.0
 11
1077.444632
 21
527.430663
 31
0.0
  0
LINE
  5
286
100
AcDbEntity
  8
Calque_1
 62
1
100
AcDbLine
 10
1077.444632
 20
527.430663
 30
0.0
 11
1080.444626
 21
527.430663
 31
0.0
  0
LINE
  5
287
100
AcDbEntity
  8
Calque_1
 62
1
100
AcDbLine
 10
1080.444626
 20
527.430663
 30
0.0
 11
1080.444626
 21
507.330655
 31
0.0
  0
LINE
  5
288
100
AcDbEntity
  8
Calque_1
 62
1
100
AcDbLine
 10
1080.444626
 20
507.330655
 30
0.0
 11
1077.444632
 21
507.330655
 31
0.0
  0
LINE
  5
289
100
AcDbEntity
  8
Calque_1
 62
1
100
AcDbLine
 10
1077.444632
 20
507.330655
 30
0.0
 11
1077.444632
 21
487.430658
 31
0.0
  0
LINE
  5
28a
100
AcDbEntity
  8
Calque_1
 62
1
100
AcDbLine
 10
1077.444632
 20
487.430658
 30
0.0
 11
1080.444626
 21
487.430658
 31
0.0
  0
LINE
  5
28b
100
AcDbEntity
  8
Calque_1
 62
1
100
AcDbLine
 10
1080.444626
 20
487.430658
 30
0.0
 11
1080.444626
 21
467.330648
 31
0.0
  0
LINE
  5
28c
100
AcDbEntity
  8
Calque_1
 62
1
100
AcDbLine
 10
1080.444626
 20
467.330648
 30
0.0
 11
1077.444632
 21
467.330648
 31
0.0
  0
LINE
  5
28d
100
AcDbEntity
  8
Calque_1
 62
1
100
AcDbLine
 10
1077.444632
 20
467.330648
 30
0.0
 11
1077.444632
 21
447.430651
 31
0.0
  0
LINE
  5
28e
100
AcDbEntity
  8
Calque_1
 62
1
100
AcDbLine
 10
1077.444632
 20
447.430651
 30
0.0
 11
1080.444626
 21
447.430651
 31
0.0
  0
LINE
  5
28f
100
AcDbEntity
  8
Calque_1
 62
1
100
AcDbLine
 10
1080.444626
 20
447.430651
 30
0.0
 11
1080.444626
 21
427.330643
 31
0.0
  0
LINE
  5
290
100
AcDbEntity
  8
Calque_1
 62
1
100
AcDbLine
 10
1080.444626
 20
427.330643
 30
0.0
 11
1077.444632
 21
427.330643
 31
0.0
  0
LINE
  5
291
100
AcDbEntity
  8
Calque_1
 62
1
100
AcDbLine
 10
1077.444632
 20
427.330643
 30
0.0
 11
1077.444632
 21
407.430646
 31
0.0
  0
LINE
  5
292
100
AcDbEntity
  8
Calque_1
 62
1
100
AcDbLine
 10
1077.444632
 20
407.430646
 30
0.0
 11
1080.444626
 21
407.430646
 31
0.0
  0
LINE
  5
293
100
AcDbEntity
  8
Calque_1
 62
1
100
AcDbLine
 10
1080.444626
 20
407.430646
 30
0.0
 11
1080.444626
 21
387.330638
 31
0.0
  0
LINE
  5
294
100
AcDbEntity
  8
Calque_1
 62
1
100
AcDbLine
 10
1080.444626
 20
387.330638
 30
0.0
 11
1077.444632
 21
387.330638
 31
0.0
  0
LINE
  5
295
100
AcDbEntity
  8
Calque_1
 62
1
100
AcDbLine
 10
1077.444632
 20
387.330638
 30
0.0
 11
1077.444632
 21
367.430642
 31
0.0
  0
LINE
  5
296
100
AcDbEntity
  8
Calque_1
 62
1
100
AcDbLine
 10
1077.444632
 20
367.430642
 30
0.0
 11
1080.444626
 21
367.430642
 31
0.0
  0
LINE
  5
297
100
AcDbEntity
  8
Calque_1
 62
1
100
AcDbLine
 10
1080.444626
 20
367.430642
 30
0.0
 11
1080.444626
 21
347.330668
 31
0.0
  0
LINE
  5
298
100
AcDbEntity
  8
Calque_1
 62
1
100
AcDbLine
 10
1080.444626
 20
347.330668
 30
0.0
 11
1077.444632
 21
347.330668
 31
0.0
  0
LINE
  5
299
100
AcDbEntity
  8
Calque_1
 62
1
100
AcDbLine
 10
1077.444632
 20
347.330668
 30
0.0
 11
1077.444632
 21
327.430643
 31
0.0
  0
LINE
  5
29a
100
AcDbEntity
  8
Calque_1
 62
1
100
AcDbLine
 10
1077.444632
 20
327.430643
 30
0.0
 11
1080.444626
 21
327.430643
 31
0.0
  0
LINE
  5
29b
100
AcDbEntity
  8
Calque_1
 62
1
100
AcDbLine
 10
1080.444626
 20
327.430643
 30
0.0
 11
1080.444626
 21
307.330662
 31
0.0
  0
LINE
  5
29c
100
AcDbEntity
  8
Calque_1
 62
1
100
AcDbLine
 10
1080.444626
 20
307.330662
 30
0.0
 11
1077.444632
 21
307.330662
 31
0.0
  0
LINE
  5
29d
100
AcDbEntity
  8
Calque_1
 62
1
100
AcDbLine
 10
1077.444632
 20
307.330662
 30
0.0
 11
1077.444632
 21
287.430666
 31
0.0
  0
LINE
  5
29e
100
AcDbEntity
  8
Calque_1
 62
1
100
AcDbLine
 10
1077.444632
 20
287.430666
 30
0.0
 11
1080.444626
 21
287.430666
 31
0.0
  0
LINE
  5
29f
100
AcDbEntity
  8
Calque_1
 62
1
100
AcDbLine
 10
1080.444626
 20
287.430666
 30
0.0
 11
1080.444626
 21
267.330658
 31
0.0
  0
LINE
  5
2a0
100
AcDbEntity
  8
Calque_1
 62
1
100
AcDbLine
 10
1080.444626
 20
267.330658
 30
0.0
 11
1077.444632
 21
267.330658
 31
0.0
  0
LINE
  5
2a1
100
AcDbEntity
  8
Calque_1
 62
1
100
AcDbLine
 10
1077.444632
 20
267.330658
 30
0.0
 11
1077.444632
 21
247.430661
 31
0.0
  0
LINE
  5
2a2
100
AcDbEntity
  8
Calque_1
 62
1
100
AcDbLine
 10
1077.444632
 20
247.430661
 30
0.0
 11
1080.444626
 21
247.430661
 31
0.0
  0
LINE
  5
2a3
100
AcDbEntity
  8
Calque_1
 62
1
100
AcDbLine
 10
1080.444626
 20
247.430661
 30
0.0
 11
1080.444626
 21
227.330654
 31
0.0
  0
LINE
  5
2a4
100
AcDbEntity
  8
Calque_1
 62
1
100
AcDbLine
 10
1080.444626
 20
227.330654
 30
0.0
 11
1077.444632
 21
227.330654
 31
0.0
  0
LINE
  5
2a5
100
AcDbEntity
  8
Calque_1
 62
1
100
AcDbLine
 10
1077.444632
 20
227.330654
 30
0.0
 11
1077.444632
 21
207.430657
 31
0.0
  0
LINE
  5
2a6
100
AcDbEntity
  8
Calque_1
 62
1
100
AcDbLine
 10
1077.444632
 20
207.430657
 30
0.0
 11
1080.444626
 21
207.430657
 31
0.0
  0
LINE
  5
2a7
100
AcDbEntity
  8
Calque_1
 62
1
100
AcDbLine
 10
1080.444626
 20
207.430657
 30
0.0
 11
1080.444626
 21
187.330649
 31
0.0
  0
LINE
  5
2a8
100
AcDbEntity
  8
Calque_1
 62
1
100
AcDbLine
 10
1080.444626
 20
187.330649
 30
0.0
 11
1077.444632
 21
187.330649
 31
0.0
  0
LINE
  5
2a9
100
AcDbEntity
  8
Calque_1
 62
1
100
AcDbLine
 10
1077.444632
 20
187.330649
 30
0.0
 11
1077.444632
 21
167.430652
 31
0.0
  0
LINE
  5
2aa
100
AcDbEntity
  8
Calque_1
 62
1
100
AcDbLine
 10
1077.444632
 20
167.430652
 30
0.0
 11
1080.444626
 21
167.430652
 31
0.0
  0
LINE
  5
2ab
100
AcDbEntity
  8
Calque_1
 62
1
100
AcDbLine
 10
1080.444626
 20
167.430652
 30
0.0
 11
1080.444626
 21
147.330644
 31
0.0
  0
LINE
  5
2ac
100
AcDbEntity
  8
Calque_1
 62
1
100
AcDbLine
 10
1080.444626
 20
147.330644
 30
0.0
 11
1077.444632
 21
147.330644
 31
0.0
  0
LINE
  5
2ad
100
AcDbEntity
  8
Calque_1
 62
1
100
AcDbLine
 10
1077.444632
 20
147.330644
 30
0.0
 11
1077.444632
 21
127.430647
 31
0.0
  0
LINE
  5
2ae
100
AcDbEntity
  8
Calque_1
 62
1
100
AcDbLine
 10
1077.444632
 20
127.430647
 30
0.0
 11
1080.444626
 21
127.430647
 31
0.0
  0
LINE
  5
2af
100
AcDbEntity
  8
Calque_1
 62
1
100
AcDbLine
 10
1080.444626
 20
127.430647
 30
0.0
 11
1080.444626
 21
107.330668
 31
0.0
  0
LINE
  5
2b0
100
AcDbEntity
  8
Calque_1
 62
1
100
AcDbLine
 10
1080.444626
 20
107.330668
 30
0.0
 11
1077.444632
 21
107.330668
 31
0.0
  0
LINE
  5
2b1
100
AcDbEntity
  8
Calque_1
 62
1
100
AcDbLine
 10
1077.444632
 20
107.330668
 30
0.0
 11
1077.444632
 21
90.380655
 31
0.0
  0
LINE
  5
2b2
100
AcDbEntity
  8
Calque_1
 62
1
100
AcDbLine
 10
1077.444632
 20
90.380655
 30
0.0
 11
1050.494639
 21
90.380655
 31
0.0
  0
LINE
  5
2b3
100
AcDbEntity
  8
Calque_1
 62
1
100
AcDbLine
 10
1050.494639
 20
90.380655
 30
0.0
 11
1050.494639
 21
96.380643
 31
0.0
  0
LINE
  5
2b4
100
AcDbEntity
  8
Calque_1
 62
1
100
AcDbLine
 10
439.304458
 20
87.465731
 30
0.0
 11
1087.304460
 21
87.465731
 31
0.0
  0
LINE
  5
2b5
100
AcDbEntity
  8
Calque_1
 62
1
100
AcDbLine
 10
1087.304460
 20
87.465731
 30
0.0
 11
1087.304460
 21
60.515730
 31
0.0
  0
LINE
  5
2b6
100
AcDbEntity
  8
Calque_1
 62
1
100
AcDbLine
 10
1087.304460
 20
60.515730
 30
0.0
 11
1070.354476
 21
60.515730
 31
0.0
  0
LINE
  5
2b7
100
AcDbEntity
  8
Calque_1
 62
1
100
AcDbLine
 10
1070.354476
 20
60.515730
 30
0.0
 11
1070.354476
 21
57.515731
 31
0.0
  0
LINE
  5
2b8
100
AcDbEntity
  8
Calque_1
 62
1
100
AcDbLine
 10
1070.354476
 20
57.515731
 30
0.0
 11
1050.254468
 21
57.515731
 31
0.0
  0
LINE
  5
2b9
100
AcDbEntity
  8
Calque_1
 62
1
100
AcDbLine
 10
1050.254468
 20
57.515731
 30
0.0
 11
1050.254468
 21
60.515730
 31
0.0
  0
LINE
  5
2ba
100
AcDbEntity
  8
Calque_1
 62
1
100
AcDbLine
 10
1050.254468
 20
60.515730
 30
0.0
 11
1030.354471
 21
60.515730
 31
0.0
  0
LINE
  5
2bb
100
AcDbEntity
  8
Calque_1
 62
1
100
AcDbLine
 10
1030.354471
 20
60.515730
 30
0.0
 11
1030.354471
 21
57.515731
 31
0.0
  0
LINE
  5
2bc
100
AcDbEntity
  8
Calque_1
 62
1
100
AcDbLine
 10
1030.354471
 20
57.515731
 30
0.0
 11
1010.254464
 21
57.515731
 31
0.0
  0
LINE
  5
2bd
100
AcDbEntity
  8
Calque_1
 62
1
100
AcDbLine
 10
1010.254464
 20
57.515731
 30
0.0
 11
1010.254464
 21
60.515730
 31
0.0
  0
LINE
  5
2be
100
AcDbEntity
  8
Calque_1
 62
1
100
AcDbLine
 10
1010.254464
 20
60.515730
 30
0.0
 11
990.354467
 21
60.515730
 31
0.0
  0
LINE
  5
2bf
100
AcDbEntity
  8
Calque_1
 62
1
100
AcDbLine
 10
990.354467
 20
60.515730
 30
0.0
 11
990.354467
 21
57.515731
 31
0.0
  0
LINE
  5
2c0
100
AcDbEntity
  8
Calque_1
 62
1
100
AcDbLine
 10
990.354467
 20
57.515731
 30
0.0
 11
970.254459
 21
57.515731
 31
0.0
  0
LINE
  5
2c1
100
AcDbEntity
  8
Calque_1
 62
1
100
AcDbLine
 10
970.254459
 20
57.515731
 30
0.0
 11
970.254459
 21
60.515730
 31
0.0
  0
LINE
  5
2c2
100
AcDbEntity
  8
Calque_1
 62
1
100
AcDbLine
 10
970.254459
 20
60.515730
 30
0.0
 11
950.354462
 21
60.515730
 31
0.0
  0
LINE
  5
2c3
100
AcDbEntity
  8
Calque_1
 62
1
100
AcDbLine
 10
950.354462
 20
60.515730
 30
0.0
 11
950.354462
 21
57.515731
 31
0.0
  0
LINE
  5
2c4
100
AcDbEntity
  8
Calque_1
 62
1
100
AcDbLine
 10
950.354462
 20
57.515731
 30
0.0
 11
930.254482
 21
57.515731
 31
0.0
  0
LINE
  5
2c5
100
AcDbEntity
  8
Calque_1
 62
1
100
AcDbLine
 10
930.254482
 20
57.515731
 30
0.0
 11
930.254482
 21
60.515730
 31
0.0
  0
LINE
  5
2c6
100
AcDbEntity
  8
Calque_1
 62
1
100
AcDbLine
 10
930.254482
 20
60.515730
 30
0.0
 11
910.354457
 21
60.515730
 31
0.0
  0
LINE
  5
2c7
100
AcDbEntity
  8
Calque_1
 62
1
100
AcDbLine
 10
910.354457
 20
60.515730
 30
0.0
 11
910.354457
 21
57.515731
 31
0.0
  0
LINE
  5
2c8
100
AcDbEntity
  8
Calque_1
 62
1
100
AcDbLine
 10
910.354457
 20
57.515731
 30
0.0
 11
890.254478
 21
57.515731
 31
0.0
  0
LINE
  5
2c9
100
AcDbEntity
  8
Calque_1
 62
1
100
AcDbLine
 10
890.254478
 20
57.515731
 30
0.0
 11
890.254478
 21
60.515730
 31
0.0
  0
LINE
  5
2ca
100
AcDbEntity
  8
Calque_1
 62
1
100
AcDbLine
 10
890.254478
 20
60.515730
 30
0.0
 11
870.354481
 21
60.515730
 31
0.0
  0
LINE
  5
2cb
100
AcDbEntity
  8
Calque_1
 62
1
100
AcDbLine
 10
870.354481
 20
60.515730
 30
0.0
 11
870.354481
 21
57.515731
 31
0.0
  0
LINE
  5
2cc
100
AcDbEntity
  8
Calque_1
 62
1
100
AcDbLine
 10
870.354481
 20
57.515731
 30
0.0
 11
850.254473
 21
57.515731
 31
0.0
  0
LINE
  5
2cd
100
AcDbEntity
  8
Calque_1
 62
1
100
AcDbLine
 10
850.254473
 20
57.515731
 30
0.0
 11
850.254473
 21
60.515730
 31
0.0
  0
LINE
  5
2ce
100
AcDbEntity
  8
Calque_1
 62
1
100
AcDbLine
 10
850.254473
 20
60.515730
 30
0.0
 11
830.354476
 21
60.515730
 31
0.0
  0
LINE
  5
2cf
100
AcDbEntity
  8
Calque_1
 62
1
100
AcDbLine
 10
830.354476
 20
60.515730
 30
0.0
 11
830.354476
 21
57.515731
 31
0.0
  0
LINE
  5
2d0
100
AcDbEntity
  8
Calque_1
 62
1
100
AcDbLine
 10
830.354476
 20
57.515731
 30
0.0
 11
810.254468
 21
57.515731
 31
0.0
  0
LINE
  5
2d1
100
AcDbEntity
  8
Calque_1
 62
1
100
AcDbLine
 10
810.254468
 20
57.515731
 30
0.0
 11
810.254468
 21
60.515730
 31
0.0
  0
LINE
  5
2d2
100
AcDbEntity
  8
Calque_1
 62
1
100
AcDbLine
 10
810.254468
 20
60.515730
 30
0.0
 11
790.354472
 21
60.515730
 31
0.0
  0
LINE
  5
2d3
100
AcDbEntity
  8
Calque_1
 62
1
100
AcDbLine
 10
790.354472
 20
60.515730
 30
0.0
 11
790.354472
 21
57.515731
 31
0.0
  0
LINE
  5
2d4
100
AcDbEntity
  8
Calque_1
 62
1
100
AcDbLine
 10
790.354472
 20
57.515731
 30
0.0
 11
770.254464
 21
57.515731
 31
0.0
  0
LINE
  5
2d5
100
AcDbEntity
  8
Calque_1
 62
1
100
AcDbLine
 10
770.254464
 20
57.515731
 30
0.0
 11
770.254464
 21
60.515730
 31
0.0
  0
LINE
  5
2d6
100
AcDbEntity
  8
Calque_1
 62
1
100
AcDbLine
 10
770.254464
 20
60.515730
 30
0.0
 11
750.354467
 21
60.515730
 31
0.0
  0
LINE
  5
2d7
100
AcDbEntity
  8
Calque_1
 62
1
100
AcDbLine
 10
750.354467
 20
60.515730
 30
0.0
 11
750.354467
 21
57.515731
 31
0.0
  0
LINE
  5
2d8
100
AcDbEntity
  8
Calque_1
 62
1
100
AcDbLine
 10
750.354467
 20
57.515731
 30
0.0
 11
730.254459
 21
57.515731
 31
0.0
  0
LINE
  5
2d9
100
AcDbEntity
  8
Calque_1
 62
1
100
AcDbLine
 10
730.254459
 20
57.515731
 30
0.0
 11
730.254459
 21
60.515730
 31
0.0
  0
LINE
  5
2da
100
AcDbEntity
  8
Calque_1
 62
1
100
AcDbLine
 10
730.254459
 20
60.515730
 30
0.0
 11
710.354462
 21
60.515730
 31
0.0
  0
LINE
  5
2db
100
AcDbEntity
  8
Calque_1
 62
1
100
AcDbLine
 10
710.354462
 20
60.515730
 30
0.0
 11
710.354462
 21
57.515731
 31
0.0
  0
LINE
  5
2dc
100
AcDbEntity
  8
Calque_1
 62
1
100
AcDbLine
 10
710.354462
 20
57.515731
 30
0.0
 11
690.254483
 21
57.515731
 31
0.0
  0
LINE
  5
2dd
100
AcDbEntity
  8
Calque_1
 62
1
100
AcDbLine
 10
690.254483
 20
57.515731
 30
0.0
 11
690.254483
 21
60.515730
 31
0.0
  0
LINE
  5
2de
100
AcDbEntity
  8
Calque_1
 62
1
100
AcDbLine
 10
690.254483
 20
60.515730
 30
0.0
 11
670.354458
 21
60.515730
 31
0.0
  0
LINE
  5
2df
100
AcDbEntity
  8
Calque_1
 62
1
100
AcDbLine
 10
670.354458
 20
60.515730
 30
0.0
 11
670.354458
 21
57.515731
 31
0.0
  0
LINE
  5
2e0
100
AcDbEntity
  8
Calque_1
 62
1
100
AcDbLine
 10
670.354458
 20
57.515731
 30
0.0
 11
650.254478
 21
57.515731
 31
0.0
  0
LINE
  5
2e1
100
AcDbEntity
  8
Calque_1
 62
1
100
AcDbLine
 10
650.254478
 20
57.515731
 30
0.0
 11
650.254478
 21
60.515730
 31
0.0
  0
LINE
  5
2e2
100
AcDbEntity
  8
Calque_1
 62
1
100
AcDbLine
 10
650.254478
 20
60.515730
 30
0.0
 11
630.354481
 21
60.515730
 31
0.0
  0
LINE
  5
2e3
100
AcDbEntity
  8
Calque_1
 62
1
100
AcDbLine
 10
630.354481
 20
60.515730
 30
0.0
 11
630.354481
 21
57.515731
 31
0.0
  0
LINE
  5
2e4
100
AcDbEntity
  8
Calque_1
 62
1
100
AcDbLine
 10
630.354481
 20
57.515731
 30
0.0
 11
610.254473
 21
57.515731
 31
0.0
  0
LINE
  5
2e5
100
AcDbEntity
  8
Calque_1
 62
1
100
AcDbLine
 10
610.254473
 20
57.515731
 30
0.0
 11
610.254473
 21
60.515730
 31
0.0
  0
LINE
  5
2e6
100
AcDbEntity
  8
Calque_1
 62
1
100
AcDbLine
 10
610.254473
 20
60.515730
 30
0.0
 11
590.354476
 21
60.515730
 31
0.0
  0
LINE
  5
2e7
100
AcDbEntity
  8
Calque_1
 62
1
100
AcDbLine
 10
590.354476
 20
60.515730
 30
0.0
 11
590.354476
 21
57.515731
 31
0.0
  0
LINE
  5
2e8
100
AcDbEntity
  8
Calque_1
 62
1
100
AcDbLine
 10
590.354476
 20
57.515731
 30
0.0
 11
570.254469
 21
57.515731
 31
0.0
  0
LINE
  5
2e9
100
AcDbEntity
  8
Calque_1
 62
1
100
AcDbLine
 10
570.254469
 20
57.515731
 30
0.0
 11
570.254469
 21
60.515730
 31
0.0
  0
LINE
  5
2ea
100
AcDbEntity
  8
Calque_1
 62
1
100
AcDbLine
 10
570.254469
 20
60.515730
 30
0.0
 11
550.354472
 21
60.515730
 31
0.0
  0
LINE
  5
2eb
100
AcDbEntity
  8
Calque_1
 62
1
100
AcDbLine
 10
550.354472
 20
60.515730
 30
0.0
 11
550.354472
 21
57.515731
 31
0.0
  0
LINE
  5
2ec
100
AcDbEntity
  8
Calque_1
 62
1
100
AcDbLine
 10
550.354472
 20
57.515731
 30
0.0
 11
530.254464
 21
57.515731
 31
0.0
  0
LINE
  5
2ed
100
AcDbEntity
  8
Calque_1
 62
1
100
AcDbLine
 10
530.254464
 20
57.515731
 30
0.0
 11
530.254464
 21
60.515730
 31
0.0
  0
LINE
  5
2ee
100
AcDbEntity
  8
Calque_1
 62
1
100
AcDbLine
 10
530.254464
 20
60.515730
 30
0.0
 11
510.354467
 21
60.515730
 31
0.0
  0
LINE
  5
2ef
100
AcDbEntity
  8
Calque_1
 62
1
100
AcDbLine
 10
510.354467
 20
60.515730
 30
0.0
 11
510.354467
 21
57.515731
 31
0.0
  0
LINE
  5
2f0
100
AcDbEntity
  8
Calque_1
 62
1
100
AcDbLine
 10
510.354467
 20
57.515731
 30
0.0
 11
490.254459
 21
57.515731
 31
0.0
  0
LINE
  5
2f1
100
AcDbEntity
  8
Calque_1
 62
1
100
AcDbLine
 10
490.254459
 20
57.515731
 30
0.0
 11
490.254459
 21
60.515730
 31
0.0
  0
LINE
  5
2f2
100
AcDbEntity
  8
Calque_1
 62
1
100
AcDbLine
 10
490.254459
 20
60.515730
 30
0.0
 11
470.354462
 21
60.515730
 31
0.0
  0
LINE
  5
2f3
100
AcDbEntity
  8
Calque_1
 62
1
100
AcDbLine
 10
470.354462
 20
60.515730
 30
0.0
 11
470.354462
 21
57.515731
 31
0.0
  0
LINE
  5
2f4
100
AcDbEntity
  8
Calque_1
 62
1
100
AcDbLine
 10
470.354462
 20
57.515731
 30
0.0
 11
450.254483
 21
57.515731
 31
0.0
  0
LINE
  5
2f5
100
AcDbEntity
  8
Calque_1
 62
1
100
AcDbLine
 10
450.254483
 20
57.515731
 30
0.0
 11
450.254483
 21
60.515730
 31
0.0
  0
LINE
  5
2f6
100
AcDbEntity
  8
Calque_1
 62
1
100
AcDbLine
 10
450.254483
 20
60.515730
 30
0.0
 11
433.304470
 21
60.515730
 31
0.0
  0
LINE
  5
2f7
100
AcDbEntity
  8
Calque_1
 62
1
100
AcDbLine
 10
433.304470
 20
60.515730
 30
0.0
 11
433.304470
 21
87.465731
 31
0.0
  0
LINE
  5
2f8
100
AcDbEntity
  8
Calque_1
 62
1
100
AcDbLine
 10
433.304470
 20
87.465731
 30
0.0
 11
439.304458
 21
87.465731
 31
0.0
  0
LINE
  5
2f9
100
AcDbEntity
  8
Calque_1
 62
7
100
AcDbLine
 10
516.354455
 20
703.415729
 30
0.0
 11
966.254467
 21
703.415729
 31
0.0
  0
LINE
  5
2fa
100
AcDbEntity
  8
Calque_1
 62
7
100
AcDbLine
 10
966.254467
 20
703.415729
 30
0.0
 11
966.254467
 21
203.515732
 31
0.0
  0
LINE
  5
2fb
100
AcDbEntity
  8
Calque_1
 62
7
100
AcDbLine
 10
966.254467
 20
203.515732
 30
0.0
 11
516.354455
 21
203.515732
 31
0.0
  0
LINE
  5
2fc
100
AcDbEntity
  8
Calque_1
 62
7
100
AcDbLine
 10
516.354455
 20
203.515732
 30
0.0
 11
516.354455
 21
703.415729
 31
0.0
  0
ENDSEC
  0
SECTION
  2
OBJECTS
  0
DICTIONARY
  5
C
330
0
100
AcDbDictionary
  3
ACAD_GROUP
350
D
  3
ACAD_MLINESTYLE
350
17
  0
DICTIONARY
  5
D
330
C
100
AcDbDictionary
  0
DICTIONARY
  5
1A
330
C
100
AcDbDictionary
  0
DICTIONARY
  5
17
330
C
100
AcDbDictionary
  3
STANDARD
350
18
  0
DICTIONARY
  5
19
330
C
100
AcDbDictionary
  0
ENDSEC
  0
EOF
