<?xml version="1.0" encoding="UTF-8" standalone="no"?>
<!-- Created with Inkscape (http://www.inkscape.org/) -->

<svg
   xmlns:dc="http://purl.org/dc/elements/1.1/"
   xmlns:cc="http://creativecommons.org/ns#"
   xmlns:rdf="http://www.w3.org/1999/02/22-rdf-syntax-ns#"
   xmlns:svg="http://www.w3.org/2000/svg"
   xmlns="http://www.w3.org/2000/svg"
   xmlns:sodipodi="http://sodipodi.sourceforge.net/DTD/sodipodi-0.dtd"
   xmlns:inkscape="http://www.inkscape.org/namespaces/inkscape"
   width="1280mm"
   height="880mm"
   viewBox="0 0 4535.4331 3118.1103"
   id="svg4240"
   version="1.1"
   inkscape:version="0.91 r13725"
   sodipodi:docname="velleda1.svg">
  <sodipodi:namedview
     id="base"
     pagecolor="#ffffff"
     bordercolor="#666666"
     borderopacity="1.0"
     inkscape:pageopacity="0.0"
     inkscape:pageshadow="2"
     inkscape:zoom="0.30522461"
     inkscape:cx="3544.3281"
     inkscape:cy="1108.7583"
     inkscape:document-units="mm"
     inkscape:current-layer="layer1"
     showgrid="false"
     inkscape:window-width="2495"
     inkscape:window-height="1416"
     inkscape:window-x="1345"
     inkscape:window-y="24"
     inkscape:window-maximized="1" />
  <title
     id="title4788">Découpage Laser</title>
  <defs
     id="defs4242" />
  <metadata
     id="metadata4245">
    <rdf:RDF>
      <cc:Work
         rdf:about="">
        <dc:format>image/svg+xml</dc:format>
        <dc:type
           rdf:resource="http://purl.org/dc/dcmitype/StillImage" />
        <dc:title>Découpage Laser</dc:title>
        <dc:creator>
          <cc:Agent>
            <dc:title />
          </cc:Agent>
        </dc:creator>
        <dc:publisher>
          <cc:Agent>
            <dc:title>Fablab Lannion</dc:title>
          </cc:Agent>
        </dc:publisher>
        <dc:source>http://fablab-lannion.org:8080/wiki/index.php?title=Chaine_logiciel_pour_d%C3%A9coupeuse_laser#Inkscape</dc:source>
        <dc:contributor>
          <cc:Agent>
            <dc:title>JJL</dc:title>
          </cc:Agent>
        </dc:contributor>
        <cc:license
           rdf:resource="http://creativecommons.org/licenses/by-sa/3.0/" />
      </cc:Work>
      <cc:License
         rdf:about="http://creativecommons.org/licenses/by-sa/3.0/">
        <cc:permits
           rdf:resource="http://creativecommons.org/ns#Reproduction" />
        <cc:permits
           rdf:resource="http://creativecommons.org/ns#Distribution" />
        <cc:requires
           rdf:resource="http://creativecommons.org/ns#Notice" />
        <cc:requires
           rdf:resource="http://creativecommons.org/ns#Attribution" />
        <cc:permits
           rdf:resource="http://creativecommons.org/ns#DerivativeWorks" />
        <cc:requires
           rdf:resource="http://creativecommons.org/ns#ShareAlike" />
      </cc:License>
    </rdf:RDF>
  </metadata>
  <g
     inkscape:label="Calque 1"
     inkscape:groupmode="layer"
     id="layer1"
     transform="translate(0,2065.7481)">
    <path
       style="fill:none;stroke:#ff0000"
       id="box_bottom"
       d="m 1545.9607,-1723.6975 74.7088,0 0,10.6299 74.1773,0 0,-10.6299 74.886,0 0,10.6299 74.1773,0 0,-10.6299 74.8859,0 0,10.6299 74.1773,0 0,-10.6299 74.886,0 0,10.6299 74.1773,0 0,-10.6299 74.886,0 0,10.6299 74.1773,0 0,-10.6299 74.8859,0 0,10.6299 74.1773,0 0,-10.6299 74.886,0 0,10.6299 74.1773,0 0,-10.6299 74.886,0 0,10.6299 74.1773,0 0,-10.6299 74.8859,0 0,10.6299 74.1773,0 0,-10.6299 74.886,0 0,10.6299 74.1773,0 0,-10.6299 74.886,0 0,10.6299 74.1773,0 0,-10.6299 74.8859,0 0,10.6299 74.1773,0 0,-10.6299 74.886,0 0,10.6299 74.1773,0 0,-10.6299 74.8859,0 0,10.6299 74.1773,0 0,-10.6299 74.7088,0 0,71.0433 -10.6299,0 0,70.5118 10.6299,0 0,71.2204 -10.6299,0 0,70.5119 10.6299,0 0,71.2204 -10.6299,0 0,70.5118 10.6299,0 0,71.2205 -10.6299,0 0,70.5118 10.6299,0 0,71.2205 -10.6299,0 0,70.5118 10.6299,0 0,71.22048 -10.6299,0 0,70.51181 10.6299,0 0,71.22048 -10.6299,0 0,70.51181 10.6299,0 0,71.22047 -10.6299,0 0,70.51181 10.6299,0 0,71.22047 -10.6299,0 0,70.51181 10.6299,0 0,71.22048 -10.6299,0 0,70.51181 10.6299,0 0,71.22047 -10.6299,0 0,70.51181 10.6299,0 0,71.220472 -10.6299,0 0,70.511811 10.6299,0 0,71.220473 -10.6299,0 0,70.511814 10.6299,0 0,71.22047 -10.6299,0 0,70.51181 10.6299,0 0,71.22047 -10.6299,0 0,70.51181 10.6299,0 0,71.22048 -10.6299,0 0,70.51181 10.6299,0 0,71.0433 -74.7088,0 0,-10.62992 -74.1773,0 0,10.62992 -74.8859,0 0,-10.62992 -74.1773,0 0,10.62992 -74.886,0 0,-10.62992 -74.1773,0 0,10.62992 -74.8859,0 0,-10.62992 -74.1773,0 0,10.62992 -74.886,0 0,-10.62992 -74.1773,0 0,10.62992 -74.886,0 0,-10.62992 -74.1773,0 0,10.62992 -74.8859,0 0,-10.62992 -74.1773,0 0,10.62992 -74.886,0 0,-10.62992 -74.1773,0 0,10.62992 -74.886,0 0,-10.62992 -74.1773,0 0,10.62992 -74.8859,0 0,-10.62992 -74.1773,0 0,10.62992 -74.886,0 0,-10.62992 -74.1773,0 0,10.62992 -74.886,0 0,-10.62992 -74.1773,0 0,10.62992 -74.8859,0 0,-10.62992 -74.1773,0 0,10.62992 -74.886,0 0,-10.62992 -74.1773,0 0,10.62992 -74.7088,0 0,-71.0433 10.6299,0 0,-70.51181 -10.6299,0 0,-71.22048 10.6299,0 0,-70.51181 -10.6299,0 0,-71.22047 10.6299,0 0,-70.51181 -10.6299,0 0,-71.22047 10.6299,0 0,-70.511814 -10.6299,0 0,-71.220473 10.6299,0 0,-70.511811 -10.6299,0 0,-71.220472 10.6299,0 0,-70.51181 -10.6299,0 0,-71.22047 10.6299,0 0,-70.51181 -10.6299,0 0,-71.22048 10.6299,0 0,-70.51181 -10.6299,0 0,-71.22047 10.6299,0 0,-70.51181 -10.6299,0 0,-71.22047 10.6299,0 0,-70.51181 -10.6299,0 0,-71.22048 10.6299,0 0,-70.51181 -10.6299,0 0,-71.22048 10.6299,0 0,-70.5118 -10.6299,0 0,-71.2205 10.6299,0 0,-70.5118 -10.6299,0 0,-71.2205 10.6299,0 0,-70.5118 -10.6299,0 0,-71.2204 10.6299,0 0,-70.5119 -10.6299,0 0,-71.2204 10.6299,0 0,-70.5118 -10.6299,0 0,-71.0433 z"
       inkscape:connector-curvature="0" />
    <path
       style="fill:none;stroke:#ff0000"
       id="box_font"
       d="m 1578.5999,-1857.902 2161.4173,0 0,95.8464 -74.3545,0 0,10.63 -74.8859,0 0,-10.63 -74.1773,0 0,10.63 -74.886,0 0,-10.63 -74.1773,0 0,10.63 -74.886,0 0,-10.63 -74.1773,0 0,10.63 -74.8859,0 0,-10.63 -74.1773,0 0,10.63 -74.886,0 0,-10.63 -74.1773,0 0,10.63 -74.886,0 0,-10.63 -74.1773,0 0,10.63 -74.8859,0 0,-10.63 -74.1773,0 0,10.63 -74.886,0 0,-10.63 -74.1773,0 0,10.63 -74.8859,0 0,-10.63 -74.1774,0 0,10.63 -74.8859,0 0,-10.63 -74.1773,0 0,10.63 -74.886,0 0,-10.63 -74.1773,0 0,10.63 -74.8859,0 0,-10.63 -74.1773,0 0,10.63 -74.886,0 0,-10.63 -74.1773,0 0,10.63 -74.886,0 0,-10.63 -74.3544,0 0,-95.8464 z"
       inkscape:connector-curvature="0" />
    <path
       style="fill:none;stroke:#ff0000"
       id="box_back"
       d="m 1545.9607,625.51506 2161.4173,0 0,95.84645 -74.3544,0 0,10.62992 -74.886,0 0,-10.62992 -74.1773,0 0,10.62992 -74.8859,0 0,-10.62992 -74.1773,0 0,10.62992 -74.886,0 0,-10.62992 -74.1773,0 0,10.62992 -74.886,0 0,-10.62992 -74.1773,0 0,10.62992 -74.8859,0 0,-10.62992 -74.1773,0 0,10.62992 -74.886,0 0,-10.62992 -74.1773,0 0,10.62992 -74.886,0 0,-10.62992 -74.1773,0 0,10.62992 -74.8859,0 0,-10.62992 -74.1773,0 0,10.62992 -74.886,0 0,-10.62992 -74.1773,0 0,10.62992 -74.886,0 0,-10.62992 -74.1773,0 0,10.62992 -74.8859,0 0,-10.62992 -74.1773,0 0,10.62992 -74.886,0 0,-10.62992 -74.1773,0 0,10.62992 -74.8859,0 0,-10.62992 -74.1773,0 0,10.62992 -74.886,0 0,-10.62992 -74.3545,0 0,-95.84645 z"
       inkscape:connector-curvature="0" />
    <path
       style="fill:none;stroke:#ff0000"
       id="box_left_side"
       d="m 3722.2251,710.85592 0,-2296.06302 95.4921,0 0,60.059 10.6299,0 0,71.2205 -10.6299,0 0,70.5118 10.6299,0 0,71.2205 -10.6299,0 0,70.5118 10.6299,0 0,71.2205 -10.6299,0 0,70.5118 10.6299,0 0,71.2204 -10.6299,0 0,70.51193 10.6299,0 0,71.2204 -10.6299,0 0,70.5118 10.6299,0 0,71.2205 -10.6299,0 0,70.5118 10.6299,0 0,71.22051 -10.6299,0 0,70.5118 10.6299,0 0,71.2205 -10.6299,0 0,70.5118 10.6299,0 0,71.2205 -10.6299,0 0,70.5118 10.6299,0 0,71.22038 -10.6299,0 0,70.5119 10.6299,0 0,71.220402 -10.6299,0 0,70.5118 10.6299,0 0,71.220498 -10.6299,0 0,70.5118 10.6299,0 0,71.2205 -10.6299,0 0,70.5118 10.6299,0 0,71.2205 -10.6299,0 0,70.5118 10.6299,0 0,71.2205 -10.6299,0 0,70.5118 10.6299,0 0,71.2204 -10.6299,0 0,60.0591 -95.4921,0 z"
       inkscape:connector-curvature="0" />
    <path
       style="fill:none;stroke:#ff0000"
       id="box_right_side"
       d="m 1556.5906,742.44419 2296.063,0 0,95.49213 -60.059,0 0,10.62992 -71.2205,0 0,-10.62992 -70.5118,0 0,10.62992 -71.2205,0 0,-10.62992 -70.5118,0 0,10.62992 -71.2205,0 0,-10.62992 -70.5118,0 0,10.62992 -71.2204,0 0,-10.62992 -70.5119,0 0,10.62992 -71.2204,0 0,-10.62992 -70.5118,0 0,10.62992 -71.2205,0 0,-10.62992 -70.5118,0 0,10.62992 -71.2205,0 0,-10.62992 -70.5118,0 0,10.62992 -71.2205,0 0,-10.62992 -70.5118,0 0,10.62992 -71.2205,0 0,-10.62992 -70.5118,0 0,10.62992 -71.2204,0 0,-10.62992 -70.5119,0 0,10.62992 -71.2204,0 0,-10.62992 -70.5118,0 0,10.62992 -71.2205,0 0,-10.62992 -70.5118,0 0,10.62992 -71.2205,0 0,-10.62992 -70.5118,0 0,10.62992 -71.2205,0 0,-10.62992 -70.5118,0 0,10.62992 -71.2205,0 0,-10.62992 -70.5118,0 0,10.62992 -71.2204,0 0,-10.62992 -60.0591,0 0,-95.49213 z"
       inkscape:connector-curvature="0" />
    <rect
       style="fill:none;fill-opacity:1;stroke:#000000;stroke-width:0.35433072;stroke-miterlimit:4;stroke-dasharray:none;stroke-opacity:1"
       id="rect49777"
       width="1594.1339"
       height="1771.2992"
       x="1829.6024"
       y="-1440.0558" />
  </g>
</svg>
